<svg width="60" height="40" viewBox="0 0 60 40" fill="none" xmlns="http://www.w3.org/2000/svg">
<g clip-path="url(#clip0_243_14971)">
<path d="M16.1631 18.1945H43.0495V49.825H16.1631V18.1945Z" fill="#B5D9F1" stroke="#264887" stroke-linecap="round" stroke-linejoin="round"/>
<path d="M29.6063 26.1025C25.202 26.1025 20.9781 27.8521 17.8639 30.9664C14.7496 34.0807 13 38.3045 13 42.7088V51.4099H19.3261V70.5981C19.9589 70.1529 20.6784 69.846 21.4377 69.6975C22.1971 69.549 22.9792 69.5622 23.7331 69.7362C24.4869 69.9102 25.1957 70.2412 25.8131 70.7075C26.4305 71.1738 26.9428 71.7649 27.3164 72.4425L27.9035 58.9547C27.9165 58.625 28.0566 58.313 28.2945 58.0843C28.5324 57.8556 28.8496 57.7279 29.1796 57.7279C29.5096 57.7279 29.8268 57.8556 30.0647 58.0843C30.3026 58.313 30.4427 58.625 30.4557 58.9547L31.0982 72.4593C31.5143 71.7043 32.1014 71.0573 32.8125 70.57C33.5237 70.0828 34.339 69.7688 35.1933 69.6533C36.0476 69.5378 36.917 69.624 37.732 69.905C38.547 70.186 39.2848 70.6539 39.8864 71.2713V51.4099H46.2125V42.7088C46.2125 38.3045 44.4629 34.0807 41.3487 30.9664C38.2344 27.8521 34.0105 26.1025 29.6063 26.1025Z" fill="white" stroke="#264887" stroke-linecap="round" stroke-linejoin="round"/>
<path d="M32.7695 33.2197L39.8866 26.8926" stroke="#264887" stroke-linecap="round" stroke-linejoin="round"/>
<path d="M19.3262 51.407V38.7548" stroke="#264887" stroke-linecap="round" stroke-linejoin="round"/>
<path d="M39.8867 51.407V38.7548" stroke="#264887" stroke-linecap="round" stroke-linejoin="round"/>
<path d="M26.4433 33.2197L19.3262 26.8926" stroke="#264887" stroke-linecap="round" stroke-linejoin="round"/>
<path d="M25.6533 39.5458L19.3262 45.8719" stroke="#264887" stroke-linecap="round" stroke-linejoin="round"/>
<path d="M33.5605 39.5458L39.8866 45.8719" stroke="#264887" stroke-linecap="round" stroke-linejoin="round"/>
<path d="M24.0713 30.85H35.1425V41.34H24.0713V30.85Z" fill="#B5D9F1" stroke="#264887" stroke-linecap="round" stroke-linejoin="round"/>
<path d="M17.7451 15.8224C17.7737 18.9496 19.036 21.9389 21.2574 24.1401C23.4788 26.3413 26.4795 27.5762 29.6068 27.5762C32.7341 27.5762 35.7348 26.3413 37.9562 24.1401C40.1776 21.9389 41.4399 18.9496 41.4685 15.8224V14.2384C41.4399 11.1113 40.1776 8.12194 37.9562 5.92074C35.7348 3.71955 32.7341 2.48462 29.6068 2.48462C26.4795 2.48462 23.4788 3.71955 21.2574 5.92074C19.036 8.12194 17.7737 11.1113 17.7451 14.2384V15.8224Z" fill="white"/>
<path d="M17.7451 15.8224C17.7737 18.9496 19.036 21.9389 21.2574 24.1401C23.4788 26.3413 26.4795 27.5762 29.6068 27.5762C32.7341 27.5762 35.7348 26.3413 37.9562 24.1401C40.1776 21.9389 41.4399 18.9496 41.4685 15.8224V14.2384C41.4399 11.1113 40.1776 8.12194 37.9562 5.92074C35.7348 3.71955 32.7341 2.48462 29.6068 2.48462C26.4795 2.48462 23.4788 3.71955 21.2574 5.92074C19.036 8.12194 17.7737 11.1113 17.7451 14.2384V15.8224Z" stroke="#264887" stroke-linecap="round" stroke-linejoin="round"/>
<path d="M27.7254 5.72251C26.2918 6.01065 24.9442 6.62641 23.7881 7.52167C22.6319 8.41694 21.6984 9.56744 21.0606 10.8833C20.4227 12.1991 20.0978 13.6446 20.1112 15.1068C20.1247 16.569 20.476 18.0083 21.1379 19.3122C21.3134 19.6596 21.5647 19.9633 21.8731 20.2007C22.1815 20.4382 22.5392 20.6035 22.9199 20.6844C25.1206 21.1362 27.3618 21.3618 29.6084 21.3576C31.856 21.362 34.0982 21.1361 36.2998 20.6834C36.6768 20.6036 37.0311 20.4405 37.3369 20.206C37.6427 19.9715 37.8921 19.6715 38.0669 19.3281C38.8762 17.7379 39.2207 15.9518 39.0611 14.1747C38.9014 12.3976 38.2441 10.7015 37.1644 9.28105C36.0846 7.86057 34.6264 6.77323 32.9568 6.14381C31.2873 5.51438 29.4741 5.36836 27.7254 5.72251Z" fill="#B5D9F1"/>
<path d="M27.7254 5.72242C26.2918 6.01056 24.9442 6.62633 23.7881 7.52159C22.6319 8.41685 21.6984 9.56735 21.0606 10.8832C20.4227 12.199 20.0978 13.6445 20.1112 15.1067C20.1247 16.5689 20.476 18.0082 21.1379 19.3121C21.3133 19.6597 21.5644 19.9634 21.8729 20.2009C22.1813 20.4384 22.5391 20.6036 22.9199 20.6843L23.1239 20.7249L35.9097 7.93804C34.8101 6.96041 33.4985 6.25144 32.0783 5.86696C30.6581 5.48248 29.168 5.433 27.7254 5.72242Z" fill="#DAECF8"/>
<path d="M27.7254 5.72251C26.2918 6.01065 24.9442 6.62641 23.7881 7.52167C22.6319 8.41694 21.6984 9.56744 21.0606 10.8833C20.4227 12.1991 20.0978 13.6446 20.1112 15.1068C20.1247 16.569 20.476 18.0083 21.1379 19.3122C21.3134 19.6596 21.5647 19.9633 21.8731 20.2007C22.1815 20.4382 22.5392 20.6035 22.9199 20.6844C25.1206 21.1362 27.3618 21.3618 29.6084 21.3576C31.856 21.362 34.0982 21.1361 36.2998 20.6834C36.6768 20.6036 37.0311 20.4405 37.3369 20.206C37.6427 19.9715 37.8921 19.6715 38.0669 19.3281C38.8762 17.7379 39.2207 15.9518 39.0611 14.1747C38.9014 12.3976 38.2441 10.7015 37.1644 9.28105C36.0846 7.86057 34.6264 6.77323 32.9568 6.14381C31.2873 5.51438 29.4741 5.36836 27.7254 5.72251Z" stroke="#264887" stroke-linecap="round" stroke-linejoin="round"/>
<path d="M28.1875 36.0808C28.1875 36.5004 28.3542 36.9028 28.6509 37.1995C28.9475 37.4961 29.3499 37.6628 29.7695 37.6628C30.1891 37.6628 30.5915 37.4961 30.8882 37.1995C31.1849 36.9028 31.3515 36.5004 31.3515 36.0808C31.3515 35.6612 31.1849 35.2588 30.8882 34.9621C30.5915 34.6655 30.1891 34.4988 29.7695 34.4988C29.3499 34.4988 28.9475 34.6655 28.6509 34.9621C28.3542 35.2588 28.1875 35.6612 28.1875 36.0808Z" fill="#D32D27" stroke="#264887" stroke-linecap="round" stroke-linejoin="round"/>
<path d="M7.57763 5.00034L6 6.9397L7.97348 8.53468L9.55111 6.59533L7.57763 5.00034Z" stroke="#B5D9F1" stroke-linecap="round" stroke-linejoin="round"/>
<path d="M8.11133 25.8416L11.4833 25.5145L8.11133 25.8416Z" fill="#B5D9F1"/>
<path d="M8.11133 25.8416L11.4833 25.5145" stroke="#B5D9F1" stroke-linecap="round"/>
<path d="M9.55619 24.0655L9.93207 27.4217L9.55619 24.0655Z" fill="#B5D9F1"/>
<path d="M9.55619 24.0655L9.93207 27.4217" stroke="#B5D9F1" stroke-linecap="round"/>
<path d="M50.5236 14.6748L48.6675 13L46.9999 14.8489L48.8561 16.5236L50.5236 14.6748Z" stroke="#B5D9F1" stroke-linecap="round" stroke-linejoin="round"/>
<path fill-rule="evenodd" clip-rule="evenodd" d="M54.25 24.5C54.9404 24.5 55.5 23.9404 55.5 23.25C55.5 22.5596 54.9404 22 54.25 22C53.5596 22 53 22.5596 53 23.25C53 23.9404 53.5596 24.5 54.25 24.5Z" stroke="#B5D9F1"/>
</g>
<defs>
<clipPath id="clip0_243_14971">
<rect width="60" height="40" fill="white"/>
</clipPath>
</defs>
</svg>
