<svg width="16" height="16" viewBox="0 0 16 16" fill="none" xmlns="http://www.w3.org/2000/svg">
<path d="M13.7313 8.93524C14.2479 8.93524 14.6666 8.51652 14.6666 8C14.6666 7.48348 14.2479 7.06475 13.7313 7.06475L8.93516 7.06475L8.93516 2.26858C8.93516 1.75206 8.51644 1.33333 7.99992 1.33333C7.4834 1.33333 7.06467 1.75206 7.06467 2.26858V7.06475H2.2685C1.75198 7.06475 1.33325 7.48348 1.33325 8C1.33325 8.51652 1.75198 8.93524 2.2685 8.93524H7.06467V13.7314C7.06467 14.2479 7.4834 14.6667 7.99992 14.6667C8.51644 14.6667 8.93516 14.2479 8.93516 13.7314V8.93524H13.7313Z" fill="#056DFF"/>
</svg>
