<svg width="100" height="100" viewBox="0 0 100 100" fill="none" xmlns="http://www.w3.org/2000/svg">
<path fill-rule="evenodd" clip-rule="evenodd" d="M50 100C77.6142 100 100 77.6142 100 50C100 22.3858 77.6142 0 50 0C22.3858 0 0 22.3858 0 50C0 77.6142 22.3858 100 50 100Z" fill="#EBF5FB"/>
<path d="M20.5557 55.474C20.5557 54.2014 21.5871 53.17 22.8596 53.17H77.5594C78.8312 53.17 79.8633 54.2014 79.8633 55.474V67.8752C79.8633 69.1478 78.8312 70.1792 77.5594 70.1792H22.8596C21.5871 70.1792 20.5557 69.1478 20.5557 67.8752V55.474Z" fill="white" stroke="#264887" stroke-width="2"/>
<path d="M20.5557 33.9706C20.5557 32.6981 21.5871 31.6666 22.8596 31.6666H77.5594C78.8312 31.6666 79.8633 32.6981 79.8633 33.9706V46.3718C79.8633 47.6444 78.8312 48.6757 77.5594 48.6757H22.8596C21.5871 48.6757 20.5557 47.6444 20.5557 46.3718V33.9706Z" fill="white" stroke="#264887" stroke-width="2" stroke-linecap="round" stroke-linejoin="round" stroke-dasharray="100 4 1 3"/>
<path d="M28.8701 40.1075C28.8701 39.5901 28.9945 39.1963 29.2418 38.9263C29.4891 38.6563 29.8416 38.5214 30.2993 38.5214C30.7532 38.5214 31.1034 38.6582 31.3507 38.9319C31.6026 39.2019 31.7278 39.5938 31.7278 40.1075C31.7278 40.6138 31.6026 41.0056 31.3507 41.2831C31.0996 41.5606 30.7494 41.6993 30.2993 41.6993C29.8493 41.6993 29.4983 41.5644 29.2472 41.2944C28.9961 41.0206 28.8701 40.625 28.8701 40.1075ZM34.7374 40.1075C34.7374 39.5901 34.8611 39.1963 35.1091 38.9263C35.3564 38.6563 35.7089 38.5214 36.1659 38.5214C36.6198 38.5214 36.9707 38.6582 37.218 38.9319C37.4691 39.2019 37.5951 39.5938 37.5951 40.1075C37.5951 40.6138 37.4691 41.0056 37.218 41.2831C36.9669 41.5606 36.6159 41.6993 36.1659 41.6993C35.7166 41.6993 35.3656 41.5644 35.1145 41.2944C34.8634 41.0206 34.7374 40.625 34.7374 40.1075ZM40.6048 40.1075C40.6048 39.5901 40.7284 39.1963 40.9757 38.9263C41.223 38.6563 41.5755 38.5214 42.0332 38.5214C42.4871 38.5214 42.8373 38.6582 43.0853 38.9319C43.3365 39.2019 43.4616 39.5938 43.4616 40.1075C43.4616 40.6138 43.3365 41.0056 43.0853 41.2831C42.8342 41.5606 42.4832 41.6993 42.0332 41.6993C41.5832 41.6993 41.233 41.5644 40.9811 41.2944C40.73 41.0206 40.6048 40.625 40.6048 40.1075ZM46.4713 40.1075C46.4713 39.5901 46.5958 39.1963 46.843 38.9263C47.0903 38.6563 47.4428 38.5214 47.9005 38.5214C48.3544 38.5214 48.7046 38.6582 48.9519 38.9319C49.2038 39.2019 49.329 39.5938 49.329 40.1075C49.329 40.6138 49.2038 41.0056 48.9519 41.2831C48.7008 41.5606 48.3506 41.6993 47.9005 41.6993C47.4505 41.6993 47.0995 41.5644 46.8484 41.2944C46.5973 41.0206 46.4713 40.625 46.4713 40.1075ZM52.3387 40.1075C52.3387 39.5901 52.4623 39.1963 52.7096 38.9263C52.9577 38.6563 53.3102 38.5214 53.7671 38.5214C54.221 38.5214 54.5719 38.6582 54.8192 38.9319C55.0704 39.2019 55.1963 39.5938 55.1963 40.1075C55.1963 40.6138 55.0704 41.0056 54.8192 41.2831C54.5681 41.5606 54.2171 41.6993 53.7671 41.6993C53.3171 41.6993 52.9669 41.5644 52.7158 41.2944C52.4646 41.0206 52.3387 40.625 52.3387 40.1075ZM58.206 40.1075C58.206 39.5901 58.3297 39.1963 58.5769 38.9263C58.8242 38.6563 59.1767 38.5214 59.6344 38.5214C60.0883 38.5214 60.4385 38.6582 60.6866 38.9319C60.9377 39.2019 61.0629 39.5938 61.0629 40.1075C61.0629 40.6138 60.9377 41.0056 60.6866 41.2831C60.4354 41.5606 60.0845 41.6993 59.6344 41.6993C59.1844 41.6993 58.8342 41.5644 58.5823 41.2944C58.3312 41.0206 58.206 40.625 58.206 40.1075ZM64.0726 40.1075C64.0726 39.5901 64.1962 39.1963 64.4443 38.9263C64.6916 38.6563 65.0441 38.5214 65.5018 38.5214C65.9556 38.5214 66.3058 38.6582 66.5531 38.9319C66.8042 39.2019 66.9302 39.5938 66.9302 40.1075C66.9302 40.6138 66.8042 41.0056 66.5531 41.2831C66.302 41.5606 65.9518 41.6993 65.5018 41.6993C65.0517 41.6993 64.7008 41.5644 64.4496 41.2944C64.1985 41.0206 64.0726 40.625 64.0726 40.1075ZM69.9399 40.1075C69.9399 39.5901 70.0635 39.1963 70.3108 38.9263C70.5589 38.6563 70.9114 38.5214 71.3683 38.5214C71.8222 38.5214 72.1732 38.6582 72.4205 38.9319C72.6716 39.2019 72.7975 39.5938 72.7975 40.1075C72.7975 40.6138 72.6716 41.0056 72.4205 41.2831C72.1693 41.5606 71.8184 41.6993 71.3683 41.6993C70.9183 41.6993 70.5681 41.5644 70.317 41.2944C70.0658 41.0206 69.9399 40.625 69.9399 40.1075Z" fill="#D32D27"/>
<mask id="path-5-inside-1_457_20808" fill="white">
<path d="M33.4863 64.4848H32.4058V61.5196H29.373V64.4848H28.2979V57.9063H29.373V60.5973H32.4058V57.9063H33.4863V64.4848ZM36.2403 64.4848H35.1828V59.5083H36.2403V64.4848ZM35.1198 58.1897C35.1198 58.0008 35.1705 57.8549 35.2726 57.7527C35.3778 57.6513 35.526 57.5999 35.718 57.5999C35.9046 57.5999 36.0483 57.6513 36.1504 57.7527C36.2556 57.8549 36.3078 58.0008 36.3078 58.1897C36.3078 58.3694 36.2556 58.5122 36.1504 58.6167C36.0483 58.7188 35.9046 58.7703 35.718 58.7703C35.526 58.7703 35.3778 58.7188 35.2726 58.6167C35.1705 58.5122 35.1198 58.3694 35.1198 58.1897ZM40.3581 64.5747C39.7276 64.5747 39.2392 64.3481 38.8913 63.895H38.8283C38.8698 64.3151 38.8913 64.57 38.8913 64.6607V66.6989H37.8338V59.5083H38.6886C38.7124 59.6012 38.7623 59.8232 38.8368 60.1741H38.8913C39.2208 59.6696 39.7161 59.4177 40.3758 59.4177C40.9971 59.4177 41.4802 59.6427 41.825 60.0927C42.1729 60.5428 42.3472 61.174 42.3472 61.9873C42.3472 62.8006 42.1698 63.435 41.8158 63.8912C41.4648 64.3466 40.9787 64.5747 40.3581 64.5747ZM40.1016 60.2817C39.6816 60.2817 39.3744 60.4053 39.1793 60.6511C38.9873 60.8968 38.8913 61.29 38.8913 61.8299V61.9873C38.8913 62.5933 38.9873 63.0326 39.1793 63.306C39.3713 63.5755 39.6846 63.7107 40.1193 63.7107C40.4856 63.7107 40.7675 63.5609 40.9656 63.2606C41.1637 62.9611 41.262 62.5334 41.262 61.9781C41.262 61.4206 41.1637 60.9989 40.9656 60.714C40.7705 60.426 40.4825 60.2817 40.1016 60.2817ZM46.1763 64.5747C45.5466 64.5747 45.0574 64.3481 44.7095 63.895H44.6465C44.6887 64.3151 44.7095 64.57 44.7095 64.6607V66.6989H43.652V59.5083H44.5067C44.5313 59.6012 44.5805 59.8232 44.6557 60.1741H44.7095C45.0397 59.6696 45.5343 59.4177 46.1947 59.4177C46.8153 59.4177 47.2983 59.6427 47.6431 60.0927C47.9918 60.5428 48.1654 61.174 48.1654 61.9873C48.1654 62.8006 47.9887 63.435 47.6347 63.8912C47.2837 64.3466 46.7976 64.5747 46.1763 64.5747ZM45.9198 60.2817C45.4997 60.2817 45.1925 60.4053 44.9975 60.6511C44.8055 60.8968 44.7095 61.29 44.7095 61.8299V61.9873C44.7095 62.5933 44.8055 63.0326 44.9975 63.306C45.1895 63.5755 45.5028 63.7107 45.9382 63.7107C46.3038 63.7107 46.5864 63.5609 46.7838 63.2606C46.9819 62.9611 47.081 62.5334 47.081 61.9781C47.081 61.4206 46.9819 60.9989 46.7838 60.714C46.5887 60.426 46.3007 60.2817 45.9198 60.2817ZM53.8853 61.9873C53.8853 62.8006 53.6764 63.435 53.2594 63.8912C52.8423 64.3466 52.2625 64.5747 51.5184 64.5747C51.053 64.5747 50.6421 64.4694 50.285 64.2598C49.9279 64.0501 49.6537 63.7483 49.4617 63.3551C49.2697 62.9627 49.1737 62.5065 49.1737 61.9873C49.1737 61.1802 49.3811 60.5505 49.795 60.0973C50.209 59.6442 50.7918 59.4177 51.5452 59.4177C52.2648 59.4177 52.8354 59.6504 53.2555 60.1158C53.6748 60.5773 53.8853 61.2017 53.8853 61.9873ZM50.2627 61.9873C50.2627 63.1362 50.6874 63.7107 51.536 63.7107C52.3762 63.7107 52.7963 63.1362 52.7963 61.9873C52.7963 60.8507 52.3731 60.2817 51.5276 60.2817C51.0829 60.2817 50.7604 60.4291 50.5599 60.7232C50.3618 61.0166 50.2627 61.4382 50.2627 61.9873ZM57.4494 57.4832L57.2651 59.2019L58.9969 58.7158L59.1236 59.6926L57.5032 59.8232L58.5653 61.2224L57.6698 61.704L56.9226 60.1826L56.2522 61.704L55.3298 61.2224L56.3697 59.8232L54.7584 59.6926L54.9159 58.7158L56.6077 59.2019L56.4234 57.4832H57.4494ZM62.1878 60.3761C62.8506 60.3761 63.3759 60.552 63.763 60.903C64.15 61.2539 64.3435 61.7324 64.3435 62.3383C64.3435 63.0402 64.1231 63.5893 63.6815 63.9856C63.2438 64.3781 62.6202 64.5747 61.81 64.5747C61.075 64.5747 60.4975 64.4564 60.0774 64.2191V63.2606C60.3209 63.3989 60.5997 63.5056 60.9145 63.5801C61.2294 63.6554 61.522 63.693 61.7923 63.693C62.2692 63.693 62.6317 63.5863 62.8805 63.3735C63.1301 63.16 63.2546 62.8482 63.2546 62.4374C63.2546 61.6517 62.7531 61.2585 61.7516 61.2585C61.6103 61.2585 61.4367 61.2731 61.2294 61.3031C61.0228 61.3307 60.8408 61.3622 60.6849 61.3975L60.2126 61.1188L60.4645 57.9063H63.8843V58.8463H61.3961L61.2478 60.4752C61.3523 60.4575 61.4798 60.4368 61.6303 60.4122C61.7831 60.3884 61.969 60.3761 62.1878 60.3761ZM72.6592 61.1595C72.6592 61.5888 72.5916 61.9812 72.4572 62.3383C72.322 62.6923 72.1316 62.968 71.8858 63.1662C71.6424 63.3643 71.3605 63.4634 71.0395 63.4634C70.8022 63.4634 70.5972 63.4004 70.4228 63.2745C70.2493 63.1485 70.1318 62.9773 70.0719 62.7615H70.0181C69.8707 62.9957 69.6894 63.1708 69.4736 63.2875C69.2578 63.405 69.0144 63.4634 68.7448 63.4634C68.2556 63.4634 67.8701 63.3059 67.5882 62.9911C67.3095 62.6762 67.1697 62.25 67.1697 61.7132C67.1697 61.0949 67.3555 60.5942 67.7272 60.2102C68.0997 59.8232 68.5989 59.6296 69.2263 59.6296C69.4537 59.6296 69.7063 59.6504 69.982 59.6926C70.2608 59.7318 70.5089 59.7871 70.7247 59.8593L70.6256 61.9512V62.0595C70.6256 62.5395 70.7815 62.7791 71.0933 62.7791C71.3306 62.7791 71.518 62.6263 71.6562 62.3206C71.7967 62.0142 71.8674 61.6241 71.8674 61.1502C71.8674 60.6372 71.7622 60.1872 71.5525 59.8001C71.3421 59.4108 71.0441 59.1105 70.6571 58.9008C70.27 58.6904 69.8261 58.5852 69.3254 58.5852C68.6857 58.5852 68.1297 58.7173 67.6558 58.9815C67.1843 59.2457 66.8249 59.6235 66.5753 60.1158C66.3265 60.6042 66.202 61.1733 66.202 61.8207C66.202 62.6908 66.4347 63.3597 66.8994 63.8282C67.3648 64.2959 68.0321 64.5301 68.9022 64.5301C69.565 64.5301 70.2562 64.3949 70.9765 64.1246V64.8626C70.3468 65.1207 69.661 65.2497 68.9199 65.2497C67.8102 65.2497 66.9447 64.951 66.3234 64.3542C65.7029 63.7545 65.3918 62.9189 65.3918 61.8476C65.3918 61.065 65.56 60.3692 65.8964 59.7602C66.232 59.1481 66.6974 58.6797 67.291 58.3563C67.8877 58.0323 68.5628 57.8702 69.3162 57.8702C69.9667 57.8702 70.5457 58.0046 71.0533 58.2749C71.5633 58.5453 71.9572 58.9308 72.2368 59.4315C72.5186 59.9292 72.6592 60.5051 72.6592 61.1595ZM68.0337 61.7308C68.0337 62.4297 68.3078 62.7791 68.8569 62.7791C69.436 62.7791 69.7524 62.3398 69.8061 61.4605L69.8607 60.3853C69.6718 60.3347 69.469 60.3085 69.2532 60.3085C68.8692 60.3085 68.5689 60.4368 68.3531 60.6918C68.1404 60.9467 68.0337 61.2931 68.0337 61.7308Z"/>
</mask>
<path d="M33.4863 64.4848H32.4058V61.5196H29.373V64.4848H28.2979V57.9063H29.373V60.5973H32.4058V57.9063H33.4863V64.4848ZM36.2403 64.4848H35.1828V59.5083H36.2403V64.4848ZM35.1198 58.1897C35.1198 58.0008 35.1705 57.8549 35.2726 57.7527C35.3778 57.6513 35.526 57.5999 35.718 57.5999C35.9046 57.5999 36.0483 57.6513 36.1504 57.7527C36.2556 57.8549 36.3078 58.0008 36.3078 58.1897C36.3078 58.3694 36.2556 58.5122 36.1504 58.6167C36.0483 58.7188 35.9046 58.7703 35.718 58.7703C35.526 58.7703 35.3778 58.7188 35.2726 58.6167C35.1705 58.5122 35.1198 58.3694 35.1198 58.1897ZM40.3581 64.5747C39.7276 64.5747 39.2392 64.3481 38.8913 63.895H38.8283C38.8698 64.3151 38.8913 64.57 38.8913 64.6607V66.6989H37.8338V59.5083H38.6886C38.7124 59.6012 38.7623 59.8232 38.8368 60.1741H38.8913C39.2208 59.6696 39.7161 59.4177 40.3758 59.4177C40.9971 59.4177 41.4802 59.6427 41.825 60.0927C42.1729 60.5428 42.3472 61.174 42.3472 61.9873C42.3472 62.8006 42.1698 63.435 41.8158 63.8912C41.4648 64.3466 40.9787 64.5747 40.3581 64.5747ZM40.1016 60.2817C39.6816 60.2817 39.3744 60.4053 39.1793 60.6511C38.9873 60.8968 38.8913 61.29 38.8913 61.8299V61.9873C38.8913 62.5933 38.9873 63.0326 39.1793 63.306C39.3713 63.5755 39.6846 63.7107 40.1193 63.7107C40.4856 63.7107 40.7675 63.5609 40.9656 63.2606C41.1637 62.9611 41.262 62.5334 41.262 61.9781C41.262 61.4206 41.1637 60.9989 40.9656 60.714C40.7705 60.426 40.4825 60.2817 40.1016 60.2817ZM46.1763 64.5747C45.5466 64.5747 45.0574 64.3481 44.7095 63.895H44.6465C44.6887 64.3151 44.7095 64.57 44.7095 64.6607V66.6989H43.652V59.5083H44.5067C44.5313 59.6012 44.5805 59.8232 44.6557 60.1741H44.7095C45.0397 59.6696 45.5343 59.4177 46.1947 59.4177C46.8153 59.4177 47.2983 59.6427 47.6431 60.0927C47.9918 60.5428 48.1654 61.174 48.1654 61.9873C48.1654 62.8006 47.9887 63.435 47.6347 63.8912C47.2837 64.3466 46.7976 64.5747 46.1763 64.5747ZM45.9198 60.2817C45.4997 60.2817 45.1925 60.4053 44.9975 60.6511C44.8055 60.8968 44.7095 61.29 44.7095 61.8299V61.9873C44.7095 62.5933 44.8055 63.0326 44.9975 63.306C45.1895 63.5755 45.5028 63.7107 45.9382 63.7107C46.3038 63.7107 46.5864 63.5609 46.7838 63.2606C46.9819 62.9611 47.081 62.5334 47.081 61.9781C47.081 61.4206 46.9819 60.9989 46.7838 60.714C46.5887 60.426 46.3007 60.2817 45.9198 60.2817ZM53.8853 61.9873C53.8853 62.8006 53.6764 63.435 53.2594 63.8912C52.8423 64.3466 52.2625 64.5747 51.5184 64.5747C51.053 64.5747 50.6421 64.4694 50.285 64.2598C49.9279 64.0501 49.6537 63.7483 49.4617 63.3551C49.2697 62.9627 49.1737 62.5065 49.1737 61.9873C49.1737 61.1802 49.3811 60.5505 49.795 60.0973C50.209 59.6442 50.7918 59.4177 51.5452 59.4177C52.2648 59.4177 52.8354 59.6504 53.2555 60.1158C53.6748 60.5773 53.8853 61.2017 53.8853 61.9873ZM50.2627 61.9873C50.2627 63.1362 50.6874 63.7107 51.536 63.7107C52.3762 63.7107 52.7963 63.1362 52.7963 61.9873C52.7963 60.8507 52.3731 60.2817 51.5276 60.2817C51.0829 60.2817 50.7604 60.4291 50.5599 60.7232C50.3618 61.0166 50.2627 61.4382 50.2627 61.9873ZM57.4494 57.4832L57.2651 59.2019L58.9969 58.7158L59.1236 59.6926L57.5032 59.8232L58.5653 61.2224L57.6698 61.704L56.9226 60.1826L56.2522 61.704L55.3298 61.2224L56.3697 59.8232L54.7584 59.6926L54.9159 58.7158L56.6077 59.2019L56.4234 57.4832H57.4494ZM62.1878 60.3761C62.8506 60.3761 63.3759 60.552 63.763 60.903C64.15 61.2539 64.3435 61.7324 64.3435 62.3383C64.3435 63.0402 64.1231 63.5893 63.6815 63.9856C63.2438 64.3781 62.6202 64.5747 61.81 64.5747C61.075 64.5747 60.4975 64.4564 60.0774 64.2191V63.2606C60.3209 63.3989 60.5997 63.5056 60.9145 63.5801C61.2294 63.6554 61.522 63.693 61.7923 63.693C62.2692 63.693 62.6317 63.5863 62.8805 63.3735C63.1301 63.16 63.2546 62.8482 63.2546 62.4374C63.2546 61.6517 62.7531 61.2585 61.7516 61.2585C61.6103 61.2585 61.4367 61.2731 61.2294 61.3031C61.0228 61.3307 60.8408 61.3622 60.6849 61.3975L60.2126 61.1188L60.4645 57.9063H63.8843V58.8463H61.3961L61.2478 60.4752C61.3523 60.4575 61.4798 60.4368 61.6303 60.4122C61.7831 60.3884 61.969 60.3761 62.1878 60.3761ZM72.6592 61.1595C72.6592 61.5888 72.5916 61.9812 72.4572 62.3383C72.322 62.6923 72.1316 62.968 71.8858 63.1662C71.6424 63.3643 71.3605 63.4634 71.0395 63.4634C70.8022 63.4634 70.5972 63.4004 70.4228 63.2745C70.2493 63.1485 70.1318 62.9773 70.0719 62.7615H70.0181C69.8707 62.9957 69.6894 63.1708 69.4736 63.2875C69.2578 63.405 69.0144 63.4634 68.7448 63.4634C68.2556 63.4634 67.8701 63.3059 67.5882 62.9911C67.3095 62.6762 67.1697 62.25 67.1697 61.7132C67.1697 61.0949 67.3555 60.5942 67.7272 60.2102C68.0997 59.8232 68.5989 59.6296 69.2263 59.6296C69.4537 59.6296 69.7063 59.6504 69.982 59.6926C70.2608 59.7318 70.5089 59.7871 70.7247 59.8593L70.6256 61.9512V62.0595C70.6256 62.5395 70.7815 62.7791 71.0933 62.7791C71.3306 62.7791 71.518 62.6263 71.6562 62.3206C71.7967 62.0142 71.8674 61.6241 71.8674 61.1502C71.8674 60.6372 71.7622 60.1872 71.5525 59.8001C71.3421 59.4108 71.0441 59.1105 70.6571 58.9008C70.27 58.6904 69.8261 58.5852 69.3254 58.5852C68.6857 58.5852 68.1297 58.7173 67.6558 58.9815C67.1843 59.2457 66.8249 59.6235 66.5753 60.1158C66.3265 60.6042 66.202 61.1733 66.202 61.8207C66.202 62.6908 66.4347 63.3597 66.8994 63.8282C67.3648 64.2959 68.0321 64.5301 68.9022 64.5301C69.565 64.5301 70.2562 64.3949 70.9765 64.1246V64.8626C70.3468 65.1207 69.661 65.2497 68.9199 65.2497C67.8102 65.2497 66.9447 64.951 66.3234 64.3542C65.7029 63.7545 65.3918 62.9189 65.3918 61.8476C65.3918 61.065 65.56 60.3692 65.8964 59.7602C66.232 59.1481 66.6974 58.6797 67.291 58.3563C67.8877 58.0323 68.5628 57.8702 69.3162 57.8702C69.9667 57.8702 70.5457 58.0046 71.0533 58.2749C71.5633 58.5453 71.9572 58.9308 72.2368 59.4315C72.5186 59.9292 72.6592 60.5051 72.6592 61.1595ZM68.0337 61.7308C68.0337 62.4297 68.3078 62.7791 68.8569 62.7791C69.436 62.7791 69.7524 62.3398 69.8061 61.4605L69.8607 60.3853C69.6718 60.3347 69.469 60.3085 69.2532 60.3085C68.8692 60.3085 68.5689 60.4368 68.3531 60.6918C68.1404 60.9467 68.0337 61.2931 68.0337 61.7308Z" fill="#264887" stroke="#264887" stroke-width="4" mask="url(#path-5-inside-1_457_20808)"/>
<path d="M90.9137 24.1818H91.7112C91.8522 24.1818 91.9875 24.2378 92.0872 24.3375C92.1869 24.4372 92.2429 24.5725 92.2429 24.7135V25.511C92.2429 25.7225 92.3269 25.9254 92.4765 26.0749C92.6261 26.2245 92.8289 26.3085 93.0404 26.3085C93.2519 26.3085 93.4548 26.2245 93.6044 26.0749C93.7539 25.9254 93.8379 25.7225 93.8379 25.511V24.7135C93.8379 24.5725 93.894 24.4372 93.9937 24.3375C94.0934 24.2378 94.2286 24.1818 94.3696 24.1818H95.1671C95.3786 24.1818 95.5815 24.0978 95.7311 23.9482C95.8806 23.7987 95.9646 23.5958 95.9646 23.3843C95.9646 23.1728 95.8806 22.9699 95.7311 22.8204C95.5815 22.6708 95.3786 22.5868 95.1671 22.5868H94.3696C94.2286 22.5868 94.0934 22.5308 93.9937 22.4311C93.894 22.3314 93.8379 22.1961 93.8379 22.0551V21.2576C93.8379 21.0461 93.7539 20.8432 93.6044 20.6937C93.4548 20.5441 93.2519 20.4601 93.0404 20.4601C92.8289 20.4601 92.6261 20.5441 92.4765 20.6937C92.3269 20.8432 92.2429 21.0461 92.2429 21.2576V22.0551C92.2429 22.1961 92.1869 22.3314 92.0872 22.4311C91.9875 22.5308 91.8522 22.5868 91.7112 22.5868H90.9137C90.7022 22.5868 90.4994 22.6708 90.3498 22.8204C90.2002 22.9699 90.1162 23.1728 90.1162 23.3843C90.1162 23.5958 90.2002 23.7987 90.3498 23.9482C90.4994 24.0978 90.7022 24.1818 90.9137 24.1818Z" fill="#B5D9F1"/>
<path d="M13.872 41.559L11.4072 43.1561L13.0044 45.6209L15.4691 44.0237L13.872 41.559Z" stroke="#B5D9F1" stroke-width="2" stroke-linecap="round" stroke-linejoin="round"/>
<path d="M24.2199 42.4574L23.6064 45.3296L26.4786 45.943L27.0921 43.0708L24.2199 42.4574Z" stroke="#B5D9F1" stroke-width="2" stroke-linecap="round" stroke-linejoin="round"/>
<path d="M9.38477 55.1115L13.2442 55.9357L9.38477 55.1115Z" fill="#EDBF0E"/>
<path d="M9.38477 55.1115L13.2442 55.9357" stroke="#B5D9F1" stroke-width="2" stroke-linecap="round"/>
<path d="M11.6446 53.6476L10.8203 57.507L11.6446 53.6476Z" fill="#EDBF0E"/>
<path d="M11.6446 53.6476L10.8203 57.507" stroke="#B5D9F1" stroke-width="2" stroke-linecap="round"/>
<path d="M93.6328 64.5479L91.4521 62.5806L89.4848 64.7612L91.6655 66.7286L93.6328 64.5479Z" stroke="#B5D9F1" stroke-width="2" stroke-linecap="round" stroke-linejoin="round"/>
<path d="M84.7744 49.6265L82.1308 52.5567L84.7744 49.6265Z" fill="#EDBF0E"/>
<path d="M84.7744 49.6265L82.1308 52.5567" stroke="#B5D9F1" stroke-width="2" stroke-linecap="round"/>
<path d="M84.9119 52.315L81.9817 49.6714L84.9119 52.315Z" fill="#EDBF0E"/>
<path d="M84.9119 52.315L81.9817 49.6714" stroke="#B5D9F1" stroke-width="2" stroke-linecap="round"/>
<path d="M44.8509 76.875H44.142C44.048 76.875 43.9579 76.8375 43.8914 76.7707C43.8249 76.7039 43.7876 76.6134 43.7876 76.5189V75.8069C43.7876 75.5236 43.6756 75.2519 43.4761 75.0516C43.2767 74.8513 43.0062 74.7388 42.7242 74.7388C42.4422 74.7388 42.1717 74.8513 41.9723 75.0516C41.7729 75.2519 41.6609 75.5236 41.6609 75.8069V76.5189C41.6609 76.6134 41.6235 76.7039 41.5571 76.7707C41.4906 76.8375 41.4004 76.875 41.3064 76.875H40.5975C40.3155 76.875 40.045 76.9875 39.8456 77.1878C39.6462 77.3881 39.5342 77.6598 39.5342 77.9431C39.5342 78.2263 39.6462 78.498 39.8456 78.6983C40.045 78.8986 40.3155 79.0112 40.5975 79.0112H41.3064C41.4004 79.0112 41.4906 79.0487 41.5571 79.1154C41.6235 79.1822 41.6609 79.2728 41.6609 79.3672V80.0793C41.6609 80.3625 41.7729 80.6342 41.9723 80.8345C42.1717 81.0348 42.4422 81.1473 42.7242 81.1473C43.0062 81.1473 43.2767 81.0348 43.4761 80.8345C43.6756 80.6342 43.7876 80.3625 43.7876 80.0793V79.3672C43.7876 79.2728 43.8249 79.1822 43.8914 79.1154C43.9579 79.0487 44.048 79.0112 44.142 79.0112H44.8509C45.133 79.0112 45.4034 78.8986 45.6028 78.6983C45.8023 78.498 45.9143 78.2263 45.9143 77.9431C45.9143 77.6598 45.8023 77.3881 45.6028 77.1878C45.4034 76.9875 45.133 76.875 44.8509 76.875Z" fill="#B5D9F1"/>
<path d="M42.6186 25.5676L42.4678 22.6345L39.5347 22.7854L39.6855 25.7185L42.6186 25.5676Z" stroke="#B5D9F1" stroke-width="2" stroke-linecap="round" stroke-linejoin="round"/>
<g filter="url(#filter0_di_457_20808)">
<path d="M89.6578 37.4991C89.6842 37.0729 89.5745 36.6494 89.3447 36.2901C89.1148 35.9309 88.7769 35.6547 88.3801 35.5017L84.5041 33.969C84.3416 33.9049 84.2016 33.7939 84.1017 33.6501C84.0017 33.5064 83.9463 33.3361 83.9423 33.1608L83.8466 28.7941C83.8552 28.3921 83.744 27.9968 83.5274 27.6587C83.3108 27.3206 82.9986 27.0552 82.6309 26.8964C82.2641 26.7442 81.8601 26.7068 81.4718 26.7891C81.0835 26.8713 80.7289 27.0694 80.4545 27.3575L78.124 29.7073C78.0065 29.8254 77.8582 29.9079 77.6962 29.9453C77.5342 29.9828 77.3649 29.9737 77.2078 29.9191L73.339 28.5733H73.323C72.9606 28.4549 72.5726 28.4398 72.2021 28.5297C71.8317 28.6197 71.4934 28.8111 71.2248 29.0827C70.9562 29.3543 70.768 29.6955 70.681 30.0682C70.5939 30.4409 70.6116 30.8305 70.732 31.1937L72.07 35.0834C72.1244 35.2412 72.1334 35.4112 72.0961 35.574C72.0588 35.7367 71.9767 35.8856 71.8591 36.0037L69.5162 38.35C69.2291 38.6253 69.0318 38.9816 68.9502 39.3718C68.8686 39.762 68.9065 40.1679 69.059 40.536C69.2216 40.8969 69.4838 41.2035 69.8146 41.4193C70.1453 41.6351 70.5308 41.7511 70.9252 41.7536L75.2973 41.8516C75.4719 41.855 75.6417 41.9103 75.7851 42.0104C75.9286 42.1105 76.0394 42.2509 76.1037 42.4141L77.626 46.3002C77.772 46.6813 78.0302 47.0087 78.3661 47.2386C78.7021 47.4686 79.0999 47.5902 79.5064 47.5872C79.5418 47.5872 79.5791 47.5872 79.6163 47.5872C80.0494 47.5693 80.4654 47.4129 80.8037 47.1406C81.142 46.8684 81.3848 46.4947 81.4966 46.0741L82.8152 41.3335C82.8562 41.1861 82.9343 41.0519 83.042 40.9437C83.1498 40.8355 83.2834 40.757 83.4302 40.7158L88.1514 39.3896C88.5705 39.2771 88.9427 39.033 89.2138 38.6928C89.4848 38.3527 89.6404 37.9344 89.6578 37.4991Z" fill="#90C6EB"/>
<path d="M81.6787 27.767C81.8652 27.7275 82.0592 27.7449 82.2363 27.8158C82.4197 27.8954 82.5766 28.0276 82.6855 28.1976C82.7949 28.3684 82.851 28.569 82.8467 28.7728V28.8158L82.9424 33.183C82.9508 33.5543 83.0681 33.9158 83.2803 34.2211C83.466 34.4883 83.7177 34.7022 84.0098 34.8431L84.1367 34.8988L88.0127 36.432L88.0205 36.4349C88.218 36.5111 88.3867 36.6492 88.502 36.8295C88.6172 37.0097 88.6733 37.2223 88.6602 37.4369L88.6592 37.4486L88.6582 37.4594C88.6492 37.6824 88.5698 37.8963 88.4316 38.0697C88.2936 38.243 88.1044 38.3663 87.8926 38.4232L87.8809 38.4271L83.1602 39.7533C82.8472 39.8411 82.562 40.0077 82.333 40.2377C82.1326 40.4389 81.9808 40.6827 81.8877 40.9496L81.8516 41.0658L80.5332 45.806L80.5303 45.8168C80.473 46.0322 80.3488 46.2233 80.1768 46.3617C80.0069 46.4983 79.7991 46.5767 79.583 46.5873H79.499C79.2969 46.5887 79.0985 46.5283 78.9307 46.4135C78.7629 46.2986 78.633 46.1346 78.5596 45.9427L78.5576 45.9349L77.0352 42.0492L77.0342 42.0472L76.9785 41.9203C76.8581 41.6702 76.6843 41.4492 76.4688 41.2738L76.3574 41.1898L76.2402 41.1146C75.9616 40.9494 75.6441 40.8586 75.3184 40.8519H75.3193L70.9473 40.7543L70.9395 40.7533H70.9316C70.7294 40.752 70.5316 40.6925 70.3613 40.5814C70.1944 40.4725 70.0612 40.3184 69.9766 40.1361C69.9069 39.9584 69.8895 39.7639 69.9287 39.5765C69.9691 39.3832 70.0668 39.2072 70.208 39.0717L70.2158 39.0638L70.2236 39.057L72.5664 36.7103L72.5674 36.7094C72.8173 36.4583 72.9923 36.1421 73.0713 35.7972C73.1404 35.4955 73.1344 35.1819 73.0547 34.8842L73.0156 34.7582L71.6816 30.8793C71.6193 30.691 71.6092 30.4886 71.6543 30.2953C71.6994 30.1021 71.7971 29.9255 71.9355 29.7855C72.074 29.6455 72.2487 29.5474 72.4385 29.5013C72.6281 29.4554 72.8271 29.4631 73.0127 29.5238L73.1641 29.5736H73.1709L76.8789 30.8636H76.8799C77.2149 30.98 77.5763 30.9992 77.9219 30.9193C78.2673 30.8393 78.5832 30.6634 78.833 30.4125L78.834 30.4115L81.165 28.0619L81.1719 28.0541L81.1787 28.0472C81.3141 27.9051 81.4884 27.8073 81.6787 27.767Z" stroke="#264887" stroke-width="2"/>
</g>
<path d="M64.7539 21.6161C64.9724 21.6143 65.1844 21.6876 65.3545 21.8231L65.4248 21.8856L68.0732 24.5458V24.5468C68.2472 24.7278 68.3441 24.9703 68.3418 25.2225C68.3395 25.4747 68.2386 25.7157 68.0615 25.8934C67.8844 26.0711 67.6451 26.1716 67.3955 26.1737C67.1459 26.1758 66.9046 26.079 66.7246 25.9042L64.0752 23.243H64.0762C63.9023 23.062 63.8053 22.8195 63.8076 22.5673C63.81 22.3151 63.9108 22.0741 64.0879 21.8964C64.265 21.7186 64.5043 21.6182 64.7539 21.6161Z" fill="#B5D9F1" stroke="#EBF5FB" stroke-width="0.75"/>
<path d="M77.1494 19.8195C77.4018 19.8195 77.6442 19.9201 77.8232 20.0997C78.0023 20.2796 78.1035 20.5243 78.1035 20.7794V24.34C78.1035 24.5951 78.0024 24.8397 77.8232 25.0197C77.6442 25.1993 77.4018 25.2999 77.1494 25.2999C76.897 25.2999 76.6546 25.1994 76.4756 25.0197C76.2965 24.8397 76.1953 24.5951 76.1953 24.34V20.7794C76.1954 20.5243 76.2965 20.2796 76.4756 20.0997C76.6546 19.9201 76.897 19.8195 77.1494 19.8195Z" fill="#B5D9F1" stroke="#EBF5FB" stroke-width="0.75"/>
<path d="M62.4404 33.3558H65.9854C66.2377 33.3559 66.4802 33.4564 66.6592 33.6361C66.8383 33.816 66.9394 34.0607 66.9395 34.3158C66.9395 34.571 66.8383 34.8156 66.6592 34.9955C66.4802 35.1753 66.2378 35.2757 65.9854 35.2758H62.4404C62.188 35.2757 61.9456 35.1753 61.7666 34.9955C61.5875 34.8156 61.4863 34.571 61.4863 34.3158C61.4864 34.0607 61.5875 33.816 61.7666 33.6361C61.9456 33.4564 62.1881 33.3559 62.4404 33.3558Z" fill="#B5D9F1" stroke="white" stroke-width="0.75"/>
<g filter="url(#filter1_d_457_20808)">
<path d="M99.055 53.1673L86.5061 42.3951C86.3712 42.2792 86.1954 42.2175 86.0149 42.2226C85.8344 42.2277 85.6627 42.2992 85.535 42.4224L84.0954 43.812C83.9681 43.9352 83.8942 44.1006 83.889 44.2746C83.8837 44.4485 83.9474 44.6178 84.0671 44.7479L95.2288 56.8618C95.4717 57.136 95.7707 57.3588 96.1071 57.5161C96.4435 57.6734 96.8099 57.7618 97.1834 57.7759C97.5569 57.7899 97.9293 57.7293 98.2774 57.5977C98.6254 57.4662 98.9415 57.2666 99.2058 57.0115C99.4701 56.7564 99.6769 56.4513 99.8132 56.1153C99.9494 55.7794 100.012 55.4199 99.9977 55.0594C99.9832 54.6989 99.8915 54.3452 99.7286 54.0205C99.5656 53.6959 99.3348 53.4072 99.0508 53.1727L99.055 53.1673Z" fill="#264887"/>
<path d="M97.6797 53.3053L97.665 53.3258L98.4141 53.944C98.5925 54.0912 98.7353 54.2707 98.835 54.4694C98.9345 54.6678 98.9902 54.8828 98.999 55.1002C99.0077 55.3175 98.9697 55.5354 98.8867 55.7399C98.8037 55.9443 98.6766 56.1324 98.5117 56.2916C98.3465 56.4511 98.1464 56.5786 97.9238 56.6627C97.7012 56.7468 97.4614 56.786 97.2207 56.777C96.98 56.7679 96.7446 56.7102 96.5303 56.61C96.3162 56.5098 96.1285 56.3691 95.9775 56.1989L95.9707 56.191L95.9639 56.1842L85.0215 44.3073L86.0459 43.318L97.6797 53.3053Z" stroke="#264887" stroke-width="2"/>
</g>
<defs>
<filter id="filter0_di_457_20808" x="65.9082" y="25.7465" width="23.7539" height="21.8408" filterUnits="userSpaceOnUse" color-interpolation-filters="sRGB">
<feFlood flood-opacity="0" result="BackgroundImageFix"/>
<feColorMatrix in="SourceAlpha" type="matrix" values="0 0 0 0 0 0 0 0 0 0 0 0 0 0 0 0 0 0 127 0" result="hardAlpha"/>
<feOffset dx="-3" dy="-1"/>
<feColorMatrix type="matrix" values="0 0 0 0 0 0 0 0 0 0 0 0 0 0 0 0 0 0 0.1 0"/>
<feBlend mode="normal" in2="BackgroundImageFix" result="effect1_dropShadow_457_20808"/>
<feBlend mode="normal" in="SourceGraphic" in2="effect1_dropShadow_457_20808" result="shape"/>
<feColorMatrix in="SourceAlpha" type="matrix" values="0 0 0 0 0 0 0 0 0 0 0 0 0 0 0 0 0 0 127 0" result="hardAlpha"/>
<feOffset dx="-4" dy="-1"/>
<feComposite in2="hardAlpha" operator="arithmetic" k2="-1" k3="1"/>
<feColorMatrix type="matrix" values="0 0 0 0 0.709804 0 0 0 0 0.85098 0 0 0 0 0.945098 0 0 0 1 0"/>
<feBlend mode="normal" in2="shape" result="effect2_innerShadow_457_20808"/>
</filter>
<filter id="filter1_d_457_20808" x="80.8887" y="42.2223" width="19.1113" height="15.5555" filterUnits="userSpaceOnUse" color-interpolation-filters="sRGB">
<feFlood flood-opacity="0" result="BackgroundImageFix"/>
<feColorMatrix in="SourceAlpha" type="matrix" values="0 0 0 0 0 0 0 0 0 0 0 0 0 0 0 0 0 0 127 0" result="hardAlpha"/>
<feOffset dx="-3"/>
<feColorMatrix type="matrix" values="0 0 0 0 0 0 0 0 0 0 0 0 0 0 0 0 0 0 0.1 0"/>
<feBlend mode="normal" in2="BackgroundImageFix" result="effect1_dropShadow_457_20808"/>
<feBlend mode="normal" in="SourceGraphic" in2="effect1_dropShadow_457_20808" result="shape"/>
</filter>
</defs>
</svg>
