<svg width="182" height="180" viewBox="0 0 182 180" fill="none" xmlns="http://www.w3.org/2000/svg">
    <path fill-rule="evenodd" clip-rule="evenodd" d="M91 180C140.706 180 181 139.706 181 90C181 40.2944 140.706 0 91 0C41.2944 0 1 40.2944 1 90C1 139.706 41.2944 180 91 180Z" fill="#EBF5FB"/>
    <g style="mix-blend-mode:multiply">
        <path d="M179.825 106.948C175.938 86.3505 164.979 67.757 148.84 54.3798C132.702 41.0026 112.399 33.6817 91.4376 33.6817C70.4761 33.6817 50.1727 41.0026 34.0347 54.3798C17.8967 67.757 6.47703 86.3505 2.5896 106.948C0.0931326 93.9303 0.520496 80.5292 3.80756 67.688C7.09463 54.8467 13.331 42.7022 21.7753 32.4848C30.2195 22.2673 41.0028 14.0549 52.9952 8.40816C64.9875 2.76143 78.1823 0 91.4376 0C104.693 0 117.784 2.928 129.777 8.57474C141.769 14.2215 152.366 22.4475 160.81 32.665C169.255 42.8825 175.338 54.8391 178.625 67.6803C181.912 80.5215 182.322 93.9303 179.825 106.948Z" fill="#DAECF8"/>
    </g>
    <path fill-rule="evenodd" clip-rule="evenodd" d="M85.4305 60.3291C85.4305 67.4942 79.7453 73.3086 72.7395 73.3086C72.4485 73.3086 72.1799 73.2857 71.9113 73.2857C71.1727 79.7411 65.8232 84.7543 59.3098 84.7543C53.1993 84.7543 48.1184 80.4049 46.8874 74.5447C46.865 74.4761 46.865 74.4074 46.8426 74.3387C45.1863 75.1399 43.3509 75.5977 41.4036 75.5977C34.3754 75.5977 28.6902 69.7833 28.6902 62.6183C28.6902 57.3761 31.7342 52.8665 36.0989 50.8063C35.6512 49.4786 35.405 48.0593 35.405 46.5942C35.405 39.4063 41.0902 33.5919 48.1184 33.5919C50.4686 33.5919 52.6621 34.2557 54.5423 35.4003C56.8477 32.8822 60.138 31.3027 63.7864 31.3027C70.7922 31.3027 76.4774 37.1172 76.4774 44.3051C76.4774 45.5183 76.2984 46.6629 76.0074 47.7846C81.424 49.2725 85.4305 54.3087 85.4305 60.3291Z" fill="#FEFEFE"/>
    <path fill-rule="evenodd" clip-rule="evenodd" d="M63.7851 27.8711C60.224 27.8711 56.7637 29.1004 53.9748 31.3025C52.1148 30.5517 50.1294 30.1602 48.1172 30.1602C39.2559 30.1602 32.0464 37.5336 32.0464 46.5963C32.0464 47.4456 32.1113 48.2903 32.2411 49.1281C27.9727 52.1704 25.3315 57.2065 25.3315 62.6203C25.3315 71.6716 32.541 79.0335 41.4024 79.0335C42.5215 79.0335 43.625 78.9168 44.7061 78.681C47.2667 84.4199 52.8646 88.1901 59.3086 88.1901C66.4487 88.1901 72.5995 83.3898 74.6386 76.6299C82.5956 75.6662 88.7867 68.7232 88.7867 60.3312C88.7867 53.9926 85.2055 48.304 79.7821 45.5845C79.8157 45.1587 79.8336 44.733 79.8336 44.3072C79.8336 35.2444 72.6353 27.8711 63.7851 27.8711ZM63.7863 31.3037C70.7921 31.3037 76.4773 37.1181 76.4773 44.306C76.4773 45.5193 76.2982 46.6639 76.0073 47.7855C81.4239 49.2735 85.4304 54.3096 85.4304 60.3301C85.4304 67.4951 79.7452 73.3095 72.7394 73.3095C72.4484 73.3095 72.1798 73.2866 71.9112 73.2866C71.1726 79.742 65.8231 84.7553 59.3097 84.7553C53.1992 84.7553 48.1183 80.4059 46.8873 74.5457C46.8649 74.477 46.8649 74.4083 46.8425 74.3397C45.1862 75.1409 43.3508 75.5987 41.4035 75.5987C34.3753 75.5987 28.6901 69.7843 28.6901 62.6192C28.6901 57.3771 31.7341 52.8674 36.0988 50.8072C35.6511 49.4795 35.4049 48.0602 35.4049 46.5952C35.4049 39.4073 41.0901 33.5928 48.1183 33.5928C50.4685 33.5928 52.662 34.2567 54.5422 35.4013C56.8476 32.8832 60.1379 31.3037 63.7863 31.3037Z" fill="#264887"/>
    <path d="M56.5 45.5H47.5V54.5H56.5V45.5Z" fill="#F25022"/>
    <path d="M56.5 55.5H47.5V64.5H56.5V55.5Z" fill="#00A4EF"/>
    <path d="M66.5 45.5H57.5V54.5H66.5V45.5Z" fill="#7FBA00"/>
    <path d="M66.5 55.5H57.5V64.5H66.5V55.5Z" fill="#FFB900"/>
    <path fill-rule="evenodd" clip-rule="evenodd" d="M85.4286 60.3355C85.4286 67.5006 79.7434 73.315 72.7376 73.315C72.4466 73.315 72.178 73.2921 71.9094 73.2921C71.1708 79.7475 65.8213 84.7607 59.3079 84.7607C53.1974 84.7607 48.1166 80.4114 46.8855 74.5511C51.23 79.4408 57.8911 80.9585 63.1667 78.4587C69.0333 75.6774 70.4568 69.2243 70.6112 68.462C71.229 68.6886 75.0766 70.0278 78.5392 67.892C83.0426 65.1176 82.7069 59.049 82.6621 58.2181C82.2995 51.6597 76.5561 48.1184 76.0055 47.791C81.4221 49.279 85.4286 54.3151 85.4286 60.3355Z" fill="#B5D9F1"/>
    <path fill-rule="evenodd" clip-rule="evenodd" d="M148.844 71.2465C148.844 69.9173 147.468 68.8398 145.77 68.8398H70.4737C68.7764 68.8398 67.4004 69.9173 67.4004 71.2465V124.193C67.4004 125.522 68.7764 126.6 70.4737 126.6H145.77C147.468 126.6 148.844 125.522 148.844 124.193V71.2465Z" fill="white"/>
    <path d="M145.4 69.9941C147.388 69.9941 149 71.4467 149 73.2386V128.75C149 130.542 147.388 131.994 145.4 131.994H71.6C69.6118 131.994 68 130.542 68 128.75V127.127H140.9C142.888 127.127 144.5 125.675 144.5 123.883V69.9941H145.4Z" fill="#DAECF8"/>
    <path fill-rule="evenodd" clip-rule="evenodd" d="M70.4725 69.6089C69.8559 69.6089 69.2972 69.8501 68.8829 70.2448C68.8784 70.2491 68.8738 70.2533 68.8692 70.2575C68.8648 70.262 68.8604 70.2664 68.856 70.2708L68.8493 70.2774C68.8415 70.2852 68.8335 70.2927 68.8255 70.3001C68.8183 70.3083 68.8109 70.3163 68.8034 70.3243C68.4087 70.7386 68.1675 71.2973 68.1675 71.9139V104.672C68.1675 104.798 68.1373 104.917 68.0837 105.022C68.1373 105.127 68.1675 105.245 68.1675 105.371V105.546C68.1675 105.795 68.0487 106.017 67.8645 106.157C68.0487 106.298 68.1675 106.519 68.1675 106.769V128.527C68.1675 129.144 68.4087 129.703 68.8034 130.117C68.8077 130.121 68.812 130.126 68.8162 130.131C68.8206 130.135 68.8251 130.139 68.8294 130.144L68.836 130.151C68.8438 130.158 68.8513 130.166 68.8587 130.174C68.8669 130.181 68.8749 130.189 68.8829 130.196C69.2972 130.591 69.8559 130.832 70.4725 130.832H106.953C107.095 130.832 107.228 130.871 107.343 130.938C107.457 130.871 107.59 130.832 107.732 130.832H107.926C108.222 130.832 108.479 130.999 108.607 131.244C108.736 130.999 108.992 130.832 109.288 130.832H145.769C146.386 130.832 146.945 130.591 147.359 130.196C147.363 130.192 147.368 130.188 147.373 130.184C147.377 130.179 147.381 130.175 147.386 130.17L147.392 130.164C147.4 130.156 147.408 130.148 147.416 130.141C147.423 130.133 147.431 130.125 147.438 130.117C147.833 129.703 148.074 129.144 148.074 128.527V106.769C148.074 106.643 148.104 106.524 148.158 106.419C148.104 106.315 148.074 106.196 148.074 106.07V105.895C148.074 105.646 148.193 105.424 148.377 105.284C148.193 105.143 148.074 104.922 148.074 104.672V71.9139C148.074 71.2973 147.833 70.7386 147.438 70.3243C147.434 70.3198 147.43 70.3152 147.426 70.3106C147.421 70.3062 147.417 70.3018 147.412 70.2974L147.406 70.2907C147.398 70.2829 147.39 70.275 147.383 70.2669C147.375 70.2597 147.367 70.2523 147.359 70.2448C146.945 69.8501 146.386 69.6089 145.769 69.6089H109.288C109.146 69.6089 109.013 69.5704 108.899 69.5032C108.785 69.5704 108.652 69.6089 108.51 69.6089H108.315C108.02 69.6089 107.763 69.4418 107.634 69.1968C107.506 69.4418 107.249 69.6089 106.953 69.6089H70.4725ZM107.634 68.4844C107.506 68.2394 107.249 68.0723 106.953 68.0723H70.4725C69.4457 68.0723 68.5115 68.4762 67.8229 69.1322C67.8154 69.1394 67.808 69.1467 67.8008 69.1541C67.7932 69.1611 67.7856 69.1682 67.7782 69.1755L67.7671 69.1865C67.7541 69.1994 67.7416 69.2126 67.7297 69.2262C67.7164 69.2384 67.7034 69.2511 67.6908 69.2643C67.0348 69.9529 66.6309 70.8871 66.6309 71.9139V104.672C66.6309 104.798 66.6611 104.917 66.7147 105.022C66.6611 105.127 66.6309 105.245 66.6309 105.371V105.546C66.6309 105.795 66.7497 106.017 66.9339 106.157C66.7497 106.298 66.6309 106.519 66.6309 106.769V128.527C66.6309 129.554 67.0348 130.488 67.6908 131.177C67.698 131.184 67.7053 131.192 67.7127 131.199C67.7197 131.207 67.7268 131.214 67.7341 131.222L67.7451 131.233C67.758 131.246 67.7712 131.258 67.7848 131.27C67.797 131.283 67.8097 131.296 67.8229 131.309C68.5115 131.965 69.4457 132.369 70.4725 132.369H106.953C107.095 132.369 107.228 132.33 107.343 132.263C107.457 132.33 107.59 132.369 107.732 132.369H107.926C108.222 132.369 108.479 132.202 108.607 131.957C108.736 132.202 108.992 132.369 109.288 132.369H145.769C146.796 132.369 147.73 131.965 148.419 131.309C148.426 131.302 148.434 131.294 148.441 131.287C148.449 131.28 148.456 131.273 148.464 131.266L148.475 131.255C148.488 131.242 148.5 131.229 148.512 131.215C148.525 131.203 148.538 131.19 148.551 131.177C149.207 130.488 149.611 129.554 149.611 128.527V106.769C149.611 106.643 149.581 106.524 149.527 106.419C149.581 106.315 149.611 106.196 149.611 106.07V105.895C149.611 105.646 149.492 105.424 149.308 105.284C149.492 105.143 149.611 104.922 149.611 104.672V71.9139C149.611 70.8871 149.207 69.9529 148.551 69.2643C148.544 69.2568 148.536 69.2494 148.529 69.2422C148.522 69.2346 148.515 69.227 148.508 69.2196L148.497 69.2085C148.484 69.1955 148.471 69.183 148.457 69.1711C148.445 69.1578 148.432 69.1448 148.419 69.1322C147.73 68.4762 146.796 68.0723 145.769 68.0723H109.288C109.146 68.0723 109.013 68.1108 108.899 68.178C108.785 68.1108 108.652 68.0723 108.51 68.0723H108.315C108.02 68.0723 107.763 68.2394 107.634 68.4844Z" fill="#264887"/>
    <path d="M75.8516 80.3655C75.8516 79.0925 76.8835 78.0605 78.1566 78.0605H138.087C139.36 78.0605 140.392 79.0925 140.392 80.3655V87.2805C140.392 88.5536 139.36 89.5855 138.087 89.5855H78.1566C76.8835 89.5855 75.8516 88.5536 75.8516 87.2805V80.3655Z" fill="white"/>
    <path fill-rule="evenodd" clip-rule="evenodd" d="M138.087 80.5972H78.1566C77.7322 80.5972 77.3882 80.9412 77.3882 81.3655V88.2805C77.3882 88.7049 77.7322 89.0489 78.1566 89.0489H138.087C138.511 89.0489 138.855 88.7049 138.855 88.2805V81.3655C138.855 80.9412 138.511 80.5972 138.087 80.5972ZM78.1566 79.0605C76.8835 79.0605 75.8516 80.0925 75.8516 81.3655V88.2805C75.8516 89.5536 76.8835 90.5855 78.1566 90.5855H138.087C139.36 90.5855 140.392 89.5536 140.392 88.2805V81.3655C140.392 80.0925 139.36 79.0605 138.087 79.0605H78.1566Z" fill="#264887"/>
    <path d="M75.8516 94.1937C75.8516 92.9207 76.8835 91.8887 78.1566 91.8887H138.087C139.36 91.8887 140.392 92.9207 140.392 94.1937V101.109C140.392 102.382 139.36 103.414 138.087 103.414H78.1566C76.8835 103.414 75.8516 102.382 75.8516 101.109V94.1937Z" fill="white"/>
    <path fill-rule="evenodd" clip-rule="evenodd" d="M138.087 94.7261H78.1566C77.7322 94.7261 77.3882 95.0701 77.3882 95.4945V102.409C77.3882 102.834 77.7322 103.178 78.1566 103.178H138.087C138.511 103.178 138.855 102.834 138.855 102.409V95.4945C138.855 95.0701 138.511 94.7261 138.087 94.7261ZM78.1566 93.1895C76.8835 93.1895 75.8516 94.2214 75.8516 95.4945V102.409C75.8516 103.682 76.8835 104.714 78.1566 104.714H138.087C139.36 104.714 140.392 103.682 140.392 102.409V95.4945C140.392 94.2214 139.36 93.1895 138.087 93.1895H78.1566Z" fill="#264887"/>
    <path d="M80.2734 82.1777H80.6756V87.182H80.2734V82.1777Z" fill="#86C1E9"/>
    <rect x="75.8516" y="107.318" width="63.7717" height="12.2933" rx="2.305" fill="#86C1E9"/>
    <path fill-rule="evenodd" clip-rule="evenodd" d="M55 155C55 154.448 55.4477 154 56 154H56.2017C56.754 154 57.2017 154.448 57.2017 155C57.2017 155.552 56.754 156 56.2017 156H56C55.4477 156 55 155.552 55 155ZM57.6222 155C57.6222 154.448 58.0699 154 58.6222 154H124.781C125.334 154 125.781 154.448 125.781 155C125.781 155.552 125.334 156 124.781 156H58.6222C58.0699 156 57.6222 155.552 57.6222 155ZM125.798 155C125.798 154.448 126.246 154 126.798 154H127C127.552 154 128 154.448 128 155C128 155.552 127.552 156 127 156H126.798C126.246 156 125.798 155.552 125.798 155Z" fill="#C2E0F4"/>
    <path fill-rule="evenodd" clip-rule="evenodd" d="M17.0509 99.7071C16.6603 99.3166 16.6603 98.6834 17.0509 98.2929L21.2935 94.0502C21.684 93.6597 22.3172 93.6597 22.7077 94.0502L26.9504 98.2929C27.3409 98.6834 27.3409 99.3166 26.9504 99.7071L22.7077 103.95C22.3172 104.34 21.684 104.34 21.2935 103.95L17.0509 99.7071ZM19.1722 99L22.0006 101.828L24.829 99L22.0006 96.1716L19.1722 99Z" fill="#C2E0F4"/>
    <path fill-rule="evenodd" clip-rule="evenodd" d="M57 22C57 19.7909 58.7909 18 61 18C63.2091 18 65 19.7909 65 22C65 24.2091 63.2091 26 61 26C58.7909 26 57 24.2091 57 22ZM61 20C59.8954 20 59 20.8954 59 22C59 23.1046 59.8954 24 61 24C62.1046 24 63 23.1046 63 22C63 20.8954 62.1046 20 61 20Z" fill="#C2E0F4"/>
    <path fill-rule="evenodd" clip-rule="evenodd" d="M154.639 72.6406C154.951 72.3281 155.458 72.3281 155.77 72.6406L160.443 77.3134C160.755 77.6258 160.755 78.1324 160.443 78.4448C160.13 78.7572 159.624 78.7572 159.311 78.4448L154.639 73.7719C154.326 73.4595 154.326 72.953 154.639 72.6406Z" fill="#C2E0F4"/>
    <path fill-rule="evenodd" clip-rule="evenodd" d="M160.279 72.6406C159.967 72.3281 159.46 72.3281 159.148 72.6406L154.475 77.3134C154.163 77.6258 154.163 78.1324 154.475 78.4448C154.788 78.7572 155.294 78.7572 155.607 78.4448L160.279 73.7719C160.592 73.4595 160.592 72.953 160.279 72.6406Z" fill="#C2E0F4"/>
    <path d="M50.7657 114.059C53.0936 121.727 57.4065 128.644 63.2678 134.109C69.129 139.574 76.3304 143.394 84.1425 145.18C91.9547 146.967 100.1 146.657 107.754 144.283C115.408 141.908 122.299 137.553 127.728 131.659H94.2798C88.4508 131.66 82.7412 130.006 77.8146 126.891C72.888 123.775 68.9466 119.325 66.4484 114.059H76.682L59.0842 94.9922L41.4885 114.059H50.7657Z" fill="#00B8F0"/>
    <path d="M94.2801 138.993C82.6394 139.01 71.142 136.425 60.6284 131.428C64.872 136.1 70.0419 139.837 75.8089 142.401C81.5759 144.966 87.8137 146.302 94.1252 146.323C100.437 146.345 106.684 145.053 112.468 142.528C118.253 140.004 123.448 136.302 127.724 131.66H127.444C117.06 136.506 105.739 139.009 94.2801 138.993Z" fill="#009FD9"/>
    <path fill-rule="evenodd" clip-rule="evenodd" d="M59.0842 94.1895C59.3084 94.1894 59.5224 94.2831 59.6744 94.4479L77.2722 113.515C77.4886 113.749 77.5457 114.089 77.4177 114.381C77.2898 114.674 77.0011 114.862 76.6821 114.862H67.7487C70.1919 119.491 73.8078 123.407 78.2439 126.212C83.0421 129.246 88.6028 130.857 94.2798 130.856H127.728C128.047 130.856 128.336 131.045 128.464 131.337C128.592 131.629 128.535 131.969 128.319 132.203C122.794 138.202 115.781 142.634 107.992 145.05C100.203 147.466 91.9137 147.781 83.9636 145.963C76.0135 144.145 68.685 140.259 62.7202 134.697C56.901 129.271 52.5814 122.439 50.1743 114.862H41.4886C41.1697 114.862 40.8809 114.674 40.753 114.381C40.6251 114.089 40.6822 113.749 40.8985 113.515L58.4941 94.4479C58.6461 94.2832 58.8601 94.1895 59.0842 94.1895ZM59.0843 96.1766L43.3225 113.256H50.7658C51.1194 113.256 51.4315 113.488 51.5342 113.826C53.821 121.359 58.0578 128.154 63.8155 133.522C69.5733 138.891 76.6474 142.643 84.3217 144.398C91.9959 146.152 99.9975 145.848 107.516 143.516C114.44 141.368 120.727 137.571 125.844 132.462H94.28C94.28 132.462 94.28 132.462 94.28 132.462C88.299 132.463 82.4405 130.766 77.3855 127.57C72.3304 124.373 68.2863 119.807 65.723 114.403C65.6049 114.155 65.6226 113.863 65.7698 113.63C65.917 113.397 66.1732 113.256 66.4485 113.256H74.8481L59.0843 96.1766Z" fill="#004590"/>
</svg>
