<svg width="60" height="40" viewBox="0 0 60 40" fill="none" xmlns="http://www.w3.org/2000/svg">
<g clip-path="url(#clip0_243_14610)">
<path d="M14.5776 4.00034L13 5.9397L14.9735 7.53468L16.5511 5.59533L14.5776 4.00034Z" stroke="#B5D9F1" stroke-linecap="round" stroke-linejoin="round"/>
<path d="M6.11133 11.8416L9.48335 11.5146L6.11133 11.8416Z" fill="#B5D9F1"/>
<path d="M6.11133 11.8416L9.48335 11.5146" stroke="#B5D9F1" stroke-linecap="round"/>
<path d="M7.55619 10.0656L7.93207 13.4217L7.55619 10.0656Z" fill="#B5D9F1"/>
<path d="M7.55619 10.0656L7.93207 13.4217" stroke="#B5D9F1" stroke-linecap="round"/>
<path d="M53.5236 4.67477L51.6675 3L49.9999 4.84888L51.8561 6.52365L53.5236 4.67477Z" stroke="#B5D9F1" stroke-linecap="round" stroke-linejoin="round"/>
<path fill-rule="evenodd" clip-rule="evenodd" d="M56.25 15.5C56.9404 15.5 57.5 14.9404 57.5 14.25C57.5 13.5596 56.9404 13 56.25 13C55.5596 13 55 13.5596 55 14.25C55 14.9404 55.5596 15.5 56.25 15.5Z" stroke="#B5D9F1"/>
<path d="M31.8083 4H31.3407C31.0413 4.00009 30.7448 4.05915 30.4681 4.17383C30.1915 4.28851 29.9402 4.45655 29.7285 4.66836C29.5168 4.88017 29.3489 5.13161 29.2344 5.40831C29.1198 5.685 29.0609 5.98155 29.061 6.28101V9.03158H34.0893V6.27773C34.0885 5.67334 33.8478 5.094 33.4201 4.66693C32.9924 4.23987 32.4127 4 31.8083 4Z" fill="#D32D27"/>
<path d="M31.8083 4H31.3407C31.0413 4.00009 30.7448 4.05915 30.4681 4.17383C30.1915 4.28851 29.9402 4.45655 29.7285 4.66836C29.5168 4.88017 29.3489 5.13161 29.2344 5.40831C29.1198 5.685 29.0609 5.98155 29.061 6.28101V9.03158H34.0893V6.27773C34.0885 5.67334 33.8478 5.094 33.4201 4.66693C32.9924 4.23987 32.4127 4 31.8083 4Z" stroke="#264887" stroke-width="1.25" stroke-linecap="round" stroke-linejoin="round"/>
<path d="M8.81495 32.058L49.746 32.0476L49.7421 18.9902C49.7421 17.465 49.6157 15.9424 49.3642 14.438L48.9968 12.2376C48.8464 11.3404 48.3827 10.5256 47.6882 9.93809C46.9937 9.35055 46.1134 9.02828 45.2037 9.02856L19.5684 9.03512C18.6933 9.03523 17.8445 9.33381 17.1621 9.88153C16.4797 10.4293 16.0046 11.1934 15.8152 12.0476L13.9297 20.5443L10.7502 21.3406C10.1967 21.4791 9.70547 21.7986 9.35447 22.2483C9.00347 22.698 8.81287 23.2522 8.81299 23.8227L8.81495 32.058Z" fill="white" stroke="#264887" stroke-width="1.25" stroke-linecap="round" stroke-linejoin="round" stroke-dasharray="800 7 3 5"/>
<path d="M15.7878 12.1645H24.9066C25.0977 12.1645 25.2809 12.2404 25.416 12.3755C25.5511 12.5106 25.627 12.6938 25.627 12.8849V17.8366C25.627 18.0276 25.5511 18.2108 25.416 18.3459C25.2809 18.481 25.0977 18.5569 24.9066 18.5569H14.3667L15.7878 12.1645Z" fill="#B5D9F1"/>
<path d="M24.9063 12.1625C25.0974 12.1625 25.2806 12.2384 25.4157 12.3735C25.5508 12.5086 25.6267 12.6919 25.6267 12.8829V17.8346C25.6267 18.0257 25.5508 18.2089 25.4157 18.344C25.2806 18.4791 25.0974 18.555 24.9063 18.555H24.5691L18.1733 12.1638L24.9063 12.1625Z" fill="white"/>
<path d="M15.7878 12.1645H24.9066C25.0977 12.1645 25.2809 12.2404 25.416 12.3755C25.5511 12.5106 25.627 12.6938 25.627 12.8849V17.8366C25.627 18.0276 25.5511 18.2108 25.416 18.3459C25.2809 18.481 25.0977 18.5569 24.9066 18.5569H14.3667L15.7878 12.1645Z" stroke="#264887" stroke-width="1.25" stroke-linecap="round" stroke-linejoin="round"/>
<path d="M11.4234 29.7151H8.81494V26.4556H10.1188C10.4644 26.4556 10.7959 26.5928 11.0404 26.8371C11.2849 27.0813 11.4224 27.4126 11.4227 27.7582L11.4234 29.7151Z" fill="#B5D9F1" stroke="#264887" stroke-width="1.25" stroke-linecap="round" stroke-linejoin="round"/>
<path d="M52.218 30.7452C52.2179 30.6086 52.1909 30.4733 52.1386 30.3471C52.0862 30.2208 52.0095 30.1062 51.9128 30.0096C51.8161 29.913 51.7013 29.8364 51.575 29.7842C51.4487 29.732 51.3134 29.7052 51.1768 29.7053H45.358H44.0711L8.03998 29.7144C7.90335 29.7144 7.76806 29.7413 7.64184 29.7937C7.51562 29.846 7.40095 29.9226 7.30437 30.0193C7.20779 30.1159 7.1312 30.2306 7.07898 30.3569C7.02675 30.4831 6.99991 30.6184 7 30.7551V31.279C7.00035 31.6926 7.16481 32.0892 7.45729 32.3817C7.74976 32.6741 8.14634 32.8386 8.55997 32.8389L44.0705 32.8298H45.358H50.6554C50.8605 32.8298 51.0636 32.7894 51.2531 32.7109C51.4425 32.6324 51.6147 32.5173 51.7597 32.3723C51.9047 32.2272 52.0196 32.055 52.0981 31.8655C52.1765 31.676 52.2168 31.4729 52.2167 31.2678L52.218 30.7452Z" fill="#B5D9F1"/>
<path d="M41.5922 17.8111C41.5922 17.6892 41.5682 17.5685 41.5215 17.4558C41.4748 17.3432 41.4064 17.2409 41.3202 17.1547C41.2339 17.0685 41.1315 17.0002 41.0189 16.9536C40.9062 16.907 40.7855 16.883 40.6635 16.8831H38.8069V15.0265C38.8069 14.9046 38.7829 14.7839 38.7362 14.6712C38.6895 14.5586 38.6211 14.4563 38.5349 14.3701C38.4486 14.2839 38.3463 14.2156 38.2336 14.169C38.1209 14.1224 38.0002 14.0984 37.8783 14.0985H36.393C36.1468 14.0985 35.9108 14.1963 35.7368 14.3703C35.5627 14.5443 35.465 14.7804 35.465 15.0265V16.8871H33.6083C33.3621 16.8872 33.126 16.9851 32.9519 17.1592C32.7778 17.3334 32.6799 17.5695 32.6797 17.8157V19.301C32.6804 19.547 32.7786 19.7826 32.9528 19.9562C33.1271 20.1298 33.363 20.2272 33.609 20.227H35.4656V22.0837C35.4658 22.3296 35.5636 22.5653 35.7374 22.7392C35.9113 22.9131 36.1471 23.0108 36.393 23.011H37.8783C38.1244 23.0108 38.3605 22.9129 38.5345 22.7388C38.7085 22.5646 38.8063 22.3285 38.8063 22.0824V20.227H40.6629C40.9092 20.227 41.1454 20.1292 41.3195 19.955C41.4937 19.7809 41.5915 19.5447 41.5915 19.2984L41.5922 17.8111Z" fill="#D32D27"/>
<path d="M41.5922 17.8111C41.5922 17.6892 41.5682 17.5685 41.5215 17.4558C41.4748 17.3432 41.4064 17.2409 41.3202 17.1547C41.2339 17.0685 41.1315 17.0002 41.0189 16.9536C40.9062 16.907 40.7855 16.883 40.6635 16.8831H38.8069V15.0265C38.8069 14.9046 38.7829 14.7839 38.7362 14.6712C38.6895 14.5586 38.6211 14.4563 38.5349 14.3701C38.4486 14.2839 38.3463 14.2156 38.2336 14.169C38.1209 14.1224 38.0002 14.0984 37.8783 14.0985H36.393C36.1468 14.0985 35.9108 14.1963 35.7368 14.3703C35.5627 14.5443 35.465 14.7804 35.465 15.0265V16.8871H33.6083C33.3621 16.8872 33.126 16.9851 32.9519 17.1592C32.7778 17.3334 32.6799 17.5695 32.6797 17.8157V19.301C32.6804 19.547 32.7786 19.7826 32.9528 19.9562C33.1271 20.1298 33.363 20.2272 33.609 20.227H35.4656V22.0837C35.4658 22.3296 35.5636 22.5653 35.7374 22.7392C35.9113 22.9131 36.1471 23.0108 36.393 23.011H37.8783C38.1244 23.0108 38.3605 22.9129 38.5345 22.7388C38.7085 22.5646 38.8063 22.3285 38.8063 22.0824V20.227H40.6629C40.9092 20.227 41.1454 20.1292 41.3195 19.955C41.4937 19.7809 41.5915 19.5447 41.5915 19.2984L41.5922 17.8111Z" stroke="#264887" stroke-width="1.25" stroke-linecap="round" stroke-linejoin="round"/>
<path d="M21.9038 21.7547L24.302 21.754" stroke="#264887" stroke-width="1.25" stroke-linecap="round" stroke-linejoin="round"/>
<path d="M52.218 30.7452C52.2179 30.6086 52.1909 30.4733 52.1386 30.3471C52.0862 30.2208 52.0095 30.1062 51.9128 30.0096C51.8161 29.913 51.7013 29.8364 51.575 29.7842C51.4487 29.732 51.3134 29.7052 51.1768 29.7053H44.0711L8.03998 29.7144C7.90335 29.7144 7.76806 29.7413 7.64184 29.7937C7.51562 29.846 7.40095 29.9226 7.30437 30.0193C7.20779 30.1159 7.1312 30.2306 7.07898 30.3569C7.02675 30.4831 6.99991 30.6184 7 30.7551V31.279C7.00035 31.6926 7.16481 32.0892 7.45729 32.3817C7.74976 32.6741 8.14634 32.8386 8.55997 32.8389L44.0705 32.8298H50.6554C50.8605 32.8298 51.0636 32.7894 51.2531 32.7109C51.4425 32.6324 51.6147 32.5173 51.7597 32.3723C51.9047 32.2272 52.0196 32.055 52.0981 31.8655C52.1765 31.676 52.2168 31.4729 52.2167 31.2678L52.218 30.7452Z" stroke="#264887" stroke-width="1.25" stroke-linecap="round" stroke-linejoin="round"/>
<path d="M23.4686 32.8339H12.0734C12.0577 32.6623 12.0472 32.4894 12.0472 32.3139C12.0391 31.5569 12.1812 30.8059 12.4653 30.1042C12.7493 29.4026 13.1697 28.7642 13.7021 28.2261C14.2345 27.688 14.8684 27.2608 15.5669 26.9692C16.2655 26.6776 17.015 26.5275 17.772 26.5275C18.529 26.5275 19.2784 26.6776 19.977 26.9692C20.6756 27.2608 21.3094 27.688 21.8418 28.2261C22.3742 28.7642 22.7946 29.4026 23.0787 30.1042C23.3628 30.8059 23.5049 31.5569 23.4968 32.3139C23.4948 32.4887 23.4837 32.6623 23.4686 32.8339Z" fill="white"/>
<path d="M23.4686 32.8339H12.0734C12.0577 32.6623 12.0472 32.4894 12.0472 32.3139C12.0391 31.5569 12.1812 30.8059 12.4653 30.1042C12.7493 29.4026 13.1697 28.7642 13.7021 28.2261C14.2345 27.688 14.8684 27.2608 15.5669 26.9692C16.2655 26.6776 17.015 26.5275 17.772 26.5275C18.529 26.5275 19.2784 26.6776 19.977 26.9692C20.6756 27.2608 21.3094 27.688 21.8418 28.2261C22.3742 28.7642 22.7946 29.4026 23.0787 30.1042C23.3628 30.8059 23.5049 31.5569 23.4968 32.3139C23.4948 32.4887 23.4837 32.6623 23.4686 32.8339Z" stroke="#264887" stroke-width="1.25" stroke-linecap="round" stroke-linejoin="round"/>
<path d="M17.7701 36.0003C19.7822 36.0003 21.4133 34.3691 21.4133 32.3571C21.4133 30.345 19.7822 28.7139 17.7701 28.7139C15.7581 28.7139 14.127 30.345 14.127 32.3571C14.127 34.3691 15.7581 36.0003 17.7701 36.0003Z" fill="#B5D9F1"/>
<path d="M17.7701 36.0003C19.7822 36.0003 21.4133 34.3691 21.4133 32.3571C21.4133 30.345 19.7822 28.7139 17.7701 28.7139C15.7581 28.7139 14.127 30.345 14.127 32.3571C14.127 34.3691 15.7581 36.0003 17.7701 36.0003Z" stroke="#264887" stroke-width="1.25" stroke-linecap="round" stroke-linejoin="round"/>
<path d="M17.7698 33.9181C18.632 33.9181 19.331 33.2191 19.331 32.3568C19.331 31.4945 18.632 30.7955 17.7698 30.7955C16.9075 30.7955 16.2085 31.4945 16.2085 32.3568C16.2085 33.2191 16.9075 33.9181 17.7698 33.9181Z" fill="white"/>
<path d="M17.7698 33.9181C18.632 33.9181 19.331 33.2191 19.331 32.3568C19.331 31.4945 18.632 30.7955 17.7698 30.7955C16.9075 30.7955 16.2085 31.4945 16.2085 32.3568C16.2085 33.2191 16.9075 33.9181 17.7698 33.9181Z" stroke="#264887" stroke-width="1.25" stroke-linecap="round" stroke-linejoin="round"/>
<path d="M45.9019 32.8278H34.5067C34.4916 32.6562 34.4805 32.4833 34.4805 32.3078C34.4966 30.8001 35.1068 29.3596 36.1787 28.2992C37.2505 27.2387 38.6975 26.6439 40.2053 26.6439C41.713 26.6439 43.16 27.2387 44.2318 28.2992C45.3037 29.3596 45.9139 30.8001 45.93 32.3078C45.9281 32.4827 45.9176 32.6562 45.9019 32.8278Z" fill="white"/>
<path d="M45.9019 32.8278H34.5067C34.4916 32.6562 34.4805 32.4833 34.4805 32.3078C34.4966 30.8001 35.1068 29.3596 36.1787 28.2992C37.2505 27.2387 38.6975 26.6439 40.2053 26.6439C41.713 26.6439 43.16 27.2387 44.2318 28.2992C45.3037 29.3596 45.9139 30.8001 45.93 32.3078C45.9281 32.4827 45.9176 32.6562 45.9019 32.8278Z" stroke="#264887" stroke-width="1.25" stroke-linecap="round" stroke-linejoin="round"/>
<path d="M40.2028 35.9943C42.2148 35.9943 43.846 34.3632 43.846 32.3511C43.846 30.339 42.2148 28.7079 40.2028 28.7079C38.1907 28.7079 36.5596 30.339 36.5596 32.3511C36.5596 34.3632 38.1907 35.9943 40.2028 35.9943Z" fill="#B5D9F1"/>
<path d="M40.2028 35.9943C42.2148 35.9943 43.846 34.3632 43.846 32.3511C43.846 30.339 42.2148 28.7079 40.2028 28.7079C38.1907 28.7079 36.5596 30.339 36.5596 32.3511C36.5596 34.3632 38.1907 35.9943 40.2028 35.9943Z" stroke="#264887" stroke-width="1.25" stroke-linecap="round" stroke-linejoin="round"/>
<path d="M40.2024 33.9123C41.0647 33.9123 41.7637 33.2133 41.7637 32.351C41.7637 31.4887 41.0647 30.7897 40.2024 30.7897C39.3401 30.7897 38.6411 31.4887 38.6411 32.351C38.6411 33.2133 39.3401 33.9123 40.2024 33.9123Z" fill="white" stroke="#264887" stroke-width="1.25" stroke-linecap="round" stroke-linejoin="round"/>
<path d="M42.7456 13.6695C42.7456 13.9784 42.8683 14.2745 43.0866 14.4929C43.305 14.7113 43.6012 14.8339 43.91 14.8339H45.077C45.3859 14.8339 45.682 14.7113 45.9004 14.4929C46.1188 14.2745 46.2414 13.9784 46.2414 13.6695C46.2414 13.3607 46.1188 13.0645 45.9004 12.8462C45.682 12.6278 45.3859 12.5051 45.077 12.5051H43.9113C43.7583 12.505 43.6067 12.5349 43.4653 12.5934C43.3239 12.6518 43.1954 12.7376 43.0871 12.8457C42.9789 12.9539 42.893 13.0823 42.8344 13.2236C42.7758 13.365 42.7456 13.5165 42.7456 13.6695Z" fill="#B5D9F1" stroke="#264887" stroke-width="1.25" stroke-linecap="round" stroke-linejoin="round"/>
</g>
<defs>
<clipPath id="clip0_243_14610">
<rect width="60" height="40" fill="white"/>
</clipPath>
</defs>
</svg>
