<svg width="90" height="88" viewBox="0 0 90 88" fill="none" xmlns="http://www.w3.org/2000/svg">
<path d="M1 44C1 55.6695 5.6357 66.8611 13.8873 75.1127C22.1389 83.3643 33.3305 88 45 88C56.6695 88 67.8611 83.3643 76.1127 75.1127C84.3643 66.8611 89 55.6695 89 44C89 32.3305 84.3643 21.1389 76.1127 12.8873C67.8611 4.6357 56.6695 0 45 0C33.3305 0 22.1389 4.6357 13.8873 12.8873C5.6357 21.1389 1 32.3305 1 44Z" fill="#E4E5F6"/>
<path d="M17.4536 71.6777H71.5369" stroke="#264887" stroke-width="1.875" stroke-linecap="round" stroke-linejoin="round"/>
<path d="M10.5 71.5234H14.3631" stroke="#264887" stroke-width="1.875" stroke-linecap="round" stroke-linejoin="round"/>
<path d="M74.627 71.5234H78.49" stroke="#264887" stroke-width="1.875" stroke-linecap="round" stroke-linejoin="round"/>
<path d="M65.7254 34.4207V22.2998C65.7254 21.808 65.5301 21.3364 65.1823 20.9887C64.8346 20.6409 64.3629 20.4456 63.8711 20.4456H58.6853C58.1935 20.4456 57.7219 20.6409 57.3742 20.9887C57.0264 21.3364 56.8311 21.808 56.8311 22.2998V26.7223L65.7254 34.4207Z" fill="white" stroke="#264887" stroke-width="1.875" stroke-linecap="round" stroke-linejoin="round"/>
<path d="M68.0097 71.5836H23.5439V45.2203L45.7768 25.9358L68.0097 45.2188V71.5836Z" fill="white"/>
<path d="M45.7768 25.939L23.5439 45.2204V49.68L43.5857 32.2945C44.1941 31.7676 44.972 31.4776 45.7768 31.4776C46.5816 31.4776 47.3595 31.7676 47.9679 32.2945L68.0097 49.6769V45.2189L45.7768 25.939Z" fill="#B5D9F1"/>
<path d="M68.0097 71.5836H23.5439V45.2203L45.7768 25.9358L68.0097 45.2188V71.5836Z" stroke="#264887" stroke-width="1.875" stroke-linecap="round" stroke-linejoin="round"/>
<path d="M21.383 46.0162C20.701 46.0161 20.0354 45.8069 19.476 45.4168C18.9166 45.0266 18.4902 44.4743 18.2544 43.8344C18.0187 43.1944 17.9848 42.4975 18.1574 41.8377C18.33 41.1779 18.7007 40.5868 19.2197 40.1443L43.6159 19.0194C44.2182 18.5026 44.9856 18.2185 45.7792 18.2185C46.5728 18.2185 47.3402 18.5026 47.9425 19.0194L72.3325 40.1397C73.0061 40.7134 73.4241 41.5312 73.4947 42.4132C73.5652 43.2952 73.2825 44.169 72.7088 44.8426C72.135 45.5161 71.3172 45.9342 70.4352 46.0047C69.5533 46.0753 68.6794 45.7926 68.0059 45.2189L45.7761 25.9389L23.5433 45.2204C22.9409 45.7344 22.1749 46.0166 21.383 46.0162Z" fill="#D32D27"/>
<path d="M19.2239 43.8453L43.6155 22.725C44.2178 22.2082 44.9852 21.9241 45.7788 21.9241C46.5724 21.9241 47.3398 22.2082 47.9421 22.725L72.3322 43.8453C72.56 44.0466 72.76 44.2774 72.9271 44.5314C73.3901 43.8559 73.5856 43.0325 73.4757 42.221C73.3658 41.4095 72.9582 40.6677 72.3322 40.1398L47.936 19.0211C47.3337 18.5043 46.5663 18.2202 45.7726 18.2202C44.979 18.2202 44.2116 18.5043 43.6093 19.0211L19.2239 40.1398C18.5972 40.6676 18.1891 41.4095 18.0789 42.2214C17.9686 43.0333 18.1642 43.8572 18.6275 44.5329C18.7937 44.2774 18.9944 44.046 19.2239 43.8453Z" fill="#E78C89"/>
<path d="M21.383 46.0162C20.701 46.0161 20.0354 45.8069 19.476 45.4168C18.9166 45.0266 18.4902 44.4743 18.2544 43.8344C18.0187 43.1944 17.9848 42.4975 18.1574 41.8377C18.33 41.1779 18.7007 40.5868 19.2197 40.1443L43.6159 19.0194C44.2182 18.5026 44.9856 18.2185 45.7792 18.2185C46.5728 18.2185 47.3402 18.5026 47.9425 19.0194L72.3325 40.1397C73.0061 40.7134 73.4241 41.5312 73.4947 42.4132C73.5652 43.2952 73.2825 44.169 72.7088 44.8426C72.135 45.5161 71.3172 45.9342 70.4353 46.0047C69.5533 46.0753 68.6794 45.7926 68.0059 45.2189L45.7761 25.9389L23.5433 45.2204C22.9409 45.7344 22.1749 46.0166 21.383 46.0162V46.0162Z" stroke="#264887" stroke-width="1.875" stroke-linecap="round" stroke-linejoin="round"/>
<path d="M59.0558 20.4472H63.5015V17.8543C63.5015 17.3625 63.3061 16.8909 62.9584 16.5431C62.6106 16.1954 62.139 16 61.6472 16H60.907C60.4152 16 59.9436 16.1954 59.5958 16.5431C59.2481 16.8909 59.0527 17.3625 59.0527 17.8543L59.0558 20.4472Z" fill="#E78C89" stroke="#264887" stroke-width="1.875" stroke-linecap="round" stroke-linejoin="round"/>
<path d="M45.7159 71.5837H27.9287V68.6817C27.9287 68.2719 28.0915 67.8789 28.3813 67.5891C28.6711 67.2993 29.0641 67.1365 29.4739 67.1365H44.1707C44.5805 67.1365 44.9735 67.2993 45.2633 67.5891C45.5531 67.8789 45.7159 68.2719 45.7159 68.6817V71.5837Z" fill="white" stroke="#264887" stroke-width="1.875" stroke-linecap="round" stroke-linejoin="round"/>
<path d="M43.4922 67.1365H30.1521V57.1327C30.1387 56.2482 30.3013 55.3699 30.6304 54.5488C30.9596 53.7278 31.4487 52.9804 32.0694 52.3502C32.6901 51.72 33.43 51.2195 34.2459 50.8779C35.0619 50.5363 35.9376 50.3604 36.8222 50.3604C37.7067 50.3604 38.5824 50.5363 39.3984 50.8779C40.2143 51.2195 40.9542 51.72 41.5749 52.3502C42.1956 52.9804 42.6847 53.7278 43.0139 54.5488C43.3431 55.3699 43.5056 56.2482 43.4922 57.1327V67.1365Z" fill="#264887" stroke="#264887" stroke-width="1.875" stroke-linecap="round" stroke-linejoin="round"/>
<path d="M39.0469 61.5782V59.3546" stroke="white" stroke-width="2.40584" stroke-linecap="round" stroke-linejoin="round"/>
<path d="M45.7162 43.7927C48.1723 43.7927 50.1634 41.8016 50.1634 39.3455C50.1634 36.8894 48.1723 34.8983 45.7162 34.8983C43.2601 34.8983 41.269 36.8894 41.269 39.3455C41.269 41.8016 43.2601 43.7927 45.7162 43.7927Z" fill="#B5D9F1"/>
<path d="M48.8597 36.2024C48.0211 35.392 46.8977 34.9435 45.7316 34.9534C44.5655 34.9633 43.4499 35.4309 42.6252 36.2554C41.8005 37.0799 41.3326 38.1954 41.3224 39.3615C41.3122 40.5276 41.7605 41.6511 42.5706 42.4899L48.8597 36.2024Z" fill="white"/>
<path d="M45.7162 43.7927C48.1723 43.7927 50.1634 41.8016 50.1634 39.3455C50.1634 36.8894 48.1723 34.8983 45.7162 34.8983C43.2601 34.8983 41.269 36.8894 41.269 39.3455C41.269 41.8016 43.2601 43.7927 45.7162 43.7927Z" stroke="#264887" stroke-width="1.875" stroke-linecap="round" stroke-linejoin="round"/>
<path d="M59.7324 51.5745H53.93C53.0766 51.5745 52.3848 52.2663 52.3848 53.1197V63.3692C52.3848 64.2227 53.0766 64.9145 53.93 64.9145H59.7324C60.5858 64.9145 61.2776 64.2227 61.2776 63.3692V53.1197C61.2776 52.2663 60.5858 51.5745 59.7324 51.5745Z" fill="#B5D9F1"/>
<path d="M61.2498 53.2896C61.2186 52.8264 61.0132 52.3923 60.6749 52.0744C60.3366 51.7565 59.8906 51.5784 59.4264 51.5759H54.239C53.7473 51.5759 53.2756 51.7713 52.9279 52.119C52.5801 52.4668 52.3848 52.9384 52.3848 53.4302V62.1562L61.2498 53.2896Z" fill="white"/>
<path d="M59.7324 51.5745H53.93C53.0766 51.5745 52.3848 52.2663 52.3848 53.1197V63.3692C52.3848 64.2227 53.0766 64.9145 53.93 64.9145H59.7324C60.5858 64.9145 61.2776 64.2227 61.2776 63.3692V53.1197C61.2776 52.2663 60.5858 51.5745 59.7324 51.5745Z" stroke="#264887" stroke-width="1.875" stroke-linecap="round" stroke-linejoin="round"/>
<rect x="81" y="29.5" width="3.75" height="3.75001" stroke="#E78C89" stroke-width="1.5" stroke-linecap="round" stroke-linejoin="round"/>
<path fill-rule="evenodd" clip-rule="evenodd" d="M6.375 22.75C7.41053 22.75 8.25 21.9105 8.25 20.875C8.25 19.8395 7.41053 19 6.375 19C5.33947 19 4.5 19.8395 4.5 20.875C4.5 21.9105 5.33947 22.75 6.375 22.75Z" stroke="#E78C89" stroke-width="1.5"/>
<rect width="3.75" height="3.75" transform="matrix(0.707106 -0.707107 0.707106 0.707107 15 29.1517)" stroke="#E78C89" stroke-width="1.5" stroke-linecap="round" stroke-linejoin="round"/>
<path d="M25.6563 16.1563L29.2193 19.7193" stroke="#E78C89" stroke-width="1.5" stroke-linecap="round"/>
<path d="M29.0938 16.1563L25.5307 19.7193" stroke="#E78C89" stroke-width="1.5" stroke-linecap="round"/>
</svg>
