<svg width="40" height="40" viewBox="0 0 40 40" fill="none" xmlns="http://www.w3.org/2000/svg">
<rect x="0.5" y="0.5" width="39" height="39" rx="7.5" fill="white"/>
<rect x="0.5" y="0.5" width="39" height="39" rx="7.5" stroke="#D5DBE2"/>
<path d="M32.32 20.2917C32.32 19.3817 32.2383 18.5067 32.0867 17.6667H20V22.6308H26.9067C26.6092 24.235 25.705 25.5942 24.3458 26.5042V29.7242H28.4933C30.92 27.49 32.32 24.2 32.32 20.2917Z" fill="#4285F4"/>
<path d="M20.0001 32.8333C23.4651 32.8333 26.3701 31.6842 28.4934 29.7242L24.3459 26.5042C23.1967 27.2742 21.7267 27.7292 20.0001 27.7292C16.6576 27.7292 13.8284 25.4717 12.8192 22.4383H8.53174V25.7633C10.6434 29.9575 14.9834 32.8333 20.0001 32.8333Z" fill="#34A853"/>
<path d="M12.8192 22.4383C12.5626 21.6683 12.4167 20.8458 12.4167 20C12.4167 19.1542 12.5626 18.3317 12.8192 17.5617V14.2367H8.53175C7.63341 16.025 7.16596 17.9987 7.16675 20C7.16675 22.0708 7.66258 24.0308 8.53175 25.7633L12.8192 22.4383Z" fill="#FBBC05"/>
<path d="M20.0001 12.2708C21.8842 12.2708 23.5759 12.9183 24.9059 14.19L28.5867 10.5092C26.3642 8.43834 23.4592 7.16667 20.0001 7.16667C14.9834 7.16667 10.6434 10.0425 8.53174 14.2367L12.8192 17.5617C13.8284 14.5283 16.6576 12.2708 20.0001 12.2708Z" fill="#EA4335"/>
</svg>
