<svg width="40" height="40" viewBox="0 0 40 40" fill="none" xmlns="http://www.w3.org/2000/svg">
<rect width="40" height="40" rx="8" fill="#006699"/>
<path fill-rule="evenodd" clip-rule="evenodd" d="M11.9969 33.4492V15.2892H5.96082V33.4492H11.9969ZM8.97882 12.8098C11.0837 12.8098 12.3938 11.4153 12.3938 9.67256C12.3546 7.89062 11.0837 6.53483 9.01875 6.53483C6.954 6.53483 5.604 7.89062 5.604 9.67256C5.604 11.4153 6.91385 12.8098 8.93948 12.8098H8.97882Z" fill="white"/>
<path fill-rule="evenodd" clip-rule="evenodd" d="M15.3374 33.4492H21.3734V23.3079C21.3734 22.7651 21.4126 22.2229 21.572 21.835C22.0084 20.7505 23.0015 19.6274 24.669 19.6274C26.8532 19.6274 27.7269 21.2927 27.7269 23.734V33.4492H33.7624V23.0365C33.7624 17.4586 30.7845 14.8631 26.8133 14.8631C23.557 14.8631 22.1275 16.6831 21.3333 17.9229H21.3736V15.2892H15.3376C15.4168 16.9932 15.3374 33.4492 15.3374 33.4492Z" fill="white"/>
</svg>
