<svg width="40" height="40" viewBox="0 0 40 40" fill="none" xmlns="http://www.w3.org/2000/svg">
<rect x="0.25" y="0.25" width="39.5" height="39.5" rx="7.75" fill="white"/>
<rect x="0.25" y="0.25" width="39.5" height="39.5" rx="7.75" stroke="#D5DBE2" stroke-width="0.5"/>
<g clip-path="url(#clip0_603_6571)">
<path d="M34.0003 20.6744C34.0018 20.4555 33.8887 20.2517 33.7021 20.1372H33.6988L33.6871 20.1307L23.9848 14.3874C23.9429 14.3591 23.8994 14.3332 23.8545 14.3099C23.4799 14.1167 23.0349 14.1167 22.6603 14.3099C22.6154 14.3333 22.572 14.3591 22.5301 14.3874L12.8278 20.1307L12.8161 20.1372C12.5195 20.3216 12.4286 20.7115 12.613 21.008C12.6673 21.0954 12.7422 21.1682 12.831 21.2201L22.5333 26.9633C22.5754 26.9914 22.6189 27.0173 22.6636 27.0408C23.0382 27.2341 23.4832 27.2341 23.8578 27.0408C23.9025 27.0173 23.946 26.9914 23.9881 26.9633L33.6904 21.2201C33.8842 21.1071 34.0025 20.8988 34.0003 20.6744Z" fill="#0A2767"/>
<path d="M13.9588 16.8398H20.3259V22.6761H13.9588V16.8398ZM32.698 10.907V8.23726C32.7133 7.56976 32.1849 7.01606 31.5175 7.00006H14.9949C14.3273 7.01606 13.799 7.56976 13.8143 8.23726V10.907L23.5817 13.5117L32.698 10.907Z" fill="#0364B8"/>
<path d="M13.8147 10.907H20.3263V16.7675H13.8147V10.907Z" fill="#0078D4"/>
<path d="M26.8368 10.907H20.3252V16.7675L26.8368 22.628H32.6973V16.7675L26.8368 10.907Z" fill="#28A8EA"/>
<path d="M20.3252 16.7674H26.8368V22.6279H20.3252V16.7674Z" fill="#0078D4"/>
<path d="M20.3252 22.6279H26.8368V28.4884H20.3252V22.6279Z" fill="#0364B8"/>
<path d="M13.959 22.6757H20.3261V27.9814H13.959V22.6757Z" fill="#14447D"/>
<path d="M26.8381 22.6279H32.6986V28.4884H26.8381V22.6279Z" fill="#0078D4"/>
<path d="M33.7028 21.1846L33.6904 21.1911L23.9881 26.6479C23.9458 26.6739 23.9028 26.6986 23.8579 26.7208C23.6931 26.7993 23.5141 26.8436 23.3318 26.851L22.8017 26.5411C22.7569 26.5186 22.7134 26.4936 22.6715 26.4662L12.8389 20.8545H12.8344L12.5127 20.6747V31.7211C12.5177 32.4581 13.119 33.0515 13.856 33.0468H32.6785C32.6896 33.0468 32.6994 33.0416 32.7111 33.0416C32.8668 33.0317 33.0202 32.9996 33.1669 32.9466C33.2303 32.9197 33.2915 32.8879 33.3499 32.8515C33.3935 32.8267 33.4684 32.7727 33.4684 32.7727C33.802 32.5259 33.9994 32.136 34.001 31.7211V20.6747C34.0008 20.886 33.8869 21.0808 33.7028 21.1846Z" fill="url(#paint0_linear_603_6571)"/>
<path opacity="0.5" d="M33.4794 20.6313V21.3085L23.3343 28.2935L12.8311 20.8592C12.8311 20.8556 12.8281 20.8527 12.8246 20.8527L11.8608 20.2732V19.7848L12.2581 19.7783L13.098 20.2601L13.1176 20.2666L13.1892 20.3122C13.1892 20.3122 23.0608 25.9448 23.0869 25.9578L23.4645 26.1792C23.4971 26.1662 23.5296 26.1531 23.5687 26.1401C23.5883 26.1271 33.3687 20.6248 33.3687 20.6248L33.4794 20.6313Z" fill="#0A2767"/>
<path d="M33.7028 21.1846L33.6904 21.1918L23.9881 26.6485C23.9458 26.6745 23.9028 26.6993 23.8579 26.7214C23.4811 26.9055 23.0404 26.9055 22.6636 26.7214C22.619 26.6993 22.5756 26.675 22.5334 26.6485L12.8311 21.1918L12.8194 21.1846C12.6321 21.083 12.5146 20.8878 12.5127 20.6747V31.7211C12.5174 32.4579 13.1185 33.0515 13.8553 33.0468C13.8553 33.0468 13.8554 33.0468 13.8554 33.0468H32.6584C33.3952 33.0515 33.9964 32.458 34.0011 31.7211C34.0011 31.7211 34.0011 31.7211 34.0011 31.7211V20.6747C34.0008 20.886 33.8869 21.0808 33.7028 21.1846Z" fill="#1490DF"/>
<path opacity="0.1" d="M24.1293 26.5676L23.9841 26.6489C23.942 26.6757 23.8985 26.7003 23.8538 26.7225C23.6939 26.8011 23.5199 26.8471 23.342 26.858L27.0335 31.2234L33.4728 32.7751C33.6493 32.6418 33.7896 32.4665 33.8811 32.2652L24.1293 26.5676Z" fill="black"/>
<path opacity="0.05" d="M24.7867 26.1972L23.9838 26.6485C23.9418 26.6752 23.8983 26.6998 23.8536 26.722C23.6936 26.8006 23.5197 26.8466 23.3418 26.8575L25.0713 31.6259L33.4745 32.7726C33.8056 32.5241 34.0005 32.1343 34.0007 31.7204V31.5777L24.7867 26.1972Z" fill="black"/>
<path d="M13.8736 33.0468H32.6564C32.9454 33.0483 33.2273 32.957 33.4606 32.7864L22.801 26.5424C22.7563 26.5199 22.7128 26.4949 22.6708 26.4675L12.8383 20.8558H12.8337L12.5127 20.6747V31.6833C12.512 32.4356 13.1213 33.0461 13.8736 33.0468Z" fill="#28A8EA"/>
<path opacity="0.1" d="M21.629 13.4025V27.2918C21.6278 27.7788 21.3317 28.2165 20.8801 28.3988C20.7402 28.4589 20.5896 28.4899 20.4373 28.4899H12.5127V12.8601H13.815V12.2089H20.4374C21.0952 12.2114 21.6275 12.7447 21.629 13.4025Z" fill="black"/>
<path opacity="0.2" d="M20.9778 14.0541V27.9434C20.9795 28.1007 20.9461 28.2564 20.8801 28.3992C20.6993 28.8449 20.2672 29.1374 19.7862 29.1396H12.5127V12.8605H19.7862C19.9751 12.8586 20.1613 12.9058 20.3266 12.9973C20.7258 13.1984 20.9777 13.6072 20.9778 14.0541Z" fill="black"/>
<path opacity="0.2" d="M20.9778 14.0541V26.6411C20.9746 27.2986 20.4437 27.8316 19.7862 27.8372H12.5127V12.8605H19.7862C19.9751 12.8586 20.1613 12.9058 20.3266 12.9973C20.7258 13.1984 20.9777 13.6072 20.9778 14.0541Z" fill="black"/>
<path opacity="0.2" d="M20.3266 14.054V26.641C20.3259 27.2996 19.7936 27.834 19.135 27.8372H12.5127V12.8605H19.135C19.7935 12.8608 20.327 13.3949 20.3266 14.0534C20.3266 14.0536 20.3266 14.0538 20.3266 14.054Z" fill="black"/>
<path d="M7.19333 12.8605H19.1317C19.7909 12.8605 20.3253 13.3949 20.3253 14.0541V25.9925C20.3253 26.6517 19.7909 27.186 19.1317 27.186H7.19333C6.53413 27.186 5.99976 26.6516 5.99976 25.9925V14.0541C5.99976 13.3949 6.53415 12.8605 7.19333 12.8605Z" fill="url(#paint1_linear_603_6571)"/>
<path d="M9.73035 17.8663C10.0245 17.2395 10.4994 16.715 11.0939 16.3601C11.7523 15.9832 12.5019 15.7953 13.2603 15.8171C13.9632 15.8018 14.6567 15.98 15.2652 16.3321C15.8374 16.6733 16.2981 17.1732 16.5917 17.7712C16.9113 18.4301 17.0706 19.1553 17.0566 19.8875C17.0721 20.6527 16.9082 21.4109 16.578 22.1014C16.2775 22.7208 15.8021 23.2385 15.2105 23.5906C14.5786 23.9536 13.8593 24.1364 13.1307 24.1194C12.4128 24.1367 11.704 23.9565 11.0815 23.5984C10.5045 23.2568 10.0379 22.7563 9.73752 22.1568C9.41597 21.5074 9.25477 20.7904 9.26739 20.0659C9.25399 19.3072 9.41226 18.5552 9.73035 17.8663ZM11.1837 21.4021C11.3406 21.7983 11.6066 22.142 11.9508 22.3932C12.3014 22.6382 12.7213 22.7646 13.1489 22.7539C13.6044 22.7719 14.0533 22.6412 14.4278 22.3814C14.7677 22.131 15.0267 21.7864 15.1728 21.3904C15.336 20.948 15.4166 20.4794 15.4104 20.0079C15.4155 19.532 15.3397 19.0586 15.1864 18.6079C15.051 18.2011 14.8004 17.8423 14.4649 17.5752C14.0998 17.3032 13.6521 17.1652 13.1971 17.1845C12.7602 17.1732 12.331 17.3006 11.971 17.5485C11.6209 17.8008 11.3499 18.1474 11.1896 18.548C10.834 19.4663 10.8321 20.4839 11.1844 21.4034L11.1837 21.4021Z" fill="white"/>
<path d="M26.8381 10.907H32.6986V16.7675H26.8381V10.907Z" fill="#50D9FF"/>
</g>
<defs>
<linearGradient id="paint0_linear_603_6571" x1="23.2569" y1="20.6747" x2="23.2569" y2="33.0469" gradientUnits="userSpaceOnUse">
<stop stop-color="#35B8F1"/>
<stop offset="1" stop-color="#28A8EA"/>
</linearGradient>
<linearGradient id="paint1_linear_603_6571" x1="8.4884" y1="11.9278" x2="17.8367" y2="28.1187" gradientUnits="userSpaceOnUse">
<stop stop-color="#1784D9"/>
<stop offset="0.5" stop-color="#107AD5"/>
<stop offset="1" stop-color="#0A63C9"/>
</linearGradient>
<clipPath id="clip0_603_6571">
<rect width="28" height="26.0465" fill="white" transform="translate(5.99951 6.99994)"/>
</clipPath>
</defs>
</svg>
