<svg width="40" height="40" viewBox="0 0 40 40" fill="none" xmlns="http://www.w3.org/2000/svg">
<rect width="40" height="40" rx="8" fill="#EBF2FA"/>
<path d="M27.3684 16.8646H26.6315V14.0573C26.6315 12.2298 25.9329 10.4771 24.6892 9.1849C23.4455 7.89266 21.7588 7.16669 20 7.16669C18.2412 7.16669 16.5544 7.89266 15.3107 9.1849C14.0671 10.4771 13.3684 12.2298 13.3684 14.0573V16.8646H12.6315C12.1104 16.8646 11.6106 17.0797 11.2421 17.4626C10.8736 17.8455 10.6666 18.3648 10.6666 18.9063V29.625C10.6666 30.1665 10.8736 30.6858 11.2421 31.0687C11.6106 31.4516 12.1104 31.6667 12.6315 31.6667H27.3684C27.8895 31.6667 28.3893 31.4516 28.7578 31.0687C29.1263 30.6858 29.3333 30.1665 29.3333 29.625V18.9063C29.3333 18.3648 29.1263 17.8455 28.7578 17.4626C28.3893 17.0797 27.8895 16.8646 27.3684 16.8646ZM20 26.0521C19.6113 26.0521 19.2314 25.9324 18.9083 25.708C18.5852 25.4837 18.3333 25.1648 18.1846 24.7917C18.0359 24.4187 17.997 24.0082 18.0728 23.6121C18.1486 23.2161 18.3358 22.8523 18.6106 22.5668C18.8854 22.2812 19.2355 22.0868 19.6166 22.008C19.9978 21.9292 20.3929 21.9697 20.7519 22.1242C21.1109 22.2787 21.4178 22.5404 21.6337 22.8761C21.8496 23.2119 21.9649 23.6066 21.9649 24.0104C21.9649 24.5519 21.7579 25.0712 21.3894 25.4541C21.0209 25.837 20.5211 26.0521 20 26.0521ZM24.1754 16.3542C24.1754 16.4896 24.1236 16.6194 24.0315 16.7151C23.9394 16.8108 23.8145 16.8646 23.6842 16.8646H16.3157C16.1855 16.8646 16.0605 16.8108 15.9684 16.7151C15.8763 16.6194 15.8245 16.4896 15.8245 16.3542V14.0573C15.8245 12.9067 16.2644 11.8031 17.0475 10.9895C17.8305 10.1759 18.8926 9.71877 20 9.71877C21.1074 9.71877 22.1694 10.1759 22.9524 10.9895C23.7355 11.8031 24.1754 12.9067 24.1754 14.0573V16.3542Z" fill="#005CF0"/>
</svg>
