<svg width="42" height="38" viewBox="0 0 42 38" fill="none" xmlns="http://www.w3.org/2000/svg">
<path fill-rule="evenodd" clip-rule="evenodd" d="M16.3076 23.1111C19.0679 24.7015 22.4852 24.7146 25.2637 23.1655L27.0384 24.7377V27.2097H29.5147L30.3402 28.075V30.5058H32.5144L34.2676 32.1538H37.7692V28.6583L28.7652 19.6701C30.6968 16.2208 30.1998 11.7793 27.2629 8.84752C25.1927 6.78091 22.373 5.92064 19.6771 6.26673" fill="#B5D9F1"/>
<path d="M16.3076 23.1111C19.0679 24.7015 22.4852 24.7146 25.2637 23.1655L27.0384 24.7377V27.2097H29.5147L30.3402 28.075V30.5058H32.5144L34.2676 32.1538H37.7692V28.6583L28.7652 19.6701C30.6968 16.2208 30.1998 11.7793 27.2629 8.84752C25.1927 6.78091 22.373 5.92064 19.6771 6.26673" stroke="#264887" stroke-width="1.25" stroke-linecap="round" stroke-dasharray="169 7"/>
<g filter="url(#filter0_i_415_6337)">
<path fill-rule="evenodd" clip-rule="evenodd" d="M22.5385 13.4096C22.5385 8.46703 18.5081 4.46155 13.5385 4.46155C8.56885 4.46155 4.53848 8.46703 4.53848 13.4096C4.53848 17.5046 7.30885 20.9488 11.0839 22.0112V23.9846L9.44757 25.6099L11.0839 27.2385V28.8654L9.44757 30.4923L11.0839 32.1192V34.5596L13.5385 37L15.993 34.5596V22.0112C19.7681 20.9488 22.5385 17.5046 22.5385 13.4096Z" fill="white"/>
</g>
<path fill-rule="evenodd" clip-rule="evenodd" d="M22.5385 13.4096C22.5385 8.46703 18.5081 4.46155 13.5385 4.46155C8.56885 4.46155 4.53848 8.46703 4.53848 13.4096C4.53848 17.5046 7.30885 20.9488 11.0839 22.0112V23.9846L9.44757 25.6099L11.0839 27.2385V28.8654L9.44757 30.4923L11.0839 32.1192V34.5596L13.5385 37L15.993 34.5596V22.0112C19.7681 20.9488 22.5385 17.5046 22.5385 13.4096Z" stroke="#264887" stroke-width="1.25" stroke-linecap="round" stroke-dasharray="181 7 1 4"/>
<path fill-rule="evenodd" clip-rule="evenodd" d="M15.2692 12.423C15.2692 13.3784 14.4938 14.1538 13.5384 14.1538C12.583 14.1538 11.8076 13.3784 11.8076 12.423C11.8076 11.4676 12.583 10.6923 13.5384 10.6923C14.4938 10.6923 15.2692 11.4676 15.2692 12.423Z" stroke="#264887" stroke-width="1.25" stroke-linecap="round" stroke-linejoin="round"/>
<path d="M13.5385 12.4231V4.19527C13.5385 2.43148 15.0893 1 17 1C18.9108 1 20.4616 2.43148 20.4616 4.19527V5.80384" stroke="#D7403A" stroke-width="1.25" stroke-linecap="round" stroke-linejoin="round"/>
<path fill-rule="evenodd" clip-rule="evenodd" d="M39.5 25.923C40.0735 25.923 40.5385 25.4581 40.5385 24.8845C40.5385 24.311 40.0735 23.8461 39.5 23.8461C38.9265 23.8461 38.4615 24.311 38.4615 24.8845C38.4615 25.4581 38.9265 25.923 39.5 25.923Z" stroke="#B5D9F1"/>
<rect x="1.0769" y="24.8848" width="2.07692" height="2.07692" stroke="#B5D9F1" stroke-linecap="round" stroke-linejoin="round"/>
<path d="M36.1095 4.53248L37.727 6.15001" stroke="#B5D9F1" stroke-linecap="round"/>
<path d="M37.67 4.5326L36.0524 6.15013" stroke="#B5D9F1" stroke-linecap="round"/>
<defs>
<filter id="filter0_i_415_6337" x="3.91348" y="3.83655" width="19.25" height="34.0448" filterUnits="userSpaceOnUse" color-interpolation-filters="sRGB">
<feFlood flood-opacity="0" result="BackgroundImageFix"/>
<feBlend mode="normal" in="SourceGraphic" in2="BackgroundImageFix" result="shape"/>
<feColorMatrix in="SourceAlpha" type="matrix" values="0 0 0 0 0 0 0 0 0 0 0 0 0 0 0 0 0 0 127 0" result="hardAlpha"/>
<feOffset dx="4.5" dy="-1"/>
<feComposite in2="hardAlpha" operator="arithmetic" k2="-1" k3="1"/>
<feColorMatrix type="matrix" values="0 0 0 0 0.709804 0 0 0 0 0.85098 0 0 0 0 0.945098 0 0 0 1 0"/>
<feBlend mode="normal" in2="shape" result="effect1_innerShadow_415_6337"/>
</filter>
</defs>
</svg>
