<svg width="88" height="88" viewBox="0 0 88 88" fill="none" xmlns="http://www.w3.org/2000/svg">
<g clip-path="url(#clip0_243_14593)">
<path d="M0 44.9565C0 56.3723 4.6357 67.3206 12.8873 75.3928C21.1389 83.4651 32.3305 88 44 88C55.6695 88 66.8611 83.4651 75.1127 75.3928C83.3643 67.3206 88 56.3723 88 44.9565C88 33.5407 83.3643 22.5924 75.1127 14.5202C66.8611 6.44795 55.6695 1.91302 44 1.91302C32.3305 1.91302 21.1389 6.44795 12.8873 14.5202C4.6357 22.5924 0 33.5407 0 44.9565Z" fill="#E4E5F6"/>
<path d="M29.7876 45.1236L22.6465 48.2195L23.7929 63.8579C24.0175 63.7113 24.1874 63.4973 24.2769 63.2481L29.8267 45.9686C29.9155 45.6912 29.9017 45.3921 29.7876 45.1236Z" fill="#D32D27" stroke="#474A86" stroke-width="1.1" stroke-linecap="round" stroke-linejoin="round"/>
<path d="M22.6466 48.2195L29.7878 45.1235V45.1157C29.6714 44.848 29.462 44.6292 29.1965 44.4981L23.2128 41.5384C22.8805 41.3739 22.5149 41.2835 22.1426 41.2737L22.6517 48.2214L22.6466 48.2195Z" fill="#DF6661" stroke="#474A86" stroke-width="1.1" stroke-linecap="round" stroke-linejoin="round"/>
<path d="M22.1363 41.2719C21.7607 41.2618 21.3875 41.3338 21.044 41.4826L14.6304 44.2609L22.6414 48.2195L22.1363 41.2719Z" fill="#E78C89" stroke="#474A86" stroke-width="1.1" stroke-linecap="round" stroke-linejoin="round"/>
<path d="M14.636 44.2609L12.2529 52.7252L22.647 48.2195L14.636 44.2609Z" fill="#EFB2B0" stroke="#474A86" stroke-width="0.77" stroke-linecap="round" stroke-linejoin="round"/>
<path d="M12.2529 52.7251L23.3254 64.0608C23.4116 64.0527 23.4966 64.0356 23.579 64.0098C23.6539 63.9671 23.7241 63.9168 23.7884 63.8598L22.647 48.2195L12.2529 52.7251Z" fill="#E78C89" stroke="#474A86" stroke-width="1.1" stroke-linecap="round" stroke-linejoin="round"/>
<path d="M5.11182 55.8211L12.253 52.7252L23.3255 64.0608C23.0634 64.1259 22.7867 64.1052 22.5378 64.002L5.72612 56.4171C5.45614 56.2952 5.23865 56.0842 5.11182 55.8211Z" fill="#D32D27" stroke="#474A86" stroke-width="1.1" stroke-linecap="round" stroke-linejoin="round"/>
<path d="M12.2531 52.7252L5.11191 55.8211V55.8122C4.98698 55.5483 4.96177 55.2496 5.04076 54.9691L6.81853 48.645C6.91792 48.2936 7.09515 47.9679 7.33763 47.6911L12.2571 52.7271L12.2531 52.7252Z" fill="#DF6661" stroke="#474A86" stroke-width="1.1" stroke-linecap="round" stroke-linejoin="round"/>
<path d="M7.33301 47.6892C7.57818 47.4105 7.88348 47.1885 8.2269 47.0392L14.6405 44.2609L12.2575 52.7252L7.33301 47.6892Z" fill="#E78C89" stroke="#474A86" stroke-width="1.1" stroke-linecap="round" stroke-linejoin="round"/>
<path d="M48.6302 48.5812L55.7703 51.6762L54.6249 67.3146C54.4004 67.1681 54.2308 66.954 54.1419 66.7048L48.5931 49.4253C48.5027 49.1486 48.5158 48.8494 48.6302 48.5812Z" fill="#9699DE" stroke="#474A86" stroke-width="1.1" stroke-linecap="round" stroke-linejoin="round"/>
<path d="M55.77 51.6752L48.6299 48.5812V48.5734C48.7463 48.3058 48.9558 48.087 49.2211 47.9558L55.2048 44.9952C55.538 44.8317 55.9036 44.7413 56.2761 44.7305L55.766 51.6781L55.77 51.6752Z" fill="#B0B2E6" stroke="#474A86" stroke-width="1.1" stroke-linecap="round" stroke-linejoin="round"/>
<path d="M56.279 44.7285C56.6549 44.7185 57.0284 44.7905 57.3723 44.9393L63.7859 47.7176L55.7749 51.6752L56.279 44.7285Z" fill="#CACCEE" stroke="#474A86" stroke-width="1.1" stroke-linecap="round" stroke-linejoin="round"/>
<path d="M63.781 47.7176L66.1651 56.1819L55.77 51.6752L63.781 47.7176Z" fill="#E4E5F6" stroke="#474A86" stroke-width="0.77" stroke-linecap="round" stroke-linejoin="round"/>
<path d="M66.1653 56.1818L55.0918 67.5175C55.0061 67.5091 54.9215 67.492 54.8393 67.4666C54.7645 67.4244 54.6946 67.3744 54.6309 67.3175L55.7763 51.6782L66.1653 56.1818Z" fill="#CACCEE" stroke="#474A86" stroke-width="1.1" stroke-linecap="round" stroke-linejoin="round"/>
<path d="M73.3055 59.2768L66.1653 56.1818L55.0918 67.5175C55.3536 67.5824 55.6298 67.5617 55.8785 67.4587L72.6921 59.8728C72.9623 59.7515 73.1797 59.5403 73.3055 59.2768Z" fill="#9699DE" stroke="#474A86" stroke-width="1.1" stroke-linecap="round" stroke-linejoin="round"/>
<path d="M66.1652 56.1818L73.3053 59.2768V59.2689C73.4294 59.0047 73.4542 58.7062 73.3755 58.4258L71.5977 52.1007C71.4987 51.7494 71.3214 51.424 71.0786 51.1478L66.1602 56.1838L66.1652 56.1818Z" fill="#B0B2E6" stroke="#474A86" stroke-width="1.1" stroke-linecap="round" stroke-linejoin="round"/>
<path d="M71.0834 51.1458C70.8388 50.8669 70.5338 50.6449 70.1905 50.4959L63.7769 47.7176L66.1609 56.1819L71.0834 51.1458Z" fill="#CACCEE" stroke="#474A86" stroke-width="1.1" stroke-linecap="round" stroke-linejoin="round"/>
<path d="M16.4036 17.0996L19.7657 16.0026C19.8295 15.9826 19.885 15.9434 19.9245 15.8905C19.9639 15.8377 19.9852 15.7739 19.9852 15.7085C19.9852 15.643 19.9639 15.5793 19.9245 15.5264C19.885 15.4735 19.8295 15.4343 19.7657 15.4144L17.0029 14.5134C16.8161 14.4527 16.6464 14.3502 16.5072 14.214C16.3681 14.0779 16.2633 13.9119 16.2012 13.7292L15.2822 11.0342C15.2624 10.9714 15.2225 10.9164 15.1684 10.8774C15.1143 10.8383 15.0488 10.8173 14.9816 10.8173C14.9144 10.8173 14.8489 10.8383 14.7948 10.8774C14.7407 10.9164 14.7008 10.9714 14.681 11.0342L13.76 13.737C13.698 13.9197 13.5932 14.0858 13.454 14.2219C13.3148 14.3581 13.1451 14.4606 12.9583 14.5213L10.1934 15.4232C10.1292 15.4426 10.073 15.4816 10.0331 15.5346C9.99321 15.5875 9.97168 15.6515 9.97168 15.7173C9.97168 15.7831 9.99321 15.8471 10.0331 15.9C10.073 15.9529 10.1292 15.992 10.1934 16.0114L12.9583 16.9133C13.1451 16.974 13.3148 17.0765 13.454 17.2126C13.5932 17.3488 13.698 17.5148 13.76 17.6976L14.682 20.4033C14.7024 20.4656 14.7425 20.52 14.7965 20.5586C14.8505 20.5972 14.9157 20.618 14.9826 20.618C15.0495 20.618 15.1147 20.5972 15.1687 20.5586C15.2227 20.52 15.2628 20.4656 15.2832 20.4033L16.4036 17.0996Z" fill="white" stroke="#474A86" stroke-width="1.1" stroke-linecap="round" stroke-linejoin="round"/>
<path d="M77.5049 28.2951L80.867 27.1981C80.9307 27.1781 80.9863 27.1389 81.0257 27.086C81.0652 27.0331 81.0864 26.9694 81.0864 26.904C81.0864 26.8385 81.0652 26.7748 81.0257 26.7219C80.9863 26.669 80.9307 26.6298 80.867 26.6099L78.1041 25.7089C77.9174 25.6482 77.7477 25.5457 77.6085 25.4095C77.4693 25.2734 77.3645 25.1074 77.3024 24.9247L76.3815 22.2218C76.3611 22.1595 76.321 22.1051 76.2669 22.0666C76.2129 22.028 76.1477 22.0072 76.0809 22.0072C76.014 22.0072 75.9488 22.028 75.8948 22.0666C75.8407 22.1051 75.8006 22.1595 75.7802 22.2218L74.8593 24.9247C74.7971 25.1073 74.6923 25.2733 74.5531 25.4094C74.414 25.5456 74.2443 25.6481 74.0576 25.7089L71.2917 26.6099C71.228 26.6298 71.1724 26.669 71.133 26.7219C71.0935 26.7748 71.0723 26.8385 71.0723 26.904C71.0723 26.9694 71.0935 27.0331 71.133 27.086C71.1724 27.1389 71.228 27.1781 71.2917 27.1981L74.0576 28.099C74.2444 28.1595 74.4142 28.262 74.5534 28.3982C74.6926 28.5343 74.7974 28.7005 74.8593 28.8833L75.7812 31.588C75.8016 31.6504 75.8417 31.7047 75.8958 31.7433C75.9498 31.7819 76.015 31.8027 76.0819 31.8027C76.1487 31.8027 76.2139 31.7819 76.2679 31.7433C76.322 31.7047 76.3621 31.6504 76.3825 31.588L77.5049 28.2951Z" fill="white" stroke="#474A86" stroke-width="1.1" stroke-linecap="round" stroke-linejoin="round"/>
<path d="M56.9537 9.97346C57.0601 9.52237 57.2938 9.10959 57.6283 8.78217C57.9629 8.45474 58.3847 8.22586 58.8457 8.1216L62.6448 7.26478C62.7142 7.24871 62.776 7.2102 62.8202 7.15549C62.8645 7.10078 62.8885 7.03307 62.8885 6.96332C62.8885 6.89357 62.8645 6.82586 62.8202 6.77115C62.776 6.71644 62.7142 6.67794 62.6448 6.66187L58.8457 5.80505C58.3845 5.70122 57.9624 5.47247 57.6278 5.14498C57.2932 4.81748 57.0596 4.40447 56.9537 3.95319L56.0769 0.239653C56.0609 0.171547 56.0217 0.110763 55.9659 0.0672324C55.91 0.0237021 55.8406 0 55.7692 0C55.6978 0 55.6285 0.0237021 55.5726 0.0672324C55.5167 0.110763 55.4776 0.171547 55.4616 0.239653L54.5857 3.95319C54.4793 4.40453 54.2455 4.81755 53.9108 5.14515C53.5761 5.47275 53.154 5.70175 52.6927 5.80603L48.8936 6.66187C48.8242 6.67794 48.7624 6.71644 48.7182 6.77115C48.674 6.82586 48.6499 6.89357 48.6499 6.96332C48.6499 7.03307 48.674 7.10078 48.7182 7.15549C48.7624 7.2102 48.8242 7.24871 48.8936 7.26478L52.6897 8.1216C53.1509 8.2258 53.5728 8.45465 53.9075 8.78207C54.2422 9.10949 54.4762 9.5223 54.5827 9.97346L55.4585 13.6899C55.4745 13.758 55.5137 13.8188 55.5696 13.8624C55.6254 13.9059 55.6948 13.9296 55.7662 13.9296C55.8376 13.9296 55.907 13.9059 55.9628 13.8624C56.0187 13.8188 56.0579 13.758 56.0739 13.6899L56.9537 9.97346Z" fill="white" stroke="#474A86" stroke-width="1.1" stroke-linecap="round" stroke-linejoin="round"/>
<path d="M66.7743 35.2829L52.955 34.2742L41.3584 59.6748C41.8353 59.6297 42.2842 59.4339 42.6371 59.117L66.1119 36.6378C66.4888 36.2765 66.7234 35.7967 66.7743 35.2829Z" fill="#6F73D2" stroke="#474A86" stroke-width="1.1" stroke-linecap="round" stroke-linejoin="round"/>
<path d="M52.9551 34.2742L66.7744 35.283V35.2643C66.8206 34.7495 66.6786 34.2354 66.3736 33.8134L59.5491 24.2816C59.1706 23.7544 58.6783 23.3149 58.107 22.9944L52.9551 34.2781V34.2742Z" fill="#7C7FD6" stroke="#474A86" stroke-width="1.1" stroke-linecap="round" stroke-linejoin="round"/>
<path d="M58.1068 22.9944C57.5278 22.6703 56.882 22.4771 56.2168 22.4287L43.8145 21.5239L52.9549 34.2781L58.1068 22.9944Z" fill="#9699DE" stroke="#474A86" stroke-width="1.1" stroke-linecap="round" stroke-linejoin="round"/>
<path d="M43.8146 21.5199L32.8403 32.8056L52.955 34.2741L43.8146 21.5199Z" fill="#B0B2E6" stroke="#474A86" stroke-width="0.77" stroke-linecap="round" stroke-linejoin="round"/>
<path d="M32.8403 32.8056L40.4565 59.6081C40.5982 59.6655 40.7456 59.7082 40.8964 59.7356H40.9024H40.9075C41.0605 59.7301 41.2126 59.7094 41.3614 59.6738L52.958 34.2732L32.8403 32.8056Z" fill="#9699DE" stroke="#474A86" stroke-width="1.1" stroke-linecap="round" stroke-linejoin="round"/>
<path d="M19.0212 31.7968L32.8406 32.8056L40.4567 59.6081C39.9909 59.4968 39.5752 59.2392 39.2732 58.8748L19.4712 33.232C19.1525 32.8207 18.9931 32.3122 19.0212 31.7968Z" fill="#6F73D2" stroke="#474A86" stroke-width="1.1" stroke-linecap="round" stroke-linejoin="round"/>
<path d="M32.8403 32.8056L19.021 31.7968V31.7772C19.0536 31.2636 19.2701 30.7777 19.6323 30.4047L27.8287 21.9738C28.2847 21.5059 28.8403 21.1418 29.4561 20.9072L32.8393 32.8144L32.8403 32.8056Z" fill="#7C7FD6" stroke="#474A86" stroke-width="1.1" stroke-linecap="round" stroke-linejoin="round"/>
<path d="M29.457 20.8994C30.0787 20.6635 30.7462 20.5661 31.4112 20.6141L43.8145 21.5238L32.8402 32.8056L29.457 20.8994Z" fill="#9699DE" stroke="#474A86" stroke-width="1.1" stroke-linecap="round" stroke-linejoin="round"/>
<line x1="28.7434" y1="71.6205" x2="52.4079" y2="71.6205" stroke="#474A86" stroke-width="1.1" stroke-linecap="round" stroke-dasharray="49.5 3.85 0.55 2.75"/>
</g>
<defs>
<clipPath id="clip0_243_14593">
<rect width="88" height="88" fill="white"/>
</clipPath>
</defs>
</svg>
