<svg width="60" height="40" viewBox="0 0 60 40" fill="none" xmlns="http://www.w3.org/2000/svg">
<path d="M3.10017 10.0007L1 11.3569L2.38329 13.4842L4.48346 12.128L3.10017 10.0007Z" stroke="#B5D9F1" stroke-linecap="round" stroke-linejoin="round"/>
<path d="M11.1279 11.2877L14.4357 12.0198L11.1279 11.2877Z" fill="#B5D9F1"/>
<path d="M11.1279 11.2877L14.4357 12.0198" stroke="#B5D9F1" stroke-linecap="round"/>
<path d="M13.0514 10.0457L12.3707 13.3535L13.0514 10.0457Z" fill="#B5D9F1"/>
<path d="M13.0514 10.0457L12.3707 13.3535" stroke="#B5D9F1" stroke-linecap="round"/>
<path d="M54.6178 8.7618L52.7617 7.08704L51.0942 8.93592L52.9503 10.6107L54.6178 8.7618Z" stroke="#B5D9F1" stroke-linecap="round" stroke-linejoin="round"/>
<path fill-rule="evenodd" clip-rule="evenodd" d="M55.25 17.5C55.9404 17.5 56.5 16.9404 56.5 16.25C56.5 15.5596 55.9404 15 55.25 15C54.5596 15 54 15.5596 54 16.25C54 16.9404 54.5596 17.5 55.25 17.5Z" stroke="#B5D9F1"/>
<rect x="34.4526" y="17.7352" width="6.11026" height="7.52032" fill="#D32D27"/>
<g clip-path="url(#clip0_243_14606)">
<path d="M37.105 4.625C38.8095 4.62502 40.4446 5.30588 41.6509 6.51855C42.8573 7.73138 43.5356 9.37714 43.5356 11.0938V14.6084H44.9448C45.3325 14.6084 45.7049 14.7635 45.98 15.04C46.2551 15.3167 46.4106 15.6924 46.4106 16.085V27.1191C46.4106 27.5119 46.2552 27.8883 45.98 28.165C45.7049 28.4416 45.3324 28.5967 44.9448 28.5967H29.2651C28.8776 28.5967 28.5051 28.4415 28.23 28.165C27.9547 27.8883 27.7993 27.5119 27.7993 27.1191V16.085C27.7994 15.6923 27.9548 15.3167 28.23 15.04C28.5051 14.7635 28.8775 14.6084 29.2651 14.6084H30.6743V11.0938C30.6743 9.37714 31.3527 7.73138 32.5591 6.51855C33.7654 5.30591 35.4005 4.625 37.105 4.625ZM38.145 18.8213C37.6485 18.6145 37.1021 18.5596 36.5747 18.665C36.0473 18.7705 35.5627 19.0315 35.1831 19.4131C34.8038 19.7946 34.5454 20.2805 34.4409 20.8086C34.3365 21.3367 34.3902 21.8842 34.5952 22.3818C34.8004 22.8797 35.1486 23.3064 35.5952 23.6064C36.0418 23.9063 36.5673 24.0664 37.105 24.0664C37.8261 24.0664 38.5169 23.7782 39.0259 23.2666C39.5347 22.755 39.8207 22.0619 39.8208 21.3398C39.8208 20.8013 39.6617 20.2745 39.3638 19.8262C39.0658 19.3778 38.6416 19.0281 38.145 18.8213ZM37.105 6.00195C35.7599 6.00195 34.4701 6.53901 33.52 7.49414C32.57 8.44919 32.0376 9.74453 32.0376 11.0938V13.458C32.0376 13.762 32.1577 14.0545 32.3726 14.2705C32.5875 14.4865 32.8797 14.6084 33.1851 14.6084H41.0249C41.3303 14.6084 41.6225 14.4865 41.8374 14.2705C42.0523 14.0545 42.1724 13.762 42.1724 13.458V11.0938C42.1724 9.74453 41.639 8.44919 40.689 7.49414C39.7389 6.53928 38.4498 6.00197 37.105 6.00195Z" fill="white" stroke="#264887" stroke-width="1.25" stroke-linecap="round"/>
</g>
<path d="M50.7717 24.6167C50.4797 24.6158 50.1904 24.673 49.9204 24.7848L39.8853 28.8622C39.4866 29.0237 39.0607 29.1068 38.6309 29.1069H37.6157C38.1987 29.0955 38.7541 28.8547 39.1624 28.4362C39.5707 28.0176 39.7995 27.4548 39.7995 26.8685C39.7995 26.2822 39.5707 25.7194 39.1624 25.3008C38.7541 24.8823 38.1987 24.6415 37.6157 24.6301H33.3114C29.7255 24.6301 30.5643 20.7133 24.2564 20.7133H18.1333V33.0465C19.8696 32.9094 21.6158 33.1189 23.2713 33.6627L25.7383 34.5379C29.1347 35.7427 32.7999 35.9618 36.3144 35.1701C36.9433 35.1222 51.0142 29.175 51.6247 28.9203C52.1009 28.7223 52.4941 28.3643 52.7371 27.9075C52.9802 27.4506 53.058 26.9231 52.9573 26.415C52.8567 25.9069 52.5838 25.4496 52.1852 25.1212C51.7866 24.7928 51.2871 24.6136 50.7717 24.6141V24.6167Z" fill="#B5D9F1"/>
<path d="M23.3164 23.0941C29.6252 23.0941 28.7864 27.011 32.3723 27.011H36.6757C37.1778 27.0112 37.6651 27.1818 38.0587 27.4952C38.4522 27.8086 38.729 28.2465 38.8441 28.7378C39.2429 28.4722 39.546 28.0845 39.7086 27.6322C39.8712 27.1799 39.8845 26.687 39.7467 26.2265C39.6089 25.7659 39.3272 25.3622 38.9434 25.0752C38.5596 24.7881 38.094 24.6329 37.6157 24.6326H33.3114C29.7255 24.6326 30.5643 20.7158 24.2556 20.7158H18.1333V23.0941H23.3164Z" fill="#DAECF8"/>
<path d="M52.9994 26.8539C52.9992 26.4859 52.9088 26.1236 52.7361 25.7992C52.5635 25.4747 52.3139 25.1981 52.0095 24.9937C51.7051 24.7894 51.3553 24.6637 50.991 24.6277C50.6267 24.5917 50.2593 24.6465 49.9211 24.7874L39.886 28.8648C39.4873 29.0265 39.0615 29.1096 38.6316 29.1095H27.9434C27.9433 29.6614 28.1568 30.1917 28.5387 30.5882C28.9206 30.9847 29.441 31.2163 29.9897 31.2339C39.7121 31.5517 40.3108 31.1255 49.0088 27.2112C49.3005 27.0892 49.6148 27.0314 49.9305 27.0415C50.2463 27.0517 50.5562 27.1296 50.8396 27.27C51.123 27.4105 51.3732 27.6102 51.5735 27.8558C51.7738 28.1015 51.9195 28.3873 52.0009 28.6942H52.0469C52.3412 28.487 52.5814 28.2116 52.7472 27.8912C52.913 27.5709 52.9995 27.215 52.9994 26.8539Z" fill="#DAECF8"/>
<path d="M37.6155 29.1094H28.1523" stroke="#264887" stroke-width="1.25" stroke-miterlimit="10" stroke-linecap="round"/>
<path d="M50.7717 24.6167C50.4797 24.6158 50.1904 24.673 49.9204 24.7848L39.8853 28.8622C39.4866 29.0237 39.0607 29.1068 38.6309 29.1069H37.6157C38.1987 29.0955 38.7541 28.8547 39.1624 28.4362C39.5707 28.0176 39.7995 27.4548 39.7995 26.8685C39.7995 26.2822 39.5707 25.7194 39.1624 25.3008C38.7541 24.8823 38.1987 24.6415 37.6157 24.6301H33.3114C29.7255 24.6301 30.5643 20.7133 24.2564 20.7133H18.1333V33.0465C19.8696 32.9094 21.6158 33.1189 23.2713 33.6627L25.7383 34.5379C29.1347 35.7427 32.7999 35.9618 36.3144 35.1701C36.9433 35.1222 51.0142 29.175 51.6247 28.9203C52.1009 28.7223 52.4941 28.3643 52.7371 27.9075C52.9802 27.4506 53.058 26.9231 52.9573 26.415C52.8567 25.9069 52.5838 25.4496 52.1852 25.1212C51.7866 24.7928 51.2871 24.6136 50.7717 24.6141V24.6167Z" stroke="#264887" stroke-width="1.25" stroke-linecap="round" stroke-linejoin="round"/>
<path d="M13.9569 18H7.83626C7.37441 18 7 18.3764 7 18.8407V34.5074C7 34.9717 7.37441 35.3481 7.83626 35.3481H13.9569C14.4187 35.3481 14.7931 34.9717 14.7931 34.5074V18.8407C14.7931 18.3764 14.4187 18 13.9569 18Z" fill="white"/>
<path d="M13.9569 18H7.83626C7.37441 18 7 18.3764 7 18.8407V34.5074C7 34.9717 7.37441 35.3481 7.83626 35.3481H13.9569C14.4187 35.3481 14.7931 34.9717 14.7931 34.5074V18.8407C14.7931 18.3764 14.4187 18 13.9569 18Z" stroke="#264887" stroke-width="1.25" stroke-linecap="round" stroke-linejoin="round"/>
<path d="M14.793 34.2279H17.2968C17.5186 34.2279 17.7313 34.1393 17.8881 33.9817C18.0449 33.824 18.133 33.6102 18.133 33.3872V19.9594C18.133 19.7364 18.0449 19.5226 17.8881 19.3649C17.7313 19.2073 17.5186 19.1187 17.2968 19.1187H14.793V34.2279Z" fill="white" stroke="#264887" stroke-width="1.25" stroke-linecap="round" stroke-linejoin="round"/>
<defs>
<clipPath id="clip0_243_14606">
<rect width="25.0878" height="25.2213" fill="white" transform="translate(24.561 4)"/>
</clipPath>
</defs>
</svg>
