<svg width="60" height="40" viewBox="0 0 60 40" fill="none" xmlns="http://www.w3.org/2000/svg">
<path d="M33.587 32.0359V31.8851C33.587 30.4858 33.0311 29.1438 32.0417 28.1544C31.0523 27.165 29.7103 26.6091 28.3111 26.6091C26.9118 26.6091 25.5698 27.165 24.5804 28.1544C23.591 29.1438 23.0351 30.4858 23.0351 31.8851V32.0359C22.7588 32.0412 22.4955 32.1546 22.302 32.3519C22.1084 32.5492 22 32.8146 22 33.0909C22 33.3673 22.1084 33.6327 22.302 33.83C22.4955 34.0273 22.7588 34.1407 23.0351 34.146C23.0574 34.146 23.0782 34.141 23.0997 34.1395C23.4798 36.6786 25.6646 38.2317 28.3111 38.2317C30.9575 38.2317 33.1423 36.6801 33.5224 34.1395C33.5443 34.1395 33.5647 34.146 33.587 34.146C33.7272 34.1487 33.8666 34.1234 33.997 34.0716C34.1273 34.0198 34.246 33.9425 34.3462 33.8442C34.4463 33.746 34.5258 33.6288 34.5801 33.4994C34.6344 33.3701 34.6624 33.2312 34.6624 33.0909C34.6624 32.9507 34.6344 32.8118 34.5801 32.6825C34.5258 32.5531 34.4463 32.4359 34.3462 32.3377C34.246 32.2394 34.1273 32.1621 33.997 32.1103C33.8666 32.0585 33.7272 32.0332 33.587 32.0359Z" fill="#B5D9F1"/>
<path d="M25.2771 34.6778C25.6412 34.6778 25.9365 34.3826 25.9365 34.0184C25.9365 33.6542 25.6412 33.359 25.2771 33.359C24.9129 33.359 24.6177 33.6542 24.6177 34.0184C24.6177 34.3826 24.9129 34.6778 25.2771 34.6778Z" fill="#90C6EB"/>
<path d="M31.3445 34.6739C31.7086 34.6739 32.0039 34.3787 32.0039 34.0145C32.0039 33.6503 31.7086 33.3551 31.3445 33.3551C30.9803 33.3551 30.6851 33.6503 30.6851 34.0145C30.6851 34.3787 30.9803 34.6739 31.3445 34.6739Z" fill="#90C6EB"/>
<path d="M26.7236 35.3597C27.1517 35.7672 27.72 35.9945 28.311 35.9945C28.9019 35.9945 29.4703 35.7672 29.8983 35.3597" stroke="#264887" stroke-width="0.975524" stroke-linecap="round" stroke-linejoin="round"/>
<path d="M26.9921 32.3036C26.9268 32.1469 26.8166 32.0131 26.6754 31.9189C26.5341 31.8248 26.3682 31.7745 26.1984 31.7745C26.0287 31.7745 25.8628 31.8248 25.7215 31.9189C25.5803 32.0131 25.4701 32.1469 25.4048 32.3036" stroke="#264887" stroke-width="0.975524" stroke-linecap="round" stroke-linejoin="round"/>
<path d="M31.2167 32.2997C31.1514 32.143 31.0412 32.0092 30.9 31.915C30.7587 31.8209 30.5928 31.7706 30.4231 31.7706C30.2533 31.7706 30.0874 31.8209 29.9461 31.915C29.8049 32.0092 29.6947 32.143 29.6294 32.2997" stroke="#264887" stroke-width="0.975524" stroke-linecap="round" stroke-linejoin="round"/>
<path d="M33.1865 29.8658C32.0097 28.8013 30.5161 28.1526 28.935 28.0192C28.5207 27.9653 28.1013 27.9653 27.687 28.0192C26.1059 28.1526 24.6123 28.8013 23.4355 29.8658C23.8354 28.9019 24.5119 28.0782 25.3797 27.4987C26.2474 26.9192 27.2675 26.6099 28.311 26.6099C29.3545 26.6099 30.3746 26.9192 31.2423 27.4987C32.1101 28.0782 32.7866 28.9019 33.1865 29.8658Z" fill="#90C6EB"/>
<path d="M33.587 32.0359V31.8851C33.587 30.4858 33.0311 29.1438 32.0417 28.1544C31.0523 27.165 29.7103 26.6091 28.3111 26.6091C26.9118 26.6091 25.5698 27.165 24.5804 28.1544C23.591 29.1438 23.0351 30.4858 23.0351 31.8851V32.0359C22.7588 32.0412 22.4955 32.1546 22.302 32.3519C22.1084 32.5492 22 32.8146 22 33.0909C22 33.3673 22.1084 33.6327 22.302 33.83C22.4955 34.0273 22.7588 34.1407 23.0351 34.146C23.0574 34.146 23.0782 34.141 23.0997 34.1395C23.4798 36.6786 25.6646 38.2317 28.3111 38.2317C30.9575 38.2317 33.1423 36.6801 33.5224 34.1395C33.5443 34.1395 33.5647 34.146 33.587 34.146C33.7272 34.1487 33.8666 34.1234 33.997 34.0716C34.1273 34.0198 34.246 33.9425 34.3462 33.8442C34.4463 33.746 34.5258 33.6288 34.5801 33.4994C34.6344 33.3701 34.6624 33.2312 34.6624 33.0909C34.6624 32.9507 34.6344 32.8118 34.5801 32.6825C34.5258 32.5531 34.4463 32.4359 34.3462 32.3377C34.246 32.2394 34.1273 32.1621 33.997 32.1103C33.8666 32.0585 33.7272 32.0332 33.587 32.0359V32.0359Z" stroke="#264887" stroke-width="1.25" stroke-linecap="round" stroke-linejoin="round"/>
<path d="M28.3116 28.3403C29.1579 28.3403 29.8439 27.7303 29.8439 26.978C29.8439 26.2256 29.1579 25.6157 28.3116 25.6157C27.4653 25.6157 26.7793 26.2256 26.7793 26.978C26.7793 27.7303 27.4653 28.3403 28.3116 28.3403Z" fill="#315CAE" stroke="#264887" stroke-width="0.975524" stroke-linecap="round" stroke-linejoin="round"/>
<path d="M27.7979 25.2523C27.8501 24.8062 27.8346 24.3549 27.7521 23.9135C27.637 23.2771 27.3355 22.6892 26.8857 22.2246C26.8647 22.2038 26.8513 22.1766 26.8477 22.1472C26.844 22.1179 26.8504 22.0882 26.8658 22.063C26.8812 22.0378 26.9046 22.0184 26.9323 22.0082C26.96 21.9979 26.9904 21.9973 27.0184 22.0064C27.3178 22.1088 27.5837 22.2904 27.7879 22.532C28.0936 22.9227 28.3162 23.3719 28.4419 23.8519C28.6006 24.3229 28.6954 24.813 28.7239 25.3092" fill="#614B44"/>
<path d="M27.7979 25.2523C27.8501 24.8062 27.8346 24.3549 27.7521 23.9135C27.637 23.2771 27.3355 22.6892 26.8857 22.2246C26.8647 22.2038 26.8513 22.1766 26.8477 22.1472C26.844 22.1179 26.8504 22.0882 26.8658 22.063C26.8812 22.0378 26.9046 22.0184 26.9323 22.0082C26.96 21.9979 26.9904 21.9973 27.0184 22.0064C27.3178 22.1088 27.5837 22.2904 27.7879 22.532C28.0936 22.9227 28.3162 23.3719 28.4419 23.8519C28.6006 24.3229 28.6954 24.813 28.7239 25.3092" stroke="#264887" stroke-width="0.975524" stroke-linecap="round" stroke-linejoin="round"/>
<path d="M28.311 25.8516C28.6485 25.3564 29.0991 24.9487 29.6256 24.6624C29.7174 24.6185 29.8177 24.5954 29.9194 24.5946C30.0212 24.5939 30.1218 24.6156 30.2142 24.6581C30.3067 24.7007 30.3886 24.7631 30.4541 24.8409C30.5197 24.9187 30.5673 25.01 30.5935 25.1083C30.7286 25.5945 30.7286 26.1083 30.5935 26.5945C30.5673 26.6928 30.5197 26.7841 30.4541 26.8619C30.3886 26.9397 30.3067 27.0021 30.2142 27.0447C30.1218 27.0872 30.0212 27.1089 29.9194 27.1082C29.8177 27.1074 29.7174 27.0843 29.6256 27.0404C29.0992 26.7542 28.6485 26.3467 28.311 25.8516Z" fill="#D7403A" stroke="#264887" stroke-width="0.975524" stroke-linecap="round" stroke-linejoin="round"/>
<path d="M28.3115 25.8522C27.9741 25.357 27.5234 24.9493 26.997 24.6631C26.9052 24.6191 26.8048 24.596 26.7031 24.5952C26.6014 24.5945 26.5007 24.6162 26.4083 24.6587C26.3159 24.7013 26.234 24.7637 26.1684 24.8415C26.1029 24.9193 26.0553 25.0106 26.029 25.1089C25.894 25.5951 25.894 26.1089 26.029 26.5951C26.0553 26.6934 26.1029 26.7847 26.1684 26.8625C26.234 26.9403 26.3159 27.0027 26.4083 27.0453C26.5007 27.0878 26.6014 27.1095 26.7031 27.1088C26.8048 27.108 26.9052 27.0849 26.997 27.041C27.5234 26.7548 27.974 26.3473 28.3115 25.8522Z" fill="#D7403A" stroke="#264887" stroke-width="0.975524" stroke-linecap="round" stroke-linejoin="round"/>
<path d="M28.3108 26.5325C28.6869 26.5325 28.9918 26.2277 28.9918 25.8516C28.9918 25.4755 28.6869 25.1707 28.3108 25.1707C27.9348 25.1707 27.6299 25.4755 27.6299 25.8516C27.6299 26.2277 27.9348 26.5325 28.3108 26.5325Z" fill="#D7403A" stroke="#264887" stroke-width="0.975524" stroke-linecap="round" stroke-linejoin="round"/>
<path d="M26.9091 16.7652C26.9057 16.3881 26.772 16.0238 26.5305 15.7341C26.289 15.4444 25.9547 15.2473 25.5844 15.1761V14.1157C25.5844 12.0076 24.7469 9.98592 23.2563 8.49529C21.7657 7.00466 19.744 6.16724 17.6359 6.16724C15.5278 6.16724 13.5061 7.00466 12.0155 8.49529C10.5248 9.98592 9.68742 12.0076 9.68742 14.1157V15.1761C9.30031 15.2476 8.95241 15.4574 8.70856 15.7664C8.46471 16.0754 8.34156 16.4626 8.36207 16.8557C8.38258 17.2488 8.54535 17.621 8.82003 17.903C9.09471 18.185 9.46256 18.3574 9.855 18.3882C10.228 20.1758 11.2052 21.7805 12.6223 22.9324C14.0393 24.0843 15.8097 24.7131 17.6359 24.7131C19.462 24.7131 21.2325 24.0843 22.6495 22.9324C24.0666 21.7805 25.0437 20.1758 25.4168 18.3882C25.8226 18.3513 26.2003 18.1647 26.4761 17.8647C26.752 17.5647 26.9063 17.1727 26.9091 16.7652Z" fill="#B5D9F1" stroke="#264887" stroke-width="1.25" stroke-linecap="round" stroke-linejoin="round"/>
<path d="M13.328 18.7523C13.8768 18.7523 14.3216 18.3074 14.3216 17.7587C14.3216 17.21 13.8768 16.7651 13.328 16.7651C12.7793 16.7651 12.3345 17.21 12.3345 17.7587C12.3345 18.3074 12.7793 18.7523 13.328 18.7523Z" fill="#90C6EB"/>
<path d="M21.9389 18.7523C22.4876 18.7523 22.9324 18.3074 22.9324 17.7587C22.9324 17.21 22.4876 16.7651 21.9389 16.7651C21.3901 16.7651 20.9453 17.21 20.9453 17.7587C20.9453 18.3074 21.3901 18.7523 21.9389 18.7523Z" fill="#90C6EB"/>
<path d="M15.6465 20.1379C16.235 20.5301 16.9264 20.7394 17.6336 20.7394C18.3408 20.7394 19.0322 20.5301 19.6207 20.1379" stroke="#264887" stroke-width="0.997549" stroke-linecap="round" stroke-linejoin="round"/>
<path d="M13.9614 9.62372C13.9614 9.62372 17.9356 7.63661 19.9228 9.62372L23.896 13.598C23.896 13.598 25.8831 15.5851 28.5326 12.9356L27.2088 12.2732L29.196 10.9485C29.196 10.9485 27.8712 10.9485 26.5465 8.96135C25.2217 6.97423 23.2346 3 18.599 3C11.9753 3 11.3169 6.97423 11.3169 6.97423L13.9614 9.62372Z" fill="#264887"/>
<path d="M18.598 4.93425C23.2336 4.93425 25.2208 8.90848 26.5455 10.8956C26.8242 11.3226 27.1561 11.7124 27.5331 12.0557L29.195 10.9485C29.195 10.9485 27.8702 10.9485 26.5455 8.96135C25.2208 6.97423 23.2336 3 18.598 3C11.9743 3 11.3159 6.97423 11.3159 6.97423L11.9244 7.58374C12.7215 6.42758 14.54 4.93425 18.598 4.93425Z" fill="#B5D9F1"/>
<path d="M13.9614 9.62372C13.9614 9.62372 17.9356 7.63661 19.9228 9.62372L23.896 13.598C23.896 13.598 25.8831 15.5851 28.5326 12.9356L27.2088 12.2732L29.196 10.9485C29.196 10.9485 27.8712 10.9485 26.5465 8.96135C25.2217 6.97423 23.2346 3 18.599 3C11.9753 3 11.3169 6.97423 11.3169 6.97423L13.9614 9.62372Z" fill="#264887" stroke="#264887" stroke-width="0.997549" stroke-linecap="round" stroke-linejoin="round"/>
<path d="M11.3119 6.9762C11.3119 6.9762 8 6.9762 8 10.9504C8 14.2623 9.66291 15.1511 9.66291 15.1511C9.66291 15.1511 11.3119 10.9504 13.9613 9.62569L11.3119 6.9762Z" fill="#264887"/>
<path d="M13.1902 8.85258L11.3119 6.9762C11.3119 6.9762 8 6.9762 8 10.9504C8 11.2138 8.01097 11.4622 8.03092 11.6966C9.07536 9.41221 11.9054 8.73188 13.1902 8.85258Z" fill="white"/>
<path d="M11.3119 6.9762C11.3119 6.9762 8 6.9762 8 10.9504C8 14.2623 9.66291 15.1511 9.66291 15.1511C9.66291 15.1511 11.3119 10.9504 13.9613 9.62569L11.3119 6.9762Z" stroke="#264887" stroke-width="0.997549" stroke-linecap="round" stroke-linejoin="round"/>
<path d="M14.6523 16.1579C15.201 16.1579 15.6458 15.7131 15.6458 15.1643C15.6458 14.6156 15.201 14.1708 14.6523 14.1708C14.1035 14.1708 13.6587 14.6156 13.6587 15.1643C13.6587 15.7131 14.1035 16.1579 14.6523 16.1579Z" fill="#264887"/>
<path d="M20.6142 16.1575C21.1629 16.1575 21.6077 15.7127 21.6077 15.164C21.6077 14.6152 21.1629 14.1704 20.6142 14.1704C20.0654 14.1704 19.6206 14.6152 19.6206 15.164C19.6206 15.7127 20.0654 16.1575 20.6142 16.1575Z" fill="#264887"/>
<path d="M49.0001 16.8513C48.9969 16.4741 48.8632 16.1097 48.6217 15.82C48.3802 15.5303 48.0458 15.3332 47.6753 15.2622V14.2018C47.6753 12.0937 46.8379 10.072 45.3473 8.58135C43.8566 7.09072 41.8349 6.2533 39.7269 6.2533C37.6188 6.2533 35.5971 7.09072 34.1064 8.58135C32.6158 10.072 31.7784 12.0937 31.7784 14.2018V15.2622C31.3921 15.3344 31.0452 15.5445 30.8021 15.8533C30.559 16.1621 30.4363 16.5486 30.4568 16.9411C30.4773 17.3335 30.6395 17.7052 30.9135 17.987C31.1874 18.2688 31.5543 18.4416 31.946 18.4733C32.319 20.2609 33.2962 21.8656 34.7132 23.0175C36.1303 24.1693 37.9007 24.7981 39.7269 24.7981C41.553 24.7981 43.3235 24.1693 44.7405 23.0175C46.1575 21.8656 47.1347 20.2609 47.5077 18.4733C47.9136 18.4368 48.2914 18.2505 48.5673 17.9506C48.8432 17.6507 48.9975 17.2588 49.0001 16.8513Z" fill="#B5D9F1" stroke="#264887" stroke-width="1.25" stroke-linecap="round" stroke-linejoin="round"/>
<path d="M35.4189 18.8384C35.9676 18.8384 36.4124 18.3936 36.4124 17.8449C36.4124 17.2961 35.9676 16.8513 35.4189 16.8513C34.8701 16.8513 34.4253 17.2961 34.4253 17.8449C34.4253 18.3936 34.8701 18.8384 35.4189 18.8384Z" fill="#90C6EB"/>
<path d="M44.0297 18.8384C44.5784 18.8384 45.0233 18.3936 45.0233 17.8449C45.0233 17.2961 44.5784 16.8513 44.0297 16.8513C43.481 16.8513 43.0361 17.2961 43.0361 17.8449C43.0361 18.3936 43.481 18.8384 44.0297 18.8384Z" fill="#90C6EB"/>
<path d="M43.3055 15.5265C43.2009 15.4214 43.0765 15.338 42.9396 15.2811C42.8026 15.2242 42.6558 15.1949 42.5075 15.1949C42.3592 15.1949 42.2124 15.2242 42.0754 15.2811C41.9385 15.338 41.8141 15.4214 41.7095 15.5265" stroke="#264887" stroke-width="0.997549" stroke-linecap="round" stroke-linejoin="round"/>
<path d="M36.1431 15.5265C36.2477 15.4214 36.3721 15.338 36.509 15.2811C36.646 15.2242 36.7928 15.1949 36.9411 15.1949C37.0894 15.1949 37.2362 15.2242 37.3732 15.2811C37.5101 15.338 37.6345 15.4214 37.7391 15.5265" stroke="#264887" stroke-width="0.997549" stroke-linecap="round" stroke-linejoin="round"/>
<path d="M41.7115 20.1581C41.1383 20.588 40.441 20.8205 39.7244 20.8205C39.0078 20.8205 38.3106 20.588 37.7373 20.1581" stroke="#264887" stroke-width="0.997549" stroke-linecap="round" stroke-linejoin="round"/>
<path d="M48.335 9.98314C48.335 8.29203 47.6632 6.67019 46.4674 5.4744C45.2716 4.2786 43.6497 3.60681 41.9586 3.60681H33.8565C33.5821 3.60693 33.3144 3.6923 33.0906 3.85111C32.8667 4.00991 32.6977 4.23433 32.607 4.49334C32.5162 4.75234 32.5081 5.03316 32.5838 5.29697C32.6595 5.56078 32.8153 5.79456 33.0296 5.96601L33.7149 6.51467C32.9532 6.79348 32.2953 7.29925 31.8301 7.96373C31.3649 8.6282 31.1147 9.41939 31.1133 10.2305V14.2048C31.1135 14.3804 31.1834 14.5487 31.3076 14.6728C31.4317 14.797 31.6001 14.8669 31.7757 14.8671C33.1722 14.0282 35.4017 11.9812 35.713 10.3542C35.7253 10.3025 35.7477 10.2537 35.7789 10.2107C35.8101 10.1676 35.8494 10.1311 35.8948 10.1033C35.9401 10.0755 35.9904 10.057 36.0429 10.0487C36.0955 10.0403 36.1491 10.0425 36.2008 10.055C36.6625 10.1286 37.0883 10.3488 37.4153 10.6828C37.7424 11.0169 37.9534 11.4473 38.0173 11.9104C38.0283 11.967 38.0514 12.0206 38.085 12.0674C38.1187 12.1142 38.1621 12.1532 38.2122 12.1816C38.2624 12.2101 38.3181 12.2273 38.3755 12.2321C38.433 12.237 38.4908 12.2293 38.545 12.2097C39.626 11.9483 40.5613 11.2731 41.1496 10.3293C41.178 10.2401 41.2393 10.165 41.3209 10.1193C41.4026 10.0735 41.4986 10.0605 41.5895 10.0829C45.0211 11.1622 43.85 14.3724 47.6087 14.7335C47.7007 14.7422 47.7934 14.7317 47.881 14.7025C47.9686 14.6734 48.0492 14.6263 48.1175 14.5642C48.1859 14.5021 48.2405 14.4265 48.278 14.3421C48.3154 14.2577 48.3348 14.1664 48.335 14.0741V9.98314Z" fill="#264887"/>
<path d="M41.9585 3.60388H33.8564C33.5819 3.604 33.3143 3.68937 33.0904 3.84818C32.8666 4.00699 32.6976 4.2314 32.6068 4.49041C32.516 4.74941 32.5079 5.03023 32.5836 5.29404C32.6593 5.55785 32.8151 5.79163 33.0294 5.96308L33.4644 6.31023C33.5916 6.27243 33.7236 6.25328 33.8564 6.25337H41.9585C43.6496 6.25337 45.2714 6.92516 46.4672 8.12096C47.663 9.31675 48.3348 10.9386 48.3348 12.6297V9.9832C48.3352 9.1456 48.1706 8.31613 47.8503 7.54217C47.53 6.76821 47.0604 6.06494 46.4683 5.47252C45.8761 4.88011 45.1731 4.41017 44.3993 4.08954C43.6255 3.76891 42.7961 3.60388 41.9585 3.60388Z" fill="#B5D9F1"/>
<path d="M48.335 9.98314C48.335 8.29203 47.6632 6.67019 46.4674 5.4744C45.2716 4.2786 43.6497 3.60681 41.9586 3.60681H33.8565C33.5821 3.60693 33.3144 3.6923 33.0906 3.85111C32.8667 4.00991 32.6977 4.23433 32.607 4.49334C32.5162 4.75234 32.5081 5.03316 32.5838 5.29697C32.6595 5.56078 32.8153 5.79456 33.0296 5.96601L33.7149 6.51467C32.9532 6.79348 32.2953 7.29925 31.8301 7.96373C31.3649 8.6282 31.1147 9.41939 31.1133 10.2305V14.2048C31.1135 14.3804 31.1834 14.5487 31.3076 14.6728C31.4317 14.797 31.6001 14.8669 31.7757 14.8671C33.1722 14.0282 35.4017 11.9812 35.713 10.3542C35.7253 10.3025 35.7477 10.2537 35.7789 10.2107C35.8101 10.1676 35.8494 10.1311 35.8948 10.1033C35.9401 10.0755 35.9904 10.057 36.0429 10.0487C36.0955 10.0403 36.1491 10.0425 36.2008 10.055C36.6625 10.1286 37.0883 10.3488 37.4153 10.6828C37.7424 11.0169 37.9534 11.4473 38.0173 11.9104C38.0283 11.967 38.0514 12.0206 38.085 12.0674C38.1187 12.1142 38.1621 12.1532 38.2122 12.1816C38.2624 12.2101 38.3181 12.2273 38.3755 12.2321C38.433 12.237 38.4908 12.2293 38.545 12.2097C39.626 11.9483 40.5613 11.2731 41.1496 10.3293C41.178 10.2401 41.2393 10.165 41.3209 10.1193C41.4026 10.0735 41.4986 10.0605 41.5895 10.0829C45.0211 11.1622 43.85 14.3724 47.6087 14.7335C47.7007 14.7422 47.7934 14.7317 47.881 14.7025C47.9686 14.6734 48.0492 14.6263 48.1175 14.5642C48.1859 14.5021 48.2405 14.4265 48.278 14.3421C48.3154 14.2577 48.3348 14.1664 48.335 14.0741V9.98314Z" fill="#264887" stroke="#264887" stroke-width="0.997549" stroke-linecap="round" stroke-linejoin="round"/>
<path d="M11.156 30.0001L9 31.3923L10.4201 33.5761L12.5761 32.1839L11.156 30.0001Z" stroke="#B5D9F1" stroke-linecap="round" stroke-linejoin="round"/>
<path d="M2.52375 2.99997L2 5.51257L4.54501 6.06872L5.06876 3.55611L2.52375 2.99997Z" stroke="#B5D9F1" stroke-linecap="round" stroke-linejoin="round"/>
<path d="M45.1313 29.3229L48.5292 30.0749" stroke="#B5D9F1" stroke-linecap="round"/>
<path d="M47.1072 28.0471L46.4079 31.4449" stroke="#B5D9F1" stroke-linecap="round"/>
<path fill-rule="evenodd" clip-rule="evenodd" d="M56.25 6.5C56.9404 6.5 57.5 5.94036 57.5 5.25C57.5 4.55964 56.9404 4 56.25 4C55.5596 4 55 4.55964 55 5.25C55 5.94036 55.5596 6.5 56.25 6.5Z" stroke="#B5D9F1"/>
</svg>
