<svg width="60" height="40" viewBox="0 0 60 40" fill="none" xmlns="http://www.w3.org/2000/svg">
<path d="M46.5755 7.72953C46.5759 7.37094 46.5055 7.0158 46.3684 6.68444C46.2314 6.35308 46.0303 6.05201 45.7767 5.79847C45.5231 5.54493 45.222 5.3439 44.8906 5.20689C44.5592 5.06987 44.2041 4.99957 43.8455 5H15.7294C15.3711 5 15.0163 5.07062 14.6853 5.20783C14.3542 5.34503 14.0535 5.54613 13.8003 5.79963C13.547 6.05312 13.3462 6.35405 13.2094 6.68519C13.0725 7.01634 13.0022 7.37121 13.0026 7.72953V26.3661H46.5755V7.72953Z" fill="#B5D9F1"/>
<path d="M35.4355 5H15.7294C15.0059 5.00072 14.3124 5.28862 13.8011 5.80042C13.2898 6.31223 13.0026 7.00609 13.0026 7.72953V26.3661H14.0698L35.4355 5Z" fill="#DAECF8"/>
<path d="M33.8575 34.5056H25.718L26.2268 30.4362H33.3492L33.8575 34.5056Z" fill="#DAEDF7"/>
<path d="M32.7976 30.0612L32.8318 30.3375H26.7439L26.7791 30.0612H32.7976Z" fill="#ADC4D9" stroke="#264887" stroke-width="1.25"/>
<path d="M33.8575 33.5056H25.718L26.2268 29.4362H33.3493L33.8575 33.5056Z" stroke="#264887" stroke-width="1.25" stroke-linecap="round" stroke-linejoin="round"/>
<path d="M35.6156 35.541H23.9596C23.8546 35.5422 23.7509 35.5171 23.658 35.468C23.5652 35.4189 23.486 35.3473 23.4278 35.2599C23.3697 35.1724 23.3342 35.0718 23.3248 34.9672C23.3154 34.8626 23.3322 34.7573 23.3739 34.6608C23.5398 34.3149 23.8001 34.0229 24.1248 33.8185C24.4495 33.6142 24.8254 33.5057 25.209 33.5057H34.3662C34.7495 33.506 35.1249 33.6146 35.4492 33.8189C35.7735 34.0233 36.0335 34.3151 36.1991 34.6608C36.2408 34.7571 36.2578 34.8622 36.2486 34.9667C36.2393 35.0712 36.2041 35.1718 36.1461 35.2592C36.0882 35.3466 36.0093 35.4182 35.9166 35.4674C35.824 35.5166 35.7205 35.5419 35.6156 35.541Z" fill="#DAEDF7" stroke="#264887" stroke-width="1.25" stroke-linecap="round" stroke-linejoin="round"/>
<path d="M43.8456 30.4362C44.5697 30.4362 45.2641 30.1486 45.7761 29.6366C46.288 29.1246 46.5757 28.4302 46.5757 27.7062V26.3662H13V27.7062C12.9999 28.4297 13.287 29.1237 13.7983 29.6356C14.3096 30.1475 15.0033 30.4355 15.7268 30.4362H43.8456Z" fill="white" stroke="#264887" stroke-width="1.25" stroke-linecap="round" stroke-linejoin="round"/>
<path d="M46.5755 7.72953C46.5759 7.37094 46.5055 7.0158 46.3684 6.68444C46.2314 6.35308 46.0303 6.05201 45.7767 5.79847C45.5231 5.54493 45.222 5.3439 44.8906 5.20689C44.5592 5.06987 44.2041 4.99957 43.8455 5H15.7294C15.3711 5 15.0163 5.07062 14.6853 5.20783C14.3542 5.34503 14.0535 5.54613 13.8003 5.79963C13.547 6.05312 13.3462 6.35405 13.2094 6.68519C13.0725 7.01634 13.0022 7.37121 13.0026 7.72953V26.3661H46.5755V7.72953Z" stroke="#264887" stroke-width="1.25" stroke-linecap="round" stroke-linejoin="round"/>
<path d="M29.7876 28.3645C29.7973 28.3645 29.8071 28.3684 29.814 28.3752C29.8207 28.382 29.8246 28.3911 29.8247 28.4006C29.8247 28.4103 29.8208 28.4202 29.814 28.427C29.8071 28.4339 29.7973 28.4377 29.7876 28.4377C29.7781 28.4376 29.769 28.4337 29.7622 28.427C29.7554 28.4202 29.7515 28.4103 29.7515 28.4006C29.7516 28.3911 29.7555 28.382 29.7622 28.3752C29.769 28.3685 29.7781 28.3646 29.7876 28.3645Z" fill="#264887" stroke="#264887" stroke-width="1.25"/>
<path d="M25.0985 10.4438H21.3693C21.3114 10.4438 21.254 10.4553 21.2005 10.4774C21.1469 10.4996 21.0983 10.5321 21.0573 10.5731C21.0164 10.614 20.9839 10.6627 20.9617 10.7162C20.9395 10.7697 20.9281 10.8271 20.9281 10.885V22.8557H25.5402V10.885C25.5401 10.768 25.4935 10.6558 25.4106 10.573C25.3278 10.4903 25.2155 10.4438 25.0985 10.4438Z" fill="#D32D27" stroke="#264887" stroke-width="1.25" stroke-linecap="round" stroke-linejoin="round"/>
<path d="M38.648 13.3124C38.648 13.1954 38.6015 13.0832 38.5188 13.0004C38.436 12.9177 38.3238 12.8712 38.2068 12.8712H34.4771C34.3601 12.8712 34.2478 12.9177 34.1651 13.0004C34.0824 13.0832 34.0359 13.1954 34.0359 13.3124V22.8562H38.648V13.3124Z" fill="white" stroke="#264887" stroke-width="1.25" stroke-linecap="round" stroke-linejoin="round"/>
<path d="M18.7432 22.8557H40.8325" stroke="#264887" stroke-width="1.25" stroke-linecap="round" stroke-linejoin="round"/>
<path d="M31.6524 17.2151H27.9232C27.8062 17.2151 27.6939 17.2616 27.6111 17.3443C27.5282 17.427 27.4816 17.5392 27.4815 17.6563V22.8558H32.0936V17.6563C32.0936 17.5393 32.0471 17.4271 31.9644 17.3443C31.8816 17.2616 31.7694 17.2151 31.6524 17.2151Z" fill="white" stroke="#264887" stroke-width="1.25" stroke-linecap="round" stroke-linejoin="round"/>
<path d="M54.5415 1H52.0415V3.66877H54.5415V1Z" stroke="#B5D9F1" stroke-linecap="round" stroke-linejoin="round"/>
<path d="M4.70914 5.86494L3 7.68945L4.70914 9.51397L6.41827 7.68945L4.70914 5.86494Z" stroke="#B5D9F1" stroke-linecap="round" stroke-linejoin="round"/>
<path d="M51.5122 19.5082L53.8876 22.0439" stroke="#B5D9F1" stroke-linecap="round" stroke-linejoin="round"/>
<path d="M53.8039 19.5082L51.4285 22.0439" stroke="#B5D9F1" stroke-linecap="round" stroke-linejoin="round"/>
<path fill-rule="evenodd" clip-rule="evenodd" d="M8.25 18.5C8.94036 18.5 9.5 17.9404 9.5 17.25C9.5 16.5596 8.94036 16 8.25 16C7.55964 16 7 16.5596 7 17.25C7 17.9404 7.55964 18.5 8.25 18.5Z" stroke="#B5D9F1"/>
</svg>
