<svg width="60" height="40" viewBox="0 0 60 40" fill="none" xmlns="http://www.w3.org/2000/svg">
<path d="M10.5772 4L8.47705 5.3562L9.86034 7.48343L11.9605 6.12723L10.5772 4Z" stroke="#B5D9F1" stroke-linecap="round" stroke-linejoin="round"/>
<path d="M1.2666 10.7173L4.57439 11.4494L1.2666 10.7173Z" fill="#B5D9F1"/>
<path d="M1.2666 10.7173L4.57439 11.4494" stroke="#B5D9F1" stroke-linecap="round"/>
<path d="M3.19009 9.47523L2.50933 12.783L3.19009 9.47523Z" fill="#B5D9F1"/>
<path d="M3.19009 9.47523L2.50933 12.783" stroke="#B5D9F1" stroke-linecap="round"/>
<path d="M55.6178 32.7618L53.7617 31.087L52.0942 32.9359L53.9503 34.6107L55.6178 32.7618Z" stroke="#B5D9F1" stroke-linecap="round" stroke-linejoin="round"/>
<path d="M44.679 24.3087C44.6828 24.6353 44.5568 24.9499 44.3287 25.1837C44.1007 25.4174 43.7892 25.551 43.4627 25.5553L24.5758 25.7975C24.2493 25.8013 23.9346 25.6753 23.7009 25.4473C23.4671 25.2192 23.3335 24.9077 23.3292 24.5812L23.1421 10.0015C23.1384 9.67498 23.2643 9.3603 23.4924 9.12657C23.7204 8.89285 24.0319 8.75919 24.3584 8.75495L27.1762 8.71926C27.5174 8.73386 27.8413 8.87385 28.0857 9.11242L29.578 10.7364C29.8227 10.9747 30.1466 11.1147 30.488 11.1296L43.2766 10.9662C43.4386 10.964 43.5995 10.9937 43.7501 11.0537C43.9006 11.1137 44.0378 11.2028 44.1539 11.3159C44.27 11.4289 44.3626 11.5638 44.4265 11.7127C44.4904 11.8616 44.5244 12.0216 44.5264 12.1837L44.679 24.3087Z" fill="white"/>
<path d="M44.6447 12.4175C44.6476 12.091 44.5208 11.7766 44.2921 11.5434C44.0634 11.3102 43.7516 11.1773 43.425 11.1738L30.6358 11.058C30.2937 11.0363 29.9716 10.889 29.7314 10.6444L28.2764 8.98694C28.0373 8.7431 27.7165 8.59607 27.3757 8.57403L24.5579 8.54822C24.2313 8.54533 23.917 8.67216 23.6839 8.90086C23.4508 9.12955 23.318 9.4414 23.3147 9.76793L23.292 12.2328C23.2953 11.9062 23.4282 11.5943 23.6614 11.3656C23.8946 11.1369 24.209 11.0101 24.5356 11.0131L27.353 11.0384C27.694 11.0606 28.0148 11.2077 28.2542 11.4514L29.7105 13.1099C29.9499 13.3537 30.2708 13.5005 30.6118 13.5223L43.3996 13.6371C43.7261 13.6404 44.038 13.7732 44.2667 14.0063C44.4954 14.2394 44.6222 14.5538 44.6193 14.8803L44.6447 12.4175Z" fill="#D32D27"/>
<path d="M44.5327 24.5431C44.5293 24.8696 44.3965 25.1815 44.1634 25.4102C43.9303 25.6389 43.616 25.7657 43.2895 25.7628L24.4018 25.5928C24.0753 25.5895 23.7634 25.4567 23.5347 25.2236C23.306 24.9905 23.1792 24.6761 23.1821 24.3496L23.3132 9.76928C23.3165 9.44275 23.4493 9.13089 23.6824 8.9022C23.9155 8.67351 24.2299 8.54668 24.5564 8.54956L27.3742 8.57538C27.7151 8.59742 28.0358 8.74444 28.275 8.98829L29.7315 10.6444C29.971 10.888 30.2917 11.035 30.6326 11.0574L43.4218 11.1732C43.5839 11.1745 43.744 11.2077 43.8932 11.271C44.0424 11.3342 44.1777 11.4263 44.2913 11.5419C44.4048 11.6574 44.4945 11.7943 44.5552 11.9445C44.6158 12.0948 44.6463 12.2555 44.6447 12.4176L44.5327 24.5431Z" stroke="#264887" stroke-width="1.25" stroke-linecap="round" stroke-linejoin="round"/>
<path d="M50.7717 21.6502C50.4797 21.6494 50.1904 21.7065 49.9204 21.8184L39.8853 25.8958C39.4866 26.0573 39.0607 26.1403 38.6309 26.1405H37.6157C38.1987 26.1291 38.7541 25.8883 39.1624 25.4697C39.5707 25.0512 39.7995 24.4883 39.7995 23.9021C39.7995 23.3158 39.5707 22.753 39.1624 22.3344C38.7541 21.9159 38.1987 21.675 37.6157 21.6637H33.3114C29.7255 21.6637 30.5643 17.7468 24.2564 17.7468H18.1333V30.08C19.8696 29.943 21.6158 30.1524 23.2713 30.6963L25.7383 31.5714C29.1347 32.7763 32.7999 32.9954 36.3144 32.2037C36.9433 32.1557 51.0142 26.2086 51.6247 25.9538C52.1009 25.7559 52.4941 25.3979 52.7371 24.941C52.9802 24.4842 53.058 23.9567 52.9573 23.4486C52.8567 22.9405 52.5838 22.4832 52.1852 22.1548C51.7866 21.8264 51.2871 21.6472 50.7717 21.6477V21.6502Z" fill="#B5D9F1"/>
<path d="M23.3164 20.1276C29.6252 20.1276 28.7864 24.0445 32.3723 24.0445H36.6757C37.1778 24.0447 37.6651 24.2153 38.0587 24.5287C38.4522 24.8422 38.729 25.28 38.8441 25.7713C39.2429 25.5057 39.546 25.118 39.7086 24.6657C39.8712 24.2134 39.8845 23.7205 39.7467 23.26C39.6089 22.7994 39.3272 22.3957 38.9434 22.1087C38.5596 21.8216 38.094 21.6664 37.6157 21.6661H33.3114C29.7255 21.6661 30.5643 17.7493 24.2556 17.7493H18.1333V20.1276H23.3164Z" fill="#DAECF8"/>
<path d="M52.9994 23.8873C52.9992 23.5193 52.9088 23.1571 52.7361 22.8326C52.5635 22.5082 52.3139 22.2315 52.0095 22.0272C51.7051 21.8228 51.3553 21.6971 50.991 21.6611C50.6267 21.6251 50.2593 21.68 49.9211 21.8209L39.886 25.8983C39.4873 26.0599 39.0615 26.143 38.6316 26.1429H27.9434C27.9433 26.6948 28.1568 27.2251 28.5387 27.6216C28.9206 28.0181 29.441 28.2497 29.9897 28.2674C39.7121 28.5852 40.3108 28.1589 49.0088 24.2446C49.3005 24.1227 49.6148 24.0648 49.9305 24.075C50.2463 24.0851 50.5562 24.1631 50.8396 24.3035C51.123 24.4439 51.3732 24.6437 51.5735 24.8893C51.7738 25.1349 51.9195 25.4207 52.0009 25.7276H52.0469C52.3412 25.5205 52.5814 25.245 52.7472 24.9247C52.913 24.6043 52.9995 24.2485 52.9994 23.8873Z" fill="#DAECF8"/>
<path d="M37.6155 26.1429H28.1523" stroke="#264887" stroke-width="1.25" stroke-miterlimit="10" stroke-linecap="round"/>
<path d="M50.7717 21.6502C50.4797 21.6494 50.1904 21.7065 49.9204 21.8184L39.8853 25.8958C39.4866 26.0573 39.0607 26.1403 38.6309 26.1405H37.6157C38.1987 26.1291 38.7541 25.8883 39.1624 25.4697C39.5707 25.0512 39.7995 24.4883 39.7995 23.9021C39.7995 23.3158 39.5707 22.753 39.1624 22.3344C38.7541 21.9159 38.1987 21.675 37.6157 21.6637H33.3114C29.7255 21.6637 30.5643 17.7468 24.2564 17.7468H18.1333V30.08C19.8696 29.943 21.6158 30.1524 23.2713 30.6963L25.7383 31.5714C29.1347 32.7763 32.7999 32.9954 36.3144 32.2037C36.9433 32.1557 51.0142 26.2086 51.6247 25.9538C52.1009 25.7559 52.4941 25.3979 52.7371 24.941C52.9802 24.4842 53.058 23.9567 52.9573 23.4486C52.8567 22.9405 52.5838 22.4832 52.1852 22.1548C51.7866 21.8264 51.2871 21.6472 50.7717 21.6477V21.6502Z" stroke="#264887" stroke-width="1.25" stroke-linecap="round" stroke-linejoin="round"/>
<path d="M13.9569 14.9734H7.83626C7.37441 14.9734 7 15.3498 7 15.8141V31.4807C7 31.945 7.37441 32.3214 7.83626 32.3214H13.9569C14.4187 32.3214 14.7931 31.945 14.7931 31.4807V15.8141C14.7931 15.3498 14.4187 14.9734 13.9569 14.9734Z" fill="white" stroke="#264887" stroke-width="1.25" stroke-linecap="round" stroke-linejoin="round"/>
<path d="M14.793 31.2016H17.2967C17.5185 31.2016 17.7312 31.1131 17.8881 30.9554C18.0449 30.7977 18.133 30.5839 18.133 30.3609V16.9331C18.133 16.7101 18.0449 16.4963 17.8881 16.3386C17.7312 16.181 17.5185 16.0924 17.2967 16.0924H14.793V31.2016Z" fill="white" stroke="#264887" stroke-width="1.25" stroke-linecap="round" stroke-linejoin="round"/>
</svg>
