<svg width="60" height="40" viewBox="0 0 60 40" fill="none" xmlns="http://www.w3.org/2000/svg">
<g filter="url(#filter0_i_245_15425)">
<path d="M42.8472 21.7489C42.843 21.2435 42.6638 20.7553 42.3402 20.3671C42.0167 19.979 41.5686 19.7149 41.0723 19.6198V18.1991C41.0723 15.3747 39.9503 12.666 37.9532 10.6689C35.9561 8.67172 33.2474 7.54974 30.423 7.54974C27.5986 7.54974 24.8899 8.67172 22.8928 10.6689C20.8956 12.666 19.7737 15.3747 19.7737 18.1991V19.6198C19.2561 19.7166 18.7913 19.998 18.4656 20.4117C18.1399 20.8255 17.9756 21.3434 18.003 21.8692C18.0304 22.395 18.2479 22.893 18.6148 23.2705C18.9818 23.6481 19.4734 23.8796 19.9982 23.922C20.498 26.3171 21.8072 28.467 23.7057 30.0103C25.6043 31.5536 27.9763 32.3961 30.423 32.3961C32.8697 32.3961 35.2417 31.5536 37.1402 30.0103C39.0388 28.467 40.348 26.3171 40.8478 23.922C41.3916 23.8732 41.8977 23.6235 42.2674 23.2217C42.637 22.8199 42.8438 22.2948 42.8472 21.7489Z" fill="#B5D9F1"/>
</g>
<path d="M42.8472 21.7489C42.843 21.2435 42.6638 20.7553 42.3402 20.3671C42.0167 19.979 41.5686 19.7149 41.0723 19.6198V18.1991C41.0723 15.3747 39.9503 12.666 37.9532 10.6689C35.9561 8.67172 33.2474 7.54974 30.423 7.54974C27.5986 7.54974 24.8899 8.67172 22.8928 10.6689C20.8956 12.666 19.7737 15.3747 19.7737 18.1991V19.6198C19.2561 19.7166 18.7913 19.998 18.4656 20.4117C18.1399 20.8255 17.9756 21.3434 18.003 21.8692C18.0304 22.395 18.2479 22.893 18.6148 23.2705C18.9818 23.6481 19.4734 23.8796 19.9982 23.922C20.498 26.3171 21.8072 28.467 23.7057 30.0103C25.6043 31.5536 27.9763 32.3961 30.423 32.3961C32.8697 32.3961 35.2417 31.5536 37.1402 30.0103C39.0388 28.467 40.348 26.3171 40.8478 23.922C41.3916 23.8732 41.8977 23.6235 42.2674 23.2217C42.637 22.8199 42.8438 22.2948 42.8472 21.7489Z" stroke="#264887" stroke-width="1.67475" stroke-linecap="round" stroke-linejoin="round"/>
<path d="M24.6514 24.4113C25.3866 24.4113 25.9825 23.8153 25.9825 23.0801C25.9825 22.3449 25.3866 21.749 24.6514 21.749C23.9162 21.749 23.3202 22.3449 23.3202 23.0801C23.3202 23.8153 23.9162 24.4113 24.6514 24.4113Z" fill="#D32D27"/>
<path d="M36.188 24.4113C36.9232 24.4113 37.5192 23.8153 37.5192 23.0801C37.5192 22.3449 36.9232 21.749 36.188 21.749C35.4528 21.749 34.8569 22.3449 34.8569 23.0801C34.8569 23.8153 35.4528 24.4113 36.188 24.4113Z" fill="#D32D27"/>
<path d="M35.2175 19.974C35.0773 19.8332 34.9107 19.7215 34.7272 19.6453C34.5437 19.569 34.347 19.5298 34.1483 19.5298C33.9496 19.5298 33.7529 19.569 33.5694 19.6453C33.3859 19.7215 33.2193 19.8332 33.0791 19.974" stroke="#264887" stroke-width="1.33651" stroke-linecap="round" stroke-linejoin="round"/>
<path d="M25.6216 19.974C25.7618 19.8332 25.9285 19.7215 26.112 19.6453C26.2954 19.569 26.4922 19.5298 26.6909 19.5298C26.8895 19.5298 27.0863 19.569 27.2698 19.6453C27.4532 19.7215 27.6199 19.8332 27.7601 19.974" stroke="#264887" stroke-width="1.33651" stroke-linecap="round" stroke-linejoin="round"/>
<path d="M33.082 26.1794C32.314 26.7554 31.3798 27.0668 30.4197 27.0668C29.4596 27.0668 28.5254 26.7554 27.7574 26.1794" stroke="#264887" stroke-width="1.33651" stroke-linecap="round" stroke-linejoin="round"/>
<path d="M41.9561 12.547C41.9561 10.2813 41.056 8.10833 39.4539 6.50621C37.8518 4.90409 35.6788 4.00403 33.4131 4.00403H22.5579C22.1902 4.00419 21.8316 4.11856 21.5317 4.33133C21.2318 4.5441 21.0054 4.84478 20.8837 5.19179C20.7621 5.53881 20.7513 5.91504 20.8527 6.26849C20.9541 6.62195 21.1628 6.93517 21.45 7.16488L22.3681 7.89996C21.3476 8.27352 20.4662 8.95115 19.8429 9.84141C19.2196 10.7317 18.8844 11.7917 18.8825 12.8785V18.2031C18.8829 18.4384 18.9765 18.6639 19.1428 18.8303C19.3092 18.9966 19.5347 19.0902 19.77 19.0906C21.6411 17.9666 24.6282 15.2241 25.0452 13.0442C25.0617 12.9749 25.0917 12.9095 25.1335 12.8519C25.1752 12.7942 25.228 12.7453 25.2887 12.7081C25.3494 12.6708 25.4169 12.6459 25.4873 12.6348C25.5576 12.6237 25.6295 12.6265 25.6987 12.6432C26.3173 12.742 26.8878 13.0369 27.326 13.4845C27.7642 13.9321 28.0469 14.5086 28.1325 15.1292C28.1472 15.205 28.1782 15.2767 28.2232 15.3395C28.2683 15.4022 28.3265 15.4544 28.3937 15.4925C28.4609 15.5306 28.5355 15.5537 28.6125 15.5602C28.6894 15.5667 28.7669 15.5564 28.8395 15.5301C30.2879 15.1799 31.5409 14.2753 32.3292 13.0108C32.3672 12.8913 32.4493 12.7907 32.5587 12.7294C32.6682 12.6681 32.7968 12.6507 32.9186 12.6807C37.5162 14.1268 35.9471 18.4277 40.9831 18.9115C41.1062 18.9232 41.2305 18.9091 41.3479 18.87C41.4652 18.831 41.5732 18.7679 41.6647 18.6847C41.7563 18.6016 41.8295 18.5002 41.8797 18.3871C41.9299 18.2741 41.9559 18.1518 41.9561 18.0281V12.547Z" fill="#264887"/>
<path d="M33.4131 3.99994H22.558C22.1902 4.0001 21.8317 4.11447 21.5318 4.32724C21.2318 4.54002 21.0054 4.84069 20.8838 5.1877C20.7621 5.53472 20.7513 5.91095 20.8527 6.2644C20.9541 6.61786 21.1629 6.93108 21.45 7.16079L22.0327 7.6259C22.2032 7.57526 22.3801 7.5496 22.558 7.54972H33.4131C35.6789 7.54972 37.8518 8.44978 39.4539 10.0519C41.056 11.654 41.9561 13.827 41.9561 16.0927V12.5469C41.9566 11.4247 41.7361 10.3134 41.307 9.27644C40.8779 8.2395 40.2487 7.29725 39.4553 6.50354C38.662 5.70982 37.7201 5.08019 36.6833 4.65062C35.6466 4.22104 34.5353 3.99994 33.4131 3.99994Z" fill="#B5D9F1"/>
<path d="M41.9561 12.547C41.9561 10.2813 41.056 8.10833 39.4539 6.50621C37.8518 4.90409 35.6788 4.00403 33.4131 4.00403H22.5579C22.1902 4.00419 21.8316 4.11856 21.5317 4.33133C21.2318 4.5441 21.0054 4.84478 20.8837 5.19179C20.7621 5.53881 20.7513 5.91504 20.8527 6.26849C20.9541 6.62195 21.1628 6.93517 21.45 7.16488L22.3681 7.89996C21.3476 8.27352 20.4662 8.95115 19.8429 9.84141C19.2196 10.7317 18.8844 11.7917 18.8825 12.8785V18.2031C18.8829 18.4384 18.9765 18.6639 19.1428 18.8303C19.3092 18.9966 19.5347 19.0902 19.77 19.0906C21.6411 17.9666 24.6282 15.2241 25.0452 13.0442C25.0617 12.9749 25.0917 12.9095 25.1335 12.8519C25.1752 12.7942 25.228 12.7453 25.2887 12.7081C25.3494 12.6708 25.4169 12.6459 25.4873 12.6348C25.5576 12.6237 25.6295 12.6265 25.6987 12.6432C26.3173 12.742 26.8878 13.0369 27.326 13.4845C27.7642 13.9321 28.0469 14.5086 28.1325 15.1292C28.1472 15.205 28.1782 15.2767 28.2232 15.3395C28.2683 15.4022 28.3265 15.4544 28.3937 15.4925C28.4609 15.5306 28.5355 15.5537 28.6125 15.5602C28.6894 15.5667 28.7669 15.5564 28.8395 15.5301C30.2879 15.1799 31.5409 14.2753 32.3292 13.0108C32.3672 12.8913 32.4493 12.7907 32.5587 12.7294C32.6682 12.6681 32.7968 12.6507 32.9186 12.6807C37.5162 14.1268 35.9471 18.4277 40.9831 18.9115C41.1062 18.9232 41.2305 18.9091 41.3479 18.87C41.4652 18.831 41.5732 18.7679 41.6647 18.6847C41.7563 18.6016 41.8295 18.5002 41.8797 18.3871C41.9299 18.2741 41.9559 18.1518 41.9561 18.0281V12.547Z" fill="#264887" stroke="#264887" stroke-width="1.33651" stroke-linecap="round" stroke-linejoin="round"/>
<path d="M11.156 30.0001L8.99997 31.3923L10.4201 33.5761L12.5761 32.1839L11.156 30.0001Z" stroke="#B5D9F1" stroke-linecap="round" stroke-linejoin="round"/>
<path d="M2.52372 3.00003L1.99997 5.51263L4.54498 6.06878L5.06873 3.55617L2.52372 3.00003Z" stroke="#B5D9F1" stroke-linecap="round" stroke-linejoin="round"/>
<path d="M45.1314 29.3229L48.5293 30.075" stroke="#B5D9F1" stroke-linecap="round"/>
<path d="M47.107 28.0471L46.4077 31.4449" stroke="#B5D9F1" stroke-linecap="round"/>
<path fill-rule="evenodd" clip-rule="evenodd" d="M56.25 6.5C56.9404 6.5 57.5 5.94036 57.5 5.25C57.5 4.55964 56.9404 4 56.25 4C55.5596 4 55 4.55964 55 5.25C55 5.94036 55.5596 6.5 56.25 6.5Z" stroke="#B5D9F1"/>
<defs>
<filter id="filter0_i_245_15425" x="17.1627" y="6.71234" width="26.5219" height="26.5211" filterUnits="userSpaceOnUse" color-interpolation-filters="sRGB">
<feFlood flood-opacity="0" result="BackgroundImageFix"/>
<feBlend mode="normal" in="SourceGraphic" in2="BackgroundImageFix" result="shape"/>
<feColorMatrix in="SourceAlpha" type="matrix" values="0 0 0 0 0 0 0 0 0 0 0 0 0 0 0 0 0 0 127 0" result="hardAlpha"/>
<feOffset dx="-3"/>
<feComposite in2="hardAlpha" operator="arithmetic" k2="-1" k3="1"/>
<feColorMatrix type="matrix" values="0 0 0 0 0.854902 0 0 0 0 0.92549 0 0 0 0 0.972549 0 0 0 1 0"/>
<feBlend mode="normal" in2="shape" result="effect1_innerShadow_245_15425"/>
</filter>
</defs>
</svg>
