<svg width="60" height="40" viewBox="0 0 60 40" fill="none" xmlns="http://www.w3.org/2000/svg">
<g clip-path="url(#clip0_7948_14440)">
<path d="M54.541 1H52.041V3.66877H54.541V1Z" stroke="#B5D9F1" stroke-linecap="round" stroke-linejoin="round"/>
<path d="M4.70914 5.86494L3 7.68945L4.70914 9.51397L6.41827 7.68945L4.70914 5.86494Z" stroke="#B5D9F1" stroke-linecap="round" stroke-linejoin="round"/>
<path d="M51.5117 19.5083L53.8871 22.044" stroke="#B5D9F1" stroke-linecap="round" stroke-linejoin="round"/>
<path d="M53.8031 19.5083L51.4277 22.044" stroke="#B5D9F1" stroke-linecap="round" stroke-linejoin="round"/>
<path d="M13.832 37.877H46.6256" stroke="#264887" stroke-width="1.25" stroke-linecap="round" stroke-dasharray="0.68 4.1 112.04 3.42"/>
<path fill-rule="evenodd" clip-rule="evenodd" d="M13.832 6.45009C13.832 4.9408 15.0555 3.71729 16.5648 3.71729H42.4964C44.0057 3.71729 45.2292 4.9408 45.2292 6.45009V32.5082C45.2292 34.0174 44.0057 35.241 42.4964 35.241H42.4183C42.1177 35.9856 41.3881 36.511 40.5358 36.511C39.6835 36.511 38.9539 35.9856 38.6533 35.241H21.0647C20.7641 35.9856 20.0345 36.511 19.1822 36.511C18.3299 36.511 17.6004 35.9856 17.2998 35.241H16.5648C15.0555 35.241 13.832 34.0174 13.832 32.5082V6.45009Z" fill="white"/>
<path d="M42.4807 33.7417H42.0164L41.8426 34.2422C41.748 34.5144 41.5893 34.7501 41.3876 34.923L41.3713 34.9373C41.3652 34.9419 41.3591 34.9466 41.3531 34.9514L41.3462 34.9569C41.3378 34.9636 41.3296 34.9704 41.3215 34.9773C41.3132 34.9828 41.3049 34.9885 41.2967 34.9944C41.0902 35.1429 40.8471 35.2288 40.5846 35.2288C40.3221 35.2288 40.0791 35.1429 39.8726 34.9944C39.8666 34.9901 39.8605 34.9858 39.8544 34.9817C39.8487 34.9771 39.8429 34.9725 39.8371 34.9679L39.8301 34.9624C39.8217 34.9559 39.8133 34.9496 39.8048 34.9436C39.8004 34.9395 39.796 34.9355 39.7915 34.9315C39.7883 34.9286 39.785 34.9258 39.7818 34.923C39.58 34.7501 39.4212 34.5144 39.3267 34.2422L39.1529 33.7417H38.6885H30.4337C30.3523 33.7417 30.2743 33.7581 30.2018 33.7882C30.1294 33.7581 30.0513 33.7417 29.97 33.7417H29.8772C29.7598 33.7417 29.6493 33.7759 29.5526 33.8361C29.4559 33.7759 29.3453 33.7417 29.228 33.7417H20.973H20.5087L20.3349 34.2422C20.2404 34.5144 20.0816 34.7501 19.8799 34.923C19.8743 34.9278 19.8687 34.9327 19.8632 34.9377C19.86 34.9401 19.8568 34.9426 19.8536 34.9451C19.8509 34.9472 19.8482 34.9493 19.8455 34.9514L19.8385 34.9569C19.8301 34.9636 19.8219 34.9704 19.8139 34.9773C19.8055 34.9828 19.7972 34.9885 19.789 34.9944C19.5826 35.1429 19.3394 35.2288 19.0769 35.2288C18.8146 35.2288 18.5714 35.1429 18.3649 34.9944C18.3589 34.9901 18.3528 34.9858 18.3467 34.9817C18.341 34.9771 18.3352 34.9725 18.3294 34.9679L18.3224 34.9624C18.3141 34.9559 18.3056 34.9496 18.2971 34.9436C18.2896 34.9365 18.2819 34.9297 18.2741 34.923C18.0723 34.7501 17.9135 34.5144 17.819 34.2422L17.6452 33.7417H17.181H16.836L16.8263 33.7418L16.8166 33.7417H16.8127L16.7992 33.7419L16.7856 33.7417H16.4406C15.9098 33.7417 15.4273 33.5097 15.0612 33.1272C15.0506 33.1162 15.0399 33.1056 15.0289 33.0955C15.0194 33.0832 15.0094 33.0712 14.9991 33.0595L14.9869 33.0457C14.9727 33.0293 14.958 33.0137 14.9428 32.999C14.9309 32.9807 14.9183 32.9628 14.9048 32.9455C14.5757 32.5198 14.3763 31.9588 14.3763 31.3417V32.5129C14.3763 33.13 14.5757 33.691 14.9048 34.1166C14.9183 34.134 14.9309 34.1519 14.9428 34.1702C14.958 34.1849 14.9727 34.2004 14.9869 34.2169L14.9991 34.2307C15.0094 34.2424 15.0194 34.2544 15.0289 34.2667C15.0399 34.2768 15.0506 34.2874 15.0612 34.2984C15.4273 34.6809 15.9098 34.9129 16.4406 34.9129H16.7856L16.7992 34.913L16.8127 34.9129H16.8166L16.8263 34.913L16.836 34.9129H17.181H17.6452L17.819 35.4134C17.9135 35.6856 18.0723 35.9213 18.2741 36.0942C18.2819 36.1009 18.2896 36.1077 18.2971 36.1147C18.3056 36.1208 18.3141 36.1271 18.3224 36.1336L18.3294 36.1391C18.3352 36.1436 18.341 36.1482 18.3467 36.1529C18.3528 36.157 18.3589 36.1612 18.3649 36.1656C18.5714 36.3141 18.8146 36.4 19.0769 36.4C19.3394 36.4 19.5826 36.3141 19.789 36.1656C19.7924 36.1631 19.7958 36.1607 19.7993 36.1584C19.8041 36.155 19.809 36.1517 19.8139 36.1485C19.8219 36.1416 19.8301 36.1347 19.8385 36.1281L19.8455 36.1226C19.8481 36.1206 19.8506 36.1186 19.8531 36.1166C19.8565 36.114 19.8599 36.1114 19.8632 36.1089C19.8687 36.1039 19.8743 36.099 19.8799 36.0942C20.0816 35.9213 20.2404 35.6856 20.3349 35.4134L20.5087 34.9129H20.973H29.228C29.3453 34.9129 29.4559 34.9471 29.5526 35.0073C29.6493 34.9471 29.7598 34.9129 29.8772 34.9129H29.97C30.0513 34.9129 30.1294 34.9293 30.2018 34.9594C30.2743 34.9293 30.3523 34.9129 30.4337 34.9129H38.6885H39.1529L39.3267 35.4134C39.4212 35.6856 39.58 35.9213 39.7818 36.0942C39.7896 36.1009 39.7973 36.1077 39.8048 36.1148C39.8133 36.1208 39.8217 36.1271 39.8301 36.1336L39.8371 36.1391C39.8394 36.1409 39.8418 36.1428 39.8441 36.1446C39.8476 36.1474 39.851 36.1501 39.8544 36.1529C39.8605 36.157 39.8666 36.1612 39.8726 36.1656C40.0791 36.3141 40.3221 36.4 40.5846 36.4C40.8471 36.4 41.0902 36.3141 41.2967 36.1656C41.3049 36.1597 41.3132 36.154 41.3215 36.1485C41.3296 36.1416 41.3378 36.1347 41.3462 36.1281L41.3531 36.1226C41.3591 36.1178 41.3652 36.1131 41.3713 36.1085L41.3876 36.0942C41.5893 35.9213 41.748 35.6856 41.8426 35.4134L42.0164 34.9129H42.4807H42.5174H42.5203H42.5227H42.5594C43.0902 34.9129 43.5727 34.6809 43.9388 34.2984C43.9538 34.2828 43.9691 34.2681 43.9849 34.2542C43.9975 34.2366 44.0109 34.2195 44.0251 34.2029L44.037 34.1888C44.047 34.1769 44.0572 34.1654 44.0677 34.1544C44.0764 34.1416 44.0856 34.129 44.0952 34.1166C44.4243 33.691 44.6237 33.13 44.6237 32.5129V31.3417C44.6237 31.9588 44.4243 32.5198 44.0952 32.9455C44.0856 32.9578 44.0764 32.9704 44.0677 32.9832C44.0572 32.9943 44.047 33.0057 44.037 33.0176L44.0251 33.0318C44.0109 33.0483 43.9975 33.0655 43.9849 33.0831C43.9691 33.0969 43.9538 33.1116 43.9388 33.1272C43.5727 33.5097 43.0902 33.7417 42.5594 33.7417H42.5227H42.5203H42.5174H42.4807Z" fill="#B5D9F1"/>
<path d="M44.6237 18.2948C44.6237 18.0772 44.6985 17.8799 44.8197 17.7357C44.6985 17.5914 44.6237 17.3941 44.6237 17.1765V18.2948Z" fill="#B5D9F1"/>
<path d="M14.3763 16.218C14.3763 16.4356 14.3015 16.6329 14.1803 16.7771C14.3015 16.9214 14.3763 17.1187 14.3763 17.3363V17.1236C14.3763 16.9782 14.3429 16.8418 14.2845 16.7243C14.3429 16.6067 14.3763 16.4704 14.3763 16.3249V16.218Z" fill="#B5D9F1"/>
<path d="M14.3763 17.4961C14.3763 17.6415 14.3429 17.7779 14.2845 17.8954C14.3429 18.013 14.3763 18.1494 14.3763 18.2948V17.4961Z" fill="#B5D9F1"/>
<path d="M42.4179 35.2411V34.5579H41.9569L41.7844 34.9853L42.4179 35.2411ZM38.6529 35.2411L39.2865 34.9853L39.1139 34.5579H38.6529V35.2411ZM21.0643 35.2411V34.5579H20.6033L20.4308 34.9853L21.0643 35.2411ZM17.2994 35.2411L17.9329 34.9853L17.7603 34.5579H17.2994V35.2411ZM14.2813 3.90922C14.0007 4.16147 13.9777 4.59344 14.23 4.87404C14.4822 5.15464 14.9142 5.17762 15.1948 4.92536L14.2813 3.90922ZM15.1092 5.00688C15.3749 4.73899 15.3731 4.30641 15.1052 4.0407C14.8373 3.77499 14.4048 3.77675 14.1391 4.04465L15.1092 5.00688ZM14.1194 4.06465C13.8559 4.33471 13.8612 4.76725 14.1312 5.03077C14.4013 5.29429 14.8338 5.28898 15.0973 5.01893L14.1194 4.06465ZM15.0396 5.08056C15.2919 4.79997 15.2689 4.368 14.9883 4.11574C14.7077 3.86348 14.2757 3.88645 14.0235 4.16705L15.0396 5.08056ZM13.1484 18.5924C13.1484 18.9697 13.4543 19.2756 13.8316 19.2756C14.209 19.2756 14.5148 18.9697 14.5148 18.5924H13.1484ZM14.5148 19.5474C14.5148 19.1701 14.209 18.8642 13.8316 18.8642C13.4543 18.8642 13.1484 19.1701 13.1484 19.5474H14.5148ZM13.1484 19.6839C13.1484 20.0612 13.4543 20.3671 13.8316 20.3671C14.209 20.3671 14.5148 20.0612 14.5148 19.6839H13.1484ZM14.5148 20.366C14.5148 19.9887 14.209 19.6828 13.8316 19.6828C13.4543 19.6828 13.1484 19.9887 13.1484 20.366H14.5148ZM14.0235 34.7914C14.2757 35.072 14.7077 35.095 14.9883 34.8427C15.2689 34.5904 15.2919 34.1585 15.0396 33.8779L14.0235 34.7914ZM15.1211 33.9635C14.8532 33.6978 14.4207 33.6996 14.1549 33.9674C13.8892 34.2353 13.891 34.6679 14.1589 34.9336L15.1211 33.9635ZM14.1789 34.9533C14.449 35.2168 14.8815 35.2115 15.145 34.9415C15.4085 34.6714 15.4032 34.2389 15.1332 33.9753L14.1789 34.9533ZM15.1948 34.0331C14.9142 33.7808 14.4822 33.8038 14.23 34.0844C13.9777 34.365 14.0007 34.797 14.2813 35.0492L15.1948 34.0331ZM16.9069 35.9243C17.2842 35.9243 17.5901 35.6184 17.5901 35.2411C17.5901 34.8637 17.2842 34.5579 16.9069 34.5579V35.9243ZM16.9338 34.5579C16.5565 34.5579 16.2506 34.8637 16.2506 35.2411C16.2506 35.6184 16.5565 35.9243 16.9338 35.9243V34.5579ZM16.9377 35.9243C17.315 35.9243 17.6209 35.6184 17.6209 35.2411C17.6209 34.8637 17.315 34.5579 16.9377 34.5579V35.9243ZM16.9569 34.5579C16.5796 34.5579 16.2737 34.8637 16.2737 35.2411C16.2737 35.6184 16.5796 35.9243 16.9569 35.9243V34.5579ZM17.5743 36.6668C17.8781 36.8906 18.3058 36.8257 18.5296 36.5219C18.7533 36.2181 18.6885 35.7905 18.3847 35.5667L17.5743 36.6668ZM18.4327 35.6004C18.1195 35.39 17.695 35.4734 17.4846 35.7866C17.2742 36.0998 17.3575 36.5243 17.6708 36.7347L18.4327 35.6004ZM17.6848 36.744C17.9993 36.9525 18.4232 36.8665 18.6317 36.552C18.8401 36.2375 18.7542 35.8135 18.4396 35.6051L17.6848 36.744ZM18.4749 35.6277C18.1541 35.4291 17.733 35.5282 17.5344 35.849C17.3358 36.1698 17.4349 36.5909 17.7558 36.7895L18.4749 35.6277ZM20.6079 36.7895C20.9288 36.5909 21.0279 36.1698 20.8293 35.849C20.6307 35.5282 20.2096 35.4291 19.8888 35.6277L20.6079 36.7895ZM19.9379 35.5957C19.626 35.8081 19.5453 36.2331 19.7577 36.545C19.97 36.8569 20.395 36.9376 20.7069 36.7252L19.9379 35.5957ZM20.7208 36.7157C21.0314 36.5014 21.1094 36.076 20.8952 35.7654C20.6809 35.4548 20.2554 35.3767 19.9449 35.591L20.7208 36.7157ZM19.979 35.5667C19.6752 35.7905 19.6103 36.2181 19.8341 36.5219C20.0579 36.8257 20.4856 36.8906 20.7894 36.6668L19.979 35.5667ZM29.2601 35.9243C29.6374 35.9243 29.9433 35.6184 29.9433 35.2411C29.9433 34.8637 29.6374 34.5579 29.2601 34.5579V35.9243ZM29.9047 34.5579C29.5274 34.5579 29.2215 34.8637 29.2215 35.2411C29.2215 35.6184 29.5274 35.9243 29.9047 35.9243V34.5579ZM29.9968 35.9243C30.3741 35.9243 30.68 35.6184 30.68 35.2411C30.68 34.8637 30.3741 34.5579 29.9968 34.5579V35.9243ZM30.4572 34.5579C30.0799 34.5579 29.774 34.8637 29.774 35.2411C29.774 35.6184 30.0799 35.9243 30.4572 35.9243V34.5579ZM38.9279 36.6668C39.2316 36.8906 39.6593 36.8257 39.8831 36.5219C40.1069 36.2181 40.0421 35.7905 39.7383 35.5667L38.9279 36.6668ZM39.7863 35.6004C39.473 35.39 39.0486 35.4734 38.8382 35.7866C38.6278 36.0998 38.7111 36.5243 39.0243 36.7347L39.7863 35.6004ZM39.0383 36.744C39.3529 36.9525 39.7768 36.8665 39.9853 36.552C40.1937 36.2375 40.1077 35.8135 39.7932 35.6051L39.0383 36.744ZM39.8285 35.6277C39.5076 35.4291 39.0866 35.5282 38.888 35.849C38.6894 36.1698 38.7885 36.5909 39.1093 36.7895L39.8285 35.6277ZM41.9615 36.7895C42.2823 36.5909 42.3814 36.1698 42.1829 35.849C41.9843 35.5282 41.5632 35.4291 41.2424 35.6277L41.9615 36.7895ZM41.2915 35.5957C40.9796 35.8081 40.8989 36.2331 41.1112 36.545C41.3236 36.8569 41.7486 36.9376 42.0605 36.7252L41.2915 35.5957ZM42.0744 36.7157C42.3849 36.5014 42.463 36.076 42.2488 35.7654C42.0345 35.4548 41.609 35.3767 41.2984 35.591L42.0744 36.7157ZM41.3326 35.5667C41.0288 35.7905 40.9639 36.2181 41.1877 36.5219C41.4115 36.8257 41.8392 36.8906 42.143 36.6668L41.3326 35.5667ZM42.4543 35.9243C42.8316 35.9243 43.1375 35.6184 43.1375 35.2411C43.1375 34.8637 42.8316 34.5579 42.4543 34.5579V35.9243ZM42.4572 34.5579C42.0798 34.5579 41.7739 34.8637 41.7739 35.2411C41.7739 35.6184 42.0798 35.9243 42.4572 35.9243V34.5579ZM42.4572 35.9243C42.8345 35.9243 43.1408 35.6184 43.1408 35.2411C43.1408 34.8637 42.8345 34.5579 42.4572 34.5579V35.9243ZM42.4596 34.5579C42.0823 34.5579 41.7764 34.8637 41.7764 35.2411C41.7764 35.6184 42.0823 35.9243 42.4596 35.9243V34.5579ZM44.7791 35.0492C45.0597 34.797 45.0827 34.365 44.8304 34.0844C44.5782 33.8038 44.1462 33.7808 43.8656 34.0331L44.7791 35.0492ZM43.9512 33.9516C43.6855 34.2194 43.6873 34.652 43.9552 34.9177C44.2231 35.1834 44.6557 35.1817 44.9214 34.9138L43.9512 33.9516ZM44.9411 34.8938C45.2046 34.6237 45.1993 34.1912 44.9292 33.9277C44.6592 33.6642 44.2266 33.6695 43.9631 33.9395L44.9411 34.8938ZM44.0208 33.8779C43.7686 34.1585 43.7915 34.5904 44.0721 34.8427C44.3527 35.095 44.7847 35.072 45.037 34.7914L44.0208 33.8779ZM45.912 20.366C45.912 19.9887 45.6061 19.6828 45.2288 19.6828C44.8515 19.6828 44.5456 19.9887 44.5456 20.366H45.912ZM44.5456 19.411C44.5456 19.7883 44.8515 20.0942 45.2288 20.0942C45.6061 20.0942 45.912 19.7883 45.912 19.411H44.5456ZM45.912 19.2746C45.912 18.8973 45.6061 18.5914 45.2288 18.5914C44.8515 18.5914 44.5456 18.8973 44.5456 19.2746H45.912ZM44.5456 18.5924C44.5456 18.9697 44.8515 19.2756 45.2288 19.2756C45.6061 19.2756 45.912 18.9697 45.912 18.5924H44.5456ZM45.037 4.16705C44.7847 3.88645 44.3527 3.86348 44.0721 4.11574C43.7915 4.368 43.7686 4.79997 44.0208 5.08057L45.037 4.16705ZM43.9393 4.99494C44.2072 5.26065 44.6398 5.25889 44.9055 4.99099C45.1712 4.7231 45.1694 4.29052 44.9015 4.02481L43.9393 4.99494ZM44.8815 4.00513C44.6115 3.74161 44.1789 3.74692 43.9154 4.01697C43.6519 4.28703 43.6572 4.71958 43.9273 4.98309L44.8815 4.00513ZM43.8656 4.92536C44.1462 5.17762 44.5782 5.15464 44.8304 4.87404C45.0827 4.59344 45.0597 4.16148 44.7791 3.90922L43.8656 4.92536ZM30.4127 3.03418C30.0354 3.03418 29.7295 3.34006 29.7295 3.71739C29.7295 4.09471 30.0354 4.40059 30.4127 4.40059V3.03418ZM29.4623 4.40059C29.8397 4.40059 30.1455 4.09471 30.1455 3.71739C30.1455 3.34006 29.8397 3.03418 29.4623 3.03418V4.40059ZM29.3266 3.03418C28.9492 3.03418 28.6434 3.34006 28.6434 3.71739C28.6434 4.09471 28.9492 4.40059 29.3266 4.40059V3.03418ZM28.6477 4.40059C29.025 4.40059 29.3309 4.09471 29.3309 3.71739C29.3309 3.34006 29.025 3.03418 28.6477 3.03418V4.40059ZM16.5644 3.03418C15.6872 3.03418 14.8859 3.36572 14.2813 3.90922L15.1948 4.92536C15.5583 4.59859 16.0374 4.40059 16.5644 4.40059V3.03418ZM14.1391 4.04465C14.1325 4.05129 14.1259 4.05796 14.1194 4.06465L15.0973 5.01893C15.1013 5.0149 15.1052 5.01088 15.1092 5.00688L14.1391 4.04465ZM14.0235 4.16705C13.48 4.77161 13.1484 5.57299 13.1484 6.45019H14.5148C14.5148 5.92318 14.7128 5.44405 15.0396 5.08056L14.0235 4.16705ZM13.1484 6.45019V18.5924H14.5148V6.45019H13.1484ZM13.1484 19.5474V19.6839H14.5148V19.5474H13.1484ZM13.1484 20.366V32.5083H14.5148V20.366H13.1484ZM13.1484 32.5083C13.1484 33.3854 13.48 34.1868 14.0235 34.7914L15.0396 33.8779C14.7128 33.5144 14.5148 33.0353 14.5148 32.5083H13.1484ZM14.1589 34.9336C14.1655 34.9402 14.1722 34.9468 14.1789 34.9533L15.1332 33.9753C15.1291 33.9714 15.1251 33.9675 15.1211 33.9635L14.1589 34.9336ZM14.2813 35.0492C14.8859 35.5927 15.6872 35.9243 16.5644 35.9243V34.5579C16.0374 34.5579 15.5583 34.3598 15.1948 34.0331L14.2813 35.0492ZM16.5644 35.9243H16.9069V34.5579H16.5644V35.9243ZM16.9338 35.9243H16.9377V34.5579H16.9338V35.9243ZM16.9569 35.9243H17.2994V34.5579H16.9569V35.9243ZM16.6658 35.4968C16.8558 35.9672 17.173 36.3712 17.5743 36.6668L18.3847 35.5667C18.1844 35.4191 18.0267 35.2178 17.9329 34.9853L16.6658 35.4968ZM17.6708 36.7347C17.6754 36.7378 17.6801 36.7409 17.6848 36.744L18.4396 35.6051C18.4373 35.6035 18.435 35.602 18.4327 35.6004L17.6708 36.7347ZM17.7558 36.7895C18.1706 37.0462 18.6599 37.1943 19.1818 37.1943V35.8279C18.9213 35.8279 18.6799 35.7545 18.4749 35.6277L17.7558 36.7895ZM19.1818 37.1943C19.7037 37.1943 20.1931 37.0462 20.6079 36.7895L19.8888 35.6277C19.6838 35.7545 19.4424 35.8279 19.1818 35.8279V37.1943ZM20.7069 36.7252C20.7115 36.7221 20.7162 36.7189 20.7208 36.7157L19.9449 35.591C19.9426 35.5926 19.9402 35.5942 19.9379 35.5957L20.7069 36.7252ZM20.7894 36.6668C21.1907 36.3712 21.5079 35.9672 21.6978 35.4968L20.4308 34.9853C20.3369 35.2178 20.1793 35.4191 19.979 35.5667L20.7894 36.6668ZM21.0643 35.9243H29.2601V34.5579H21.0643V35.9243ZM29.9047 35.9243H29.9968V34.5579H29.9047V35.9243ZM30.4572 35.9243H38.6529V34.5579H30.4572V35.9243ZM38.0194 35.4968C38.2093 35.9672 38.5266 36.3712 38.9279 36.6668L39.7383 35.5667C39.538 35.4191 39.3803 35.2178 39.2865 34.9853L38.0194 35.4968ZM39.0243 36.7347C39.029 36.7378 39.0337 36.7409 39.0383 36.744L39.7932 35.6051C39.7909 35.6035 39.7886 35.602 39.7863 35.6004L39.0243 36.7347ZM39.1093 36.7895C39.5241 37.0462 40.0135 37.1943 40.5354 37.1943V35.8279C40.2748 35.8279 40.0335 35.7545 39.8285 35.6277L39.1093 36.7895ZM40.5354 37.1943C41.0573 37.1943 41.5467 37.0462 41.9615 36.7895L41.2424 35.6277C41.0374 35.7545 40.796 35.8279 40.5354 35.8279V37.1943ZM42.0605 36.7252C42.0651 36.7221 42.0697 36.7189 42.0744 36.7157L41.2984 35.591C41.2961 35.5926 41.2938 35.5942 41.2915 35.5957L42.0605 36.7252ZM42.143 36.6668C42.5443 36.3712 42.8615 35.9672 43.0514 35.4968L41.7844 34.9853C41.6905 35.2178 41.5329 35.4191 41.3326 35.5667L42.143 36.6668ZM42.4179 35.9243H42.4543V34.5579H42.4179V35.9243ZM42.4596 35.9243H42.496V34.5579H42.4596V35.9243ZM42.496 35.9243C43.3732 35.9243 44.1746 35.5927 44.7791 35.0492L43.8656 34.0331C43.5021 34.3598 43.023 34.5579 42.496 34.5579V35.9243ZM44.9214 34.9138C44.928 34.9071 44.9345 34.9005 44.9411 34.8938L43.9631 33.9395C43.9592 33.9435 43.9552 33.9476 43.9512 33.9516L44.9214 34.9138ZM45.037 34.7914C45.5805 34.1868 45.912 33.3854 45.912 32.5083H44.5456C44.5456 33.0353 44.3476 33.5144 44.0208 33.8779L45.037 34.7914ZM45.912 32.5083V20.366H44.5456V32.5083H45.912ZM45.912 19.411V19.2746H44.5456V19.411H45.912ZM45.912 18.5924V6.45019H44.5456V18.5924H45.912ZM45.912 6.45019C45.912 5.57299 45.5805 4.77161 45.037 4.16705L44.0208 5.08057C44.3476 5.44405 44.5456 5.92319 44.5456 6.45019H45.912ZM44.9015 4.02481C44.8949 4.01822 44.8882 4.01166 44.8815 4.00513L43.9273 4.98309C43.9313 4.98703 43.9353 4.99097 43.9393 4.99494L44.9015 4.02481ZM44.7791 3.90922C44.1746 3.36572 43.3732 3.03418 42.496 3.03418V4.40059C43.023 4.40059 43.5021 4.59859 43.8656 4.92536L44.7791 3.90922ZM42.496 3.03418H30.4127V4.40059H42.496V3.03418ZM29.4623 3.03418H29.3266V4.40059H29.4623V3.03418ZM28.6477 3.03418H16.5644V4.40059H28.6477V3.03418Z" fill="#264887"/>
<path fill-rule="evenodd" clip-rule="evenodd" d="M17.2656 8.22529C17.2656 7.47065 17.8774 6.85889 18.632 6.85889H40.8541C41.6087 6.85889 42.2205 7.47065 42.2205 8.22529V30.4293C42.2205 31.184 41.6087 31.7957 40.8541 31.7957H18.632C17.8774 31.7957 17.2656 31.184 17.2656 30.4293V8.22529Z" fill="white"/>
<path d="M20 7H18.3665C17.6118 7 17 7.61182 17 8.36621V30.5703C17 31.3252 17.6118 31.937 18.3665 31.937H40.5884C41.343 31.937 41.9548 31.3252 41.9548 30.5703V28.937H21.3665C20.6118 28.937 20 28.3252 20 27.5703V7Z" fill="#B5D9F1"/>
<path fill-rule="evenodd" clip-rule="evenodd" d="M17.2656 8.22529C17.2656 7.47065 17.8774 6.85889 18.632 6.85889H40.8541C41.6087 6.85889 42.2205 7.47065 42.2205 8.22529V30.4293C42.2205 31.184 41.6087 31.7957 40.8541 31.7957H18.632C17.8774 31.7957 17.2656 31.184 17.2656 30.4293V8.22529Z" stroke="#264887" stroke-width="1.25" stroke-linecap="round" stroke-linejoin="round"/>
<path fill-rule="evenodd" clip-rule="evenodd" d="M15.9238 11.2585C15.9238 10.4928 16.5445 9.87207 17.3102 9.87207C18.0759 9.87207 18.6966 10.4928 18.6966 11.2584V14.3351C18.6966 15.1007 18.0759 15.7215 17.3102 15.7215C16.5445 15.7215 15.9238 15.1007 15.9238 14.3351V11.2585Z" fill="white"/>
<path fill-rule="evenodd" clip-rule="evenodd" d="M15.9238 11.2585C15.9238 10.4928 16.5445 9.87207 17.3102 9.87207C18.0759 9.87207 18.6966 10.4928 18.6966 11.2584V14.3351C18.6966 15.1007 18.0759 15.7215 17.3102 15.7215C16.5445 15.7215 15.9238 15.1007 15.9238 14.3351V11.2585Z" stroke="#264887" stroke-width="1.25" stroke-linecap="round" stroke-linejoin="round"/>
<path fill-rule="evenodd" clip-rule="evenodd" d="M15.9238 25.6535C15.9238 24.8878 16.5445 24.2671 17.3102 24.2671C18.0759 24.2671 18.6966 24.8878 18.6966 25.6535V28.7301C18.6966 29.4958 18.0759 30.1165 17.3102 30.1165C16.5445 30.1165 15.9238 29.4958 15.9238 28.7301V25.6535Z" fill="white"/>
<path fill-rule="evenodd" clip-rule="evenodd" d="M15.9238 25.6535C15.9238 24.8878 16.5445 24.2671 17.3102 24.2671C18.0759 24.2671 18.6966 24.8878 18.6966 25.6535V28.7301C18.6966 29.4958 18.0759 30.1165 17.3102 30.1165C16.5445 30.1165 15.9238 29.4958 15.9238 28.7301V25.6535Z" stroke="#264887" stroke-width="1.25" stroke-linecap="round" stroke-linejoin="round"/>
<path d="M29.4935 24.894C32.3361 24.894 34.6412 22.5912 34.6412 19.7495C34.6412 16.9078 32.3361 14.605 29.4935 14.605C26.6508 14.605 24.3457 16.9078 24.3457 19.7495C24.3457 22.5912 26.6508 24.894 29.4935 24.894Z" stroke="#264887" stroke-width="1.25"/>
<path fill-rule="evenodd" clip-rule="evenodd" d="M30.2203 14.5202C30.2203 14.169 29.9392 13.8882 29.5924 13.8882C29.2432 13.8882 28.9645 14.1712 28.9645 14.5202V17.6391C28.162 17.9033 27.5825 18.6607 27.5825 19.5538C27.5825 19.7261 27.6041 19.8934 27.6447 20.0531L24.9037 21.9777C24.6188 22.1778 24.5493 22.5707 24.7482 22.8555C24.9485 23.1424 25.3392 23.2092 25.624 23.0093L28.3216 21.1151C28.6678 21.3986 29.11 21.5687 29.5918 21.5687C30.1271 21.5687 30.6136 21.3587 30.9737 21.0164L33.8111 23.0088C34.0961 23.2088 34.488 23.1399 34.6869 22.855C34.8872 22.5682 34.8162 22.1772 34.5314 21.9772L31.5717 19.899C31.591 19.7868 31.601 19.6715 31.601 19.5538C31.601 18.6611 31.0221 17.9041 30.2203 17.6395V14.5202Z" fill="#D22D27"/>
</g>
<defs>
<clipPath id="clip0_7948_14440">
<rect width="60" height="40" fill="white"/>
</clipPath>
</defs>
</svg>
