<svg width="24" height="24" viewBox="0 0 24 24" fill="none" xmlns="http://www.w3.org/2000/svg">
<path d="M22 17.8667C22 19.0448 21.1471 20 20.0952 20H3.90476C2.85286 20 2 19.0448 2 17.8667V6.13333C2 4.9552 2.85286 4 3.90476 4H20.0952C21.1471 4 22 4.9552 22 6.13333V17.8667Z" fill="#1976D2"/>
<path fill-rule="evenodd" clip-rule="evenodd" d="M6.20032 12.2448H7.13665L6.66815 11.0817" fill="white"/>
<path fill-rule="evenodd" clip-rule="evenodd" d="M19.9997 10H17.6054C17.5698 10 17.5247 10.0259 17.4995 10.0528C17.3231 10.2405 17.151 10.4329 16.9742 10.6266C16.8129 10.4359 16.6549 10.2516 16.501 10.0649C16.4654 10.0212 16.4311 10.0003 16.3733 10.0003H10.885C10.8229 10.0003 10.795 10.0256 10.7721 10.0811L10.3544 11.0531C10.2112 10.7225 10.0734 10.4107 9.94198 10.0969C9.91308 10.0276 9.87813 10.0007 9.80318 10.001H5.85922C5.78024 10.001 5.74495 10.0286 5.71403 10.1009L4 14.0901H6.05583C6.0807 14.0901 6.117 14.0531 6.12809 14.0272C6.20405 13.8516 6.27261 13.6727 6.34923 13.4974C6.361 13.4705 6.40301 13.4369 6.43225 13.4359H6.89268C6.94915 13.4345 6.97671 13.4534 6.99754 13.5079C7.05804 13.6666 7.12962 13.8213 7.18575 13.9821C7.21465 14.0645 7.25498 14.0898 7.34035 14.0898C10.3013 14.0871 13.2612 14.0857 16.2217 14.0898C16.3427 14.0898 16.42 14.0494 16.4956 13.9599C16.6428 13.7874 16.8008 13.6078 16.9594 13.4352C17.1308 13.6316 17.2982 13.8361 17.4612 14.0272C17.4982 14.0702 17.5345 14.0898 17.5913 14.0898H19.9254C19.3184 13.4086 18.7209 12.7282 18.1213 12.0555C18.7464 11.3727 20 10.0003 20 10.0003L19.9997 10ZM12.3564 13.5183H11.6624V11.2734C11.6557 11.2714 10.9875 12.7595 10.6921 13.4429C10.6676 13.5001 10.6383 13.5203 10.5779 13.518H10.1359C10.0754 13.5196 10.0478 13.4978 10.0236 13.4416L9.05303 11.2586V13.5176H7.73894C7.66937 13.5176 7.63912 13.4934 7.6156 13.4312C7.55006 13.2576 7.4778 13.0871 7.41126 12.9142C7.39345 12.8671 7.36958 12.8513 7.31951 12.8516C6.88596 12.854 6.45308 12.854 6.01987 12.8516C5.97013 12.8516 5.9466 12.8664 5.92812 12.9139C5.85922 13.0921 5.78696 13.2697 5.71168 13.4453C5.69991 13.4736 5.66698 13.5166 5.64312 13.5173C5.41223 13.522 5.181 13.5173 4.93734 13.5173L6.13716 10.665C6.1627 10.6044 6.19329 10.5853 6.25647 10.5859C6.54214 10.5893 6.82849 10.5893 7.1145 10.5859C7.17835 10.5853 7.20759 10.6068 7.2328 10.6667L8.3654 13.3155V10.5859H9.41399C9.47449 10.5853 9.50238 10.6051 9.52759 10.6609L10.3907 12.5681L11.1919 10.6596C11.204 10.631 11.2362 10.5863 11.2598 10.5856H12.3578V13.5169L12.3564 13.5183ZM18.652 13.5183H17.8968C17.7976 13.5217 17.7321 13.4894 17.6672 13.4123C17.6672 13.4123 16.9356 12.564 16.9211 12.5412C16.9211 12.5412 16.2651 13.266 16.0775 13.4682C16.054 13.4937 16.0117 13.518 15.9784 13.5186H12.9604V10.5873H16.0231C16.096 10.5873 16.1434 10.6088 16.1905 10.6667C16.4304 10.961 16.6744 11.2506 16.9231 11.5479L17.764 10.634C17.7842 10.6125 17.8185 10.588 17.8464 10.5876C18.123 10.5843 18.3996 10.5876 18.7 10.5876C18.2463 11.0847 17.806 11.5688 17.3607 12.0565C17.7875 12.5365 18.2144 13.0275 18.652 13.5186V13.5183Z" fill="white"/>
<path fill-rule="evenodd" clip-rule="evenodd" d="M15.2777 10.7242V11.1978H13.6429V11.7171H15.2777V12.3246H13.6429V12.9055H15.2777V13.3448C15.689 12.9031 16.0728 12.478 16.4728 12.0481L15.2777 10.7141C15.2709 10.7175 15.2844 10.7208 15.2777 10.7242Z" fill="white"/>
</svg>
