<svg width="24" height="24" viewBox="0 0 24 24" fill="none" xmlns="http://www.w3.org/2000/svg">
<path d="M21.5 18.3667C21.5 19.54 20.6429 20.5 19.5952 20.5H3.40476C2.35714 20.5 1.5 19.54 1.5 18.3667V6.63333C1.5 5.46 2.35714 4.5 3.40476 4.5H19.5952C20.6429 4.5 21.5 5.46 21.5 6.63333V18.3667Z" fill="#E0E0E0"/>
<path d="M21.5 18.5C21.5 19.6 20.6428 20.5 19.5952 20.5H7.69043C7.69043 20.5 18.9285 18.6 21.5 13V18.5ZM10.5476 12C10.5476 12.85 11.1666 13.5 11.9761 13.5C12.7857 13.5 13.4047 12.85 13.4047 12C13.4047 11.15 12.7857 10.5 11.9761 10.5C11.1666 10.5 10.5476 11.15 10.5476 12Z" fill="#FF6D00"/>
<path d="M5.40478 10.5H5.92859V13.5H5.40478V10.5ZM8.26192 12C8.26192 12.85 8.88097 13.5 9.69049 13.5C9.92859 13.5 10.1191 13.45 10.3572 13.35V12.7C10.1667 12.9 9.97621 13 9.69049 13C9.16668 13 8.78573 12.6 8.78573 12C8.78573 11.45 9.16668 11 9.69049 11C9.92859 11 10.1191 11.1 10.3572 11.3V10.65C10.1191 10.55 9.92859 10.45 9.69049 10.45C8.88097 10.5 8.26192 11.2 8.26192 12ZM14.6429 12.45L13.881 10.5H13.3095L14.5 13.5H14.7857L15.9762 10.5H15.4048L14.6429 12.45ZM16.2143 13.5H17.7381V13H16.7381V12.2H17.6905V11.7H16.7381V11H17.7381V10.5H16.2143V13.5ZM19.8333 11.4C19.8333 10.85 19.5 10.5 18.881 10.5H18.0714V13.5H18.5953V12.3H18.6429L19.4048 13.5H20.0714L19.2143 12.25C19.5953 12.15 19.8333 11.85 19.8333 11.4ZM18.7381 11.9H18.5953V11H18.7381C19.0714 11 19.2619 11.15 19.2619 11.45C19.2619 11.7 19.1191 11.9 18.7381 11.9ZM3.73811 10.5H2.92859V13.5H3.69049C4.88097 13.5 5.16668 12.45 5.16668 12C5.2143 11.1 4.59526 10.5 3.73811 10.5ZM3.59526 13H3.4524V11H3.64287C4.35716 11 4.64287 11.5 4.64287 12C4.64287 12.2 4.59526 13 3.59526 13ZM7.35716 11.65C7.02383 11.5 6.92859 11.45 6.92859 11.3C6.92859 11.1 7.11906 11 7.30954 11C7.4524 11 7.59526 11.05 7.73811 11.25L8.02383 10.85C7.78573 10.6 7.54764 10.5 7.2143 10.5C6.73811 10.5 6.35716 10.85 6.35716 11.35C6.35716 11.75 6.54764 11.95 7.02383 12.15C7.30954 12.25 7.54764 12.35 7.54764 12.6C7.54764 12.85 7.35716 13 7.11906 13C6.88097 13 6.64287 12.85 6.54764 12.6L6.2143 12.95C6.4524 13.35 6.73811 13.5 7.16668 13.5C7.73811 13.5 8.11906 13.1 8.11906 12.55C8.11906 12.1 7.92859 11.9 7.35716 11.65Z" fill="black"/>
</svg>
