<svg width="24" height="24" viewBox="0 0 24 24" fill="none" xmlns="http://www.w3.org/2000/svg">
<rect x="2" y="4" width="20" height="16" rx="2" fill="#224DBA"/>
<path fill-rule="evenodd" clip-rule="evenodd" d="M8.00017 14.5022H6.61547L5.57711 10.5584C5.52783 10.377 5.42318 10.2167 5.26925 10.1411C4.8851 9.9511 4.46179 9.79993 4 9.72368V9.57184H6.23064C6.5385 9.57184 6.7694 9.79993 6.80788 10.0648L7.34664 12.9096L8.73066 9.57184H10.0769L8.00017 14.5022ZM10.8465 14.5022H9.53881L10.6156 9.57184H11.9234L10.8465 14.5022ZM13.6153 10.9377C13.6537 10.6722 13.8846 10.5203 14.154 10.5203C14.5773 10.4822 15.0384 10.5584 15.4233 10.7477L15.6542 9.68621C15.2693 9.53438 14.846 9.45813 14.4619 9.45813C13.1926 9.45813 12.269 10.1411 12.269 11.0889C12.269 11.8099 12.9233 12.1885 13.385 12.4166C13.8846 12.644 14.0771 12.7959 14.0386 13.0233C14.0386 13.3644 13.6537 13.5163 13.2696 13.5163C12.8078 13.5163 12.346 13.4026 11.9234 13.2126L11.6925 14.2748C12.1543 14.4641 12.6539 14.5403 13.1157 14.5403C14.5388 14.5778 15.4233 13.8955 15.4233 12.8715C15.4233 11.5819 13.6153 11.5063 13.6153 10.9377ZM20 14.5022L18.9616 9.57184H17.8463C17.6154 9.57184 17.3845 9.72368 17.3076 9.9511L15.3848 14.5022H16.731L16.9997 13.7818H18.6538L18.8077 14.5022H20ZM18.0387 10.8996L18.4229 12.7578H17.346L18.0387 10.8996Z" fill="white"/>
</svg>
