<svg
      xmlns="http://www.w3.org/2000/svg"
      width="24px"
      height="24px"
      viewBox="0 0 24 24"
    >
      <defs>
        <path
          d="M12,2 C6.48,2 2,6.48 2,12 C2,17.52 6.48,22 12,22 C17.52,22 22,17.52 22,12 C22,6.48 17.52,2 12,2 L12,2 Z M16.2426407,9.17157288 L13.4142136,12 L16.2426407,14.8284271 L14.8284271,16.2426407 L12,13.4142136 L9.17157288,16.2426407 L7.75735931,14.8284271 L10.5857864,12 L7.75735931,9.17157288 L9.17157288,7.75735931 L12,10.5857864 L14.8284271,7.75735931 L16.2426407,9.17157288 L16.2426407,9.17157288 Z"
          id="path-1"
        />
      </defs>
      <g
        id="3.-icons/3.1-global/cancel"
        stroke="none"
        stroke-width="1"
        fill="none"
        fill-rule="evenodd"
      >
        <mask id="mask-2" fill="white">
          <use xlink-href="#path-1" />
        </mask>
        <use
          id="Mask"
          fill="#DDDDDD"
          transform="translate(12.000000, 12.000000) rotate(-270.000000) translate(-12.000000, -12.000000) "
          xlink-href="#path-1"
        />
        <g id="1.-colors/1.1-Primary/black" mask="url(#mask-2)" fill="#c70013">
          <rect id="Colors/Black" x="0" y="0" width="24" height="24" />
        </g>
      </g>
    </svg>