<svg width="18" height="20" viewBox="0 0 18 20" fill="none" xmlns="http://www.w3.org/2000/svg">
<path fill-rule="evenodd" clip-rule="evenodd" d="M14.81 2.47C14.73 2.47 14.65 2.45 14.58 2.41C12.66 1.42 11 1 9.00998 1C7.02998 1 5.14998 1.47 3.43998 2.41C3.19999 2.54 2.89998 2.45 2.75998 2.21C2.62998 1.97 2.71999 1.66 2.95999 1.53C4.81998 0.52 6.85998 0 9.00998 0C11.14 0 13 0.47 15.04 1.52C15.29 1.65 15.38 1.95 15.25 2.19C15.16 2.37 14.99 2.47 14.81 2.47ZM0.499985 7.72C0.399985 7.72 0.299985 7.69 0.209985 7.63C-0.0200151 7.47 -0.0700151 7.16 0.0899849 6.93C1.07998 5.53 2.33998 4.43 3.83998 3.66C6.97999 2.04 11 2.03 14.15 3.65C15.65 4.42 16.91 5.51 17.9 6.9C18.06 7.12 18.01 7.44 17.78 7.6C17.55 7.76 17.24 7.71 17.08 7.48C16.18 6.22 15.04 5.23 13.69 4.54C10.82 3.07 7.14999 3.07 4.28999 4.55C2.92999 5.25 1.78998 6.25 0.889985 7.51C0.809985 7.65 0.659985 7.72 0.499985 7.72ZM6.39998 19.64C6.48998 19.74 6.61999 19.79 6.74998 19.79C6.87998 19.79 7.00998 19.74 7.11998 19.64C7.30998 19.44 7.30998 19.13 7.11998 18.93C6.34999 18.15 5.90998 17.66 5.26998 16.51C4.65998 15.43 4.33998 14.1 4.33998 12.66C4.33998 10.24 6.42999 8.27 8.99998 8.27C11.57 8.27 13.66 10.24 13.66 12.66C13.66 12.94 13.88 13.16 14.16 13.16C14.44 13.16 14.66 12.94 14.66 12.66C14.66 9.69 12.12 7.27 8.99998 7.27C5.87998 7.27 3.33998 9.69 3.33998 12.66C3.33998 14.27 3.69998 15.77 4.38999 17C5.05998 18.21 5.52998 18.77 6.39998 19.64ZM13.92 17.94C12.73 17.94 11.68 17.64 10.82 17.05C9.32999 16.04 8.43999 14.4 8.43999 12.66C8.43999 12.38 8.65999 12.16 8.93999 12.16C9.21999 12.16 9.43999 12.38 9.43999 12.66C9.43999 14.07 10.16 15.4 11.38 16.22C12.09 16.7 12.92 16.93 13.92 16.93C14.16 16.93 14.56 16.9 14.96 16.83C15.23 16.78 15.49 16.96 15.54 17.24C15.59 17.51 15.41 17.77 15.13 17.82C14.56 17.93 14.06 17.94 13.92 17.94ZM11.78 19.98C11.82 19.99 11.87 20 11.91 20C12.12 20 12.33 19.85 12.38 19.62C12.45 19.36 12.3 19.08 12.03 19.01C10.62 18.62 9.70998 18.1 8.75998 17.16C7.54998 15.96 6.88999 14.36 6.88999 12.65C6.88999 11.58 7.81998 10.71 8.96999 10.71C10.12 10.71 11.05 11.58 11.05 12.65C11.05 14.27 12.43 15.59 14.13 15.59C15.83 15.59 17.21 14.27 17.21 12.65C17.21 8.33 13.51 4.82 8.95998 4.82C5.72998 4.82 2.77998 6.63 1.44999 9.42C0.999985 10.37 0.769985 11.46 0.769985 12.66C0.769985 14.01 1.00998 15.31 1.49998 16.62C1.58999 16.87 1.87998 17.01 2.13999 16.91C2.39998 16.82 2.52998 16.53 2.42999 16.27C1.82998 14.67 1.75998 13.44 1.75998 12.66C1.75998 11.62 1.95999 10.67 2.34999 9.86C3.51998 7.41 6.11998 5.83 8.95998 5.83C12.96 5.83 16.21 8.89 16.21 12.66C16.21 13.73 15.28 14.6 14.13 14.6C12.98 14.6 12.05 13.73 12.05 12.66C12.05 11.04 10.67 9.72 8.96999 9.72C7.26998 9.72 5.88999 11.04 5.88999 12.66C5.88999 14.64 6.65999 16.49 8.05999 17.88C9.14999 18.95 10.19 19.54 11.78 19.98Z" fill="#121212"/>
<mask id="mask0_1083_2431" style="mask-type:luminance" maskUnits="userSpaceOnUse" x="-1" y="0" width="19" height="20">
<path fill-rule="evenodd" clip-rule="evenodd" d="M14.81 2.47C14.73 2.47 14.65 2.45 14.58 2.41C12.66 1.42 11 1 9.00998 1C7.02998 1 5.14998 1.47 3.43998 2.41C3.19999 2.54 2.89998 2.45 2.75998 2.21C2.62998 1.97 2.71999 1.66 2.95999 1.53C4.81998 0.52 6.85998 0 9.00998 0C11.14 0 13 0.47 15.04 1.52C15.29 1.65 15.38 1.95 15.25 2.19C15.16 2.37 14.99 2.47 14.81 2.47ZM0.499985 7.72C0.399985 7.72 0.299985 7.69 0.209985 7.63C-0.0200151 7.47 -0.0700151 7.16 0.0899849 6.93C1.07998 5.53 2.33998 4.43 3.83998 3.66C6.97999 2.04 11 2.03 14.15 3.65C15.65 4.42 16.91 5.51 17.9 6.9C18.06 7.12 18.01 7.44 17.78 7.6C17.55 7.76 17.24 7.71 17.08 7.48C16.18 6.22 15.04 5.23 13.69 4.54C10.82 3.07 7.14999 3.07 4.28999 4.55C2.92999 5.25 1.78998 6.25 0.889985 7.51C0.809985 7.65 0.659985 7.72 0.499985 7.72ZM6.39998 19.64C6.48998 19.74 6.61999 19.79 6.74998 19.79C6.87998 19.79 7.00998 19.74 7.11998 19.64C7.30998 19.44 7.30998 19.13 7.11998 18.93C6.34999 18.15 5.90998 17.66 5.26998 16.51C4.65998 15.43 4.33998 14.1 4.33998 12.66C4.33998 10.24 6.42999 8.27 8.99998 8.27C11.57 8.27 13.66 10.24 13.66 12.66C13.66 12.94 13.88 13.16 14.16 13.16C14.44 13.16 14.66 12.94 14.66 12.66C14.66 9.69 12.12 7.27 8.99998 7.27C5.87998 7.27 3.33998 9.69 3.33998 12.66C3.33998 14.27 3.69998 15.77 4.38999 17C5.05998 18.21 5.52998 18.77 6.39998 19.64ZM13.92 17.94C12.73 17.94 11.68 17.64 10.82 17.05C9.32999 16.04 8.43999 14.4 8.43999 12.66C8.43999 12.38 8.65999 12.16 8.93999 12.16C9.21999 12.16 9.43999 12.38 9.43999 12.66C9.43999 14.07 10.16 15.4 11.38 16.22C12.09 16.7 12.92 16.93 13.92 16.93C14.16 16.93 14.56 16.9 14.96 16.83C15.23 16.78 15.49 16.96 15.54 17.24C15.59 17.51 15.41 17.77 15.13 17.82C14.56 17.93 14.06 17.94 13.92 17.94ZM11.78 19.98C11.82 19.99 11.87 20 11.91 20C12.12 20 12.33 19.85 12.38 19.62C12.45 19.36 12.3 19.08 12.03 19.01C10.62 18.62 9.70998 18.1 8.75998 17.16C7.54998 15.96 6.88999 14.36 6.88999 12.65C6.88999 11.58 7.81998 10.71 8.96999 10.71C10.12 10.71 11.05 11.58 11.05 12.65C11.05 14.27 12.43 15.59 14.13 15.59C15.83 15.59 17.21 14.27 17.21 12.65C17.21 8.33 13.51 4.82 8.95998 4.82C5.72998 4.82 2.77998 6.63 1.44999 9.42C0.999985 10.37 0.769985 11.46 0.769985 12.66C0.769985 14.01 1.00998 15.31 1.49998 16.62C1.58999 16.87 1.87998 17.01 2.13999 16.91C2.39998 16.82 2.52998 16.53 2.42999 16.27C1.82998 14.67 1.75998 13.44 1.75998 12.66C1.75998 11.62 1.95999 10.67 2.34999 9.86C3.51998 7.41 6.11998 5.83 8.95998 5.83C12.96 5.83 16.21 8.89 16.21 12.66C16.21 13.73 15.28 14.6 14.13 14.6C12.98 14.6 12.05 13.73 12.05 12.66C12.05 11.04 10.67 9.72 8.96999 9.72C7.26998 9.72 5.88999 11.04 5.88999 12.66C5.88999 14.64 6.65999 16.49 8.05999 17.88C9.14999 18.95 10.19 19.54 11.78 19.98Z" fill="white"/>
</mask>
<g mask="url(#mask0_1083_2431)">
<rect x="-57" y="-56" width="132" height="132" fill="#121212"/>
</g>
</svg>
