<?xml version="1.0" encoding="UTF-8"?>
<svg width="20px" height="20px" viewBox="0 0 40 40" version="1.1" xmlns="http://www.w3.org/2000/svg" xmlns:xlink="http://www.w3.org/1999/xlink">
    <path d="M40,20 C40,31.0453333 31.0453333,40 20,40 C8.95466667,40 0,31.0453333 0,20 C0,8.95466667 8.95466667,0 20,0 C31.0453333,0 40,8.95466667 40,20" id="path-1"></path>
    <path fill="#FFFFFF" x="0" y="0" width="40" height="40" transform="translate(10.000000, 6.666667)" d="M19.3333333,19.3333333 L19.3333333,22.6666667 L0.666666667,22.6666667 L0.666666667,19.3333333 L19.3333333,19.3333333 Z M19.3333333,13.3333333 L19.3333333,16.6666667 L0.666666667,16.6666667 L0.666666667,13.3333333 L19.3333333,13.3333333 Z M10,1.21573333 C13.7514511,1.21573333 16.8146667,4.27894886 16.8146667,8.0304 L16.8146667,8.0304 L16.8146667,10.6364 L13.852,10.6364 L13.852,8.0304 C13.852,5.91518448 12.1152155,4.1784 10,4.1784 C7.88478448,4.1784 6.148,5.91518448 6.148,8.0304 L6.148,8.0304 L6.148,10.6364 L3.18533333,10.6364 L3.18533333,8.0304 C3.18533333,4.27894886 6.24854886,1.21573333 10,1.21573333 Z" id="path-3"></path>
</svg>
