<?xml version="1.0" encoding="utf-8"?>
<!-- Generator: Adobe Illustrator 23.0.0, SVG Export Plug-In . SVG Version: 6.00 Build 0)  -->
<svg version="1.1" id="Layer_1" xmlns="http://www.w3.org/2000/svg" xmlns:xlink="http://www.w3.org/1999/xlink" x="0px" y="0px"
	 viewBox="0 0 32 32" style="enable-background:new 0 0 32 32;" xml:space="preserve">
<style type="text/css">
	.st0{fill:url(#SVGID_1_);}
	.st1{fill:#FFC700;}
</style>
<radialGradient id="SVGID_1_" cx="5.7296" cy="14.0749" r="24.2506" gradientUnits="userSpaceOnUse">
	<stop  offset="0" style="stop-color:#09559A"/>
	<stop  offset="1" style="stop-color:#072841"/>
</radialGradient>
<path class="st0" d="M20.4,4c-1.3-0.5-2.6-1.1-3.8-1.8c-0.4-0.3-0.9-0.3-1.3,0c-1.2,0.7-2.5,1.4-3.9,1.8c-2,0.7-4.1,1.1-6.2,1.1
	C5,5.1,4.6,5.2,4.4,5.4C4.1,5.6,4,6,4,6.3V19c0,3.5,1.9,6.7,4.9,8.4l2.4,1.3c2.9,1.7,6.5,1.7,9.4,0l2.4-1.3c3-1.7,4.9-5,4.9-8.4V6.3
	c0-0.3-0.1-0.7-0.4-0.9S27,5.1,26.6,5.1C24.5,5.1,22.4,4.7,20.4,4z"/>
<path class="st1" d="M20.9,12.1l-0.4-0.4c-0.3-0.3-0.6-0.4-1-0.4c-0.4,0-0.7,0.2-1,0.4l-3.9,4l-1.1-1.1c-0.3-0.3-0.6-0.4-1-0.4
	s-0.7,0.2-1,0.4L11.1,15c-0.3,0.3-0.4,0.6-0.4,1c0,0.4,0.2,0.8,0.4,1l2.1,2.1l0,0l0.4,0.4c0.3,0.3,0.6,0.4,1,0.4s0.7-0.2,1-0.4
	l0.4-0.4l0,0l4.9-5c0.3-0.3,0.4-0.6,0.4-1C21.3,12.8,21.2,12.4,20.9,12.1L20.9,12.1z"/>
</svg>
