<?xml version="1.0" encoding="utf-8"?>
<!-- Generator: Adobe Illustrator 23.0.0, SVG Export Plug-In . SVG Version: 6.00 Build 0)  -->
<svg width="24" height="24" viewBox="0 0 24 24" fill="none" xmlns="http://www.w3.org/2000/svg">
<g clip-path="url(#clip0_1514_50388)">
<path d="M23 12C23 18.0751 18.0751 23 12 23C5.92487 23 1 18.0751 1 12C1 5.92487 5.92487 1 12 1C18.0751 1 23 5.92487 23 12Z" fill="#757575"/>
<path fill-rule="evenodd" clip-rule="evenodd" d="M24 12C24 18.6274 18.6274 24 12 24C5.37258 24 0 18.6274 0 12C0 5.37258 5.37258 0 12 0C18.6274 0 24 5.37258 24 12ZM12 23C18.0751 23 23 18.0751 23 12C23 5.92487 18.0751 1 12 1C5.92487 1 1 5.92487 1 12C1 18.0751 5.92487 23 12 23Z" fill="white"/>
<path d="M9.93359 2.40039H11.6329V9.26661H15.1429L19.3652 5.9093L20.4264 7.23484L15.7384 10.9619H9.93359V2.40039Z" fill="white"/>
<path d="M13.2578 2.63184L14.9571 3.06444V5.43822L16.8587 3.87974L18.2705 4.91688L14.6473 7.88595L13.2578 7.87856V2.63184Z" fill="white"/>
<path d="M3.24219 15.3932L4.94151 16.8352V7.39551L3.24219 8.9503V15.3932Z" fill="white"/>
<path d="M8.27345 18.865L6.57227 20.3384V3.74414L8.27345 5.21759V18.865Z" fill="white"/>
<path d="M14.9571 18.729L16.8587 20.2875L18.2705 19.2485L14.6473 16.2812L13.2578 16.2886V21.5354L14.9571 21.1028V18.729Z" fill="white"/>
<path d="M19.3652 18.0262L15.1429 14.6671H11.6329V21.5333H9.93359V12.9736H15.7384L20.4264 16.7007L19.3652 18.0262Z" fill="white"/>
<path d="M17.2109 11.9674L20.6875 14.8274L21.7709 13.5204L19.8824 11.9674L21.7709 10.4145L20.6875 9.10742L17.2109 11.9674Z" fill="white"/>
</g>
<defs>
<clipPath id="clip0_1514_50388">
<rect width="24" height="24" fill="white"/>
</clipPath>
</defs>
</svg>

