<svg xmlns="http://www.w3.org/2000/svg" viewBox="0 0 20 20" enable-background="new 0 0 20 20"><g transform="translate(.667 .667)"><path d="M1 17.7V5.2c0-.5.4-.8.8-.8h3.3V1h8.3v3.3h3.3c.5 0 .8.4.8.8v12.5H11v-4.2H7.7v4.2H1M6.8 2.7v5h1.7V6h1.7v1.7h1.7v-5h-1.7v1.7H8.5V2.7H6.8M2.7 16H6v-2.5H2.7V16m0-4.2H6V9.3H2.7v2.5m10 4.2H16v-2.5h-3.3V16m0-4.2H16V9.3h-3.3v2.5m-5 0H11V9.3H7.7v2.5z"/><defs><filter id="a" filterUnits="userSpaceOnUse" x="-.7" y="-.7" width="20" height="20"><feColorMatrix values="1 0 0 0 0 0 1 0 0 0 0 0 1 0 0 0 0 0 1 0"/></filter></defs><mask maskUnits="userSpaceOnUse" x="-.7" y="-.7" width="20" height="20" id="b"><g filter="url(#a)"><path d="M1 17.7V5.2c0-.5.4-.8.8-.8h3.3V1h8.3v3.3h3.3c.5 0 .8.4.8.8v12.5H11v-4.2H7.7v4.2H1M6.8 2.7v5h1.7V6h1.7v1.7h1.7v-5h-1.7v1.7H8.5V2.7H6.8M2.7 16H6v-2.5H2.7V16m0-4.2H6V9.3H2.7v2.5m10 4.2H16v-2.5h-3.3V16m0-4.2H16V9.3h-3.3v2.5m-5 0H11V9.3H7.7v2.5z" fill-rule="evenodd" clip-rule="evenodd" fill="#fff"/></g></mask><g mask="url(#b)"><path fill-rule="evenodd" clip-rule="evenodd" d="M-.667-.667h20v20h-20z"/></g></g></svg>