<svg xmlns="http://www.w3.org/2000/svg" viewBox="0 0 20 20" enable-background="new 0 0 20 20"><g transform="translate(-1)"><path d="M4.3 8.3v5.8h2.5V8.3H4.3zm5 0v5.8h2.5V8.3H9.3zm-6.6 10h15.8v-2.5H2.7v2.5zm11.6-10v5.8h2.5V8.3h-2.5zM10.6.8L2.7 5v1.7h15.8V5L10.6.8z"/><defs><filter id="a" filterUnits="userSpaceOnUse" x="1" y="0" width="20" height="20"><feColorMatrix values="1 0 0 0 0 0 1 0 0 0 0 0 1 0 0 0 0 0 1 0"/></filter></defs><mask maskUnits="userSpaceOnUse" x="1" y="0" width="20" height="20" id="b"><g filter="url(#a)"><path d="M4.3 8.3v5.8h2.5V8.3H4.3zm5 0v5.8h2.5V8.3H9.3zm-6.6 10h15.8v-2.5H2.7v2.5zm11.6-10v5.8h2.5V8.3h-2.5zM10.6.8L2.7 5v1.7h15.8V5L10.6.8z" fill-rule="evenodd" clip-rule="evenodd" fill="#fff"/></g></mask><g mask="url(#b)"><path fill-rule="evenodd" clip-rule="evenodd" d="M1 0h20v20H1z"/></g></g></svg>