<svg xmlns="http://www.w3.org/2000/svg" viewBox="0 0 20 20"><path d="M5 1.7c-.9 0-1.7.7-1.7 1.7v13.3c0 .9.7 1.7 1.7 1.7h10c.9 0 1.7-.7 1.7-1.7V3.3c0-.9-.7-1.7-1.7-1.7H5m5 2.6c2.3 0 4.2 1.9 4.2 4.2s-1.9 4.2-4.2 4.2-4.2-1.9-4.2-4.2S7.7 4.2 10 4.2m0 .8c-.3.5-.6 1.1-.8 1.7h1.6c-.2-.6-.4-1.2-.8-1.7m-1.1.2c-.8.3-1.4.8-1.8 1.5h1.2c.2-.6.4-1.1.6-1.5m2.2 0l.6 1.5h1.2c-.4-.7-1.1-1.3-1.8-1.5M6.8 7.5c-.1.3-.1.5-.1.8 0 .3 0 .6.1.8h1.4c0-.3-.1-.6-.1-.8 0-.3 0-.6.1-.8H6.8m2.2 0v.8c0 .3 0 .6.1.8h2c-.1-.2-.1-.5-.1-.8v-.8H9m2.8 0c0 .3.1.6.1.8 0 .3 0 .6-.1.8h1.4c.1-.3.1-.5.1-.8 0-.3 0-.6-.1-.8h-1.4M7.1 10c.4.7 1 1.2 1.8 1.5L8.3 10H7.1m2.1 0c.2.6.5 1.1.8 1.7.4-.5.6-1.1.8-1.7H9.2m2.5 0c-.2.5-.3 1-.6 1.5.8-.3 1.4-.8 1.8-1.5h-1.2m-5.9 4.2h8.3v1.7H5.8v-1.7z"/></svg>