<svg xmlns="http://www.w3.org/2000/svg" viewBox="0 0 20 20" enable-background="new 0 0 20 20"><g transform="translate(-1 -4)"><path d="M4.1 7.7H18c.7 0 1.4.7 1.4 1.4v9.7c0 .7-.7 1.4-1.4 1.4H4.1c-.7 0-1.4-.7-1.4-1.4V9.1c0-.8.6-1.4 1.4-1.4m8.3 2v.7H18v-.7h-5.6m0 1.4v.7h5.5v-.7h-5.5m0 1.4v.7h4.9v-.7h-4.9m-4.2 2.7c-1.4 0-4.2.8-4.2 2.1v.7h8.3v-.7c.1-1.3-2.7-2.1-4.1-2.1m0-5.5c-1.2 0-2.1.9-2.1 2.1s.9 2.1 2.1 2.1 2.1-.9 2.1-2.1-.9-2.1-2.1-2.1z"/><defs><filter id="a" filterUnits="userSpaceOnUse" x="1" y="3.5" width="20" height="20"><feColorMatrix values="1 0 0 0 0 0 1 0 0 0 0 0 1 0 0 0 0 0 1 0"/></filter></defs><mask maskUnits="userSpaceOnUse" x="1" y="3.5" width="20" height="20" id="b"><g filter="url(#a)"><path d="M4.1 7.7H18c.7 0 1.4.7 1.4 1.4v9.7c0 .7-.7 1.4-1.4 1.4H4.1c-.7 0-1.4-.7-1.4-1.4V9.1c0-.8.6-1.4 1.4-1.4m8.3 2v.7H18v-.7h-5.6m0 1.4v.7h5.5v-.7h-5.5m0 1.4v.7h4.9v-.7h-4.9m-4.2 2.7c-1.4 0-4.2.8-4.2 2.1v.7h8.3v-.7c.1-1.3-2.7-2.1-4.1-2.1m0-5.5c-1.2 0-2.1.9-2.1 2.1s.9 2.1 2.1 2.1 2.1-.9 2.1-2.1-.9-2.1-2.1-2.1z" fill-rule="evenodd" clip-rule="evenodd" fill="#fff"/></g></mask><g mask="url(#b)"><path fill-rule="evenodd" clip-rule="evenodd" d="M1 3.5h20v20H1z"/></g></g></svg>