<svg xmlns="http://www.w3.org/2000/svg" viewBox="0 0 20 20" enable-background="new 0 0 20 20"><g transform="translate(-2)"><path d="M5.3.8h13.3c.5 0 .8.4.8.8V5c0 .5-.4.8-.8.8H5.3c-.4 0-.8-.3-.8-.8V1.7c0-.5.4-.9.8-.9m0 6.7h13.3c.5 0 .8.4.8.8v3.3c0 .5-.4.8-.8.8H5.3c-.5 0-.8-.4-.8-.8V8.3c0-.4.4-.8.8-.8m0 6.7h13.3c.5 0 .8.4.8.8v3.3c0 .5-.4.8-.8.8H5.3c-.5 0-.8-.4-.8-.8V15c0-.5.4-.8.8-.8m4.2-10h.8V2.5h-.8v1.7m0 6.6h.8V9.2h-.8v1.6m0 6.7h.8v-1.7h-.8v1.7m-3.3-15v1.7h1.7V2.5H6.2m0 6.7v1.7h1.7V9.2H6.2m0 6.6v1.7h1.7v-1.7H6.2z"/><defs><filter id="a" filterUnits="userSpaceOnUse" x="2" y="0" width="20" height="20"><feColorMatrix values="1 0 0 0 0 0 1 0 0 0 0 0 1 0 0 0 0 0 1 0"/></filter></defs><mask maskUnits="userSpaceOnUse" x="2" y="0" width="20" height="20" id="b"><g filter="url(#a)"><path d="M5.3.8h13.3c.5 0 .8.4.8.8V5c0 .5-.4.8-.8.8H5.3c-.4 0-.8-.3-.8-.8V1.7c0-.5.4-.9.8-.9m0 6.7h13.3c.5 0 .8.4.8.8v3.3c0 .5-.4.8-.8.8H5.3c-.5 0-.8-.4-.8-.8V8.3c0-.4.4-.8.8-.8m0 6.7h13.3c.5 0 .8.4.8.8v3.3c0 .5-.4.8-.8.8H5.3c-.5 0-.8-.4-.8-.8V15c0-.5.4-.8.8-.8m4.2-10h.8V2.5h-.8v1.7m0 6.6h.8V9.2h-.8v1.6m0 6.7h.8v-1.7h-.8v1.7m-3.3-15v1.7h1.7V2.5H6.2m0 6.7v1.7h1.7V9.2H6.2m0 6.6v1.7h1.7v-1.7H6.2z" fill-rule="evenodd" clip-rule="evenodd" fill="#fff"/></g></mask><g mask="url(#b)"><path fill-rule="evenodd" clip-rule="evenodd" d="M2 0h20v20H2z"/></g></g></svg>