<?xml version="1.0" encoding="UTF-8"?>
<svg width="14px" height="14px" viewBox="0 0 14 14" version="1.1" xmlns="http://www.w3.org/2000/svg" xmlns:xlink="http://www.w3.org/1999/xlink">
    <title>icon-globe</title>
    <defs>
        <path d="M6.99416667,1.16666667 C3.77416667,1.16666667 1.16666667,3.78 1.16666667,7 C1.16666667,10.22 3.77416667,12.8333333 6.99416667,12.8333333 C10.22,12.8333333 12.8333333,10.22 12.8333333,7 C12.8333333,3.78 10.22,1.16666667 6.99416667,1.16666667 Z M11.0366667,4.66666667 L9.31583333,4.66666667 C9.12916667,3.9375 8.86083333,3.2375 8.51083333,2.59 C9.58416667,2.9575 10.4766667,3.70416667 11.0366667,4.66666667 Z M7,2.35666667 C7.48416667,3.05666667 7.86333333,3.8325 8.11416667,4.66666667 L5.88583333,4.66666667 C6.13666667,3.8325 6.51583333,3.05666667 7,2.35666667 Z M2.485,8.16666667 C2.39166667,7.79333333 2.33333333,7.4025 2.33333333,7 C2.33333333,6.5975 2.39166667,6.20666667 2.485,5.83333333 L4.45666667,5.83333333 C4.41,6.21833333 4.375,6.60333333 4.375,7 C4.375,7.39666667 4.41,7.78166667 4.45666667,8.16666667 L2.485,8.16666667 Z M2.96333333,9.33333333 L4.68416667,9.33333333 C4.87083333,10.0625 5.13916667,10.7625 5.48916667,11.41 C4.41583333,11.0425 3.52333333,10.3016667 2.96333333,9.33333333 L2.96333333,9.33333333 Z M4.68416667,4.66666667 L2.96333333,4.66666667 C3.52333333,3.69833333 4.41583333,2.9575 5.48916667,2.59 C5.13916667,3.2375 4.87083333,3.9375 4.68416667,4.66666667 L4.68416667,4.66666667 Z M7,11.6433333 C6.51583333,10.9433333 6.13666667,10.1675 5.88583333,9.33333333 L8.11416667,9.33333333 C7.86333333,10.1675 7.48416667,10.9433333 7,11.6433333 Z M8.365,8.16666667 L5.635,8.16666667 C5.5825,7.78166667 5.54166667,7.39666667 5.54166667,7 C5.54166667,6.60333333 5.5825,6.2125 5.635,5.83333333 L8.365,5.83333333 C8.4175,6.2125 8.45833333,6.60333333 8.45833333,7 C8.45833333,7.39666667 8.4175,7.78166667 8.365,8.16666667 Z M8.51083333,11.41 C8.86083333,10.7625 9.12916667,10.0625 9.31583333,9.33333333 L11.0366667,9.33333333 C10.4766667,10.2958333 9.58416667,11.0425 8.51083333,11.41 L8.51083333,11.41 Z M9.54333333,8.16666667 C9.59,7.78166667 9.625,7.39666667 9.625,7 C9.625,6.60333333 9.59,6.21833333 9.54333333,5.83333333 L11.515,5.83333333 C11.6083333,6.20666667 11.6666667,6.5975 11.6666667,7 C11.6666667,7.4025 11.6083333,7.79333333 11.515,8.16666667 L9.54333333,8.16666667 Z" id="path-1"></path>
    </defs>
    <g id="icon-globe" stroke="none" stroke-width="1" fill="none" fill-rule="evenodd">
        <g id="ico-visibility-copy-2">
            <mask id="mask-2" fill="white">
                <use xlink:href="#path-1"></use>
            </mask>
            <use id="Shape" fill="#FFFFFF" fill-rule="nonzero" xlink:href="#path-1"></use>
            <g id="Group" mask="url(#mask-2)">
                <g transform="translate(-18.666667, -18.666667)" id="Colors/Black">
                    <rect fill="#000000" x="0" y="0" width="51.3333333" height="51.3333333"></rect>
                </g>
            </g>
        </g>
    </g>
</svg>