<?xml version="1.0" encoding="utf-8"?>
<!-- Generator: Adobe Illustrator 23.0.0, SVG Export Plug-In . SVG Version: 6.00 Build 0)  -->
<svg version="1.1" id="Layer_1" xmlns="http://www.w3.org/2000/svg" xmlns:xlink="http://www.w3.org/1999/xlink" x="0px" y="0px"
	 viewBox="0 0 20 20" style="enable-background:new 0 0 20 20;" xml:space="preserve">
<style type="text/css">
	.st0{filter:url(#Adobe_OpacityMaskFilter);}
	.st1{fill-rule:evenodd;clip-rule:evenodd;fill:#FFFFFF;}
	.st2{mask:url(#mask-2_1_);}
	.st3{fill-rule:evenodd;clip-rule:evenodd;}
</style>
<g id="Page-1">
	<g transform="translate(-2.000000, -1.000000)">
		<defs>
			<filter id="Adobe_OpacityMaskFilter" filterUnits="userSpaceOnUse" x="-2.1" y="-2.6" width="28.3" height="28.3">
				<feColorMatrix  type="matrix" values="1 0 0 0 0  0 1 0 0 0  0 0 1 0 0  0 0 0 1 0"/>
			</filter>
		</defs>
		<mask maskUnits="userSpaceOnUse" x="-2.1" y="-2.6" width="28.3" height="28.3" id="mask-2_1_">
			<g class="st0">
				<path id="path-1_1_" class="st1" d="M18.2,10.6l-6.8,6.8c-1.3,1.3-3.4,1.3-4.7,0c-1.3-1.3-1.3-3.4,0-4.7l7.4-7.4
					c0.8-0.8,2.1-0.8,2.9,0c0.8,0.8,0.8,2.1,0,2.9l-6.2,6.2c-0.3,0.3-0.9,0.3-1.2,0c-0.3-0.3-0.3-0.9,0-1.2l5.6-5.6l-0.9-0.9
					l-5.6,5.6c-0.8,0.8-0.8,2.1,0,2.9c0.8,0.8,2.1,0.8,2.9,0l6.2-6.2c1.3-1.3,1.3-3.4,0-4.7c-1.3-1.3-3.4-1.3-4.7,0l-7.4,7.4
					c-1.8,1.8-1.8,4.7,0,6.5c1.8,1.8,4.7,1.8,6.5,0l6.8-6.8L18.2,10.6z"/>
			</g>
		</mask>
		<g class="st2">
			<rect x="2" y="1.5" transform="matrix(0.7071 -0.7071 0.7071 0.7071 -4.617 11.8535)" class="st3" width="20" height="20"/>
		</g>
	</g>
</g>
</svg>
