<svg xmlns="http://www.w3.org/2000/svg" viewBox="0 0 20 20" enable-background="new 0 0 20 20"><g transform="translate(.833 .667)"><path d="M16.7 12.7v-10h-15v10h15m0-11.7c.9 0 1.7.7 1.7 1.7v10c0 .9-.7 1.7-1.7 1.7h-5.8V16h1.7v1.7H5.8V16h1.7v-1.7H1.7c-.9 0-1.7-.8-1.7-1.7v-10C0 1.7.7 1 1.7 1h15M3.3 4.3h7.5v4.2H3.3V4.3m8.4 0H15V6h-3.3V4.3M15 6.8V11h-3.3V6.8H15M3.3 9.3h3.3V11H3.3V9.3m4.2 0h3.3V11H7.5V9.3z"/><defs><filter id="a" filterUnits="userSpaceOnUse" x="-.8" y="-.7" width="20" height="20"><feColorMatrix values="1 0 0 0 0 0 1 0 0 0 0 0 1 0 0 0 0 0 1 0"/></filter></defs><mask maskUnits="userSpaceOnUse" x="-.8" y="-.7" width="20" height="20" id="b"><g filter="url(#a)"><path d="M16.7 12.7v-10h-15v10h15m0-11.7c.9 0 1.7.7 1.7 1.7v10c0 .9-.7 1.7-1.7 1.7h-5.8V16h1.7v1.7H5.8V16h1.7v-1.7H1.7c-.9 0-1.7-.8-1.7-1.7v-10C0 1.7.7 1 1.7 1h15M3.3 4.3h7.5v4.2H3.3V4.3m8.4 0H15V6h-3.3V4.3M15 6.8V11h-3.3V6.8H15M3.3 9.3h3.3V11H3.3V9.3m4.2 0h3.3V11H7.5V9.3z" fill-rule="evenodd" clip-rule="evenodd" fill="#fff"/></g></mask><g mask="url(#b)"><path fill-rule="evenodd" clip-rule="evenodd" d="M-.833-.667h20v20h-20z"/></g></g></svg>