<svg xmlns="http://www.w3.org/2000/svg" viewBox="0 0 20 20" enable-background="new 0 0 20 20"><g transform="translate(.667 .5)"><path d="M16 15.3v-10H2.7v10H16M16 2c.9 0 1.7.7 1.7 1.7v11.7c0 .9-.7 1.7-1.7 1.7H2.7c-1-.1-1.7-.8-1.7-1.8V3.7C1 2.7 1.8 2 2.7 2H16m-5.8 11.7V12h4.2v1.7h-4.2m-2.9-3.4L4 7h2.4l2.7 2.8c.3.3.3.9 0 1.2l-2.7 2.7H4l3.3-3.4z"/><defs><filter id="a" filterUnits="userSpaceOnUse" x="-.7" y="-.5" width="20" height="20"><feColorMatrix values="1 0 0 0 0 0 1 0 0 0 0 0 1 0 0 0 0 0 1 0"/></filter></defs><mask maskUnits="userSpaceOnUse" x="-.7" y="-.5" width="20" height="20" id="b"><g filter="url(#a)"><path d="M16 15.3v-10H2.7v10H16M16 2c.9 0 1.7.7 1.7 1.7v11.7c0 .9-.7 1.7-1.7 1.7H2.7c-1-.1-1.7-.8-1.7-1.8V3.7C1 2.7 1.8 2 2.7 2H16m-5.8 11.7V12h4.2v1.7h-4.2m-2.9-3.4L4 7h2.4l2.7 2.8c.3.3.3.9 0 1.2l-2.7 2.7H4l3.3-3.4z" fill-rule="evenodd" clip-rule="evenodd" fill="#fff"/></g></mask><g mask="url(#b)"><path fill-rule="evenodd" clip-rule="evenodd" d="M-.667-.5h20v20h-20z"/></g></g></svg>