<?xml version="1.0" encoding="UTF-8"?>
<svg width="10px" height="14px" viewBox="0 0 10 14" version="1.1" xmlns="http://www.w3.org/2000/svg" xmlns:xlink="http://www.w3.org/1999/xlink">
    <title>icon copy 2</title>
    <defs>
        <path d="M6,14 C6,14.3666667 6.3,14.6666667 6.66666667,14.6666667 L9.33333333,14.6666667 C9.7,14.6666667 10,14.3666667 10,14 L10,13.3333333 L6,13.3333333 L6,14 Z M8,1.33333333 C5.42666667,1.33333333 3.33333333,3.42666667 3.33333333,6 C3.33333333,7.58666667 4.12666667,8.98 5.33333333,9.82666667 L5.33333333,11.3333333 C5.33333333,11.7 5.63333333,12 6,12 L10,12 C10.3666667,12 10.6666667,11.7 10.6666667,11.3333333 L10.6666667,9.82666667 C11.8733333,8.98 12.6666667,7.58666667 12.6666667,6 C12.6666667,3.42666667 10.5733333,1.33333333 8,1.33333333 Z M9.9,8.73333333 L9.33333333,9.13333333 L9.33333333,10.6666667 L6.66666667,10.6666667 L6.66666667,9.13333333 L6.1,8.73333333 C5.2,8.10666667 4.66666667,7.08666667 4.66666667,6 C4.66666667,4.16 6.16,2.66666667 8,2.66666667 C9.84,2.66666667 11.3333333,4.16 11.3333333,6 C11.3333333,7.08666667 10.8,8.10666667 9.9,8.73333333 Z" id="path-1"></path>
    </defs>
    <g id="Page-1" stroke="none" stroke-width="1" fill="none" fill-rule="evenodd">
        <g id="Group-Copy" transform="translate(-19.000000, -274.000000)">
            <g id="icon-copy-2" transform="translate(16.000000, 273.000000)">
                <mask id="mask-2" fill="white">
                    <use xlink:href="#path-1"></use>
                </mask>
                <use id="Shape" fill="#000000" fill-rule="nonzero" xlink:href="#path-1"></use>
                <g id="Group" mask="url(#mask-2)" fill="#054B91">
                    <g id="Colors/Black">
                        <rect id="Rectangle-15" x="0" y="0" width="16" height="16"></rect>
                    </g>
                </g>
            </g>
        </g>
    </g>
</svg>