<svg xmlns="http://www.w3.org/2000/svg" viewBox="0 0 20 20" enable-background="new 0 0 20 20"><g transform="translate(.167 .667)"><path d="M11.5 1H5.7C4.7 1 4 1.7 4 2.7v11.7c0 .9.7 1.6 1.7 1.6h2.5v2.5l1.7-.8 1.7.8V16H14c.9 0 1.7-.7 1.7-1.7V5.2m-4.2 6.6v1.7l-1.7-.8-1.7.8v-1.7L6.5 11l1.7-.8V8.5l1.7.8 1.7-.8v1.7l1.7.8m-2.6-5V2.2L14.4 6h-3.7z"/><defs><filter id="a" filterUnits="userSpaceOnUse" x="-.2" y="-.7" width="20" height="20"><feColorMatrix values="1 0 0 0 0 0 1 0 0 0 0 0 1 0 0 0 0 0 1 0"/></filter></defs><mask maskUnits="userSpaceOnUse" x="-.2" y="-.7" width="20" height="20" id="b"><g filter="url(#a)"><path d="M11.5 1H5.7C4.7 1 4 1.7 4 2.7v11.7c0 .9.7 1.6 1.7 1.6h2.5v2.5l1.7-.8 1.7.8V16H14c.9 0 1.7-.7 1.7-1.7V5.2m-4.2 6.6v1.7l-1.7-.8-1.7.8v-1.7L6.5 11l1.7-.8V8.5l1.7.8 1.7-.8v1.7l1.7.8m-2.6-5V2.2L14.4 6h-3.7z" fill-rule="evenodd" clip-rule="evenodd" fill="#fff"/></g></mask><g mask="url(#b)"><path fill-rule="evenodd" clip-rule="evenodd" d="M-.167-.667h20v20h-20z"/></g></g></svg>