<svg xmlns="http://www.w3.org/2000/svg" viewBox="0 0 20 20" enable-background="new 0 0 20 20"><g transform="translate(-1 -1)"><path d="M17.7 2.7H4.3c-.9 0-1.7.8-1.7 1.7v15L6 16h11.7c.9 0 1.7-.8 1.7-1.7v-10c-.1-.9-.8-1.6-1.7-1.6zM6 12.7v-2.1l5.7-5.7c.2-.2.4-.2.6 0l1.5 1.5c.2.2.2.4 0 .6l-5.7 5.7H6zm10 0H9.8l1.7-1.7H16v1.7z" fill="#fff"/><defs><filter id="a" filterUnits="userSpaceOnUse" x="1" y="1" width="20" height="20"><feColorMatrix values="1 0 0 0 0 0 1 0 0 0 0 0 1 0 0 0 0 0 1 0"/></filter></defs><mask maskUnits="userSpaceOnUse" x="1" y="1" width="20" height="20" id="b"><g filter="url(#a)"><path d="M17.7 2.7H4.3c-.9 0-1.7.8-1.7 1.7v15L6 16h11.7c.9 0 1.7-.8 1.7-1.7v-10c-.1-.9-.8-1.6-1.7-1.6zM6 12.7v-2.1l5.7-5.7c.2-.2.4-.2.6 0l1.5 1.5c.2.2.2.4 0 .6l-5.7 5.7H6zm10 0H9.8l1.7-1.7H16v1.7z" fill-rule="evenodd" clip-rule="evenodd" fill="#fff"/></g></mask><g mask="url(#b)"><path fill-rule="evenodd" clip-rule="evenodd" d="M1 1h20v20H1z"/></g></g></svg>