<svg xmlns="http://www.w3.org/2000/svg" viewBox="0 0 20 20" enable-background="new 0 0 20 20"><path fill-rule="evenodd" clip-rule="evenodd" fill="#d8d8d8" fill-opacity="0" d="M0 0h20v20H0z"/><g transform="translate(.333 .5)"><path d="M9.7 2C6 2 3 3.5 3 5.3s3 3.3 6.7 3.3 6.7-1.5 6.7-3.3S13.4 2 9.7 2M3 7v2.5c0 1.8 3 3.3 6.7 3.3s6.7-1.5 6.7-3.3V7c0 1.8-3 3.3-6.7 3.3S3 8.8 3 7m0 4.2v2.5C3 15.5 6 17 9.7 17s6.7-1.5 6.7-3.3v-2.5c0 1.8-3 3.3-6.7 3.3S3 13 3 11.2z"/><defs><filter id="a" filterUnits="userSpaceOnUse" x="-.3" y="-.5" width="20" height="20"><feColorMatrix values="1 0 0 0 0 0 1 0 0 0 0 0 1 0 0 0 0 0 1 0"/></filter></defs><mask maskUnits="userSpaceOnUse" x="-.3" y="-.5" width="20" height="20" id="b"><g filter="url(#a)"><path d="M9.7 2C6 2 3 3.5 3 5.3s3 3.3 6.7 3.3 6.7-1.5 6.7-3.3S13.4 2 9.7 2M3 7v2.5c0 1.8 3 3.3 6.7 3.3s6.7-1.5 6.7-3.3V7c0 1.8-3 3.3-6.7 3.3S3 8.8 3 7m0 4.2v2.5C3 15.5 6 17 9.7 17s6.7-1.5 6.7-3.3v-2.5c0 1.8-3 3.3-6.7 3.3S3 13 3 11.2z" fill-rule="evenodd" clip-rule="evenodd" fill="#fff"/></g></mask><g mask="url(#b)"><path fill-rule="evenodd" clip-rule="evenodd" d="M-.333-.5h20v20h-20z"/></g></g></svg>