<svg xmlns="http://www.w3.org/2000/svg" viewBox="0 0 20 20" enable-background="new 0 0 20 20"><g transform="translate(-2 -2)"><path d="M4.5 6.2v11.7c0 .9.7 1.7 1.7 1.7h11.7c.9 0 1.7-.8 1.7-1.7V6.2c0-.9-.8-1.7-1.7-1.7H6.2c-1 0-1.7.7-1.7 1.7zm10 3.3c0 1.4-1.1 2.5-2.5 2.5s-2.5-1.1-2.5-2.5S10.6 7 12 7s2.5 1.1 2.5 2.5zM7 16.2c0-1.7 3.3-2.6 5-2.6s5 .9 5 2.6v.8H7v-.8z"/><defs><filter id="a" filterUnits="userSpaceOnUse" x="2" y="2" width="20" height="20"><feColorMatrix values="1 0 0 0 0 0 1 0 0 0 0 0 1 0 0 0 0 0 1 0"/></filter></defs><mask maskUnits="userSpaceOnUse" x="2" y="2" width="20" height="20" id="b"><g filter="url(#a)"><path d="M4.5 6.2v11.7c0 .9.7 1.7 1.7 1.7h11.7c.9 0 1.7-.8 1.7-1.7V6.2c0-.9-.8-1.7-1.7-1.7H6.2c-1 0-1.7.7-1.7 1.7zm10 3.3c0 1.4-1.1 2.5-2.5 2.5s-2.5-1.1-2.5-2.5S10.6 7 12 7s2.5 1.1 2.5 2.5zM7 16.2c0-1.7 3.3-2.6 5-2.6s5 .9 5 2.6v.8H7v-.8z" fill-rule="evenodd" clip-rule="evenodd" fill="#fff"/></g></mask><g mask="url(#b)"><path fill-rule="evenodd" clip-rule="evenodd" d="M2 2h20v20H2z"/></g></g></svg>