<?xml version="1.0" encoding="UTF-8"?>
<svg width="48px" height="48px" viewBox="0 0 48 48" version="1.1" xmlns="http://www.w3.org/2000/svg" xmlns:xlink="http://www.w3.org/1999/xlink">
    <!-- Generator: Sketch 55.1 (78136) - https://sketchapp.com -->
    <title>gradient-icons/record-saved</title>
    <desc>Created with Sketch.</desc>
    <defs>
        <linearGradient x1="50%" y1="-71.7948718%" x2="50%" y2="170.717949%" id="linearGradient-1">
            <stop stop-color="#27E9DE" offset="0%"></stop>
            <stop stop-color="#03A4EC" offset="52%"></stop>
            <stop stop-color="#2547A8" offset="100%"></stop>
        </linearGradient>
        <radialGradient cx="1.25315992%" cy="96.1849528%" fx="1.25315992%" fy="96.1849528%" r="157.378645%" gradientTransform="translate(0.012532,0.961850),scale(0.804371,1.000000),rotate(-37.674079),scale(1.000000,0.996927),translate(-0.012532,-0.961850)" id="radialGradient-2">
            <stop stop-color="#1B74DA" offset="0%"></stop>
            <stop stop-color="#004899" offset="100%"></stop>
        </radialGradient>
    </defs>
    <g id="gradient-icons/record-saved" stroke="none" stroke-width="1" fill="none" fill-rule="evenodd">
        <g id="Group-3" transform="translate(6.000000, 3.000000)" fill-rule="nonzero">
            <g id="Group-2" fill="url(#linearGradient-1)">
                <g id="lock,-security,-key,-protection,-shield">
                    <path d="M24.6600003,3.00186388 C22.657369,2.31255979 20.7386373,1.40015594 18.9400003,0.28186388 C18.3479365,-0.0939546268 17.592064,-0.0939546268 17,0.28186388 C15.1824111,1.40422418 13.2433419,2.31672734 11.2200003,3.00186388 C8.24954909,4.09555747 5.10526385,4.64106385 1.9400003,4.61186388 C1.43837401,4.58453902 0.947387175,4.763506 0.581007405,5.10722311 C0.214627635,5.45094021 0.00471716305,5.92951606 0,6.43186388 L0,25.4318639 C-0.00104851788,30.6576456 2.78537203,35.4871871 7.3100003,38.1018639 L10.8600003,40.1018639 C15.2380255,42.6295179 20.6319751,42.6295179 25.0100003,40.1018639 L28.5600003,38.1018639 C33.0846286,35.4871871 35.8710491,30.6576456 35.8700006,25.4318639 L35.8700006,6.43186388 C35.8651599,5.93134489 35.6566174,5.45439874 35.2924549,5.11099167 C34.9282925,4.76758461 34.4399424,4.58735742 33.9400003,4.61186388 C30.7747367,4.64106385 27.6304515,4.09555747 24.6600003,3.00186388 Z" id="Shape"></path>
                </g>
            </g>
            <path d="M27.1062187,14.4262187 L26.4262187,13.7462187 C25.9529848,13.2686577 25.3085392,13 24.6362187,13 C23.9638982,13 23.3194527,13.2686577 22.8462187,13.7462187 L15.8862187,20.7062187 L14.0062187,18.8262187 C13.5329848,18.3486577 12.8885392,18.08 12.2162187,18.08 C11.5438982,18.08 10.8994527,18.3486577 10.4262187,18.8262187 L9.74621873,19.5062187 C9.26865773,19.9794527 9,20.6238982 9,21.2962187 C9,21.9685392 9.26865773,22.6129848 9.74621873,23.0862187 L13.4462187,26.7462187 L13.4462187,26.7462187 L14.1262187,27.4262187 C14.5994527,27.9037797 15.2438982,28.1724375 15.9162187,28.1724375 C16.5885392,28.1724375 17.2329848,27.9037797 17.7062187,27.4262187 L18.3862187,26.7462187 L18.3862187,26.7462187 L27.1262187,18.0062187 C27.6011458,17.530322 27.86621,16.8843736 27.8624934,16.2120498 C27.858698,15.539726 27.5864332,14.8967795 27.1062187,14.4262187 L27.1062187,14.4262187 Z" id="Shape" fill="url(#radialGradient-2)"></path>
        </g>
    </g>
</svg>