<svg width="1008" height="754" viewBox="0 0 1008 754" fill="none" xmlns="http://www.w3.org/2000/svg">
<path fill-rule="evenodd" clip-rule="evenodd" d="M929.294 305.805C912.883 207.624 862.005 117.737 786.029 52.7044C709.209 -13.0528 611.177 -49.2658 509.992 -49.2658C433.851 -49.2658 359.151 -28.8653 293.967 9.73261L292.948 8.0119C358.438 -30.7661 433.492 -51.2666 509.986 -51.2666C509.992 -51.2666 509.988 -51.2666 509.992 -51.2666C611.653 -51.2666 710.146 -14.8816 787.327 51.1817C863.659 116.521 914.775 206.83 931.264 305.473L929.294 305.805Z" fill="#EFF3F5"/>
<path fill-rule="evenodd" clip-rule="evenodd" d="M149.948 607.029C106.044 538.301 82.835 458.644 82.835 376.666C82.835 296.018 105.345 217.462 147.927 149.488L149.621 150.55C107.235 218.204 84.8341 296.395 84.8341 376.666C84.8341 458.262 107.932 537.546 151.63 605.951L149.948 607.029Z" fill="#EFF3F5"/>
<path fill-rule="evenodd" clip-rule="evenodd" d="M509.991 804.601C434.415 804.601 360.152 784.565 295.226 746.659L296.232 744.932C360.851 782.658 434.769 802.6 509.991 802.6C611.036 802.6 708.962 766.475 785.732 700.882C861.65 636.015 912.587 546.324 929.157 448.326L931.126 448.662C914.476 547.121 863.3 637.234 787.028 702.403C709.899 768.308 611.511 804.601 509.991 804.601Z" fill="#EFF3F5"/>
<path fill-rule="evenodd" clip-rule="evenodd" d="M138.185 621.964C90.2108 549.128 64.8525 464.305 64.8525 376.666C64.8525 290.425 89.4638 206.746 136.03 134.674L137.708 135.761C91.3531 207.508 66.8497 290.813 66.8497 376.666C66.8497 463.912 92.0941 548.353 139.851 620.861L138.185 621.964Z" fill="#EFF3F5"/>
<path fill-rule="evenodd" clip-rule="evenodd" d="M509.988 822.619C424.605 822.619 341.654 798.331 270.103 752.383L271.179 750.699C342.411 796.438 424.99 820.616 509.988 820.616C628.357 820.616 739.638 774.437 823.338 690.586C907.038 606.735 953.131 495.249 953.131 376.666C953.131 258.083 907.036 146.597 823.338 62.7464C739.642 -21.1043 628.357 -67.2834 509.988 -67.2834C422.845 -67.2834 338.514 -41.9649 266.108 5.93692L265.008 4.26623C337.739 -43.8517 422.452 -69.2842 509.988 -69.2842C628.89 -69.2842 740.675 -22.897 824.752 61.3318C908.827 145.561 955.128 257.547 955.128 376.666C955.128 495.785 908.825 607.772 824.752 692.001C740.675 776.233 628.892 822.619 509.988 822.619Z" fill="#EFF3F5"/>
<path fill-rule="evenodd" clip-rule="evenodd" d="M82.0539 631.52C36.3764 554.7 12.2305 466.576 12.2305 376.666C12.2305 288.526 35.4917 201.9 79.5035 126.155L82.9567 128.168C39.3023 203.303 16.2268 289.232 16.2268 376.666C16.2268 465.853 40.177 553.271 85.4891 629.471L82.0539 631.52Z" fill="#EFF3F5"/>
<path fill-rule="evenodd" clip-rule="evenodd" d="M509.988 875.336C390.293 875.336 274.612 832.152 184.254 753.742L186.868 750.717C276.502 828.499 391.256 871.335 509.988 871.335C590.766 871.335 670.899 851.366 741.725 813.587L743.601 817.12C672.199 855.204 591.417 875.336 509.988 875.336Z" fill="#EFF3F5"/>
<path fill-rule="evenodd" clip-rule="evenodd" d="M819.6 767.159L817.115 764.03C935.73 669.513 1003.76 528.325 1003.76 376.67C1003.76 181.453 888.706 3.98776 710.647 -75.4451L712.273 -79.1006C891.768 0.974518 1007.75 179.876 1007.75 376.67C1007.75 529.551 939.173 671.878 819.6 767.159Z" fill="#EFF3F5"/>
<path fill-rule="evenodd" clip-rule="evenodd" d="M182.259 6.66518L179.606 3.67395C270.702 -77.3675 388.032 -122 509.988 -122C553.733 -122 597.135 -116.312 638.992 -105.091L637.958 -101.225C596.44 -112.354 553.383 -117.998 509.988 -117.998C389.011 -117.998 272.623 -73.724 182.259 6.66518Z" fill="#EFF3F5"/>
<path fill-rule="evenodd" clip-rule="evenodd" d="M867.501 435.315H800.766C795.811 435.315 791.778 431.275 791.778 426.311V338.735C791.778 333.771 795.811 329.731 800.766 329.731H867.501C872.456 329.731 876.489 333.771 876.489 338.735V426.311C876.489 431.275 872.458 435.315 867.501 435.315ZM800.766 331.734C796.911 331.734 793.776 334.875 793.776 338.737V426.313C793.776 430.175 796.911 433.316 800.766 433.316H867.502C871.356 433.316 874.492 430.175 874.492 426.313V338.737C874.492 334.875 871.356 331.734 867.502 331.734H800.766Z" fill="#EFF3F5"/>
<path fill-rule="evenodd" clip-rule="evenodd" d="M953.323 206.98H941.202L935.141 196.464L941.202 185.948H953.323L959.382 196.464L953.323 206.98ZM942.356 204.98H952.168L957.077 196.464L952.168 187.949H942.356L937.445 196.464L942.356 204.98Z" fill="#EFF3F5"/>
<path fill-rule="evenodd" clip-rule="evenodd" d="M987.94 389.056H975.819L969.758 378.539L975.819 368.023H987.94L994 378.539L987.94 389.056ZM976.974 387.055H986.786L991.695 378.539L986.786 370.024H976.974L972.063 378.539L976.974 387.055Z" fill="#EFF3F5"/>
<path fill-rule="evenodd" clip-rule="evenodd" d="M952.656 569.798H940.535L934.474 559.282L940.535 548.763H952.656L958.715 559.282L952.656 569.798ZM941.69 567.797H951.502L956.411 559.281L951.502 550.764H941.69L936.778 559.281L941.69 567.797Z" fill="#EFF3F5"/>
<path fill-rule="evenodd" clip-rule="evenodd" d="M850.799 722.529H838.679L832.617 712.012L838.679 701.494H850.799L856.859 712.012L850.799 722.529ZM839.833 720.528H849.645L854.554 712.013L849.645 703.495H839.833L834.922 712.013L839.833 720.528Z" fill="#EFF3F5"/>
<path fill-rule="evenodd" clip-rule="evenodd" d="M81.2136 569.629H69.0927L63.0312 559.113L69.0927 548.595H81.2136L87.273 559.113L81.2136 569.629ZM70.2471 567.629H80.0592L84.9683 559.113L80.0592 550.596H70.2471L65.336 559.113L70.2471 567.629Z" fill="#EFF3F5"/>
<path fill-rule="evenodd" clip-rule="evenodd" d="M44.5993 388.889H32.4784L26.417 378.373L32.4784 367.854H44.5993L50.6588 378.373L44.5993 388.889ZM33.6328 386.889H43.445L48.3541 378.373L43.445 369.856H33.6328L28.7218 378.373L33.6328 386.889Z" fill="#EFF3F5"/>
<path fill-rule="evenodd" clip-rule="evenodd" d="M81.8786 208.814H69.7577L63.6963 198.298L69.7577 187.78H81.8786L87.9381 198.298L81.8786 208.814ZM70.9117 206.814H80.7239L85.633 198.298L80.7239 189.781H70.9117L66.0007 198.298L70.9117 206.814Z" fill="#EFF3F5"/>
<path fill-rule="evenodd" clip-rule="evenodd" d="M477.426 21.4053H465.306L459.244 10.889L465.306 0.370605H477.426L483.486 10.889L477.426 21.4053ZM466.46 19.4048H476.272L481.181 10.8893L476.272 2.37173H466.46L461.549 10.8893L466.46 19.4048Z" fill="#EFF3F5"/>
<path fill-rule="evenodd" clip-rule="evenodd" d="M477.426 52.0816H465.306L459.244 41.5652L465.306 31.0469H477.426L483.486 41.5652L477.426 52.0816ZM466.46 50.0808H476.272L481.181 41.5653L476.272 33.0478H466.46L461.549 41.5653L466.46 50.0808Z" fill="#EFF3F5"/>
<path fill-rule="evenodd" clip-rule="evenodd" d="M555.981 21.4053H543.86L537.799 10.889L543.86 0.370605H555.981L562.041 10.889L555.981 21.4053ZM545.015 19.4048H554.827L559.736 10.8893L554.827 2.37173H545.015L540.104 10.8893L545.015 19.4048Z" fill="#EFF3F5"/>
<path fill-rule="evenodd" clip-rule="evenodd" d="M555.981 52.0816H543.86L537.799 41.5652L543.86 31.0469H555.981L562.041 41.5652L555.981 52.0816ZM545.015 50.0808H554.827L559.736 41.5653L554.827 33.0478H545.015L540.104 41.5653L545.015 50.0808Z" fill="#EFF3F5"/>
<path fill-rule="evenodd" clip-rule="evenodd" d="M23.9909 0.0601025H11.872L5.80859 -10.4563L11.872 -20.9746H23.9909L30.0524 -10.4563L23.9909 0.0601025ZM13.024 -1.94104H22.8382L27.7472 -10.4566L22.8382 -18.9721H13.024L8.11495 -10.4546L13.024 -1.94104Z" fill="#EFF3F5"/>
<path fill-rule="evenodd" clip-rule="evenodd" d="M102.548 0.0601025H90.4267L84.3652 -10.4563L90.4267 -20.9746H102.548L108.607 -10.4563L102.548 0.0601025ZM91.5787 -1.94018H101.391L106.3 -10.4557L101.391 -18.9732H91.5787L86.6677 -10.4557L91.5787 -1.94018Z" fill="#EFF3F5"/>
<path fill-rule="evenodd" clip-rule="evenodd" d="M477.426 726.167H465.306L459.244 715.65L465.306 705.13H477.426L483.486 715.65L477.426 726.167ZM466.46 724.166H476.272L481.181 715.651L476.272 707.131H466.46L461.549 715.651L466.46 724.166Z" fill="#EFF3F5"/>
<path fill-rule="evenodd" clip-rule="evenodd" d="M477.426 756.843H465.306L459.244 746.327L465.306 735.811H477.426L483.486 746.327L477.426 756.843ZM466.46 754.843H476.272L481.181 746.327L476.272 737.811H466.46L461.549 746.327L466.46 754.843Z" fill="#EFF3F5"/>
<path fill-rule="evenodd" clip-rule="evenodd" d="M555.981 726.167H543.86L537.799 715.65L543.86 705.13H555.981L562.041 715.65L555.981 726.167ZM545.015 724.166H554.827L559.736 715.651L554.827 707.131H545.015L540.104 715.651L545.015 724.166Z" fill="#EFF3F5"/>
<path fill-rule="evenodd" clip-rule="evenodd" d="M555.981 756.843H543.86L537.799 746.327L543.86 735.811H555.981L562.041 746.327L555.981 756.843ZM545.015 754.843H554.827L559.736 746.327L554.827 737.811H545.015L540.104 746.327L545.015 754.843Z" fill="#EFF3F5"/>
<path fill-rule="evenodd" clip-rule="evenodd" d="M927.775 450.575H530.004C520.983 450.575 514.382 448.57 514.105 448.486L512.702 448.051L512.023 308.344L513.054 307.767C513.364 307.593 520.767 303.512 530.004 303.512H927.775C937.555 303.512 946.997 311.781 948.394 321.569C948.685 323.632 948.991 325.613 949.296 327.598C950.99 338.614 952.739 350.005 952.739 375.874C952.739 399.888 951.499 419.522 949.051 434.228C947.349 444.46 936.896 450.575 927.775 450.575ZM516.651 445.515C518.962 446.071 523.919 447.057 529.974 447.057H927.745C935.202 447.057 943.728 442.193 945.082 434.058C947.493 419.568 948.715 400.158 948.715 376.362C948.715 350.8 946.99 339.561 945.32 328.695C945.013 326.694 944.705 324.699 944.409 322.622C943.299 314.833 935.512 308 927.745 308H529.974C523.643 308 518.195 310.207 516 311.233L516.651 445.515Z" fill="#EFF3F5"/>
<path fill-rule="evenodd" clip-rule="evenodd" d="M263.792 754.226H24.4297V629.03H113.446C134.371 629.03 151.393 611.977 151.393 591.015V166.553C151.393 145.591 134.371 128.537 113.446 128.537H24.4297V2.77148L278.437 2.8015C281.729 3.37573 284.66 3.95998 287.149 4.54222C298.93 7.29535 317.376 17.4456 336.907 28.192C354.472 37.858 372.636 47.8521 384.098 51.0815C397.06 54.735 404.675 55.0191 406.7 55.0191C406.994 55.0191 407.156 55.0131 407.18 55.0111L540.843 54.757V180.271H387.917C361.488 180.271 339.984 201.732 339.984 228.113V527.164C339.984 553.545 361.488 575.006 387.917 575.006H540.843V699.844L409.167 699.596C409.051 699.592 408.891 699.586 408.598 699.586C406.57 699.586 398.957 699.87 385.995 703.523C374.534 706.753 356.369 716.747 338.804 726.413C319.274 737.159 300.828 747.309 289.046 750.062C282.957 751.485 274.503 752.88 263.914 754.208L263.792 754.226ZM28.424 750.225H263.542C273.934 748.921 282.21 747.554 288.138 746.169C299.386 743.54 318.447 733.05 336.881 722.908C354.644 713.132 373.01 703.026 384.915 699.672C398.366 695.881 406.443 695.587 408.598 695.587C409.045 695.587 409.271 695.599 409.271 695.599L536.849 695.837V579.01H387.917C359.283 579.01 335.99 555.753 335.99 527.167V228.113C335.99 199.527 359.283 176.27 387.917 176.27H536.849V58.7653L407.297 59.0094C407.188 59.0234 398.745 59.3655 383.018 54.9317C371.112 51.5783 352.746 41.4701 334.983 31.6961C316.549 21.5539 297.488 11.0636 286.24 8.43446C283.868 7.88023 281.07 7.32 277.922 6.76978H28.424V124.532H113.446C136.571 124.532 155.387 143.38 155.387 166.55V591.011C155.387 614.179 136.571 633.029 113.446 633.029H28.424V750.225Z" fill="#EFF3F5"/>
<path fill-rule="evenodd" clip-rule="evenodd" d="M636.414 3.38405H630.668L627.798 -1.59801L630.668 -6.58008H636.414L639.284 -1.59801L636.414 3.38405ZM631.822 1.38338H635.259L636.977 -1.59785L635.259 -4.57907H631.822L630.105 -1.59785L631.822 1.38338Z" fill="#EFF3F5"/>
<path fill-rule="evenodd" clip-rule="evenodd" d="M747.762 60.3133H742.016L739.146 55.3312L742.016 50.3491H747.762L750.632 55.3312L747.762 60.3133ZM743.171 58.3126H746.608L748.325 55.3314L746.608 52.3502H743.171L741.453 55.3314L743.171 58.3126Z" fill="#EFF3F5"/>
<path fill-rule="evenodd" clip-rule="evenodd" d="M835.968 147.849H830.222L827.353 142.867L830.222 137.885H835.968L838.838 142.867L835.968 147.849ZM831.377 145.849H834.814L836.531 142.868L834.814 139.887H831.377L829.659 142.868L831.377 145.849Z" fill="#EFF3F5"/>
<path fill-rule="evenodd" clip-rule="evenodd" d="M892.701 259.45H886.955L884.085 254.467L886.955 249.485H892.701L895.571 254.467L892.701 259.45ZM888.111 257.449H891.549L893.266 254.468L891.549 251.486H888.111L886.394 254.468L888.111 257.449Z" fill="#EFF3F5"/>
<path fill-rule="evenodd" clip-rule="evenodd" d="M892.701 506.293H886.955L884.085 501.311L886.955 496.329H892.701L895.571 501.311L892.701 506.293ZM888.111 504.292H891.549L893.266 501.311L891.549 498.33H888.111L886.394 501.311L888.111 504.292Z" fill="#EFF3F5"/>
<path fill-rule="evenodd" clip-rule="evenodd" d="M835.968 617.48H830.222L827.353 612.498L830.222 607.516H835.968L838.838 612.498L835.968 617.48ZM831.377 615.479H834.814L836.531 612.498L834.814 609.517H831.377L829.659 612.498L831.377 615.479Z" fill="#EFF3F5"/>
<path fill-rule="evenodd" clip-rule="evenodd" d="M747.763 705.432H742.017L739.147 700.45L742.017 695.468H747.763L750.633 700.45L747.763 705.432ZM743.172 703.432H746.609L748.326 700.45L746.609 697.469H743.172L741.454 700.45L743.172 703.432Z" fill="#EFF3F5"/>
<path fill-rule="evenodd" clip-rule="evenodd" d="M636.777 762.682H631.031L628.161 757.7L631.031 752.718H636.777L639.647 757.7L636.777 762.682ZM632.185 760.682H635.622L637.34 757.7L635.622 754.719H632.185L630.468 757.7L632.185 760.682Z" fill="#EFF3F5"/>
<path fill-rule="evenodd" clip-rule="evenodd" d="M390.797 762.681H385.051L382.181 757.699L385.051 752.717H390.797L393.666 757.699L390.797 762.681ZM386.205 760.681H389.642L391.36 757.7L389.642 754.719H386.205L384.487 757.7L386.205 760.681Z" fill="#EFF3F5"/>
<path fill-rule="evenodd" clip-rule="evenodd" d="M136.838 507.598H131.093L128.223 502.616L131.093 497.634H136.838L139.708 502.616L136.838 507.598ZM132.247 505.598H135.684L137.402 502.616L135.684 499.635H132.247L130.529 502.616L132.247 505.598Z" fill="#EFF3F5"/>
<path fill-rule="evenodd" clip-rule="evenodd" d="M115.166 382.841H109.42L106.55 377.859L109.42 372.877H115.166L118.036 377.859L115.166 382.841ZM110.574 380.84H114.011L115.728 377.859L114.011 374.878H110.574L108.856 377.859L110.574 380.84Z" fill="#EFF3F5"/>
<path fill-rule="evenodd" clip-rule="evenodd" d="M134.47 259.458H128.724L125.854 254.476L128.724 249.494H134.47L137.34 254.476L134.47 259.458ZM129.878 257.457H133.316L135.033 254.476L133.316 251.494H129.878L128.161 254.476L129.878 257.457Z" fill="#EFF3F5"/>
<path fill-rule="evenodd" clip-rule="evenodd" d="M390.777 3.68629H385.031L382.161 -1.29577L385.031 -6.27783H390.777L393.647 -1.29577L390.777 3.68629ZM386.185 1.68567H389.622L391.34 -1.29556L389.622 -4.27679H386.185L384.468 -1.29556L386.185 1.68567Z" fill="#EFF3F5"/>
<path fill-rule="evenodd" clip-rule="evenodd" d="M108.439 844.557H4.99296C2.24084 844.557 0 842.314 0 839.555V755.729C0 752.969 2.24084 750.727 4.99296 750.727H108.439C111.193 750.727 113.432 752.969 113.432 755.729V839.555C113.432 842.314 111.193 844.557 108.439 844.557ZM4.99293 752.729C3.34126 752.729 1.99716 754.076 1.99716 755.731V839.557C1.99716 841.212 3.34126 842.559 4.99293 842.559H108.439C110.091 842.559 111.435 841.212 111.435 839.557V755.731C111.435 754.076 110.091 752.729 108.439 752.729H4.99293Z" fill="#EFF3F5"/>
<path fill-rule="evenodd" clip-rule="evenodd" d="M108.439 6.21304H4.99296C2.24084 6.21304 0 3.96811 0 1.21098V-82.6137C0 -85.3708 2.24084 -87.6157 4.99296 -87.6157H108.439C111.193 -87.6157 113.432 -85.3708 113.432 -82.6137V1.21297C113.432 3.9701 111.193 6.21304 108.439 6.21304ZM4.99277 -85.6151C3.34111 -85.6151 1.997 -84.2686 1.997 -82.6139V1.21279C1.997 2.86747 3.34111 4.21403 4.99277 4.21403H108.439C110.09 4.21403 111.435 2.86747 111.435 1.21279V-82.6139C111.435 -84.2686 110.09 -85.6151 108.439 -85.6151H4.99277Z" fill="#EFF3F5"/>
<path fill-rule="evenodd" clip-rule="evenodd" d="M563.796 56.2336H460.35C457.596 56.2336 455.357 53.9887 455.357 51.2315V-32.5931C455.357 -35.3503 457.596 -37.5952 460.35 -37.5952H563.796C566.55 -37.5952 568.789 -35.3503 568.789 -32.5931V51.2335C568.789 53.9907 566.55 56.2336 563.796 56.2336ZM460.35 -35.5939C458.699 -35.5939 457.355 -34.2473 457.355 -32.5927V51.234C457.355 52.8887 458.699 54.2352 460.35 54.2352H563.796C565.448 54.2352 566.792 52.8887 566.792 51.234V-32.5927C566.792 -34.2473 565.448 -35.5939 563.796 -35.5939H460.35Z" fill="#EFF3F5"/>
<path fill-rule="evenodd" clip-rule="evenodd" d="M563.796 792.536H460.35C457.596 792.536 455.357 790.293 455.357 787.534V703.708C455.357 700.948 457.596 698.706 460.35 698.706H563.796C566.55 698.706 568.789 700.948 568.789 703.708V787.534C568.789 790.293 566.55 792.536 563.796 792.536ZM460.351 700.708C458.699 700.708 457.355 702.055 457.355 703.71V787.536C457.355 789.191 458.699 790.538 460.351 790.538H563.797C565.448 790.538 566.792 789.191 566.792 787.536V703.71C566.792 702.055 565.448 700.708 563.797 700.708H460.351Z" fill="#EFF3F5"/>
<path fill-rule="evenodd" clip-rule="evenodd" d="M709.749 263.414H640.596C638.945 263.414 637.601 262.067 637.601 260.412V233.151C637.601 231.496 638.945 230.15 640.596 230.15H709.749C711.4 230.15 712.744 231.496 712.744 233.151V260.412C712.744 262.067 711.4 263.414 709.749 263.414ZM640.596 232.151C640.047 232.151 639.597 232.599 639.597 233.152V260.413C639.597 260.965 640.047 261.413 640.596 261.413H709.749C710.298 261.413 710.747 260.965 710.747 260.413V233.152C710.747 232.599 710.298 232.151 709.749 232.151H640.596Z" fill="#EFF3F5"/>
<path fill-rule="evenodd" clip-rule="evenodd" d="M812.935 535.526H743.783C742.131 535.526 740.787 534.179 740.787 532.525V505.263C740.787 503.609 742.131 502.262 743.783 502.262H812.935C814.587 502.262 815.931 503.609 815.931 505.263V532.525C815.931 534.179 814.587 535.526 812.935 535.526ZM743.783 504.264C743.234 504.264 742.784 504.714 742.784 505.264V532.525C742.784 533.076 743.234 533.526 743.783 533.526H812.935C813.485 533.526 813.934 533.076 813.934 532.525V505.264C813.934 504.714 813.485 504.264 812.935 504.264H743.783Z" fill="#EFF3F5"/>
<path fill-rule="evenodd" clip-rule="evenodd" d="M812.935 657.576H743.783C742.131 657.576 740.787 656.23 740.787 654.575V627.314C740.787 625.659 742.131 624.312 743.783 624.312H812.935C814.587 624.312 815.931 625.659 815.931 627.314V654.575C815.931 656.23 814.587 657.576 812.935 657.576ZM743.783 626.314C743.234 626.314 742.784 626.764 742.784 627.314V654.575C742.784 655.126 743.234 655.576 743.783 655.576H812.935C813.485 655.576 813.934 655.126 813.934 654.575V627.314C813.934 626.764 813.485 626.314 812.935 626.314H743.783Z" fill="#EFF3F5"/>
<path fill-rule="evenodd" clip-rule="evenodd" d="M709.084 78.6729H639.931C638.28 78.6729 636.936 77.3264 636.936 75.6717V48.4104C636.936 46.7557 638.28 45.4092 639.931 45.4092H709.084C710.735 45.4092 712.08 46.7557 712.08 48.4104V75.6717C712.08 77.3264 710.735 78.6729 709.084 78.6729ZM639.932 47.4099C639.382 47.4099 638.933 47.8581 638.933 48.4103V75.6716C638.933 76.2238 639.382 76.672 639.932 76.672H709.084C709.633 76.672 710.083 76.2238 710.083 75.6716V48.4103C710.083 47.8581 709.633 47.4099 709.084 47.4099H639.932Z" fill="#EFF3F5"/>
<path fill-rule="evenodd" clip-rule="evenodd" d="M482.783 576.468L491.03 569.624H530.346L538.892 576.282L482.783 576.468ZM491.752 571.624L488.349 574.448L533.096 574.302L529.659 571.624H491.752Z" fill="#EFF3F5"/>
<path fill-rule="evenodd" clip-rule="evenodd" d="M24.168 631.367L32.656 622.71H76.6739L85.4555 631.121L24.168 631.367ZM33.4948 624.711L28.9492 629.347L80.5005 629.138L75.877 624.709H33.4948V624.711Z" fill="#EFF3F5"/>
<path fill-rule="evenodd" clip-rule="evenodd" d="M78.3253 135.85H34.3074L25.8174 127.193L87.1069 127.439L78.3253 135.85ZM35.1462 133.85H77.5264L82.1499 129.42L30.5986 129.212L35.1462 133.85Z" fill="#EFF3F5"/>
<path fill-rule="evenodd" clip-rule="evenodd" d="M688.778 668.993C668.591 668.993 652.164 652.536 652.164 632.312V499.589C652.164 479.365 668.591 462.908 688.778 462.908C708.968 462.908 725.395 479.365 725.395 499.589V632.312C725.395 652.536 708.968 668.993 688.778 668.993ZM688.778 464.908C669.689 464.908 654.161 480.465 654.161 499.589V632.311C654.161 651.435 669.689 666.992 688.778 666.992C707.867 666.992 723.397 651.435 723.397 632.311V499.589C723.397 480.465 707.867 464.908 688.778 464.908Z" fill="#EFF3F5"/>
<path fill-rule="evenodd" clip-rule="evenodd" d="M688.447 530.268C671.377 530.268 657.49 516.356 657.49 499.255C657.49 482.154 671.377 468.242 688.447 468.242C705.516 468.242 719.403 482.154 719.403 499.255C719.403 516.356 705.516 530.268 688.447 530.268ZM688.446 470.243C672.479 470.243 659.487 483.259 659.487 499.255C659.487 515.252 672.479 528.267 688.446 528.267C704.414 528.267 717.406 515.252 717.406 499.255C717.406 483.259 704.414 470.243 688.446 470.243Z" fill="#EFF3F5"/>
<path fill-rule="evenodd" clip-rule="evenodd" d="M689.112 662.322C672.042 662.322 658.155 648.41 658.155 631.309C658.155 614.208 672.042 600.296 689.112 600.296C706.182 600.296 720.068 614.208 720.068 631.309C720.068 648.41 706.182 662.322 689.112 662.322ZM689.112 602.297C673.144 602.297 660.153 615.313 660.153 631.309C660.153 647.306 673.144 660.321 689.112 660.321C705.079 660.321 718.071 647.306 718.071 631.309C718.071 615.313 705.079 602.297 689.112 602.297Z" fill="#EFF3F5"/>
<path fill-rule="evenodd" clip-rule="evenodd" d="M689.777 583.623C680.784 583.623 673.466 576.294 673.466 567.285C673.466 558.275 680.784 550.944 689.777 550.944C698.77 550.944 706.086 558.275 706.086 567.285C706.086 576.294 698.77 583.623 689.777 583.623ZM689.777 552.945C681.884 552.945 675.463 559.377 675.463 567.285C675.463 575.19 681.884 581.623 689.777 581.623C697.668 581.623 704.089 575.19 704.089 567.285C704.089 559.377 697.668 552.945 689.777 552.945Z" fill="#EFF3F5"/>
<path fill-rule="evenodd" clip-rule="evenodd" d="M764.587 378.209H692.856L692.972 377.104C694.884 358.723 710.252 344.861 728.722 344.861C747.192 344.861 762.56 358.723 764.471 377.104L764.587 378.209ZM695.09 376.209H762.355C760.064 359.402 745.794 346.862 728.722 346.862C711.65 346.862 697.383 359.402 695.09 376.209Z" fill="#EFF3F5"/>
<path fill-rule="evenodd" clip-rule="evenodd" d="M728.722 416.891C711.37 416.891 696.513 404.486 693.389 387.393L693.176 386.212H764.271L764.058 387.393C760.93 404.486 746.073 416.891 728.722 416.891ZM695.59 388.213C698.994 403.744 712.738 414.89 728.722 414.89C744.705 414.89 758.45 403.744 761.853 388.213H695.59Z" fill="#EFF3F5"/>
<path fill-rule="evenodd" clip-rule="evenodd" d="M728.721 432.232C700.573 432.232 676.795 409.326 676.795 382.211C676.795 372.163 679.756 362.471 685.365 354.183C685.752 353.629 686.415 352.273 685.92 351.77C683.791 349.607 680.505 347.701 677.607 346.02C676.056 345.12 674.588 344.269 673.543 343.505C672.567 342.791 671.925 341.634 671.744 340.25C671.532 338.665 671.947 337.04 672.854 335.906C675.764 332.262 679.647 328.401 684.721 324.095C689.63 319.931 694.853 317.604 698.31 316.064C701.406 314.681 704.939 315.587 706.263 317.648C707.733 319.941 709.285 323.533 710.653 326.702C711.414 328.465 712.071 329.989 712.574 330.956C713.035 331.842 713.603 332.35 714.128 332.35L714.136 332.37L714.304 332.32C718.981 330.908 723.832 330.193 728.721 330.193C755.787 330.193 778.651 354.017 778.651 382.215C778.651 409.792 756.253 432.232 728.721 432.232ZM701.344 317.421C700.589 317.421 699.86 317.561 699.291 317.813C695.77 319.383 690.703 321.642 686.013 325.62C681.036 329.838 677.242 333.611 674.414 337.153C673.848 337.859 673.585 338.944 673.723 339.982C673.834 340.82 674.188 341.497 674.721 341.887C675.68 342.589 677.102 343.413 678.608 344.288C681.616 346.032 685.025 348.009 687.341 350.364C688.797 351.843 687.815 354.176 687.006 355.322C681.637 363.26 678.791 372.563 678.791 382.209C678.791 408.24 701.655 430.229 728.721 430.229C755.15 430.229 776.653 408.686 776.653 382.209C776.653 355.096 754.704 332.189 728.721 332.189C724.036 332.189 719.39 332.873 714.913 334.222C714.655 334.32 714.365 334.346 714.128 334.346C713.365 334.346 711.923 334.026 710.802 331.877C710.265 330.846 709.596 329.292 708.819 327.493C707.547 324.548 705.963 320.882 704.581 318.727C704.072 317.933 702.8 317.421 701.344 317.421Z" fill="#EFF3F5"/>
<path fill-rule="evenodd" clip-rule="evenodd" d="M686.445 439.813C685.026 439.813 683.627 439.332 682.611 438.492C678.77 435.331 674.672 431.149 670.087 425.707C665.659 420.459 663.09 414.94 661.391 411.289L661.301 411.093C660.093 408.494 660.462 404.5 662.769 403.045C664.672 401.841 667.456 401.137 670.147 400.456C672.435 399.876 674.804 399.278 675.874 398.483L676.959 397.681L677.41 398.954C681.205 409.634 688.467 419.034 697.855 425.423L698.84 426.095L698.009 426.949C695.798 429.222 694.021 432.143 692.453 434.721C691.71 435.943 691.023 437.071 690.374 437.996C689.563 439.148 688.131 439.813 686.445 439.813ZM675.942 400.746C674.536 401.411 672.629 401.893 670.638 402.397C668.097 403.037 665.471 403.702 663.835 404.738C662.465 405.602 662.293 408.49 663.112 410.25L663.204 410.444C664.858 414 667.356 419.372 671.612 424.418C676.122 429.764 680.134 433.864 683.881 436.947C685.237 438.07 687.915 438.024 688.744 436.839C689.371 435.947 690.034 434.857 690.753 433.676C692.189 431.315 693.793 428.676 695.786 426.413C686.831 420.04 679.841 410.999 675.942 400.746Z" fill="#EFF3F5"/>
<rect x="653.493" y="77.6064" width="1.99726" height="153.856" fill="#EFF3F5"/>
<path fill-rule="evenodd" clip-rule="evenodd" d="M654.486 47.3166C654.226 47.3166 653.987 47.2166 653.785 47.0365C653.585 46.8164 653.487 46.5763 653.487 46.3162C653.487 46.0561 653.587 45.796 653.767 45.6159C654.166 45.2158 654.825 45.2358 655.205 45.5959C655.387 45.796 655.487 46.0561 655.487 46.3162C655.487 46.5763 655.387 46.8364 655.205 47.0165C655.005 47.2166 654.746 47.3166 654.486 47.3166Z" fill="#EFF3F5"/>
<path fill-rule="evenodd" clip-rule="evenodd" d="M653.487 73.6878C653.487 73.1476 653.945 72.6874 654.486 72.6874C655.043 72.6874 655.484 73.1476 655.484 73.6878C655.484 74.2481 655.043 74.6882 654.486 74.6882C653.947 74.6882 653.487 74.2481 653.487 73.6878ZM653.487 69.786C653.487 69.2258 653.945 68.7856 654.486 68.7856C655.043 68.7856 655.484 69.2258 655.484 69.786C655.484 70.3263 655.043 70.7864 654.486 70.7864C653.947 70.7864 653.487 70.3263 653.487 69.786ZM653.487 65.8645C653.487 65.3243 653.945 64.8641 654.486 64.8641C655.043 64.8641 655.484 65.3243 655.484 65.8645C655.484 66.4248 655.043 66.8649 654.486 66.8649C653.947 66.8649 653.487 66.4248 653.487 65.8645ZM653.487 61.963C653.487 61.4028 653.945 60.9626 654.486 60.9626C655.043 60.9626 655.484 61.4028 655.484 61.963C655.484 62.5033 655.043 62.9634 654.486 62.9634C653.947 62.9634 653.487 62.5033 653.487 61.963ZM653.487 58.0409C653.487 57.5007 653.945 57.0405 654.486 57.0405C655.043 57.0405 655.484 57.5007 655.484 58.0409C655.484 58.6011 655.043 59.0413 654.486 59.0413C653.947 59.0413 653.487 58.6011 653.487 58.0409ZM653.487 54.1397C653.487 53.5795 653.945 53.1393 654.486 53.1393C655.043 53.1393 655.484 53.5795 655.484 54.1397C655.484 54.68 655.043 55.1401 654.486 55.1401C653.947 55.1401 653.487 54.68 653.487 54.1397ZM653.487 50.2182C653.487 49.678 653.945 49.2178 654.486 49.2178C655.043 49.2178 655.484 49.678 655.484 50.2182C655.484 50.7784 655.043 51.2186 654.486 51.2186C653.947 51.2186 653.487 50.7784 653.487 50.2182Z" fill="#EFF3F5"/>
<path fill-rule="evenodd" clip-rule="evenodd" d="M654.486 78.6096C654.226 78.6096 653.965 78.5096 653.785 78.3095C653.585 78.1294 653.487 77.8693 653.487 77.6092C653.487 77.3491 653.587 77.089 653.767 76.9089C654.186 76.5087 654.825 76.5287 655.185 76.8889C655.387 77.089 655.484 77.3491 655.484 77.6092C655.484 77.8693 655.385 78.1294 655.203 78.3095C655.005 78.5096 654.745 78.6096 654.486 78.6096Z" fill="#EFF3F5"/>
<rect x="653.493" y="-44.6494" width="1.99726" height="90.9596" fill="#EFF3F5"/>
<rect x="696.1" y="-27.3306" width="1.99711" height="73.8585" fill="#EFF3F5"/>
<path fill-rule="evenodd" clip-rule="evenodd" d="M697.106 77.7285C696.826 77.7285 696.565 77.6285 696.387 77.4284C696.207 77.2683 696.107 77.0082 696.107 76.7281C696.107 76.468 696.207 76.2079 696.387 76.0278C696.766 75.6476 697.428 75.6476 697.805 76.0278C697.985 76.2079 698.105 76.468 698.105 76.7281C698.105 77.0082 697.983 77.2683 697.805 77.4484C697.605 77.6285 697.366 77.7285 697.106 77.7285Z" fill="#EFF3F5"/>
<path fill-rule="evenodd" clip-rule="evenodd" d="M696.107 72.9672C696.107 72.407 696.547 71.9668 697.106 71.9668C697.645 71.9668 698.105 72.407 698.105 72.9672C698.105 73.5074 697.645 73.9676 697.106 73.9676C696.547 73.9676 696.107 73.5074 696.107 72.9672ZM696.108 69.1847C696.108 68.6245 696.547 68.1843 697.106 68.1843C697.646 68.1843 698.105 68.6245 698.105 69.1847C698.105 69.725 697.646 70.1851 697.106 70.1851C696.547 70.1851 696.108 69.725 696.108 69.1847ZM696.108 65.4029C696.108 64.8627 696.547 64.4025 697.106 64.4025C697.646 64.4025 698.105 64.8627 698.105 65.4029C698.105 65.9632 697.646 66.4034 697.106 66.4034C696.547 66.4034 696.108 65.9632 696.108 65.4029ZM696.108 61.6218C696.108 61.0815 696.547 60.6414 697.106 60.6414C697.646 60.6414 698.105 61.0815 698.105 61.6218C698.105 62.182 697.646 62.6422 697.106 62.6422C696.547 62.6422 696.108 62.182 696.108 61.6218ZM696.108 57.86C696.108 57.2997 696.547 56.8596 697.106 56.8596C697.646 56.8596 698.105 57.2997 698.105 57.86C698.105 58.4002 697.646 58.8604 697.106 58.8604C696.547 58.8604 696.108 58.4002 696.108 57.86ZM696.107 54.0791C696.107 53.5189 696.547 53.0787 697.106 53.0787C697.645 53.0787 698.105 53.5189 698.105 54.0791C698.105 54.6393 697.645 55.0795 697.106 55.0795C696.547 55.0795 696.107 54.6393 696.107 54.0791ZM696.108 50.2973C696.108 49.7571 696.547 49.2969 697.106 49.2969C697.646 49.2969 698.105 49.7571 698.105 50.2973C698.105 50.8575 697.646 51.2977 697.106 51.2977C696.547 51.2977 696.108 50.8575 696.108 50.2973Z" fill="#EFF3F5"/>
<path fill-rule="evenodd" clip-rule="evenodd" d="M697.106 47.536C696.846 47.536 696.587 47.4359 696.405 47.2559C696.205 47.0558 696.107 46.7957 696.107 46.5356C696.107 46.2555 696.207 46.0153 696.387 45.8153C696.749 45.4551 697.428 45.4351 697.805 45.8153C697.985 46.0153 698.105 46.2755 698.105 46.5356C698.105 46.7957 697.983 47.0558 697.805 47.2359C697.605 47.4359 697.346 47.536 697.106 47.536Z" fill="#EFF3F5"/>
<path fill-rule="evenodd" clip-rule="evenodd" d="M683.235 231.463H681.238V196.953C681.238 192.269 684.516 190.598 687.581 190.598H694.613C695.145 190.598 695.392 190.396 695.532 190.244C696.109 189.614 696.139 188.287 696.103 187.873L696.099 76.7329H698.097V187.789C698.115 187.957 698.266 190.218 697.002 191.596C696.401 192.253 695.574 192.599 694.613 192.599H687.579C685.958 192.599 683.233 193.165 683.233 196.953V231.463H683.235Z" fill="#EFF3F5"/>
<path fill-rule="evenodd" clip-rule="evenodd" d="M682.245 263.444C681.985 263.444 681.725 263.344 681.528 263.164C681.348 262.964 681.246 262.704 681.246 262.443C681.246 262.183 681.348 261.923 681.528 261.743C681.887 261.363 682.566 261.363 682.946 261.743C683.126 261.943 683.243 262.183 683.243 262.443C683.243 262.704 683.124 262.964 682.946 263.144C682.744 263.344 682.486 263.444 682.245 263.444Z" fill="#EFF3F5"/>
<path fill-rule="evenodd" clip-rule="evenodd" d="M681.229 258.582C681.229 258.021 681.688 257.581 682.247 257.581C682.788 257.581 683.246 258.021 683.246 258.582C683.246 259.122 682.788 259.582 682.247 259.582C681.688 259.582 681.229 259.122 681.229 258.582ZM681.229 254.7C681.229 254.14 681.688 253.7 682.247 253.7C682.788 253.7 683.246 254.14 683.246 254.7C683.246 255.26 682.788 255.701 682.247 255.701C681.688 255.701 681.229 255.26 681.229 254.7ZM681.229 250.818C681.229 250.278 681.688 249.818 682.247 249.818C682.788 249.818 683.246 250.278 683.246 250.818C683.246 251.378 682.788 251.819 682.247 251.819C681.688 251.819 681.229 251.378 681.229 250.818ZM681.229 246.957C681.229 246.397 681.688 245.957 682.247 245.957C682.788 245.957 683.246 246.397 683.246 246.957C683.246 247.497 682.788 247.957 682.247 247.957C681.688 247.957 681.229 247.497 681.229 246.957ZM681.229 243.075C681.229 242.535 681.688 242.075 682.247 242.075C682.788 242.075 683.246 242.535 683.246 243.075C683.246 243.635 682.788 244.075 682.247 244.075C681.688 244.075 681.229 243.635 681.229 243.075ZM681.229 239.214C681.229 238.653 681.688 238.213 682.247 238.213C682.788 238.213 683.246 238.653 683.246 239.214C683.246 239.754 682.788 240.214 682.247 240.214C681.688 240.214 681.229 239.754 681.229 239.214ZM681.229 235.332C681.229 234.792 681.688 234.332 682.247 234.332C682.788 234.332 683.246 234.792 683.246 235.332C683.246 235.892 682.788 236.332 682.247 236.332C681.688 236.332 681.229 235.892 681.229 235.332Z" fill="#EFF3F5"/>
<path fill-rule="evenodd" clip-rule="evenodd" d="M682.245 232.471C681.965 232.471 681.705 232.35 681.528 232.17C681.35 231.99 681.246 231.73 681.246 231.47C681.246 231.19 681.348 230.93 681.528 230.75C681.905 230.37 682.546 230.39 682.924 230.75C683.126 230.95 683.243 231.21 683.243 231.47C683.243 231.71 683.124 231.97 682.946 232.17C682.744 232.35 682.504 232.471 682.245 232.471Z" fill="#EFF3F5"/>
<path fill-rule="evenodd" clip-rule="evenodd" d="M683.235 306.177H653.493V262.725H655.49V304.177H681.238V262.445H683.235V306.177Z" fill="#EFF3F5"/>
<path fill-rule="evenodd" clip-rule="evenodd" d="M654.486 232.47C654.226 232.47 653.987 232.35 653.785 232.17C653.585 231.97 653.487 231.71 653.487 231.47C653.487 231.21 653.587 230.95 653.767 230.77C654.166 230.37 654.825 230.39 655.205 230.75C655.387 230.95 655.487 231.19 655.487 231.47C655.487 231.73 655.387 231.99 655.205 232.17C655.005 232.35 654.746 232.47 654.486 232.47Z" fill="#EFF3F5"/>
<path fill-rule="evenodd" clip-rule="evenodd" d="M653.487 258.821C653.487 258.261 653.945 257.821 654.486 257.821C655.043 257.821 655.485 258.261 655.485 258.821C655.485 259.361 655.043 259.822 654.486 259.822C653.947 259.822 653.487 259.361 653.487 258.821ZM653.487 254.899C653.487 254.359 653.945 253.919 654.486 253.919C655.043 253.919 655.485 254.359 655.485 254.899C655.485 255.46 655.043 255.9 654.486 255.9C653.947 255.9 653.487 255.46 653.487 254.899ZM653.487 250.998C653.487 250.458 653.945 249.998 654.486 249.998C655.043 249.998 655.485 250.458 655.485 250.998C655.485 251.558 655.043 251.999 654.486 251.999C653.947 251.999 653.487 251.558 653.487 250.998ZM653.487 247.096C653.487 246.536 653.945 246.096 654.486 246.096C655.043 246.096 655.485 246.536 655.485 247.096C655.485 247.637 655.043 248.097 654.486 248.097C653.947 248.097 653.487 247.637 653.487 247.096ZM653.487 243.195C653.487 242.634 653.945 242.174 654.486 242.174C655.043 242.174 655.485 242.634 655.485 243.195C655.485 243.735 655.043 244.195 654.486 244.195C653.947 244.195 653.487 243.735 653.487 243.195ZM653.487 239.273C653.487 238.713 653.945 238.272 654.486 238.272C655.043 238.272 655.485 238.713 655.485 239.273C655.485 239.833 655.043 240.273 654.486 240.273C653.947 240.273 653.487 239.833 653.487 239.273ZM653.487 235.372C653.487 234.811 653.945 234.371 654.486 234.371C655.043 234.371 655.484 234.811 655.484 235.372C655.484 235.912 655.043 236.372 654.486 236.372C653.947 236.372 653.487 235.912 653.487 235.372Z" fill="#EFF3F5"/>
<path fill-rule="evenodd" clip-rule="evenodd" d="M654.486 263.723C654.226 263.723 653.965 263.623 653.785 263.423C653.585 263.243 653.487 262.983 653.487 262.722C653.487 262.462 653.587 262.202 653.767 262.022C654.186 261.622 654.825 261.642 655.185 262.002C655.387 262.202 655.484 262.462 655.484 262.722C655.484 262.983 655.385 263.243 655.203 263.423C655.005 263.623 654.745 263.723 654.486 263.723Z" fill="#EFF3F5"/>
<path fill-rule="evenodd" clip-rule="evenodd" d="M760.012 624.755H758.015V577.979C758.015 574.318 759.966 571.951 762.982 571.951H768.13C769.752 571.951 772.476 571.387 772.476 567.597V534.5H774.473V567.597C774.473 572.283 771.196 573.952 768.13 573.952H762.982C761.094 573.952 760.012 575.418 760.012 577.979V624.755Z" fill="#EFF3F5"/>
<path fill-rule="evenodd" clip-rule="evenodd" d="M773.479 504.343C773.219 504.343 772.958 504.221 772.778 504.043C772.578 503.843 772.48 503.603 772.48 503.343C772.48 503.061 772.58 502.823 772.76 502.623C773.159 502.244 773.799 502.262 774.178 502.623C774.378 502.825 774.478 503.083 774.478 503.343C774.478 503.583 774.376 503.843 774.196 504.043C773.978 504.221 773.739 504.343 773.479 504.343Z" fill="#EFF3F5"/>
<path fill-rule="evenodd" clip-rule="evenodd" d="M772.481 530.614C772.481 530.054 772.92 529.594 773.479 529.594C774.018 529.594 774.478 530.052 774.478 530.614C774.478 531.154 774.018 531.595 773.479 531.595C772.92 531.595 772.481 531.152 772.481 530.614ZM772.481 526.713C772.481 526.152 772.92 525.712 773.479 525.712C774.018 525.712 774.478 526.152 774.478 526.713C774.478 527.255 774.018 527.713 773.479 527.713C772.92 527.713 772.481 527.253 772.481 526.713ZM772.481 522.811C772.481 522.253 772.92 521.81 773.479 521.81C774.018 521.81 774.478 522.253 774.478 522.811C774.478 523.353 774.018 523.811 773.479 523.811C772.92 523.811 772.481 523.351 772.481 522.811ZM772.481 518.908C772.481 518.368 772.92 517.907 773.479 517.907C774.018 517.907 774.478 518.368 774.478 518.908C774.478 519.468 774.018 519.908 773.479 519.908C772.92 519.908 772.481 519.47 772.481 518.908ZM772.481 515.028C772.481 514.468 772.92 514.028 773.479 514.028C774.018 514.028 774.478 514.468 774.478 515.028C774.478 515.568 774.018 516.028 773.479 516.028C772.92 516.028 772.481 515.566 772.481 515.028ZM772.481 511.126C772.481 510.566 772.92 510.126 773.479 510.126C774.018 510.126 774.478 510.566 774.478 511.126C774.478 511.668 774.018 512.127 773.479 512.127C772.92 512.127 772.481 511.666 772.481 511.126ZM772.48 507.223C772.48 506.682 772.92 506.222 773.479 506.222C774.018 506.222 774.478 506.682 774.478 507.223C774.478 507.783 774.018 508.223 773.479 508.223C772.92 508.223 772.48 507.785 772.48 507.223Z" fill="#EFF3F5"/>
<path fill-rule="evenodd" clip-rule="evenodd" d="M773.479 535.494C773.219 535.494 772.958 535.394 772.778 535.214C772.578 535.014 772.48 534.756 772.48 534.494C772.48 534.234 772.58 533.974 772.76 533.793C773.159 533.413 773.799 533.413 774.178 533.793C774.378 533.974 774.478 534.234 774.478 534.494C774.478 534.756 774.376 535.016 774.196 535.196C773.978 535.396 773.739 535.494 773.479 535.494Z" fill="#EFF3F5"/>
<path fill-rule="evenodd" clip-rule="evenodd" d="M774.473 503.332H772.476V448.902H802.617V503.082H800.62V450.903H774.473V503.332Z" fill="#EFF3F5"/>
<path fill-rule="evenodd" clip-rule="evenodd" d="M801.619 535.654C801.359 535.654 801.099 535.534 800.918 535.355C800.718 535.175 800.62 534.913 800.62 534.653C800.62 534.393 800.72 534.133 800.9 533.953C801.279 533.553 801.978 533.573 802.338 533.953C802.519 534.133 802.619 534.373 802.619 534.653C802.619 534.913 802.497 535.175 802.32 535.355C802.142 535.536 801.878 535.654 801.619 535.654Z" fill="#EFF3F5"/>
<path fill-rule="evenodd" clip-rule="evenodd" d="M800.62 530.714C800.62 530.153 801.06 529.693 801.619 529.693C802.158 529.693 802.617 530.151 802.617 530.714C802.617 531.256 802.158 531.714 801.619 531.714C801.06 531.714 800.62 531.254 800.62 530.714ZM800.62 526.752C800.62 526.21 801.06 525.752 801.619 525.752C802.158 525.752 802.617 526.21 802.617 526.752C802.617 527.311 802.158 527.753 801.619 527.753C801.06 527.753 800.62 527.313 800.62 526.752ZM800.62 522.811C800.62 522.253 801.06 521.81 801.619 521.81C802.158 521.81 802.617 522.253 802.617 522.811C802.617 523.371 802.158 523.811 801.619 523.811C801.06 523.811 800.62 523.371 800.62 522.811ZM800.62 518.868C800.62 518.308 801.06 517.868 801.619 517.868C802.158 517.868 802.617 518.308 802.617 518.868C802.617 519.409 802.158 519.869 801.619 519.869C801.06 519.869 800.62 519.407 800.62 518.868ZM800.62 514.927C800.62 514.366 801.06 513.926 801.619 513.926C802.158 513.926 802.617 514.366 802.617 514.927C802.617 515.467 802.158 515.927 801.619 515.927C801.06 515.927 800.62 515.467 800.62 514.927ZM800.62 510.965C800.62 510.425 801.06 509.965 801.619 509.965C802.158 509.965 802.617 510.425 802.617 510.965C802.617 511.526 802.158 511.966 801.619 511.966C801.06 511.966 800.62 511.526 800.62 510.965ZM800.62 507.024C800.62 506.482 801.059 506.023 801.619 506.023C802.158 506.023 802.617 506.482 802.617 507.024C802.617 507.584 802.158 508.024 801.619 508.024C801.059 508.024 800.62 507.584 800.62 507.024Z" fill="#EFF3F5"/>
<path fill-rule="evenodd" clip-rule="evenodd" d="M801.619 504.083C801.359 504.083 801.099 503.981 800.918 503.783C800.718 503.603 800.62 503.343 800.62 503.083C800.62 502.823 800.72 502.582 800.9 502.38C801.279 502.002 801.978 502.002 802.338 502.38C802.519 502.56 802.619 502.823 802.619 503.083C802.619 503.363 802.497 503.623 802.32 503.801C802.138 503.963 801.878 504.083 801.619 504.083Z" fill="#EFF3F5"/>
<rect x="800.62" y="534.651" width="1.99711" height="89.9871" fill="#EFF3F5"/>
<path fill-rule="evenodd" clip-rule="evenodd" d="M801.619 657.907C801.359 657.907 801.099 657.807 800.918 657.625C800.718 657.425 800.62 657.166 800.62 656.906C800.62 656.646 800.72 656.386 800.9 656.204C801.279 655.826 801.978 655.826 802.338 656.204C802.497 656.386 802.619 656.646 802.619 656.906C802.619 657.186 802.497 657.447 802.32 657.625C802.138 657.807 801.878 657.907 801.619 657.907Z" fill="#EFF3F5"/>
<path fill-rule="evenodd" clip-rule="evenodd" d="M800.62 652.864C800.62 652.324 801.06 651.864 801.619 651.864C802.158 651.864 802.617 652.324 802.617 652.864C802.617 653.424 802.158 653.886 801.619 653.886C801.06 653.884 800.62 653.424 800.62 652.864ZM800.62 648.842C800.62 648.282 801.06 647.842 801.619 647.842C802.158 647.842 802.617 648.282 802.617 648.842C802.617 649.384 802.158 649.843 801.619 649.843C801.06 649.843 800.62 649.382 800.62 648.842ZM800.62 644.801C800.62 644.259 801.06 643.801 801.619 643.801C802.158 643.801 802.617 644.259 802.617 644.801C802.617 645.359 802.158 645.801 801.619 645.801C801.06 645.801 800.62 645.361 800.62 644.801ZM800.62 640.777C800.62 640.219 801.06 639.777 801.619 639.777C802.158 639.777 802.617 640.219 802.617 640.777C802.617 641.32 802.158 641.778 801.619 641.778C801.06 641.778 800.62 641.32 800.62 640.777ZM800.62 636.737C800.62 636.177 801.06 635.737 801.619 635.737C802.158 635.737 802.617 636.177 802.617 636.737C802.617 637.278 802.158 637.738 801.619 637.738C801.06 637.738 800.62 637.276 800.62 636.737ZM800.62 632.693C800.62 632.153 801.06 631.693 801.619 631.693C802.158 631.693 802.617 632.153 802.617 632.693C802.617 633.254 802.158 633.694 801.619 633.694C801.06 633.694 800.62 633.256 800.62 632.693ZM800.62 628.674C800.62 628.114 801.059 627.674 801.619 627.674C802.158 627.674 802.617 628.114 802.617 628.674C802.617 629.216 802.158 629.675 801.619 629.675C801.059 629.675 800.62 629.214 800.62 628.674Z" fill="#EFF3F5"/>
<path fill-rule="evenodd" clip-rule="evenodd" d="M801.619 625.633C801.359 625.633 801.099 625.531 800.918 625.351C800.718 625.151 800.62 624.893 800.62 624.633C800.62 624.373 800.72 624.133 800.9 623.931C801.319 623.553 801.958 623.571 802.318 623.931C802.519 624.111 802.617 624.373 802.617 624.633C802.617 624.913 802.495 625.173 802.318 625.351C802.14 625.529 801.878 625.633 801.619 625.633Z" fill="#EFF3F5"/>
<rect x="800.62" y="656.91" width="1.99711" height="54.8486" fill="#EFF3F5"/>
<path fill-rule="evenodd" clip-rule="evenodd" d="M800.62 836.32C800.62 835.778 801.06 835.32 801.619 835.32C802.158 835.32 802.617 835.778 802.617 836.32C802.617 836.881 802.158 837.321 801.619 837.321C801.06 837.321 800.62 836.881 800.62 836.32ZM800.62 832.299C800.62 831.757 801.06 831.299 801.619 831.299C802.158 831.299 802.617 831.757 802.617 832.299C802.617 832.857 802.158 833.299 801.619 833.299C801.06 833.299 800.62 832.857 800.62 832.299ZM800.62 828.297C800.62 827.737 801.06 827.275 801.619 827.275C802.158 827.275 802.617 827.735 802.617 828.297C802.617 828.838 802.158 829.298 801.619 829.298C801.06 829.298 800.62 828.838 800.62 828.297ZM800.62 824.274C800.62 823.716 801.06 823.274 801.619 823.274C802.158 823.274 802.617 823.716 802.617 824.274C802.617 824.816 802.158 825.275 801.619 825.275C801.06 825.275 800.62 824.816 800.62 824.274ZM800.62 820.254C800.62 819.694 801.06 819.254 801.619 819.254C802.158 819.254 802.617 819.694 802.617 820.254C802.617 820.796 802.158 821.255 801.619 821.255C801.06 821.255 800.62 820.794 800.62 820.254ZM800.62 816.233C800.62 815.691 801.06 815.232 801.619 815.232C802.158 815.232 802.617 815.691 802.617 816.233C802.617 816.793 802.158 817.233 801.619 817.233C801.06 817.233 800.62 816.793 800.62 816.233ZM800.62 812.21C800.62 811.668 801.06 811.21 801.619 811.21C802.158 811.21 802.617 811.668 802.617 812.21C802.617 812.769 802.158 813.211 801.619 813.211C801.06 813.211 800.62 812.769 800.62 812.21ZM800.62 808.187C800.62 807.647 801.06 807.187 801.619 807.187C802.158 807.187 802.617 807.647 802.617 808.187C802.617 808.747 802.158 809.188 801.619 809.188C801.06 809.188 800.62 808.749 800.62 808.187ZM800.62 804.185C800.62 803.627 801.06 803.185 801.619 803.185C802.158 803.185 802.617 803.627 802.617 804.185C802.617 804.727 802.158 805.186 801.619 805.186C801.06 805.186 800.62 804.727 800.62 804.185ZM800.62 800.166C800.62 799.605 801.06 799.165 801.619 799.165C802.158 799.165 802.617 799.605 802.617 800.166C802.617 800.708 802.158 801.166 801.619 801.166C801.06 801.166 800.62 800.706 800.62 800.166ZM800.62 796.144C800.62 795.584 801.06 795.143 801.619 795.143C802.158 795.143 802.617 795.584 802.617 796.144C802.617 796.684 802.158 797.144 801.619 797.144C801.06 797.144 800.62 796.682 800.62 796.144ZM800.62 792.122C800.62 791.58 801.06 791.122 801.619 791.122C802.158 791.122 802.617 791.58 802.617 792.122C802.617 792.681 802.158 793.123 801.619 793.123C801.06 793.123 800.62 792.681 800.62 792.122ZM800.62 788.099C800.62 787.558 801.06 787.098 801.619 787.098C802.158 787.098 802.617 787.558 802.617 788.099C802.617 788.659 802.158 789.099 801.619 789.099C801.06 789.099 800.62 788.661 800.62 788.099ZM800.62 784.079C800.62 783.539 801.06 783.079 801.619 783.079C802.158 783.079 802.617 783.539 802.617 784.079C802.617 784.64 802.158 785.08 801.619 785.08C801.06 785.08 800.62 784.64 800.62 784.079ZM800.62 780.078C800.62 779.517 801.06 779.077 801.619 779.077C802.158 779.077 802.617 779.517 802.617 780.078C802.617 780.62 802.158 781.078 801.619 781.078C801.06 781.078 800.62 780.618 800.62 780.078ZM800.62 776.056C800.62 775.496 801.06 775.056 801.619 775.056C802.158 775.056 802.617 775.496 802.617 776.056C802.617 776.596 802.158 777.057 801.619 777.057C801.06 777.057 800.62 776.594 800.62 776.056ZM800.62 772.034C800.62 771.474 801.06 771.033 801.619 771.033C802.158 771.033 802.617 771.474 802.617 772.034C802.617 772.574 802.158 773.034 801.619 773.034C801.06 773.034 800.62 772.574 800.62 772.034ZM800.62 768.011C800.62 767.47 801.06 767.01 801.619 767.01C802.158 767.01 802.617 767.47 802.617 768.011C802.617 768.571 802.158 769.011 801.619 769.011C801.06 769.011 800.62 768.573 800.62 768.011ZM800.62 763.99C800.62 763.45 801.06 762.99 801.619 762.99C802.158 762.99 802.617 763.45 802.617 763.99C802.617 764.551 802.158 764.991 801.619 764.991C801.06 764.991 800.62 764.551 800.62 763.99ZM800.62 759.969C800.62 759.429 801.06 758.969 801.619 758.969C802.158 758.969 802.617 759.429 802.617 759.969C802.617 760.529 802.158 760.97 801.619 760.97C801.06 760.97 800.62 760.529 800.62 759.969ZM800.62 755.967C800.62 755.407 801.06 754.967 801.619 754.967C802.158 754.967 802.617 755.407 802.617 755.967C802.617 756.507 802.158 756.968 801.619 756.968C801.06 756.968 800.62 756.505 800.62 755.967ZM800.62 751.946C800.62 751.385 801.06 750.945 801.619 750.945C802.158 750.945 802.617 751.385 802.617 751.946C802.617 752.486 802.158 752.946 801.619 752.946C801.06 752.946 800.62 752.486 800.62 751.946ZM800.62 747.924C800.62 747.364 801.06 746.924 801.619 746.924C802.158 746.924 802.617 747.364 802.617 747.924C802.617 748.464 802.158 748.925 801.619 748.925C801.06 748.925 800.62 748.464 800.62 747.924ZM800.62 743.902C800.62 743.362 801.06 742.902 801.619 742.902C802.158 742.902 802.617 743.362 802.617 743.902C802.617 744.463 802.158 744.903 801.619 744.903C801.06 744.903 800.62 744.463 800.62 743.902ZM800.62 739.88C800.62 739.34 801.06 738.88 801.619 738.88C802.158 738.88 802.617 739.34 802.617 739.88C802.617 740.441 802.158 740.881 801.619 740.881C801.06 740.881 800.62 740.441 800.62 739.88ZM800.62 735.859C800.62 735.316 801.06 734.858 801.619 734.858C802.158 734.858 802.617 735.316 802.617 735.859C802.617 736.419 802.158 736.859 801.619 736.859C801.06 736.859 800.62 736.419 800.62 735.859ZM800.62 731.858C800.62 731.297 801.06 730.857 801.619 730.857C802.158 730.857 802.617 731.297 802.617 731.858C802.617 732.398 802.158 732.858 801.619 732.858C801.06 732.858 800.62 732.398 800.62 731.858ZM800.62 727.836C800.62 727.276 801.06 726.835 801.619 726.835C802.158 726.835 802.617 727.276 802.617 727.836C802.617 728.376 802.158 728.836 801.619 728.836C801.06 728.836 800.62 728.376 800.62 727.836ZM800.62 723.813C800.62 723.254 801.06 722.812 801.619 722.812C802.158 722.812 802.617 723.254 802.617 723.813C802.617 724.355 802.158 724.813 801.619 724.813C801.06 724.813 800.62 724.355 800.62 723.813ZM800.62 719.793C800.62 719.252 801.06 718.792 801.619 718.792C802.158 718.792 802.617 719.252 802.617 719.793C802.617 720.353 802.158 720.793 801.619 720.793C801.06 720.793 800.62 720.353 800.62 719.793ZM800.62 715.771C800.62 715.229 801.059 714.771 801.619 714.771C802.158 714.771 802.617 715.229 802.617 715.771C802.617 716.331 802.158 716.771 801.619 716.771C801.059 716.771 800.62 716.331 800.62 715.771Z" fill="#EFF3F5"/>
<path fill-rule="evenodd" clip-rule="evenodd" d="M801.619 712.749C801.359 712.749 801.099 712.647 800.918 712.467C800.718 712.287 800.62 712.027 800.62 711.749C800.62 711.487 800.72 711.227 800.918 711.046C801.279 710.686 801.976 710.686 802.336 711.046C802.495 711.227 802.617 711.487 802.617 711.749C802.617 712.029 802.495 712.289 802.318 712.467C802.14 712.645 801.878 712.749 801.619 712.749Z" fill="#EFF3F5"/>
<path fill-rule="evenodd" clip-rule="evenodd" d="M759.018 745.443C758.758 745.443 758.499 745.343 758.299 745.161C758.119 744.961 758.02 744.703 758.02 744.443C758.02 744.183 758.119 743.923 758.299 743.741C758.679 743.362 759.358 743.362 759.717 743.741C759.897 743.923 760.017 744.183 760.017 744.443C760.017 744.703 759.895 744.963 759.717 745.143C759.537 745.343 759.278 745.443 759.018 745.443Z" fill="#EFF3F5"/>
<path fill-rule="evenodd" clip-rule="evenodd" d="M758.02 836.061C758.02 835.501 758.459 835.061 759.018 835.061C759.558 835.061 760.017 835.501 760.017 836.061C760.017 836.601 759.558 837.062 759.018 837.062C758.459 837.062 758.02 836.601 758.02 836.061ZM758.02 832.079C758.02 831.519 758.459 831.059 759.018 831.059C759.558 831.059 760.017 831.517 760.017 832.079C760.017 832.619 759.558 833.08 759.018 833.08C758.459 833.08 758.02 832.617 758.02 832.079ZM758.02 828.077C758.02 827.535 758.459 827.097 759.018 827.097C759.557 827.097 760.017 827.537 760.017 828.077C760.017 828.637 759.557 829.078 759.018 829.078C758.459 829.078 758.02 828.637 758.02 828.077ZM758.02 824.096C758.02 823.556 758.459 823.096 759.018 823.096C759.558 823.096 760.017 823.556 760.017 824.096C760.017 824.656 759.558 825.096 759.018 825.096C758.459 825.096 758.02 824.656 758.02 824.096ZM758.02 820.113C758.02 819.572 758.459 819.112 759.018 819.112C759.558 819.112 760.017 819.572 760.017 820.113C760.017 820.673 759.558 821.113 759.018 821.113C758.459 821.113 758.02 820.675 758.02 820.113ZM758.02 816.133C758.02 815.59 758.459 815.132 759.018 815.132C759.557 815.132 760.017 815.59 760.017 816.133C760.017 816.691 759.557 817.133 759.018 817.133C758.459 817.133 758.02 816.691 758.02 816.133ZM758.02 812.151C758.02 811.59 758.459 811.15 759.018 811.15C759.557 811.15 760.017 811.59 760.017 812.151C760.017 812.711 759.557 813.151 759.018 813.151C758.459 813.151 758.02 812.711 758.02 812.151ZM758.02 808.169C758.02 807.629 758.459 807.169 759.018 807.169C759.558 807.169 760.017 807.629 760.017 808.169C760.017 808.73 759.558 809.17 759.018 809.17C758.459 809.17 758.02 808.73 758.02 808.169ZM758.02 804.186C758.02 803.628 758.459 803.186 759.018 803.186C759.558 803.186 760.017 803.628 760.017 804.186C760.017 804.746 759.558 805.187 759.018 805.187C758.459 805.187 758.02 804.748 758.02 804.186ZM758.02 800.206C758.02 799.646 758.459 799.206 759.018 799.206C759.558 799.206 760.017 799.646 760.017 800.206C760.017 800.764 759.558 801.206 759.018 801.206C758.459 801.206 758.02 800.764 758.02 800.206ZM758.02 796.224C758.02 795.664 758.459 795.224 759.018 795.224C759.558 795.224 760.017 795.664 760.017 796.224C760.017 796.764 759.558 797.225 759.018 797.225C758.459 797.225 758.02 796.762 758.02 796.224ZM758.02 792.243C758.02 791.682 758.459 791.242 759.018 791.242C759.558 791.242 760.017 791.682 760.017 792.243C760.017 792.785 759.558 793.243 759.018 793.243C758.459 793.243 758.02 792.783 758.02 792.243ZM758.02 788.259C758.02 787.701 758.459 787.259 759.018 787.259C759.558 787.259 760.017 787.701 760.017 788.259C760.017 788.801 759.558 789.259 759.018 789.259C758.459 789.259 758.02 788.801 758.02 788.259ZM758.02 784.28C758.02 783.719 758.459 783.279 759.018 783.279C759.557 783.279 760.017 783.719 760.017 784.28C760.017 784.82 759.557 785.28 759.018 785.28C758.459 785.28 758.02 784.82 758.02 784.28ZM758.02 780.298C758.02 779.737 758.459 779.297 759.018 779.297C759.557 779.297 760.017 779.737 760.017 780.298C760.017 780.838 759.557 781.298 759.018 781.298C758.459 781.298 758.02 780.836 758.02 780.298ZM758.02 776.317C758.02 775.757 758.459 775.296 759.018 775.296C759.558 775.296 760.017 775.755 760.017 776.317C760.017 776.859 759.558 777.317 759.018 777.317C758.459 777.317 758.02 776.857 758.02 776.317ZM758.02 772.315C758.02 771.775 758.459 771.334 759.018 771.334C759.558 771.334 760.017 771.777 760.017 772.315C760.017 772.875 759.558 773.315 759.018 773.315C758.459 773.315 758.02 772.875 758.02 772.315ZM758.02 768.331C758.02 767.791 758.459 767.331 759.018 767.331C759.558 767.331 760.017 767.791 760.017 768.331C760.017 768.891 759.558 769.331 759.018 769.331C758.459 769.331 758.02 768.893 758.02 768.331ZM758.02 764.351C758.02 763.809 758.459 763.351 759.018 763.351C759.557 763.351 760.017 763.809 760.017 764.351C760.017 764.909 759.557 765.352 759.018 765.352C758.459 765.352 758.02 764.911 758.02 764.351ZM758.02 760.37C758.02 759.827 758.459 759.369 759.018 759.369C759.558 759.369 760.017 759.827 760.017 760.37C760.017 760.93 759.558 761.37 759.018 761.37C758.459 761.37 758.02 760.93 758.02 760.37ZM758.02 756.388C758.02 755.828 758.459 755.388 759.018 755.388C759.558 755.388 760.017 755.828 760.017 756.388C760.017 756.948 759.558 757.388 759.018 757.388C758.459 757.388 758.02 756.948 758.02 756.388ZM758.02 752.406C758.02 751.848 758.459 751.406 759.018 751.406C759.558 751.406 760.017 751.848 760.017 752.406C760.017 752.967 759.558 753.407 759.018 753.407C758.459 753.407 758.02 752.967 758.02 752.406ZM758.02 748.425C758.02 747.864 758.459 747.424 759.018 747.424C759.558 747.424 760.017 747.864 760.017 748.425C760.017 748.983 759.558 749.425 759.018 749.425C758.459 749.425 758.02 748.985 758.02 748.425Z" fill="#EFF3F5"/>
<rect x="758.015" y="656.678" width="1.99711" height="87.7623" fill="#EFF3F5"/>
<path fill-rule="evenodd" clip-rule="evenodd" d="M759.019 625.753C758.759 625.753 758.5 625.653 758.318 625.473C758.118 625.271 758.021 625.013 758.021 624.753C758.021 624.493 758.12 624.233 758.3 624.053C758.662 623.673 759.359 623.673 759.718 624.053C759.898 624.233 760.018 624.493 760.018 624.753C760.018 625.013 759.896 625.273 759.718 625.453C759.538 625.653 759.279 625.753 759.019 625.753Z" fill="#EFF3F5"/>
<path fill-rule="evenodd" clip-rule="evenodd" d="M758.021 652.684C758.021 652.124 758.46 651.684 759.019 651.684C759.559 651.684 760.018 652.124 760.018 652.684C760.018 653.244 759.559 653.684 759.019 653.684C758.46 653.684 758.021 653.244 758.021 652.684ZM758.021 648.701C758.021 648.143 758.46 647.701 759.019 647.701C759.558 647.701 760.018 648.143 760.018 648.701C760.018 649.244 759.558 649.702 759.019 649.702C758.46 649.702 758.021 649.244 758.021 648.701ZM758.021 644.699C758.021 644.159 758.46 643.699 759.019 643.699C759.559 643.699 760.018 644.159 760.018 644.699C760.018 645.259 759.559 645.699 759.019 645.699C758.46 645.699 758.021 645.261 758.021 644.699ZM758.021 640.719C758.021 640.159 758.46 639.719 759.019 639.719C759.558 639.719 760.018 640.159 760.018 640.719C760.018 641.26 759.558 641.72 759.019 641.72C758.46 641.72 758.021 641.26 758.021 640.719ZM758.021 636.718C758.021 636.176 758.46 635.718 759.019 635.718C759.558 635.718 760.018 636.176 760.018 636.718C760.018 637.277 759.558 637.719 759.019 637.719C758.46 637.719 758.021 637.277 758.021 636.718ZM758.021 632.736C758.021 632.176 758.46 631.736 759.019 631.736C759.558 631.736 760.018 632.176 760.018 632.736C760.018 633.277 759.558 633.737 759.019 633.737C758.46 633.737 758.021 633.275 758.021 632.736ZM758.021 628.755C758.021 628.195 758.46 627.754 759.019 627.754C759.558 627.754 760.018 628.195 760.018 628.755C760.018 629.297 759.558 629.735 759.019 629.735C758.46 629.735 758.021 629.295 758.021 628.755Z" fill="#EFF3F5"/>
<path fill-rule="evenodd" clip-rule="evenodd" d="M759.019 657.687C758.759 657.687 758.5 657.567 758.318 657.389C758.118 657.187 758.021 656.947 758.021 656.687C758.021 656.407 758.12 656.166 758.3 655.966C758.7 655.588 759.359 655.606 759.718 655.966C759.898 656.168 760.018 656.427 760.018 656.687C760.018 656.947 759.896 657.187 759.718 657.389C759.538 657.567 759.279 657.687 759.019 657.687Z" fill="#EFF3F5"/>
<path fill-rule="evenodd" clip-rule="evenodd" d="M760.968 503.411H758.971V500.702L759.831 500.58C760.808 500.441 761.843 500.311 762.871 500.181C763.926 500.049 764.982 499.915 765.973 499.775L765.975 498.147C764.982 498.006 763.928 497.872 762.871 497.738C761.839 497.608 760.808 497.478 759.831 497.34L758.971 497.218V491.822L759.831 491.702C760.78 491.57 761.779 491.444 762.777 491.32C763.864 491.182 764.952 491.044 765.975 490.9V489.267C764.952 489.121 763.864 488.983 762.777 488.847C761.779 488.721 760.78 488.595 759.833 488.463L758.973 488.34V482.944L759.833 482.822C760.806 482.686 761.833 482.556 762.861 482.426C763.92 482.294 764.98 482.16 765.975 482.02V480.389C764.958 480.243 763.878 480.107 762.797 479.971C761.791 479.845 760.784 479.717 759.833 479.583L758.973 479.461V474.065L759.831 473.943C760.818 473.802 761.861 473.67 762.901 473.54C763.946 473.408 764.992 473.276 765.975 473.136V471.508C764.974 471.365 763.912 471.229 762.847 471.095C761.825 470.967 760.802 470.837 759.833 470.701L758.973 470.579V465.183L759.833 465.061C760.804 464.925 761.833 464.795 762.859 464.667C763.92 464.533 764.98 464.399 765.977 464.257L765.979 462.63C765.004 462.492 763.97 462.36 762.935 462.23C761.885 462.098 760.83 461.964 759.835 461.823L758.975 461.701V456.303L759.835 456.183C760.762 456.055 761.737 455.931 762.713 455.807C763.824 455.667 764.934 455.525 765.977 455.377V453.746C764.988 453.606 763.938 453.472 762.885 453.34C761.851 453.212 760.816 453.08 759.837 452.942L758.977 452.82V448.992H760.974V451.077C761.681 451.173 762.41 451.265 763.135 451.357C764.511 451.529 765.889 451.703 767.127 451.895L767.974 452.025V457.098L767.129 457.228C765.837 457.43 764.399 457.61 762.965 457.792C762.294 457.876 761.625 457.96 760.972 458.046V459.957C761.695 460.055 762.44 460.149 763.183 460.243C764.545 460.415 765.899 460.587 767.127 460.775L767.976 460.903L767.974 465.977L767.127 466.107C765.881 466.301 764.495 466.475 763.107 466.649C762.39 466.74 761.671 466.83 760.972 466.924V468.834C761.669 468.928 762.382 469.018 763.097 469.109C764.487 469.285 765.877 469.461 767.127 469.653L767.974 469.783V474.855L767.127 474.985C765.893 475.177 764.523 475.349 763.153 475.523C762.42 475.615 761.687 475.709 760.972 475.803V477.716C761.653 477.808 762.35 477.896 763.049 477.984C764.455 478.162 765.863 478.34 767.129 478.536L767.974 478.668V483.741L767.125 483.869C765.881 484.061 764.499 484.235 763.113 484.409C762.394 484.501 761.673 484.591 760.974 484.685V486.596C761.647 486.686 762.34 486.772 763.029 486.86C764.441 487.038 765.855 487.218 767.129 487.414L767.974 487.544V492.618L767.127 492.748C765.855 492.944 764.441 493.122 763.029 493.301C762.336 493.387 761.647 493.475 760.972 493.563V495.471C761.679 495.567 762.402 495.658 763.125 495.75C764.505 495.926 765.885 496.1 767.129 496.292L767.976 496.422L767.974 501.494L767.127 501.624C765.883 501.816 764.507 501.99 763.125 502.164C762.402 502.256 761.677 502.348 760.972 502.442V503.411H760.968Z" fill="#EFF3F5"/>
<path fill-rule="evenodd" clip-rule="evenodd" d="M768.127 572.323H766.13L766.132 561.161C765.144 561.02 764.091 560.886 763.038 560.754C762.002 560.626 760.967 560.494 759.989 560.356L759.128 560.234V554.838L759.989 554.716C760.965 554.578 762 554.448 763.028 554.318C764.083 554.186 765.14 554.052 766.13 553.912L766.132 552.283C765.14 552.143 764.085 552.009 763.028 551.875C761.996 551.745 760.965 551.615 759.989 551.477L759.128 551.354V545.958L759.989 545.838C760.937 545.706 761.936 545.58 762.935 545.456C764.021 545.318 765.11 545.18 766.132 545.036V543.403C765.11 543.257 764.021 543.119 762.935 542.983C761.936 542.857 760.937 542.731 759.991 542.599L759.13 542.477V537.077L759.991 536.955C760.963 536.818 761.99 536.688 763.018 536.558C764.077 536.426 765.138 536.292 766.132 536.152V534.786H768.129V537.875L767.281 538.003C766.036 538.195 764.654 538.369 763.268 538.543C762.549 538.635 761.828 538.725 761.129 538.819V540.73C761.802 540.82 762.495 540.906 763.184 540.994C764.596 541.172 766.01 541.352 767.285 541.548L768.129 541.678V546.753L767.283 546.883C766.01 547.079 764.596 547.257 763.184 547.435C762.491 547.521 761.802 547.609 761.127 547.697V549.606C761.834 549.702 762.557 549.792 763.28 549.884C764.66 550.06 766.04 550.234 767.285 550.426L768.131 550.556L768.129 555.628L767.283 555.758C766.038 555.95 764.662 556.124 763.28 556.299C762.557 556.391 761.832 556.483 761.127 556.577V558.487C761.834 558.583 762.563 558.676 763.29 558.766C764.666 558.94 766.044 559.114 767.285 559.306L768.131 559.436L768.127 572.323Z" fill="#EFF3F5"/>
<path fill-rule="evenodd" clip-rule="evenodd" d="M696.119 305.556H694.122V304.794C693.399 304.698 692.654 304.604 691.911 304.508C690.549 304.336 689.195 304.164 687.967 303.978L687.118 303.85L687.12 298.776L687.967 298.645C689.213 298.451 690.599 298.277 691.987 298.103C692.704 298.013 693.423 297.923 694.122 297.829V295.918C693.425 295.824 692.712 295.734 691.997 295.644C690.607 295.468 689.217 295.292 687.967 295.1L687.12 294.97V289.898L687.967 289.768C689.201 289.576 690.571 289.404 691.941 289.23C692.674 289.138 693.407 289.046 694.122 288.949V287.037C693.441 286.947 692.744 286.859 692.045 286.769C690.639 286.593 689.231 286.414 687.965 286.216L687.12 286.084V281.012L687.969 280.882C689.213 280.692 690.595 280.516 691.981 280.342C692.7 280.252 693.421 280.16 694.12 280.068V278.157C693.447 278.069 692.754 277.981 692.065 277.893C690.653 277.715 689.239 277.537 687.965 277.339L687.12 277.207V272.133L687.967 272.002C689.239 271.806 690.653 271.628 692.065 271.45C692.758 271.364 693.447 271.276 694.122 271.186V269.277C693.415 269.183 692.692 269.091 691.969 268.999C690.589 268.825 689.209 268.651 687.965 268.459L687.118 268.329L687.12 263.255L687.967 263.125C689.211 262.933 690.587 262.759 691.969 262.585C692.99 262.457 694.012 262.326 694.983 262.19L695.015 262.417H696.121V264.051L695.261 264.173C694.284 264.311 693.249 264.441 692.221 264.571C691.166 264.703 690.11 264.838 689.119 264.978L689.117 266.606C690.11 266.746 691.164 266.88 692.221 267.014C693.253 267.144 694.284 267.275 695.261 267.413L696.121 267.535V272.931L695.261 273.051C694.312 273.183 693.313 273.309 692.315 273.435C691.228 273.571 690.14 273.709 689.117 273.853V275.486C690.14 275.632 691.228 275.77 692.315 275.906C693.313 276.032 694.312 276.158 695.259 276.29L696.119 276.41V281.809L695.259 281.929C694.286 282.065 693.259 282.195 692.231 282.325C691.172 282.459 690.112 282.591 689.117 282.733V284.364C690.134 284.51 691.214 284.646 692.295 284.782C693.301 284.908 694.308 285.036 695.259 285.17L696.119 285.292V290.688L695.261 290.81C694.274 290.95 693.23 291.082 692.191 291.212C691.146 291.344 690.1 291.477 689.117 291.617V293.247C690.118 293.389 691.18 293.523 692.245 293.659C693.267 293.787 694.29 293.918 695.259 294.054L696.119 294.176V299.572L695.259 299.694C694.288 299.83 693.259 299.96 692.233 300.09C691.172 300.224 690.112 300.356 689.115 300.5L689.113 302.129C690.088 302.265 691.123 302.397 692.157 302.529C693.208 302.661 694.262 302.795 695.257 302.935L696.117 303.057V305.556H696.119Z" fill="#EFF3F5"/>
<path fill-rule="evenodd" clip-rule="evenodd" d="M688.958 229.964H686.961V226.877L687.81 226.746C689.054 226.556 690.436 226.38 691.822 226.206C692.541 226.116 693.262 226.024 693.961 225.932V224.021C693.288 223.933 692.595 223.845 691.906 223.757C690.494 223.579 689.08 223.401 687.806 223.203L686.961 223.071V217.997L687.808 217.867C689.08 217.671 690.494 217.493 691.906 217.315C692.599 217.229 693.288 217.14 693.963 217.05V215.142C693.256 215.048 692.533 214.956 691.81 214.864C690.43 214.689 689.05 214.515 687.806 214.323L686.959 214.193L686.961 209.119L687.808 208.989C689.052 208.797 690.428 208.623 691.81 208.449C692.533 208.357 693.258 208.267 693.963 208.171V206.26C693.256 206.166 692.527 206.074 691.8 205.982C690.424 205.808 689.046 205.634 687.806 205.444L686.959 205.314L686.961 192.428H688.958L688.956 203.591C689.945 203.731 690.997 203.863 692.05 203.997C693.086 204.127 694.121 204.259 695.1 204.397L695.96 204.519V209.915L695.1 210.038C694.123 210.176 693.088 210.306 692.06 210.436C691.005 210.568 689.949 210.702 688.958 210.842L688.956 212.471C689.949 212.611 691.003 212.745 692.06 212.879C693.092 213.009 694.123 213.139 695.1 213.277L695.96 213.399V218.795L695.1 218.915C694.151 219.047 693.152 219.173 692.154 219.299C691.067 219.435 689.979 219.573 688.956 219.718V221.35C689.979 221.496 691.067 221.634 692.154 221.77C693.152 221.896 694.151 222.023 695.098 222.155L695.958 222.275V227.673L695.098 227.793C694.125 227.929 693.098 228.059 692.07 228.189C691.011 228.323 689.951 228.455 688.956 228.597V229.964H688.958Z" fill="#EFF3F5"/>
<path fill-rule="evenodd" clip-rule="evenodd" d="M819.036 843.277H742.152V754.858L742.626 754.564C768.391 738.612 792.603 719.948 814.59 699.093L814.88 698.819H819.036V843.277ZM744.15 841.276H817.039V700.82H815.675C793.801 721.531 769.741 740.08 744.15 755.971V841.276Z" fill="#EFF3F5"/>
<path fill-rule="evenodd" clip-rule="evenodd" d="M540.361 793.676H482.189V697.433H540.361V793.676ZM486.184 789.675H536.367V701.434H486.184V789.675Z" fill="#EFF3F5"/>
<path fill-rule="evenodd" clip-rule="evenodd" d="M540.558 58.6525H482.386V-37.5913H540.558V58.6525ZM486.38 54.6505H536.563V-33.59H486.38V54.6505Z" fill="#EFF3F5"/>
<path fill-rule="evenodd" clip-rule="evenodd" d="M84.8946 7.51181H26.7227V-88.73H84.8946V7.51181ZM30.7168 3.50968H80.8999V-84.7288H30.7168V3.50968Z" fill="#EFF3F5"/>
<path fill-rule="evenodd" clip-rule="evenodd" d="M83.9532 845.946H25.7812V749.705H83.9532V845.946ZM29.7755 841.944H79.9587V753.706H29.7755V841.944Z" fill="#EFF3F5"/>
<path fill-rule="evenodd" clip-rule="evenodd" d="M696.339 368.454L704.41 376.54L702.998 377.954L694.927 369.869L696.339 368.454Z" fill="#EFF3F5"/>
<path fill-rule="evenodd" clip-rule="evenodd" d="M698.192 363.068L711.598 376.499L710.185 377.914L696.779 364.483L698.192 363.068Z" fill="#EFF3F5"/>
<path fill-rule="evenodd" clip-rule="evenodd" d="M701.235 358.745L718.68 376.217L717.268 377.632L699.823 360.16L701.235 358.745Z" fill="#EFF3F5"/>
<path fill-rule="evenodd" clip-rule="evenodd" d="M705.179 355.522L726.103 376.485L724.691 377.9L703.767 356.937L705.179 355.522Z" fill="#EFF3F5"/>
<path fill-rule="evenodd" clip-rule="evenodd" d="M708.636 351.703L733.21 376.325L731.797 377.74L707.224 353.118L708.636 351.703Z" fill="#EFF3F5"/>
<path fill-rule="evenodd" clip-rule="evenodd" d="M713.263 349.016L740.543 376.345L739.13 377.76L711.851 350.43L713.263 349.016Z" fill="#EFF3F5"/>
<path fill-rule="evenodd" clip-rule="evenodd" d="M718.057 346.521L747.838 376.356L746.425 377.771L716.645 347.936L718.057 346.521Z" fill="#EFF3F5"/>
<path fill-rule="evenodd" clip-rule="evenodd" d="M724.495 345.678L755.384 376.623L753.972 378.038L723.083 347.093L724.495 345.678Z" fill="#EFF3F5"/>
<path fill-rule="evenodd" clip-rule="evenodd" d="M731.583 345.55L762.607 376.63L761.194 378.045L730.171 346.965L731.583 345.55Z" fill="#EFF3F5"/>
<path fill-rule="evenodd" clip-rule="evenodd" d="M740.209 346.921L762.916 369.67L761.504 371.085L738.797 348.336L740.209 346.921Z" fill="#EFF3F5"/>
<path fill-rule="evenodd" clip-rule="evenodd" d="M756.388 386.238L762.258 392.12L760.846 393.534L754.976 387.653L756.388 386.238Z" fill="#EFF3F5"/>
<path fill-rule="evenodd" clip-rule="evenodd" d="M749.285 386.403L760.382 397.521L758.97 398.935L747.873 387.818L749.285 386.403Z" fill="#EFF3F5"/>
<path fill-rule="evenodd" clip-rule="evenodd" d="M742.222 386.592L757.351 401.745L755.939 403.16L740.81 388.007L742.222 386.592Z" fill="#EFF3F5"/>
<path fill-rule="evenodd" clip-rule="evenodd" d="M734.705 386.348L753.821 405.499L752.408 406.913L733.293 387.763L734.705 386.348Z" fill="#EFF3F5"/>
<path fill-rule="evenodd" clip-rule="evenodd" d="M727.712 386.678L749.87 408.882L748.457 410.297L726.3 388.093L727.712 386.678Z" fill="#EFF3F5"/>
<path fill-rule="evenodd" clip-rule="evenodd" d="M720.416 386.593L745.45 411.673L744.038 413.088L719.004 388.008L720.416 386.593Z" fill="#EFF3F5"/>
<path fill-rule="evenodd" clip-rule="evenodd" d="M712.995 386.399L740.254 413.708L738.841 415.122L711.583 387.814L712.995 386.399Z" fill="#EFF3F5"/>
<path fill-rule="evenodd" clip-rule="evenodd" d="M705.727 386.4L734.167 414.893L732.755 416.308L704.314 387.815L705.727 386.4Z" fill="#EFF3F5"/>
<path fill-rule="evenodd" clip-rule="evenodd" d="M698.557 386.529L727.003 415.027L725.591 416.442L697.145 387.944L698.557 386.529Z" fill="#EFF3F5"/>
<path fill-rule="evenodd" clip-rule="evenodd" d="M696.396 391.643L717.795 413.081L716.383 414.496L694.983 393.058L696.396 391.643Z" fill="#EFF3F5"/>
</svg>
