<svg width="24" height="24" viewBox="0 0 24 24" fill="none" xmlns="http://www.w3.org/2000/svg">
<path d="M4 5C2.89688 5 2 5.93424 2 7.08333V17.9167C2 19.0658 2.89688 20 4 20H20C21.1031 20 22 19.0658 22 17.9167V7.08333C22 5.93424 21.1031 5 20 5H4ZM11.2 8.33333H12.4C14.6094 8.33333 16.4 10.1986 16.4 12.5C16.4 14.8014 14.6094 16.6667 12.4 16.6667H11.2C8.99375 16.6667 7.2 14.7982 7.2 12.5C7.2 10.2018 8.99375 8.33333 11.2 8.33333ZM11.2 9.16667C9.43594 9.16667 8 10.6624 8 12.5C8 14.3376 9.43594 15.8333 11.2 15.8333C12.9641 15.8333 14.4 14.3376 14.4 12.5C14.4 10.6624 12.9641 9.16667 11.2 9.16667ZM10.5375 10.5469V14.4531C9.75938 14.1683 9.2 13.4082 9.2 12.5C9.2 11.5918 9.75938 10.8317 10.5375 10.5469ZM11.8625 10.5469C12.6406 10.8317 13.2 11.5918 13.2 12.5C13.2 13.4082 12.6406 14.1683 11.8625 14.4531V10.5469Z" fill="white"/>
</svg>
