<svg width="24" height="24" viewBox="0 0 24 24" fill="none" xmlns="http://www.w3.org/2000/svg">
<rect x="2" y="4" width="20" height="16" rx="2" fill="#FCFCFC"/>
<path fill-rule="evenodd" clip-rule="evenodd" d="M15.533 12.4671H15.5417H15.5586H15.5756H15.5925H15.6094H15.6263H15.6432H15.6601H15.6771H15.694H15.7109H15.7278H15.7447H15.7616H15.7786H15.7955H15.8124H15.8293H15.8462H15.8631H15.8801H15.897H15.9139H15.9308H15.9477H15.9646H15.9816H15.9985H16.0154H16.0323H16.0492H16.0662H16.0831H16.1H16.1169H16.1338H16.1507H16.1677H16.1846H16.2015H16.2184H16.2353H16.2522H16.2692H16.2861H16.303H16.3199H16.3368H16.3537H16.3707H16.3876H16.4045H16.4214H16.4383H16.4552H16.4722H16.4891H16.506H16.5229H16.5398H16.5539L16.5567 12.4672C16.562 12.4673 16.5677 12.4675 16.5737 12.4678C16.5791 12.4681 16.5848 12.4685 16.5906 12.4689C16.5961 12.4694 16.6018 12.4698 16.6075 12.4703C16.6132 12.4709 16.6189 12.4714 16.6244 12.4721C16.6302 12.4727 16.6359 12.4734 16.6413 12.4741C16.6474 12.4749 16.6531 12.4758 16.6582 12.4767C16.662 12.4773 16.6654 12.4779 16.6685 12.4786L16.6752 12.4801C16.6808 12.4814 16.6865 12.4828 16.6921 12.4844C16.6977 12.486 16.7034 12.4876 16.709 12.4894C16.7147 12.4912 16.7203 12.4931 16.7259 12.4952C16.7316 12.4972 16.7372 12.4994 16.7428 12.5017C16.7485 12.504 16.7542 12.5065 16.7597 12.509C16.7654 12.5116 16.7711 12.5143 16.7767 12.5172C16.7824 12.5201 16.788 12.5231 16.7936 12.5262C16.7993 12.5294 16.8049 12.5328 16.8105 12.5363C16.8162 12.5398 16.8219 12.5435 16.8274 12.5473C16.8331 12.5512 16.8388 12.5552 16.8443 12.5594C16.8501 12.5637 16.8557 12.5682 16.8612 12.5728C16.867 12.5776 16.8726 12.5826 16.8782 12.5876C16.8839 12.5929 16.8896 12.5984 16.8951 12.604C16.9009 12.6099 16.9065 12.616 16.912 12.6222C16.9178 12.6288 16.9235 12.6356 16.9289 12.6426C16.9348 12.6501 16.9404 12.6579 16.9458 12.6658C16.9518 12.6745 16.9574 12.6834 16.9627 12.6925C16.9688 12.7029 16.9744 12.7135 16.9797 12.7244C16.9859 12.7373 16.9915 12.7506 16.9966 12.7643C17.0034 12.7827 17.009 12.8018 17.0135 12.8214C17.0212 12.8556 17.0254 12.8915 17.0254 12.929C17.0254 12.9667 17.0213 13.0028 17.0135 13.037C17.009 13.0568 17.0034 13.0759 16.9966 13.0943C16.9915 13.1081 16.9859 13.1214 16.9797 13.1343C16.9744 13.1452 16.9688 13.1559 16.9627 13.1662C16.9574 13.1754 16.9518 13.1843 16.9458 13.193C16.9404 13.2009 16.9348 13.2086 16.9289 13.2162C16.9235 13.2231 16.9178 13.2299 16.912 13.2366C16.9065 13.2428 16.9009 13.2489 16.8951 13.2548C16.8896 13.2604 16.8839 13.2658 16.8782 13.2711C16.8726 13.2762 16.867 13.2811 16.8612 13.2858C16.8557 13.2904 16.8501 13.2949 16.8443 13.2992C16.8388 13.3034 16.8331 13.3074 16.8274 13.3113C16.8219 13.3151 16.8162 13.3188 16.8105 13.3223C16.8049 13.3257 16.7993 13.3291 16.7936 13.3323C16.788 13.3354 16.7824 13.3384 16.7767 13.3413C16.7711 13.3441 16.7654 13.3468 16.7597 13.3494C16.7542 13.3519 16.7485 13.3543 16.7428 13.3566C16.7372 13.3589 16.7316 13.3611 16.7259 13.3631C16.7203 13.3651 16.7147 13.367 16.709 13.3688C16.7034 13.3705 16.6977 13.3722 16.6921 13.3737C16.6865 13.3752 16.6808 13.3766 16.6752 13.378L16.6685 13.3795C16.6654 13.3802 16.662 13.3808 16.6582 13.3815C16.6531 13.3824 16.6474 13.3833 16.6413 13.3841C16.6359 13.3848 16.6302 13.3855 16.6244 13.3862C16.6189 13.3868 16.6132 13.3874 16.6075 13.3879C16.6018 13.3884 16.5961 13.3888 16.5906 13.3892C16.5848 13.3897 16.5791 13.39 16.5737 13.3903C16.5677 13.3906 16.562 13.3908 16.5567 13.391L16.5477 13.3911H16.5398H16.5229H16.506H16.4891H16.4722H16.4552H16.4383H16.4214H16.4045H16.3876H16.3707H16.3537H16.3368H16.3199H16.303H16.2861H16.2692H16.2522H16.2353H16.2184H16.2015H16.1846H16.1677H16.1507H16.1338H16.1169H16.1H16.0831H16.0662H16.0492H16.0323H16.0154H15.9985H15.9816H15.9646H15.9477H15.9308H15.9139H15.897H15.8801H15.8631H15.8462H15.8293H15.8124H15.7955H15.7786H15.7616H15.7447H15.7278H15.7109H15.694H15.6771H15.6601H15.6432H15.6263H15.6094H15.5925H15.5756H15.5586H15.5417H15.533V12.4671ZM16.8951 11.4213C16.9019 11.4524 16.9056 11.4852 16.9056 11.5198C16.9056 11.5543 16.9019 11.5872 16.8951 11.6181C16.8908 11.6381 16.8851 11.6572 16.8782 11.6755C16.8732 11.6889 16.8675 11.7019 16.8613 11.7144C16.8561 11.7249 16.8504 11.7351 16.8444 11.7449C16.839 11.7537 16.8334 11.7621 16.8275 11.7703C16.8221 11.7778 16.8164 11.7851 16.8106 11.7921C16.8051 11.7987 16.7995 11.805 16.7936 11.8112C16.7882 11.817 16.7825 11.8226 16.7767 11.8281C16.7712 11.8333 16.7656 11.8383 16.7598 11.8432C16.7543 11.8478 16.7486 11.8523 16.7429 11.8567C16.7374 11.8609 16.7317 11.8649 16.726 11.8688C16.7204 11.8726 16.7148 11.8763 16.7091 11.8798C16.7035 11.8832 16.6978 11.8865 16.6921 11.8896C16.6866 11.8927 16.6809 11.8957 16.6752 11.8985C16.6696 11.9013 16.664 11.9039 16.6583 11.9065C16.6527 11.909 16.6471 11.9113 16.6414 11.9136C16.6358 11.9158 16.6302 11.9178 16.6245 11.9198C16.6189 11.9218 16.6132 11.9236 16.6076 11.9253C16.602 11.927 16.5963 11.9286 16.5906 11.9301C16.585 11.9315 16.5794 11.9329 16.5737 11.9341C16.5681 11.9353 16.5625 11.9364 16.5568 11.9374L16.5527 11.9382C16.5494 11.9388 16.545 11.9394 16.5399 11.9401C16.5349 11.9407 16.5292 11.9413 16.523 11.942C16.5176 11.9425 16.5119 11.943 16.5061 11.9435C16.5005 11.944 16.4948 11.9444 16.4891 11.9448C16.4835 11.9451 16.4778 11.9454 16.4722 11.9457C16.4664 11.9459 16.4607 11.9461 16.4553 11.9461L16.4526 11.9461H16.4384H16.4215H16.4046H16.3877H16.3707H16.3538H16.3369H16.32H16.3031H16.2862H16.2692H16.2523H16.2354H16.2185H16.2016H16.1847H16.1677H16.1508H16.1339H16.117H16.1001H16.0832H16.0662H16.0493H16.0324H16.0155H15.9986H15.9817H15.9647H15.9478H15.9309H15.914H15.8971H15.8802H15.8633H15.8463H15.8294H15.8125H15.7956H15.7787H15.7618H15.7448H15.7279H15.711H15.6941H15.6772H15.6603H15.6433H15.6264H15.6095H15.5926H15.5757H15.5588H15.5418H15.533V11.0934H15.5418H15.5588H15.5757H15.5926H15.6095H15.6264H15.6433H15.6603H15.6772H15.6941H15.711H15.7279H15.7448H15.7618H15.7787H15.7956H15.8125H15.8294H15.8463H15.8633H15.8802H15.8971H15.914H15.9309H15.9478H15.9647H15.9817H15.9986H16.0155H16.0324H16.0493H16.0662H16.0832H16.1001H16.117H16.1339H16.1508H16.1677H16.1847H16.2016H16.2185H16.2354H16.2523H16.2692H16.2862H16.3031H16.32H16.3369H16.3538H16.3707H16.3877H16.4046H16.4215H16.4384H16.4553H16.4624L16.4722 11.0938C16.4778 11.094 16.4835 11.0943 16.4891 11.0947C16.4948 11.0951 16.5005 11.0955 16.5061 11.0959C16.5119 11.0964 16.5176 11.0969 16.523 11.0974C16.5292 11.098 16.5349 11.0987 16.5399 11.0992C16.545 11.0998 16.5494 11.1004 16.5527 11.1008L16.5568 11.1016C16.5625 11.1026 16.5681 11.1037 16.5737 11.105C16.5794 11.1062 16.585 11.1076 16.5906 11.1091C16.5963 11.1106 16.602 11.1121 16.6076 11.1139C16.6132 11.1156 16.6189 11.1174 16.6245 11.1194C16.6302 11.1214 16.6358 11.1235 16.6414 11.1257C16.6471 11.1279 16.6527 11.1303 16.6583 11.1328C16.664 11.1354 16.6696 11.138 16.6752 11.1408C16.6809 11.1436 16.6866 11.1466 16.6921 11.1497C16.6978 11.1528 16.7035 11.1561 16.7091 11.1596C16.7148 11.1631 16.7204 11.1667 16.726 11.1705C16.7317 11.1744 16.7374 11.1785 16.7429 11.1827C16.7486 11.1871 16.7543 11.1916 16.7598 11.1962C16.7656 11.2011 16.7712 11.2061 16.7767 11.2113C16.7825 11.2168 16.7882 11.2224 16.7936 11.2282C16.7995 11.2343 16.8051 11.2407 16.8106 11.2473C16.8164 11.2543 16.8221 11.2616 16.8275 11.2691C16.8334 11.2773 16.839 11.2857 16.8444 11.2945C16.8504 11.3043 16.8561 11.3145 16.8613 11.325C16.8675 11.3375 16.8732 11.3505 16.8782 11.3639C16.8851 11.3822 16.8908 11.4014 16.8951 11.4213ZM18.993 7H19L19 15.757C19 15.8093 18.9975 15.8611 18.993 15.9122C18.9891 15.9572 18.9834 16.0018 18.9761 16.0457C18.9712 16.0753 18.9656 16.1046 18.9592 16.1336C18.954 16.1572 18.9484 16.1807 18.9423 16.2039C18.937 16.224 18.9313 16.2439 18.9254 16.2636C18.92 16.2815 18.9144 16.2993 18.9084 16.317C18.903 16.3329 18.8974 16.3488 18.8915 16.3646C18.8861 16.3793 18.8804 16.3939 18.8746 16.4084C18.8691 16.422 18.8635 16.4356 18.8577 16.449C18.8522 16.4618 18.8465 16.4745 18.8408 16.4871C18.8353 16.4991 18.8296 16.511 18.8239 16.5228C18.8183 16.5342 18.8127 16.5455 18.8069 16.5567C18.8014 16.5674 18.7958 16.5781 18.79 16.5888C18.7845 16.599 18.7788 16.6091 18.7731 16.6192C18.7676 16.6289 18.7619 16.6386 18.7562 16.6483C18.7506 16.6576 18.745 16.667 18.7393 16.6763C18.7337 16.6853 18.7281 16.6943 18.7223 16.7032C18.7168 16.7118 18.7111 16.7204 18.7054 16.7289C18.6999 16.7372 18.6942 16.7454 18.6885 16.7536C18.6829 16.7617 18.6773 16.7697 18.6716 16.7777C18.666 16.7855 18.6604 16.7932 18.6547 16.8009C18.6491 16.8083 18.6434 16.8157 18.6377 16.8231C18.6321 16.8304 18.6265 16.8376 18.6208 16.8448C18.6152 16.8519 18.6096 16.8589 18.6039 16.8658C18.5983 16.8726 18.5926 16.8793 18.587 16.8861C18.5814 16.8927 18.5758 16.8994 18.5701 16.9059C18.5645 16.9123 18.5588 16.9186 18.5531 16.925C18.5475 16.9312 18.5419 16.9374 18.5362 16.9436C18.5306 16.9497 18.525 16.9557 18.5193 16.9617C18.5137 16.9676 18.508 16.9734 18.5024 16.9792C18.4968 16.985 18.4912 16.9908 18.4855 16.9965C18.4799 17.002 18.4742 17.0075 18.4685 17.013C18.4629 17.0184 18.4573 17.0239 18.4516 17.0293C18.446 17.0346 18.4404 17.0398 18.4347 17.045C18.4291 17.0502 18.4234 17.0553 18.4178 17.0604C18.4122 17.0654 18.4065 17.0704 18.4009 17.0754C18.3953 17.0803 18.3896 17.0851 18.3839 17.09C18.3783 17.0948 18.3727 17.0995 18.367 17.1043C18.3614 17.1089 18.3558 17.1135 18.3501 17.1181C18.3445 17.1226 18.3389 17.1272 18.3332 17.1317C18.3276 17.1361 18.3219 17.1404 18.3163 17.1448C18.3106 17.1491 18.305 17.1535 18.2993 17.1577C18.2938 17.1619 18.2881 17.1661 18.2824 17.1702C18.2768 17.1743 18.2712 17.1785 18.2655 17.1825C18.2599 17.1866 18.2542 17.1904 18.2486 17.1944C18.2429 17.1983 18.2373 17.2023 18.2317 17.2061C18.2261 17.2099 18.2204 17.2136 18.2147 17.2174C18.2091 17.2211 18.2035 17.2249 18.1978 17.2285C18.1922 17.2322 18.1866 17.2357 18.1809 17.2393C18.1753 17.2428 18.1696 17.2464 18.164 17.2498C18.1584 17.2533 18.1527 17.2567 18.1471 17.2601L18.1301 17.2701C18.1245 17.2734 18.1189 17.2766 18.1132 17.2799C18.1076 17.2831 18.102 17.2862 18.0963 17.2893C18.0907 17.2924 18.0851 17.2956 18.0794 17.2987C18.0738 17.3017 18.0681 17.3046 18.0625 17.3076C18.0568 17.3105 18.0512 17.3136 18.0455 17.3165C18.0399 17.3194 18.0343 17.3221 18.0286 17.3249C18.023 17.3277 18.0174 17.3306 18.0117 17.3333C18.0061 17.336 18.0004 17.3387 17.9948 17.3414L17.9779 17.3493L17.961 17.3569C17.9553 17.3594 17.9497 17.3619 17.944 17.3643C17.9384 17.3668 17.9328 17.3693 17.9271 17.3716C17.9215 17.374 17.9158 17.3762 17.9102 17.3786C17.9046 17.3809 17.8989 17.3832 17.8933 17.3855C17.8877 17.3877 17.882 17.3898 17.8764 17.392C17.8707 17.3941 17.8651 17.3963 17.8594 17.3984L17.8425 17.4046C17.8369 17.4067 17.8312 17.4086 17.8256 17.4106C17.82 17.4126 17.8144 17.4146 17.8087 17.4165C17.8031 17.4184 17.7974 17.4202 17.7918 17.422L17.7748 17.4275C17.7692 17.4293 17.7636 17.431 17.7579 17.4327L17.741 17.4377C17.7354 17.4394 17.7297 17.4411 17.7241 17.4427C17.7185 17.4443 17.7128 17.4457 17.7072 17.4473C17.7015 17.4488 17.6959 17.4504 17.6902 17.4518L17.6733 17.4561L17.6564 17.4602L17.6395 17.4642C17.6339 17.4655 17.6282 17.4667 17.6226 17.4679C17.6169 17.4692 17.6113 17.4704 17.6056 17.4716L17.5887 17.475L17.5718 17.4782C17.5662 17.4793 17.5605 17.4804 17.5549 17.4814C17.5493 17.4824 17.5436 17.4833 17.538 17.4842L17.521 17.487L17.5041 17.4895L17.4872 17.4919C17.4816 17.4927 17.476 17.4936 17.4703 17.4943C17.4647 17.495 17.459 17.4956 17.4534 17.4962C17.4477 17.4969 17.4421 17.4976 17.4364 17.4982C17.4308 17.4988 17.4252 17.4994 17.4195 17.4999C17.4139 17.5005 17.4082 17.5009 17.4026 17.5014C17.397 17.5019 17.3913 17.5025 17.3857 17.5029C17.3801 17.5034 17.3744 17.5037 17.3688 17.5041L17.3518 17.5052C17.3462 17.5055 17.3406 17.5059 17.3349 17.5062C17.3293 17.5065 17.3236 17.5066 17.318 17.5068L17.3011 17.5075L17.2842 17.5079C17.2785 17.508 17.2729 17.508 17.2673 17.5081L17.2503 17.5083L17.2468 17.5084H17.2334H17.2165H17.1996H17.1827H17.1657H17.1488H17.1319H17.115H17.0981H17.0811H17.0642H17.0473H17.0304H17.0135H16.9965H16.9796H16.9627H16.9458H16.9289H16.9119H16.895H16.8781H16.8612H16.8443H16.8274H16.8104H16.7935H16.7766H16.7597H16.7428H16.7258H16.7089H16.692H16.6751H16.6581H16.6412H16.6243H16.6074H16.5905H16.5736H16.5566H16.5397H16.5228H16.5059H16.489H16.472H16.4551H16.4382H16.4213H16.4044H16.3874H16.3705H16.3536H16.3367H16.3198H16.3028H16.2859H16.269H16.2521H16.2352H16.2182H16.2013H16.1844H16.1675H16.1506H16.1337H16.1167H16.0998H16.0829H16.066H16.0491H16.0321H16.0152H15.9983H15.9814H15.9645H15.9475H15.9306H15.9137H15.8968H15.8798H15.8629H15.846H15.8291H15.8122H15.7953H15.7783H15.7614H15.7445H15.7276H15.7107H15.6937H15.6768H15.6599H15.643H15.6261H15.6091H15.5922H15.5753H15.5584H15.5415H15.5245H15.5076H15.4907H15.4738H15.4569H15.4399H15.423H15.4061H15.3892H15.3723H15.3554H15.3384H15.3215H15.3046H15.2877H15.2708H15.2538H15.2369H15.22H15.2031H15.1862H15.1692H15.1523H15.1354H15.1185H15.1016H15.0846H15.0677H15.0508H15.0339H15.017H15H14.9831H14.9662H14.9493H14.9324H14.9154H14.8985H14.8816H14.8647H14.8478H14.8308H14.8139H14.797H14.7801H14.7632H14.7462H14.7293H14.7124H14.6759V13.9378H14.7124H14.7293H14.7462H14.7632H14.7801H14.797H14.8139H14.8308H14.8478H14.8647H14.8816H14.8985H14.9154H14.9324H14.9493H14.9662H14.9831H15H15.017H15.0339H15.0508H15.0677H15.0846H15.1016H15.1185H15.1354H15.1523H15.1692H15.1862H15.2031H15.22H15.2369H15.2538H15.2708H15.2877H15.3046H15.3215H15.3384H15.3554H15.3723H15.3892H15.4061H15.423H15.4399H15.4569H15.4738H15.4907H15.5076H15.5245H15.5415H15.5584H15.5753H15.5922H15.6091H15.6261H15.643H15.6599H15.6768H15.6937H15.7107H15.7276H15.7445H15.7614H15.7783H15.7953H15.8122H15.8291H15.846H15.8629H15.8798H15.8968H15.9137H15.9306H15.9475H15.9645H15.9814H15.9983H16.0152H16.0321H16.0491H16.066H16.0829H16.0998H16.1167H16.1337H16.1506H16.1675H16.1844H16.2013H16.2182H16.2352H16.2521H16.269H16.2859H16.3028H16.3198H16.3367H16.3536H16.3705H16.3874H16.4044H16.4213H16.4382H16.4551H16.472H16.489H16.5059H16.5228H16.5397H16.5566H16.5736H16.5905H16.6074H16.6243H16.6412H16.6581H16.6751H16.692H16.7089H16.7258H16.7428H16.7597H16.7766H16.7935H16.8104H16.8274H16.8443H16.8612H16.8781H16.895H16.9119H16.9289H16.9458H16.9627H16.9796H16.9965H17.0135H17.0304H17.0473H17.0642H17.0811H17.0981H17.115H17.1319H17.1488H17.1657H17.1827H17.1996H17.2165H17.2334H17.2503H17.2673H17.2842H17.3011H17.318H17.3349H17.3518H17.3688H17.3857H17.3947L17.4026 13.9378L17.4195 13.9376L17.4364 13.9373C17.4421 13.9371 17.4478 13.9371 17.4534 13.9369C17.459 13.9367 17.4646 13.9364 17.4703 13.9362L17.4872 13.9354L17.5041 13.9343L17.521 13.9332L17.538 13.9319L17.5549 13.9303C17.5605 13.9298 17.5662 13.9293 17.5718 13.9287C17.5775 13.9281 17.5831 13.9274 17.5887 13.9268L17.6056 13.9247C17.6113 13.924 17.6169 13.9233 17.6226 13.9225C17.6282 13.9217 17.6339 13.9208 17.6395 13.92C17.6451 13.9191 17.6508 13.9183 17.6564 13.9174L17.6733 13.9145L17.6902 13.9115C17.6959 13.9104 17.7016 13.9094 17.7072 13.9083C17.7128 13.9072 17.7185 13.906 17.7241 13.9048L17.741 13.9012C17.7467 13.8999 17.7523 13.8986 17.7579 13.8973C17.7636 13.896 17.7692 13.8946 17.7748 13.8932C17.7805 13.8918 17.7861 13.8903 17.7918 13.8889C17.7974 13.8874 17.8031 13.8859 17.8087 13.8843C17.8143 13.8828 17.82 13.8811 17.8256 13.8795C17.8313 13.8779 17.8369 13.8762 17.8425 13.8745L17.8594 13.8692C17.8651 13.8674 17.8707 13.8655 17.8764 13.8636C17.882 13.8617 17.8877 13.8598 17.8933 13.8578C17.8989 13.8558 17.9046 13.8539 17.9102 13.8518C17.9159 13.8497 17.9215 13.8475 17.9271 13.8454C17.9328 13.8432 17.9384 13.841 17.944 13.8387C17.9497 13.8364 17.9554 13.8342 17.961 13.8318C17.9666 13.8294 17.9723 13.827 17.9779 13.8245C17.9835 13.822 17.9892 13.8195 17.9948 13.8169C18.0005 13.8143 18.0061 13.8117 18.0117 13.809C18.0174 13.8063 18.023 13.8036 18.0286 13.8008C18.0343 13.7979 18.0399 13.795 18.0455 13.7921C18.0512 13.7892 18.0569 13.7861 18.0625 13.7831C18.0682 13.78 18.0738 13.7768 18.0794 13.7737C18.0851 13.7704 18.0907 13.7672 18.0963 13.7638C18.102 13.7605 18.1077 13.7571 18.1132 13.7536C18.1189 13.7501 18.1246 13.7465 18.1301 13.7429C18.1359 13.7392 18.1415 13.7354 18.1471 13.7316C18.1528 13.7278 18.1584 13.7238 18.164 13.7199C18.1697 13.7158 18.1753 13.7117 18.1809 13.7076C18.1866 13.7034 18.1923 13.6991 18.1978 13.6947C18.2035 13.6903 18.2092 13.6858 18.2147 13.6812C18.2205 13.6766 18.2261 13.6719 18.2317 13.6671C18.2374 13.6622 18.243 13.6572 18.2486 13.6522C18.2543 13.647 18.2599 13.6417 18.2655 13.6364C18.2712 13.631 18.2769 13.6254 18.2824 13.6198C18.2882 13.614 18.2938 13.6082 18.2993 13.6022C18.3051 13.5961 18.3107 13.5899 18.3163 13.5836C18.322 13.577 18.3277 13.5704 18.3332 13.5637C18.339 13.5567 18.3446 13.5496 18.3501 13.5425C18.3559 13.535 18.3615 13.5274 18.367 13.5197C18.3728 13.5115 18.3784 13.5032 18.3839 13.4949C18.3898 13.486 18.3954 13.477 18.4009 13.4679C18.4067 13.4581 18.4124 13.4481 18.4178 13.4381C18.4237 13.4271 18.4293 13.4161 18.4347 13.4048C18.4407 13.3923 18.4463 13.3795 18.4516 13.3665C18.4577 13.3517 18.4634 13.3366 18.4685 13.3213C18.4749 13.3024 18.4805 13.2832 18.4855 13.2636C18.4927 13.2349 18.4983 13.2055 18.5024 13.1754C18.5073 13.1388 18.5099 13.1013 18.5099 13.0627C18.5099 13.0251 18.5073 12.9886 18.5024 12.9531C18.4983 12.924 18.4927 12.8956 18.4855 12.8679C18.4805 12.8491 18.4749 12.8306 18.4685 12.8125C18.4634 12.7976 18.4577 12.7829 18.4516 12.7686C18.4463 12.7561 18.4407 12.7438 18.4347 12.7318C18.4293 12.7209 18.4237 12.7102 18.4178 12.6996C18.4123 12.6899 18.4067 12.6803 18.4009 12.6708C18.3954 12.662 18.3898 12.6534 18.3839 12.6448C18.3785 12.6368 18.3728 12.6287 18.367 12.6209C18.3615 12.6135 18.3559 12.6062 18.3501 12.5989C18.3446 12.592 18.339 12.5852 18.3332 12.5784C18.3276 12.572 18.322 12.5655 18.3163 12.5592C18.3107 12.5531 18.3051 12.5471 18.2993 12.5412C18.2938 12.5355 18.2882 12.5299 18.2824 12.5243C18.2769 12.5189 18.2712 12.5135 18.2655 12.5083C18.2599 12.5031 18.2543 12.4981 18.2486 12.4931C18.243 12.4883 18.2374 12.4834 18.2317 12.4787C18.2261 12.4741 18.2205 12.4695 18.2147 12.465C18.2092 12.4606 18.2035 12.4563 18.1978 12.452C18.1922 12.4478 18.1866 12.4436 18.1809 12.4395C18.1753 12.4355 18.1697 12.4316 18.164 12.4276C18.1584 12.4238 18.1528 12.42 18.1471 12.4163C18.1415 12.4126 18.1358 12.409 18.1301 12.4054C18.1246 12.4019 18.1189 12.3984 18.1132 12.395C18.1077 12.3917 18.102 12.3884 18.0963 12.3851C18.0907 12.3819 18.0851 12.3787 18.0794 12.3756C18.0738 12.3725 18.0682 12.3695 18.0625 12.3665C18.0569 12.3635 18.0512 12.3606 18.0455 12.3577C18.0399 12.3549 18.0343 12.3521 18.0286 12.3493C18.023 12.3466 18.0174 12.3439 18.0117 12.3413C18.0061 12.3387 18.0005 12.3361 17.9948 12.3336C17.9892 12.3311 17.9835 12.3287 17.9779 12.3262C17.9723 12.3238 17.9666 12.3215 17.961 12.3192C17.9553 12.3169 17.9497 12.3146 17.944 12.3123C17.9384 12.3101 17.9328 12.308 17.9271 12.3058C17.9215 12.3037 17.9159 12.3017 17.9102 12.2997C17.9046 12.2976 17.8989 12.2957 17.8933 12.2937C17.8877 12.2918 17.882 12.2899 17.8764 12.288C17.8707 12.2861 17.8651 12.2843 17.8594 12.2825C17.8538 12.2808 17.8482 12.2791 17.8425 12.2774L17.8256 12.2724C17.82 12.2708 17.8143 12.2692 17.8087 12.2677C17.8031 12.2661 17.7974 12.2647 17.7918 12.2632C17.7861 12.2617 17.7805 12.2603 17.7748 12.2589C17.7692 12.2576 17.7636 12.2562 17.7579 12.2549C17.7523 12.2535 17.7467 12.2523 17.741 12.251C17.7354 12.2498 17.7297 12.2486 17.7241 12.2474C17.7185 12.2462 17.7128 12.2451 17.7072 12.2439L17.6902 12.2407L17.6733 12.2377C17.6677 12.2367 17.6621 12.2357 17.6564 12.2348L17.6395 12.2322C17.6339 12.2313 17.6282 12.2305 17.6226 12.2297L17.6056 12.2274L17.5887 12.2253L17.5718 12.2234L17.5549 12.2216L17.538 12.22L17.521 12.2186L17.5054 12.2174L17.5054 12.1972L17.521 12.1947L17.538 12.1919C17.5436 12.191 17.5493 12.19 17.5549 12.189L17.5718 12.1857C17.5775 12.1846 17.5831 12.1834 17.5887 12.1823L17.6056 12.1786C17.6113 12.1773 17.617 12.176 17.6226 12.1747C17.6282 12.1733 17.6339 12.1719 17.6395 12.1704C17.6452 12.169 17.6508 12.1675 17.6564 12.166C17.6621 12.1644 17.6677 12.1629 17.6733 12.1612C17.679 12.1596 17.6846 12.158 17.6902 12.1563C17.6959 12.1546 17.7016 12.1528 17.7072 12.151C17.7128 12.1492 17.7185 12.1473 17.7241 12.1454C17.7298 12.1435 17.7354 12.1415 17.741 12.1395C17.7467 12.1375 17.7523 12.1355 17.7579 12.1334C17.7636 12.1312 17.7692 12.1291 17.7748 12.1269C17.7805 12.1247 17.7862 12.1224 17.7918 12.1201C17.7974 12.1177 17.8031 12.1153 17.8087 12.1129C17.8144 12.1104 17.82 12.1079 17.8256 12.1053C17.8313 12.1027 17.8369 12.1001 17.8425 12.0974C17.8482 12.0946 17.8538 12.0919 17.8594 12.089C17.8651 12.0862 17.8708 12.0833 17.8764 12.0803C17.882 12.0773 17.8877 12.0742 17.8933 12.0711C17.899 12.068 17.9046 12.0648 17.9102 12.0615C17.9159 12.0582 17.9215 12.0548 17.9271 12.0514C17.9328 12.0479 17.9384 12.0444 17.944 12.0408C17.9497 12.0371 17.9554 12.0334 17.961 12.0296C17.9667 12.0258 17.9723 12.0218 17.9779 12.0179C17.9836 12.0138 17.9892 12.0097 17.9948 12.0056C18.0005 12.0013 18.0062 11.997 18.0117 11.9926C18.0174 11.9881 18.0231 11.9835 18.0286 11.9789C18.0344 11.9741 18.04 11.9693 18.0455 11.9644C18.0513 11.9594 18.0569 11.9543 18.0625 11.9491C18.0682 11.9438 18.0739 11.9383 18.0794 11.9329C18.0851 11.9272 18.0908 11.9215 18.0963 11.9157C18.1021 11.9097 18.1077 11.9036 18.1132 11.8974C18.119 11.8909 18.1246 11.8844 18.1301 11.8778C18.1359 11.8709 18.1416 11.8639 18.1471 11.8568C18.1529 11.8493 18.1585 11.8418 18.164 11.8341C18.1698 11.826 18.1754 11.8178 18.1809 11.8095C18.1867 11.8006 18.1924 11.7917 18.1978 11.7826C18.2037 11.7728 18.2093 11.7629 18.2147 11.7528C18.2207 11.7418 18.2263 11.7306 18.2317 11.7193C18.2377 11.7066 18.2433 11.6937 18.2486 11.6806C18.2547 11.6654 18.2604 11.65 18.2655 11.6345C18.2719 11.6149 18.2776 11.5949 18.2824 11.5748C18.2902 11.542 18.2959 11.5086 18.2993 11.4746C18.3021 11.4478 18.3035 11.4206 18.3035 11.3932C18.3035 11.3642 18.3021 11.3359 18.2993 11.3084C18.2959 11.2731 18.2902 11.2391 18.2824 11.2063C18.2776 11.1858 18.2719 11.1657 18.2655 11.1462C18.2604 11.1305 18.2547 11.1152 18.2486 11.1001C18.2433 11.0872 18.2377 11.0744 18.2317 11.0619C18.2263 11.0508 18.2207 11.0398 18.2147 11.029C18.2093 11.0191 18.2037 11.0094 18.1978 10.9998C18.1924 10.9909 18.1867 10.9822 18.1809 10.9735C18.1754 10.9655 18.1698 10.9575 18.164 10.9496C18.1585 10.9422 18.1529 10.9349 18.1471 10.9277C18.1415 10.9208 18.1359 10.914 18.1301 10.9073C18.1246 10.9009 18.119 10.8946 18.1132 10.8884C18.1077 10.8824 18.1021 10.8766 18.0963 10.8707C18.0908 10.8651 18.0851 10.8596 18.0794 10.8542C18.0738 10.8489 18.0682 10.8437 18.0625 10.8385C18.0569 10.8336 18.0513 10.8286 18.0455 10.8238C18.04 10.8191 18.0344 10.8144 18.0286 10.8098C18.0231 10.8054 18.0174 10.801 18.0117 10.7967C18.0061 10.7924 18.0005 10.7883 17.9948 10.7842C17.9892 10.7801 17.9836 10.7762 17.9779 10.7723C17.9723 10.7685 17.9667 10.7647 17.961 10.761C17.9554 10.7573 17.9497 10.7538 17.944 10.7502C17.9384 10.7468 17.9328 10.7434 17.9271 10.74C17.9215 10.7367 17.9159 10.7334 17.9102 10.7302C17.9046 10.7271 17.899 10.724 17.8933 10.7209C17.8877 10.7179 17.882 10.715 17.8764 10.712C17.8708 10.7092 17.8651 10.7063 17.8594 10.7035C17.8538 10.7008 17.8482 10.6981 17.8425 10.6954C17.8369 10.6928 17.8313 10.6902 17.8256 10.6877C17.82 10.6852 17.8144 10.6828 17.8087 10.6804C17.8031 10.678 17.7974 10.6756 17.7918 10.6733C17.7862 10.6711 17.7805 10.6688 17.7748 10.6666C17.7692 10.6644 17.7636 10.6623 17.7579 10.6602C17.7523 10.6581 17.7467 10.6561 17.741 10.6541C17.7354 10.6521 17.7298 10.6502 17.7241 10.6483C17.7185 10.6464 17.7128 10.6446 17.7072 10.6428C17.7016 10.641 17.6959 10.6392 17.6902 10.6375C17.6846 10.6358 17.679 10.6341 17.6733 10.6324C17.6677 10.6308 17.6621 10.6292 17.6564 10.6277C17.6508 10.6262 17.6452 10.6247 17.6395 10.6232L17.6226 10.6189C17.6169 10.6175 17.6113 10.6162 17.6056 10.6148C17.6 10.6135 17.5944 10.6123 17.5887 10.611L17.5718 10.6074C17.5662 10.6063 17.5606 10.6051 17.5549 10.604C17.5493 10.6029 17.5436 10.6019 17.538 10.6009L17.521 10.5979C17.5154 10.597 17.5098 10.596 17.5041 10.5951L17.4872 10.5925L17.4703 10.5901L17.4534 10.5879L17.4364 10.5859L17.4195 10.5841L17.4026 10.5824L17.3857 10.5809L17.3688 10.5796L17.3518 10.5784L17.3349 10.5774L17.3282 10.577L17.318 10.5764L17.3011 10.5754L17.2842 10.5745L17.2673 10.5736L17.2503 10.5728L17.2334 10.5721L17.2165 10.5714L17.1996 10.5709L17.1827 10.5705L17.1657 10.5703L17.1564 10.5703H17.1488H17.1319H17.115H17.0981H17.0811H17.0642H17.0473H17.0304H17.0135H16.9965H16.9796H16.9627H16.9458H16.9289H16.9119H16.895H16.8781H16.8612H16.8443H16.8274H16.8104H16.7935H16.7766H16.7597H16.7428H16.7258H16.7089H16.692H16.6751H16.6581H16.6412H16.6243H16.6074H16.5905H16.5736H16.5566H16.5397H16.5228H16.5059H16.489H16.472H16.4551H16.4382H16.4213H16.4044H16.3874H16.3705H16.3536H16.3367H16.3198H16.3028H16.2859H16.269H16.2521H16.2352H16.2182H16.2013H16.1844H16.1675H16.1506H16.1337H16.1167H16.0998H16.0829H16.066H16.0491H16.0321H16.0152H15.9983H15.9814H15.9645H15.9475H15.9306H15.9137H15.8968H15.8798H15.8629H15.846H15.8291H15.8122H15.7953H15.7783H15.7614H15.7445H15.7276H15.7107H15.6937H15.6768H15.6599H15.643H15.6261H15.6091H15.5922H15.5753H15.5584H15.5415H15.5245H15.5076H15.4907H15.4738H15.4569H15.4399H15.423H15.4061H15.3892H15.3723H15.3554H15.3384H15.3215H15.3046H15.2877H15.2708H15.2538H15.2369H15.22H15.2031H15.1862H15.1692H15.1523H15.1354H15.1185H15.1016H15.0846H15.0677H15.0508H15.0339H15.017H15H14.9831H14.9662H14.9493H14.9324H14.9154H14.8985H14.8816H14.8647H14.8478H14.8308H14.8139H14.797H14.7801H14.7632H14.7462H14.7293H14.7124H14.6759V8.75154C14.6759 8.62919 14.6885 8.50979 14.7124 8.39451C14.7175 8.36982 14.7232 8.34534 14.7293 8.32106C14.7346 8.30028 14.7403 8.27966 14.7462 8.25919C14.7516 8.24091 14.7572 8.22275 14.7632 8.20472C14.7686 8.18824 14.7742 8.17185 14.7801 8.15559C14.7855 8.14052 14.7911 8.12553 14.797 8.11065C14.8025 8.09675 14.8081 8.08292 14.8139 8.0692C14.8194 8.05626 14.8251 8.04337 14.8308 8.03058C14.8363 8.01843 14.842 8.00637 14.8478 7.99437C14.8533 7.98293 14.8589 7.97156 14.8647 7.96026C14.8702 7.94938 14.8759 7.93859 14.8816 7.92785C14.8871 7.91749 14.8928 7.90721 14.8985 7.89698C14.9041 7.88706 14.9097 7.87723 14.9154 7.86743C14.921 7.85794 14.9266 7.84848 14.9324 7.8391C14.9379 7.83001 14.9436 7.82099 14.9493 7.81201C14.9548 7.80331 14.9605 7.79469 14.9662 7.7861C14.9718 7.7777 14.9774 7.76932 14.9831 7.76101C14.9887 7.75287 14.9943 7.74473 15 7.73669C15.0056 7.7289 15.0113 7.7212 15.017 7.71351C15.0225 7.70595 15.0282 7.69844 15.0339 7.69097C15.0395 7.68361 15.0451 7.67623 15.0508 7.66897C15.0564 7.66191 15.0621 7.65496 15.0677 7.64798C15.0733 7.6411 15.0789 7.63428 15.0846 7.6275C15.0902 7.6208 15.0959 7.61411 15.1016 7.60749C15.1071 7.60105 15.1128 7.59471 15.1185 7.58835C15.1241 7.58205 15.1297 7.57573 15.1354 7.56951C15.141 7.56341 15.1466 7.55738 15.1523 7.55135C15.1579 7.54541 15.1636 7.53951 15.1692 7.53364C15.1748 7.52786 15.1805 7.52207 15.1862 7.51635C15.1917 7.51073 15.1974 7.5052 15.2031 7.49967C15.2087 7.49416 15.2143 7.4886 15.22 7.48318C15.2256 7.47787 15.2313 7.47268 15.2369 7.46744C15.2425 7.46223 15.2481 7.457 15.2538 7.45186C15.2594 7.4468 15.2651 7.44184 15.2708 7.43687C15.2764 7.43192 15.282 7.42698 15.2877 7.4221C15.2933 7.4173 15.2989 7.41256 15.3046 7.40783C15.3102 7.40313 15.3158 7.39845 15.3215 7.39383C15.3271 7.38925 15.3328 7.38472 15.3384 7.38022L15.3554 7.36693L15.3723 7.35398C15.3779 7.34974 15.3835 7.34552 15.3892 7.34134C15.3948 7.33721 15.4004 7.33309 15.4061 7.32901L15.423 7.31701C15.4286 7.31307 15.4343 7.30916 15.4399 7.30529L15.4569 7.29385L15.4738 7.28271C15.4794 7.27905 15.485 7.27541 15.4907 7.27182L15.5076 7.26126C15.5133 7.25777 15.5189 7.25428 15.5245 7.25086C15.5302 7.24747 15.5358 7.24418 15.5415 7.24086C15.5471 7.23754 15.5527 7.23419 15.5584 7.23094C15.564 7.22773 15.5697 7.22463 15.5753 7.22148C15.5809 7.21833 15.5865 7.21512 15.5922 7.21204C15.5978 7.209 15.6035 7.20606 15.6091 7.20307C15.6148 7.20009 15.6204 7.19709 15.6261 7.19416C15.6317 7.19126 15.6373 7.18844 15.643 7.18561C15.6486 7.1828 15.6542 7.17997 15.6599 7.17721L15.6768 7.16904C15.6824 7.16636 15.6881 7.16376 15.6937 7.16114C15.6994 7.15853 15.705 7.15588 15.7107 7.15333C15.7163 7.15081 15.7219 7.1484 15.7276 7.14594C15.7332 7.14347 15.7388 7.14096 15.7445 7.13855C15.7501 7.13617 15.7558 7.1339 15.7614 7.13158C15.767 7.12926 15.7727 7.12692 15.7783 7.12467L15.7953 7.11801L15.8122 7.11158C15.8178 7.10945 15.8234 7.10729 15.8291 7.10523C15.8347 7.10319 15.8404 7.10127 15.846 7.09928C15.8517 7.09729 15.8573 7.09526 15.8629 7.09333C15.8685 7.09141 15.8742 7.0896 15.8798 7.08774L15.8968 7.08226C15.9024 7.08046 15.908 7.07866 15.9137 7.07692C15.9193 7.0752 15.925 7.07357 15.9306 7.0719C15.9362 7.07022 15.9419 7.06848 15.9475 7.06687C15.9531 7.06528 15.9588 7.06379 15.9645 7.06225C15.9701 7.06071 15.9757 7.05915 15.9814 7.05767L15.9983 7.0533C16.0039 7.05188 16.0096 7.05054 16.0152 7.04918C16.0209 7.04782 16.0265 7.04636 16.0321 7.04506C16.0377 7.04377 16.0434 7.04259 16.0491 7.04135L16.066 7.03766L16.0829 7.03417C16.0885 7.03305 16.0942 7.032 16.0998 7.03094C16.1055 7.02986 16.1111 7.02871 16.1167 7.02769C16.1224 7.02666 16.128 7.02579 16.1337 7.02484L16.1506 7.02204C16.1562 7.02114 16.1618 7.02022 16.1675 7.01938C16.1731 7.01854 16.1788 7.01779 16.1844 7.01701C16.1901 7.01622 16.1957 7.01537 16.2013 7.01464C16.207 7.01391 16.2126 7.01327 16.2182 7.0126L16.2352 7.01066C16.2408 7.01005 16.2464 7.00936 16.2521 7.0088C16.2577 7.00824 16.2634 7.0078 16.269 7.0073L16.2859 7.0058L16.3028 7.00453C16.3085 7.00412 16.3141 7.0038 16.3198 7.00345C16.3254 7.00311 16.331 7.00268 16.3367 7.00238C16.3423 7.00209 16.348 7.00192 16.3536 7.00168L16.3705 7.00105C16.3762 7.00087 16.3818 7.00063 16.3874 7.0005C16.3931 7.00038 16.3987 7.00036 16.4044 7.00028C16.41 7.0002 16.4156 7.0001 16.4213 7.00007L16.4255 7.00001H16.4382H16.4551H16.472H16.489H16.5059H16.5228H16.5397H16.5566H16.5736H16.5905H16.6074H16.6243H16.6412H16.6581H16.6751H16.692H16.7089H16.7258H16.7428H16.7597H16.7766H16.7935H16.8104H16.8274H16.8443H16.8612H16.8781H16.895H16.9119H16.9289H16.9458H16.9627H16.9796H16.9965H17.0135H17.0304H17.0473H17.0642H17.0811H17.0981H17.115H17.1319H17.1488H17.1657H17.1827H17.1996H17.2165H17.2334H17.2503H17.2673H17.2842H17.3011H17.318H17.3349H17.3518H17.3688H17.3857H17.4026H17.4195H17.4364H17.4534H17.4703H17.4872H17.5041H17.521H17.538H17.5549H17.5718H17.5887H17.6056H17.6226H17.6395H17.6564H17.6733H17.6902H17.7072H17.7241H17.741H17.7579H17.7748H17.7918H17.8087H17.8256H17.8425H17.8594H17.8764H17.8933H17.9102H17.9271H17.944H17.961H17.9779H17.9948H18.0117H18.0286H18.0455H18.0625H18.0794H18.0963H18.1132H18.1301H18.1471H18.164H18.1809H18.1978H18.2147H18.2317H18.2486H18.2655H18.2824H18.2993H18.3163H18.3332H18.3501H18.367H18.3839H18.4009H18.4178H18.4347H18.4516H18.4685H18.4855H18.5024H18.5193H18.5362H18.5531H18.5701H18.587H18.6039H18.6208H18.6377H18.6547H18.6716H18.6885H18.7054H18.7223H18.7393H18.7562H18.7731H18.79H18.8069H18.8239H18.8408H18.8577H18.8746H18.8915H18.9084H18.9254H18.9423H18.9592H18.9761L18.993 7Z" fill="#338337"/>
<path fill-rule="evenodd" clip-rule="evenodd" d="M5.03628 13.0943C5.02418 13.0885 5.01209 13.0828 5 13.0769V8.75153C5 8.62952 5.01251 8.51043 5.03628 8.39546C5.04138 8.37077 5.04705 8.34631 5.05318 8.32201C5.05842 8.30121 5.06407 8.28057 5.07006 8.26007C5.0754 8.2418 5.08104 8.22367 5.08694 8.20565C5.09236 8.18916 5.09795 8.17274 5.10384 8.15646C5.1093 8.1414 5.11488 8.12642 5.12072 8.11156C5.12618 8.09766 5.13182 8.0838 5.13762 8.07007C5.14311 8.05713 5.14873 8.04426 5.15451 8.03149C5.16 8.01934 5.16564 8.00729 5.17139 7.9953C5.17689 7.98384 5.18255 7.97246 5.18829 7.96114C5.1938 7.95027 5.19944 7.93948 5.20517 7.92875C5.2107 7.91839 5.21633 7.90811 5.22206 7.89788C5.22759 7.88797 5.23322 7.87812 5.23895 7.86834C5.24451 7.85885 5.2501 7.84937 5.25584 7.83999C5.26139 7.83091 5.26703 7.8219 5.27273 7.81293C5.27826 7.80425 5.28394 7.79562 5.28962 7.78703C5.29519 7.77862 5.30079 7.77024 5.3065 7.76193C5.31211 7.75378 5.31766 7.74564 5.3234 7.73758C5.32894 7.72981 5.33462 7.72213 5.34028 7.71444C5.34586 7.70687 5.35149 7.69936 5.35718 7.69189C5.36278 7.68455 5.36836 7.67715 5.37406 7.6699C5.37962 7.66285 5.3853 7.65591 5.39095 7.64895C5.39653 7.64207 5.40215 7.63522 5.40785 7.62842C5.41344 7.62174 5.41904 7.61507 5.42473 7.60847C5.4303 7.60201 5.43596 7.59567 5.44163 7.58929C5.44722 7.58297 5.45282 7.57667 5.45851 7.57045C5.46408 7.56435 5.46974 7.55834 5.4754 7.55233C5.48099 7.54638 5.48661 7.54048 5.49229 7.53461C5.49789 7.52882 5.5035 7.52304 5.50918 7.51732C5.51476 7.5117 5.52042 7.50617 5.52607 7.50063C5.5317 7.49513 5.53727 7.48958 5.54296 7.48416C5.54853 7.47885 5.55421 7.47366 5.55984 7.46842C5.56547 7.4632 5.57105 7.45796 5.57674 7.45281C5.58232 7.44777 5.58799 7.44282 5.59362 7.43785C5.59925 7.4329 5.60484 7.42794 5.61052 7.42307C5.61612 7.41826 5.62175 7.41354 5.62741 7.40881C5.633 7.40411 5.63862 7.39942 5.64429 7.3948C5.64988 7.39023 5.65554 7.3857 5.66119 7.38119C5.6668 7.37672 5.67241 7.37229 5.67807 7.36789C5.68367 7.36354 5.68932 7.35924 5.69497 7.35495C5.70058 7.3507 5.7062 7.34647 5.71185 7.3423L5.72874 7.33C5.73435 7.32595 5.73997 7.32193 5.74563 7.31795C5.75123 7.31401 5.75687 7.31011 5.76252 7.30625C5.76813 7.30239 5.77375 7.29857 5.7794 7.29479C5.78501 7.29105 5.79065 7.28736 5.7963 7.28368C5.80191 7.28002 5.80752 7.27633 5.81318 7.27273C5.81878 7.26917 5.82443 7.2657 5.83008 7.2622C5.8357 7.25871 5.8413 7.25518 5.84696 7.25176C5.85255 7.24838 5.85821 7.2451 5.86385 7.24178C5.86949 7.23846 5.87507 7.23509 5.88075 7.23182C5.88633 7.22861 5.89201 7.22555 5.89763 7.22239C5.90327 7.21924 5.90886 7.21605 5.91453 7.21295C5.92012 7.2099 5.92577 7.20695 5.93141 7.20397C5.93703 7.20098 5.94264 7.19799 5.94829 7.19506C5.9539 7.19216 5.95954 7.18931 5.96519 7.18647L5.98208 7.17809C5.9877 7.17533 5.99332 7.17257 5.99897 7.16988C6.00458 7.1672 6.01022 7.16461 6.01586 7.16199C6.0215 7.15937 6.02708 7.1567 6.03274 7.15415C6.03834 7.15161 6.044 7.14923 6.04964 7.14676C6.05526 7.1443 6.06087 7.14179 6.06652 7.13938C6.07213 7.137 6.07778 7.1347 6.08342 7.13237L6.1003 7.12548L6.11719 7.11878L6.13409 7.11237C6.13972 7.11024 6.1453 7.10804 6.15097 7.10596C6.15657 7.10392 6.16224 7.10201 6.16787 7.10002C6.17349 7.09803 6.1791 7.09602 6.18475 7.09408L6.20164 7.08844L6.21853 7.08296C6.22416 7.08116 6.22977 7.07933 6.23542 7.07759C6.24101 7.07587 6.24668 7.07423 6.2523 7.07256C6.25794 7.07088 6.26355 7.06917 6.2692 7.06755C6.27481 7.06593 6.28044 7.06444 6.28608 7.06288L6.30298 7.0583C6.3086 7.05681 6.31421 7.0553 6.31986 7.05387C6.32547 7.05244 6.33112 7.05114 6.33675 7.04977C6.34237 7.04839 6.34799 7.04696 6.35365 7.04565C6.35925 7.04434 6.36491 7.04313 6.37053 7.04188L6.38743 7.03821C6.39305 7.037 6.39866 7.03578 6.40431 7.03465C6.40992 7.03353 6.41557 7.03249 6.42119 7.03141C6.42683 7.03033 6.43244 7.02921 6.43809 7.02819C6.44372 7.02717 6.44934 7.02624 6.45498 7.02528L6.47187 7.02247C6.4775 7.02158 6.48311 7.02061 6.48876 7.01976C6.49437 7.0189 6.50002 7.01819 6.50564 7.01739C6.51126 7.0166 6.51689 7.01576 6.52254 7.01502L6.53942 7.0129L6.55632 7.01098C6.56196 7.01035 6.56755 7.00963 6.5732 7.00905C6.57881 7.00848 6.58446 7.00806 6.59009 7.00754L6.60699 7.00605C6.61261 7.00558 6.61823 7.00511 6.62387 7.00471C6.62949 7.0043 6.63513 7.00398 6.64077 7.00363C6.6464 7.00328 6.65201 7.00287 6.65765 7.00256C6.66326 7.00226 6.6689 7.00205 6.67453 7.00179L6.69143 7.00115C6.69706 7.00095 6.70267 7.00066 6.70832 7.00052C6.71393 7.00038 6.71958 7.00039 6.7252 7.00031C6.73082 7.00022 6.73646 7.00013 6.7421 7.0001L6.7496 7H6.75898H6.77588H6.79276H6.80965H6.82654H6.84343H6.86033H6.87721H6.89409H6.91099H6.92788H6.94477H6.96166H6.97854H6.99544H7.01232H7.02922H7.0461H7.06299H7.07989H7.09677H7.11367H7.13055H7.14743H7.16433H7.18122H7.19811H7.215H7.23188H7.24878H7.26566H7.28256H7.29944H7.31633H7.33323H7.35011H7.36699H7.38389H7.40077H7.41767H7.43456H7.45144H7.46834H7.48522H7.50212H7.519H7.53589H7.55278H7.56967H7.58657H7.60345H7.62033H7.63723H7.65412H7.67101H7.6879H7.70478H7.72168H7.73856H7.75545H7.77234H7.78923H7.80613H7.82301H7.83991H7.85679H7.87367H7.89057H7.90746H7.92434H7.94124H7.95812H7.97502H7.9919H8.00879H8.02568H8.04257H8.05947H8.07635H8.09323H8.11013H8.12701H8.14391H8.1608H8.17768H8.19458H8.21146H8.22835H8.24524H8.26213H8.27902H8.29591H8.31281H8.32969H8.34657H8.36347H8.38035H8.39725H8.41414H8.43102H8.44792H8.4648H8.48169H8.49858H8.51547H8.53236H8.54925H8.56615H8.58303H8.59991H8.61681H8.6337H8.65058H8.66748H8.68436H8.70126H8.71814H8.73503H8.75192H8.76881H8.78569H8.80259H8.81947H8.83637H8.85325H8.87015H8.88704H8.90392H8.92082H8.9377H8.95459H8.97148H8.98837H9.00526H9.02215H9.03903H9.05593H9.07281H9.08971H9.1066H9.12348H9.14038H9.15726H9.17416H9.19104H9.20793H9.22482H9.24171H9.25859H9.27549H9.29237H9.30927H9.3236V15.757C9.3236 15.8332 9.31871 15.9082 9.30927 15.9818C9.30473 16.0173 9.29901 16.0523 9.29237 16.0871C9.28732 16.1135 9.28171 16.1397 9.27549 16.1657C9.27024 16.1876 9.26463 16.2094 9.25859 16.2309C9.25328 16.2499 9.24762 16.2687 9.24171 16.2873C9.23634 16.3042 9.23069 16.321 9.22482 16.3377C9.2194 16.3531 9.21377 16.3684 9.20793 16.3837C9.20247 16.3979 9.19685 16.412 9.19104 16.426C9.18557 16.4392 9.17994 16.4524 9.17416 16.4654C9.16866 16.4778 9.16302 16.4901 9.15726 16.5024C9.15176 16.5141 9.14613 16.5256 9.14038 16.5372C9.13485 16.5482 9.12923 16.5592 9.12348 16.5702C9.11795 16.5807 9.11233 16.5912 9.1066 16.6015C9.10104 16.6116 9.09546 16.6216 9.08971 16.6316C9.08417 16.6411 9.07854 16.6507 9.07281 16.6601C9.06729 16.6693 9.06162 16.6784 9.05593 16.6874C9.05038 16.6963 9.04474 16.705 9.03903 16.7138C9.03345 16.7223 9.02787 16.7308 9.02215 16.7392C9.01659 16.7474 9.01094 16.7555 9.00526 16.7636C8.99971 16.7715 8.99406 16.7793 8.98837 16.7871C8.98279 16.7948 8.97718 16.8024 8.97148 16.81C8.96592 16.8174 8.96028 16.8247 8.95459 16.832C8.94902 16.8391 8.94337 16.8462 8.9377 16.8533C8.93211 16.8602 8.92651 16.8672 8.92082 16.874C8.91525 16.8808 8.90959 16.8874 8.90392 16.894C8.89834 16.9005 8.89272 16.907 8.88704 16.9135C8.88143 16.9198 8.87585 16.9262 8.87015 16.9325C8.86458 16.9386 8.85891 16.9446 8.85325 16.9507C8.84765 16.9567 8.84206 16.9627 8.83637 16.9687C8.83079 16.9745 8.82514 16.9802 8.81947 16.986C8.81388 16.9916 8.80827 16.9973 8.80259 17.0029C8.79699 17.0084 8.79137 17.0139 8.78569 17.0194C8.78011 17.0247 8.77446 17.03 8.76881 17.0353C8.7632 17.0406 8.7576 17.0458 8.75192 17.051C8.74634 17.0561 8.74068 17.0611 8.73503 17.0661C8.7294 17.0711 8.72384 17.0762 8.71814 17.0811C8.71258 17.0859 8.70688 17.0906 8.70126 17.0954C8.69564 17.1001 8.69004 17.1049 8.68436 17.1096C8.67878 17.1142 8.67311 17.1187 8.66748 17.1232C8.66185 17.1277 8.65626 17.1322 8.65058 17.1367C8.645 17.1411 8.63933 17.1453 8.6337 17.1496C8.62807 17.1539 8.62249 17.1582 8.61681 17.1624C8.61123 17.1666 8.60555 17.1707 8.59991 17.1748C8.59429 17.1788 8.58871 17.183 8.58303 17.187C8.57745 17.1909 8.57178 17.1948 8.56615 17.1987C8.56051 17.2026 8.55493 17.2065 8.54925 17.2103C8.54367 17.2141 8.538 17.2177 8.53236 17.2214C8.52673 17.2251 8.52115 17.2289 8.51547 17.2326C8.50989 17.2361 8.50421 17.2396 8.49858 17.2431C8.49296 17.2466 8.48737 17.2502 8.48169 17.2536C8.47609 17.257 8.47043 17.2603 8.4648 17.2637C8.45918 17.267 8.45358 17.2704 8.44792 17.2736C8.44231 17.2769 8.43667 17.28 8.43102 17.2832C8.42541 17.2864 8.41979 17.2895 8.41414 17.2926C8.40853 17.2957 8.4029 17.2988 8.39725 17.3018L8.38035 17.3107C8.37473 17.3136 8.36912 17.3166 8.36347 17.3194C8.35786 17.3223 8.35222 17.325 8.34657 17.3278C8.34095 17.3306 8.33536 17.3335 8.32969 17.3362C8.32409 17.3389 8.31843 17.3414 8.31281 17.3441C8.30717 17.3467 8.30157 17.3494 8.29591 17.3519C8.29031 17.3545 8.28465 17.3569 8.27902 17.3594L8.26213 17.3668L8.24524 17.374C8.23963 17.3763 8.23398 17.3786 8.22835 17.3809C8.22272 17.3832 8.21711 17.3855 8.21146 17.3877C8.20587 17.3899 8.20021 17.392 8.19458 17.3941C8.18894 17.3963 8.18335 17.3984 8.17768 17.4005C8.17207 17.4026 8.16643 17.4046 8.1608 17.4066L8.14391 17.4125L8.12701 17.4183C8.12141 17.4202 8.11575 17.422 8.11013 17.4238C8.10449 17.4256 8.0989 17.4275 8.09323 17.4293C8.08764 17.431 8.08197 17.4326 8.07635 17.4343L8.05947 17.4393L8.04257 17.4442C8.03696 17.4457 8.03132 17.4472 8.02568 17.4487C8.02005 17.4502 8.01444 17.4518 8.00879 17.4533C8.00319 17.4547 7.99751 17.456 7.9919 17.4574C7.98628 17.4588 7.98066 17.4602 7.97502 17.4615L7.95812 17.4654L7.94124 17.4691C7.9356 17.4703 7.93 17.4716 7.92434 17.4728C7.91873 17.4739 7.91308 17.4749 7.90746 17.476C7.90183 17.4771 7.89621 17.4782 7.89057 17.4792L7.87367 17.4823C7.86806 17.4832 7.86243 17.4841 7.85679 17.4851C7.85115 17.486 7.84554 17.487 7.83991 17.4879C7.8343 17.4887 7.82865 17.4895 7.82301 17.4903L7.80613 17.4926C7.8005 17.4934 7.79488 17.4942 7.78923 17.4949C7.78362 17.4956 7.77797 17.4961 7.77234 17.4968C7.76671 17.4974 7.7611 17.4981 7.75545 17.4987C7.74984 17.4993 7.7442 17.4998 7.73856 17.5004L7.72168 17.5019C7.71604 17.5023 7.71043 17.5029 7.70478 17.5033C7.69917 17.5038 7.69352 17.504 7.6879 17.5044L7.67101 17.5055L7.65412 17.5064C7.64851 17.5066 7.64285 17.5068 7.63723 17.507C7.63159 17.5072 7.62597 17.5075 7.62033 17.5077C7.61472 17.5078 7.60907 17.5079 7.60345 17.508L7.58657 17.5082C7.58135 17.5082 7.57615 17.5084 7.5709 17.5084H7.56967H7.55278H7.53589H7.519H7.50212H7.48522H7.46834H7.45144H7.43456H7.41767H7.40077H7.38389H7.36699H7.35011H7.33323H7.31633H7.29944H7.28256H7.26566H7.24878H7.23188H7.215H7.19811H7.18122H7.16433H7.14743H7.13055H7.11367H7.09677H7.07989H7.06299H7.0461H7.02922H7.01232H6.99544H6.97854H6.96166H6.94477H6.92788H6.91099H6.89409H6.87721H6.86033H6.84343H6.82654H6.80965H6.79276H6.77588H6.75898H6.7421H6.7252H6.70832H6.69143H6.67453H6.65765H6.64077H6.62387H6.60699H6.59009H6.5732H6.55632H6.53942H6.52254H6.50564H6.48876H6.47187H6.45498H6.43809H6.42119H6.40431H6.38743H6.37053H6.35365H6.33675H6.31986H6.30298H6.28608H6.2692H6.2523H6.23542H6.21853H6.20164H6.18475H6.16787H6.15097H6.13409H6.11719H6.1003H6.08342H6.06652H6.04964H6.03274H6.01586H5.99897H5.98208H5.96519H5.94829H5.93141H5.91453H5.89763H5.88075H5.86385H5.84696H5.83008H5.81318H5.7963H5.7794H5.76252H5.74563H5.72874H5.71185H5.69497H5.67807H5.66119H5.64429H5.62741H5.61052H5.59362H5.57674H5.55984H5.54296H5.52607H5.50918H5.49229H5.4754H5.45851H5.44163H5.42473H5.40785H5.39095H5.37406H5.35718H5.34028H5.3234H5.3065H5.28962H5.27273H5.25584H5.23895H5.22206H5.20517H5.18829H5.17139H5.15451H5.13762H5.12072H5.10384H5.08694H5.07006H5.05318H5.03628H5V13.8174C5 13.8174 5.01248 13.8208 5.03628 13.8268L5.05318 13.831L5.07006 13.8352L5.08694 13.8392L5.10384 13.8432L5.12072 13.8471L5.13762 13.851L5.15451 13.8548L5.17139 13.8586L5.18829 13.8623L5.20517 13.8659L5.22206 13.8695L5.23895 13.8731L5.25584 13.8766L5.27273 13.88L5.28962 13.8835L5.3065 13.8868L5.3234 13.8902L5.34028 13.8934L5.35718 13.8967L5.37406 13.8999L5.39095 13.9031L5.40785 13.9062L5.42473 13.9093L5.44163 13.9123L5.45851 13.9153L5.4754 13.9183L5.49229 13.9212L5.50918 13.9241L5.52607 13.9269L5.54296 13.9297L5.55984 13.9325L5.57674 13.9352L5.59362 13.9379L5.61052 13.9406L5.62741 13.9432L5.64429 13.9458L5.66119 13.9483L5.67807 13.9509L5.69497 13.9533L5.71185 13.9558L5.72874 13.9582L5.74563 13.9605L5.76252 13.9628L5.7794 13.9651L5.7963 13.9674L5.81318 13.9696L5.83008 13.9718L5.84696 13.9739L5.86385 13.976L5.88075 13.9781L5.89763 13.9801L5.91453 13.9821L5.93141 13.9841L5.94829 13.986L5.96519 13.9879L5.98208 13.9897L5.99897 13.9915L6.01586 13.9933L6.03274 13.9951L6.04964 13.9968L6.06652 13.9984L6.08342 14.0001L6.1003 14.0017L6.11719 14.0032L6.13409 14.0048L6.15097 14.0062L6.16787 14.0077L6.18475 14.0091L6.20164 14.0105L6.21853 14.0118L6.23542 14.0131L6.2523 14.0144L6.2692 14.0156L6.28608 14.0168L6.30298 14.018L6.31986 14.0191L6.33675 14.0202L6.35365 14.0212L6.37053 14.0222L6.38743 14.0232L6.40431 14.0241L6.42119 14.025L6.43809 14.0259L6.45498 14.0267L6.47187 14.0275L6.48876 14.0282L6.50564 14.0289L6.52254 14.0296L6.53942 14.0302L6.55632 14.0308L6.5732 14.0314L6.59009 14.0319L6.60699 14.0324L6.62387 14.0328L6.64077 14.0332L6.65765 14.0336L6.67453 14.0338L6.69143 14.0341L6.70832 14.0344L6.7252 14.0345L6.7421 14.0347L6.75898 14.0348L6.77588 14.0349L6.79276 14.0349L6.79928 14.035L6.80965 14.0349L6.82654 14.0348L6.84343 14.0347L6.86033 14.0346L6.87721 14.0345L6.89409 14.0342L6.91099 14.0339L6.92788 14.0336L6.94477 14.0333L6.96166 14.0329L6.97854 14.0323L6.99544 14.0318L7.01232 14.0313L7.02922 14.0307L7.0461 14.03L7.06299 14.0292L7.07989 14.0285L7.09677 14.0277L7.11367 14.0268L7.13055 14.0258L7.14743 14.0249L7.16433 14.0239L7.18122 14.0228L7.19811 14.0215L7.215 14.0203L7.23188 14.0191L7.24878 14.0178L7.26566 14.0163L7.28256 14.0149L7.29944 14.0134L7.31633 14.0118L7.33323 14.0101L7.35011 14.0084L7.36699 14.0066L7.38389 14.0048L7.40077 14.0028L7.41767 14.0008L7.43456 13.9988L7.45144 13.9966L7.46834 13.9944L7.48522 13.9921L7.50212 13.9898C7.50781 13.989 7.51335 13.9881 7.519 13.9873L7.53589 13.9847L7.55278 13.9822L7.56967 13.9795C7.57535 13.9786 7.58091 13.9776 7.58657 13.9767L7.60345 13.9738C7.60905 13.9729 7.61478 13.972 7.62033 13.971C7.62603 13.97 7.63157 13.9689 7.63723 13.9679L7.65412 13.9647L7.67101 13.9616L7.6879 13.9583C7.69358 13.9571 7.69914 13.9559 7.70478 13.9548L7.72168 13.9513L7.73856 13.9478C7.74427 13.9466 7.74979 13.9452 7.75545 13.944L7.77234 13.9402C7.77794 13.9389 7.78367 13.9377 7.78923 13.9364C7.79493 13.935 7.80047 13.9336 7.80613 13.9323L7.82301 13.9281C7.82862 13.9267 7.83434 13.9254 7.83991 13.924C7.84559 13.9225 7.85117 13.921 7.85679 13.9195L7.87367 13.915C7.8793 13.9135 7.885 13.912 7.89057 13.9105C7.89625 13.9089 7.90183 13.9073 7.90746 13.9057L7.92434 13.9008C7.92996 13.8992 7.93567 13.8976 7.94124 13.8959L7.95812 13.8907L7.97502 13.8854C7.98063 13.8837 7.98635 13.882 7.9919 13.8802L8.00879 13.8745L8.02568 13.8688C8.03129 13.8669 8.03703 13.865 8.04257 13.8631C8.04828 13.8611 8.05381 13.859 8.05947 13.857L8.07635 13.8508C8.08197 13.8487 8.08767 13.8467 8.09323 13.8446C8.09894 13.8424 8.10449 13.8402 8.11013 13.838C8.11577 13.8358 8.12145 13.8336 8.12701 13.8314L8.14391 13.8245L8.1608 13.8174C8.16641 13.815 8.17214 13.8127 8.17768 13.8103C8.1834 13.8079 8.18893 13.8053 8.19458 13.8027L8.21146 13.7952L8.22835 13.7873C8.23402 13.7846 8.23963 13.7819 8.24524 13.7792C8.25087 13.7765 8.25659 13.7738 8.26213 13.771C8.26785 13.7682 8.27339 13.7652 8.27902 13.7623C8.28466 13.7595 8.29035 13.7566 8.29591 13.7537C8.30162 13.7507 8.30718 13.7476 8.31281 13.7445C8.31847 13.7415 8.32411 13.7384 8.32969 13.7353C8.33537 13.7321 8.34099 13.7289 8.34657 13.7257C8.35227 13.7224 8.35788 13.7191 8.36347 13.7158C8.36912 13.7125 8.37479 13.7091 8.38035 13.7057C8.38606 13.7022 8.39164 13.6987 8.39725 13.6952C8.4029 13.6916 8.40858 13.6881 8.41414 13.6845C8.41984 13.6808 8.42541 13.677 8.43102 13.6732C8.43667 13.6694 8.44236 13.6657 8.44792 13.6618C8.45364 13.6579 8.45919 13.6539 8.4648 13.6499C8.47045 13.6458 8.47615 13.6418 8.48169 13.6377C8.48741 13.6335 8.49299 13.6292 8.49858 13.6249C8.50426 13.6206 8.50991 13.6162 8.51547 13.6118C8.52116 13.6073 8.52678 13.6028 8.53236 13.5982C8.53806 13.5936 8.54368 13.5888 8.54925 13.5841C8.55493 13.5793 8.56061 13.5745 8.56615 13.5696C8.57188 13.5646 8.57744 13.5594 8.58303 13.5543C8.5887 13.5491 8.59439 13.544 8.59991 13.5387C8.60565 13.5333 8.61124 13.5278 8.61681 13.5222C8.62252 13.5166 8.62814 13.5109 8.6337 13.5051C8.63938 13.4993 8.64507 13.4934 8.65058 13.4875C8.65633 13.4813 8.6619 13.475 8.66748 13.4687C8.67321 13.4623 8.67882 13.4558 8.68436 13.4492C8.69007 13.4425 8.69575 13.4357 8.70126 13.4289C8.70698 13.4218 8.71263 13.4147 8.71814 13.4075C8.72391 13.4 8.72949 13.3924 8.73503 13.3847C8.74079 13.3768 8.7464 13.3688 8.75192 13.3608C8.75769 13.3524 8.76331 13.344 8.76881 13.3355C8.77457 13.3265 8.78021 13.3176 8.78569 13.3085C8.79147 13.299 8.79712 13.2894 8.80259 13.2797C8.80839 13.2694 8.81402 13.2591 8.81947 13.2486C8.82531 13.2375 8.83093 13.2263 8.83637 13.215C8.84223 13.2028 8.84784 13.1905 8.85325 13.1782C8.85913 13.1648 8.86478 13.1512 8.87015 13.1376C8.87607 13.1226 8.88172 13.1074 8.88704 13.0921C8.89307 13.0748 8.89866 13.0573 8.90392 13.0396C8.91006 13.0189 8.91569 12.9981 8.92082 12.977C8.92718 12.9509 8.93284 12.9245 8.9377 12.8977C8.94494 12.858 8.95052 12.8176 8.95459 12.7766C8.96026 12.7195 8.96303 12.6614 8.96303 12.6024V10.5703H8.95459H8.9377H8.92082H8.90392H8.88704H8.87015H8.85325H8.83637H8.81947H8.80259H8.78569H8.76881H8.75192H8.73503H8.71814H8.70126H8.68436H8.66748H8.65058H8.6337H8.61681H8.59991H8.58303H8.56615H8.54925H8.53236H8.51547H8.49858H8.48169H8.4648H8.44792H8.43102H8.41414H8.39725H8.38035H8.36347H8.34657H8.32969H8.31281H8.29591H8.27902H8.26213H8.24524H8.22835H8.21146H8.19458H8.17768H8.1608H8.14391H8.12701H8.11013H8.09323H8.07635H8.05947H8.04257H8.02568H8.00879H7.9919H7.97502H7.95812H7.94124H7.92434H7.90746H7.89057H7.87367H7.85679H7.83991H7.82301H7.80613H7.78923H7.77234H7.75545H7.73856H7.72168H7.70478H7.6879H7.67101H7.65412H7.63723H7.62033H7.60345H7.58657H7.56967H7.55278H7.53589H7.519H7.50212H7.48522H7.46834H7.45553V12.6024C7.45553 12.6342 7.45415 12.6655 7.45144 12.6962C7.44799 12.7353 7.44234 12.7734 7.43456 12.8105C7.42975 12.8334 7.42411 12.8559 7.41767 12.8779C7.41254 12.8955 7.40693 12.9128 7.40077 12.9298C7.39553 12.9442 7.38988 12.9585 7.38389 12.9725C7.37855 12.985 7.37293 12.9974 7.36699 13.0095C7.36159 13.0206 7.356 13.0315 7.35011 13.0423C7.3447 13.0522 7.33903 13.0619 7.33323 13.0715C7.32777 13.0805 7.32215 13.0894 7.31633 13.0982C7.31086 13.1065 7.30522 13.1146 7.29944 13.1226C7.29395 13.1302 7.28835 13.1378 7.28256 13.1453C7.27706 13.1523 7.27141 13.1592 7.26566 13.1661C7.26015 13.1727 7.25453 13.1792 7.24878 13.1856C7.24325 13.1917 7.23763 13.1978 7.23188 13.2038C7.22634 13.2096 7.22073 13.2153 7.215 13.2209C7.20946 13.2263 7.20384 13.2317 7.19811 13.237C7.19257 13.2421 7.18692 13.2471 7.18122 13.252C7.17568 13.2568 7.17004 13.2616 7.16433 13.2663C7.15878 13.2708 7.15313 13.2753 7.14743 13.2797C7.14188 13.284 7.13624 13.2882 7.13055 13.2924C7.12498 13.2964 7.11936 13.3004 7.11367 13.3044C7.1081 13.3082 7.10248 13.312 7.09677 13.3158C7.0912 13.3194 7.08558 13.323 7.07989 13.3265C7.07432 13.33 7.06868 13.3334 7.06299 13.3367C7.05742 13.34 7.05178 13.3431 7.0461 13.3463C7.04054 13.3494 7.0349 13.3524 7.02922 13.3554C7.02364 13.3584 7.01802 13.3612 7.01232 13.3641C7.00674 13.3668 7.00112 13.3696 6.99544 13.3723C6.98984 13.3749 6.98423 13.3775 6.97854 13.3801C6.97295 13.3825 6.96734 13.385 6.96166 13.3874C6.95609 13.3898 6.95044 13.392 6.94477 13.3943C6.93919 13.3965 6.93354 13.3987 6.92788 13.4008C6.92228 13.4029 6.91667 13.405 6.91099 13.407C6.9054 13.409 6.89977 13.411 6.89409 13.4129C6.88851 13.4147 6.88288 13.4165 6.87721 13.4183C6.87163 13.4201 6.86598 13.4217 6.86033 13.4234C6.85473 13.4251 6.84909 13.4267 6.84343 13.4282C6.83782 13.4298 6.83221 13.4313 6.82654 13.4328C6.82095 13.4342 6.81531 13.4356 6.80965 13.437C6.80407 13.4383 6.79843 13.4396 6.79276 13.4409C6.78717 13.4421 6.78154 13.4434 6.77588 13.4445C6.77027 13.4457 6.76466 13.4468 6.75898 13.4479C6.75339 13.449 6.74775 13.45 6.7421 13.451C6.73649 13.452 6.73087 13.4529 6.7252 13.4538L6.70832 13.4564C6.70272 13.4572 6.69708 13.458 6.69143 13.4587C6.68582 13.4595 6.68021 13.4602 6.67453 13.4609L6.65765 13.4627C6.65206 13.4633 6.64642 13.4638 6.64077 13.4643C6.63514 13.4648 6.62953 13.4654 6.62387 13.4658C6.61827 13.4662 6.61264 13.4666 6.60699 13.467C6.60138 13.4673 6.59574 13.4676 6.59009 13.4679C6.58446 13.4682 6.57887 13.4685 6.5732 13.4687C6.56761 13.469 6.56196 13.4691 6.55632 13.4693L6.53942 13.4697C6.53383 13.4697 6.52819 13.4698 6.52254 13.4698L6.51619 13.4699L6.50564 13.4698L6.48876 13.4697L6.47187 13.4695L6.45498 13.4691L6.43809 13.4687L6.42119 13.4681L6.40431 13.4675L6.38743 13.4667L6.37053 13.4658L6.35365 13.4648L6.33675 13.4637L6.31986 13.4625L6.30298 13.4612L6.28608 13.4598L6.2692 13.4583L6.2523 13.4567L6.23542 13.4549L6.21853 13.4531L6.20164 13.4512L6.18475 13.4491L6.16787 13.447L6.15097 13.4448L6.13409 13.4424L6.11719 13.44L6.1003 13.4375L6.08342 13.4348L6.06652 13.4321L6.04964 13.4292L6.03274 13.4263L6.01586 13.4233L5.99897 13.4201L5.98208 13.4169L5.96519 13.4136L5.94829 13.4102L5.93141 13.4066L5.91453 13.403L5.89763 13.3993L5.88075 13.3955L5.86385 13.3916L5.84696 13.3876L5.83008 13.3836L5.81318 13.3794L5.7963 13.3751L5.7794 13.3707L5.76252 13.3663L5.74563 13.3618L5.72874 13.3571L5.71185 13.3524L5.69497 13.3476L5.67807 13.3427L5.66119 13.3377L5.64429 13.3326L5.62741 13.3274L5.61052 13.3222L5.59362 13.3168L5.57674 13.3114L5.55984 13.3059L5.54296 13.3003L5.52607 13.2946L5.50918 13.2888L5.49229 13.2829L5.4754 13.277L5.45851 13.271L5.44163 13.2649L5.42473 13.2586L5.40785 13.2524L5.39095 13.246L5.37406 13.2396L5.35718 13.2331L5.34028 13.2265L5.3234 13.2198L5.3065 13.213L5.28962 13.2062L5.27273 13.1992L5.25584 13.1923L5.23895 13.1852L5.22206 13.178L5.20517 13.1708L5.18829 13.1635L5.17139 13.1561L5.15451 13.1486L5.13762 13.1411L5.12072 13.1335L5.10384 13.1258L5.08694 13.118L5.07006 13.1102L5.05318 13.1023L5.03628 13.0943V13.0943Z" fill="#3846A9"/>
<path fill-rule="evenodd" clip-rule="evenodd" d="M9.94434 11.0143C9.93203 11.0243 9.91992 11.0343 9.90808 11.0445V8.75153C9.90808 8.62959 9.9206 8.51057 9.94434 8.39564C9.94945 8.37097 9.9551 8.34652 9.96123 8.32224C9.96649 8.3014 9.97214 8.28074 9.97813 8.26021C9.98347 8.24193 9.98911 8.22377 9.99502 8.20574C10.0004 8.18926 10.006 8.17287 10.0119 8.15662C10.0173 8.14155 10.023 8.12656 10.0288 8.1117C10.0343 8.0978 10.0399 8.08397 10.0457 8.07024C10.0512 8.05729 10.0568 8.04443 10.0626 8.03164C10.0681 8.01949 10.0737 8.00743 10.0795 7.99544C10.085 7.98398 10.0906 7.97263 10.0964 7.96131C10.1019 7.95043 10.1075 7.93965 10.1133 7.9289C10.1188 7.91855 10.1244 7.90826 10.1301 7.89803C10.1357 7.88813 10.1413 7.87826 10.147 7.86849C10.1526 7.85899 10.1582 7.84953 10.1639 7.84014C10.1695 7.83108 10.1751 7.82207 10.1808 7.81311C10.1864 7.8044 10.192 7.79578 10.1977 7.78718C10.2033 7.77876 10.2089 7.7704 10.2146 7.76209C10.2202 7.75393 10.2258 7.74578 10.2315 7.73774C10.237 7.72995 10.2427 7.72228 10.2484 7.7146C10.2539 7.70704 10.2596 7.69952 10.2653 7.69205C10.2709 7.68469 10.2764 7.67732 10.2821 7.67006C10.2877 7.66302 10.2934 7.65607 10.299 7.6491C10.3046 7.64223 10.3103 7.63537 10.3159 7.62859C10.3215 7.6219 10.3271 7.61523 10.3328 7.60863C10.3384 7.60218 10.3441 7.59582 10.3497 7.58946C10.3553 7.58316 10.3609 7.57682 10.3666 7.57059C10.3722 7.56449 10.3778 7.55847 10.3835 7.55246C10.3891 7.54652 10.3947 7.54062 10.4004 7.53475C10.406 7.52896 10.4116 7.52318 10.4173 7.51746C10.4228 7.51186 10.4285 7.50632 10.4341 7.50079C10.4398 7.49528 10.4453 7.48973 10.451 7.4843C10.4566 7.47899 10.4623 7.4738 10.4679 7.46856C10.4735 7.46334 10.4791 7.4581 10.4848 7.45295C10.4904 7.44791 10.4961 7.44295 10.5017 7.43798C10.5073 7.43302 10.5129 7.42807 10.5186 7.4232C10.5242 7.41839 10.5298 7.41367 10.5355 7.40893C10.5411 7.40424 10.5467 7.39954 10.5524 7.39491C10.558 7.39034 10.5636 7.38581 10.5693 7.38132C10.5749 7.37685 10.5805 7.37241 10.5862 7.36801C10.5918 7.36366 10.5974 7.35936 10.6031 7.35507C10.6087 7.35083 10.6143 7.3466 10.6199 7.34242C10.6255 7.33828 10.6312 7.33418 10.6368 7.33011C10.6424 7.32607 10.6481 7.32204 10.6537 7.31806C10.6593 7.31412 10.665 7.31024 10.6706 7.30636C10.6762 7.30251 10.6818 7.29867 10.6875 7.29488C10.6931 7.29114 10.6987 7.28746 10.7044 7.28377C10.71 7.2801 10.7156 7.27643 10.7213 7.27283C10.7269 7.26927 10.7325 7.2658 10.7382 7.2623C10.7438 7.25881 10.7494 7.25528 10.7551 7.25186C10.7607 7.24847 10.7663 7.24519 10.772 7.24187C10.7776 7.23855 10.7832 7.23516 10.7888 7.23191C10.7944 7.2287 10.8001 7.22562 10.8057 7.22246C10.8114 7.21931 10.817 7.21613 10.8226 7.21305C10.8282 7.20999 10.8339 7.20705 10.8395 7.20405C10.8451 7.20107 10.8507 7.19807 10.8564 7.19514L10.8733 7.18655L10.8902 7.17816C10.8958 7.17541 10.9014 7.17264 10.9071 7.16995C10.9127 7.16727 10.9183 7.16468 10.924 7.16206C10.9296 7.15946 10.9352 7.15677 10.9409 7.15422C10.9465 7.15168 10.9521 7.1493 10.9578 7.14683C10.9634 7.14437 10.969 7.14186 10.9746 7.13945C10.9802 7.13707 10.9859 7.13476 10.9915 7.13243L11.0084 7.12554C11.014 7.12328 11.0197 7.12102 11.0253 7.11883C11.0309 7.11664 11.0366 7.11454 11.0422 7.11241C11.0478 7.11028 11.0534 7.10808 11.0591 7.10601C11.0647 7.10396 11.0704 7.10205 11.076 7.10006C11.0816 7.09808 11.0872 7.09606 11.0929 7.09412C11.0985 7.09219 11.1041 7.09034 11.1098 7.08848L11.1266 7.083C11.1323 7.08121 11.1379 7.07937 11.1435 7.07762C11.1491 7.0759 11.1548 7.07427 11.1604 7.0726C11.1661 7.07092 11.1717 7.0692 11.1773 7.06757C11.1829 7.06596 11.1886 7.06446 11.1942 7.06291L11.2111 7.05833C11.2167 7.05684 11.2223 7.05533 11.228 7.0539C11.2336 7.05248 11.2393 7.05115 11.2449 7.04978C11.2505 7.04841 11.2561 7.04698 11.2618 7.04566C11.2674 7.04436 11.273 7.04314 11.2787 7.04189L11.2956 7.03822C11.3012 7.03703 11.3068 7.0358 11.3124 7.03466C11.318 7.03353 11.3237 7.0325 11.3293 7.03143C11.335 7.03035 11.3406 7.02921 11.3462 7.02819L11.3631 7.02528L11.38 7.02249C11.3856 7.02158 11.3913 7.02061 11.3969 7.01976C11.4025 7.0189 11.4082 7.01819 11.4138 7.01739C11.4194 7.0166 11.425 7.01578 11.4307 7.01503L11.4476 7.01292L11.4645 7.01098C11.4701 7.01035 11.4757 7.00963 11.4813 7.00905C11.487 7.00848 11.4926 7.00806 11.4982 7.00754L11.5151 7.00605C11.5208 7.00558 11.5264 7.00511 11.532 7.00471C11.5376 7.0043 11.5433 7.00398 11.5489 7.00363C11.5545 7.00328 11.5601 7.00287 11.5658 7.00256C11.5714 7.00226 11.5771 7.00205 11.5827 7.00179L11.5996 7.00115C11.6052 7.00095 11.6108 7.00066 11.6165 7.00052C11.6221 7.00038 11.6277 7.00039 11.6334 7.00031C11.639 7.00022 11.6446 7.00013 11.6503 7.0001L11.6577 7H11.6671H11.684H11.7009H11.7178H11.7347H11.7516H11.7685H11.7854H11.8023H11.8192H11.836H11.8529H11.8698H11.8867H11.9036H11.9205H11.9374H11.9543H11.9712H11.988H12.0049H12.0218H12.0387H12.0556H12.0725H12.0894H12.1063H12.1232H12.1401H12.157H12.1739H12.1907H12.2076H12.2245H12.2414H12.2583H12.2752H12.2921H12.309H12.3259H12.3427H12.3596H12.3765H12.3934H12.4103H12.4272H12.4441H12.461H12.4779H12.4948H12.5117H12.5285H12.5454H12.5623H12.5792H12.5961H12.613H12.6299H12.6468H12.6637H12.6806H12.6974H12.7143H12.7312H12.7481H12.765H12.7819H12.7988H12.8157H12.8326H12.8495H12.8663H12.8832H12.9001H12.917H12.9339H12.9508H12.9677H12.9846H13.0015H13.0184H13.0353H13.0521H13.069H13.0859H13.1028H13.1197H13.1366H13.1535H13.1704H13.1873H13.2042H13.221H13.2379H13.2548H13.2717H13.2886H13.3055H13.3224H13.3393H13.3562H13.3731H13.39H13.4068H13.4237H13.4406H13.4575H13.4744H13.4913H13.5082H13.5251H13.542H13.5588H13.5757H13.5926H13.6095H13.6264H13.6433H13.6602H13.6771H13.694H13.7109H13.7278H13.7446H13.7615H13.7784H13.7953H13.8122H13.8291H13.846H13.8629H13.8798H13.8966H13.9135H13.9304H13.9473H13.9642H13.9811H13.998H14.0149H14.0318H14.0487H14.0656H14.0824H14.0993H14.1162H14.1331H14.15H14.1669H14.1838H14.2007H14.2176H14.2319V15.757C14.2319 15.8331 14.227 15.9081 14.2176 15.9817C14.213 16.0171 14.2073 16.0522 14.2007 16.0869C14.1956 16.1134 14.19 16.1396 14.1838 16.1656C14.1785 16.1875 14.1729 16.2093 14.1669 16.2309C14.1616 16.2498 14.1559 16.2686 14.15 16.2872C14.1446 16.3041 14.139 16.3209 14.1331 16.3376C14.1277 16.353 14.1221 16.3683 14.1162 16.3836C14.1108 16.3978 14.1052 16.4119 14.0993 16.4259C14.0939 16.4391 14.0882 16.4523 14.0824 16.4653C14.077 16.4777 14.0713 16.49 14.0656 16.5023C14.06 16.5139 14.0544 16.5256 14.0487 16.5371C14.0431 16.5481 14.0375 16.5591 14.0318 16.5701C14.0262 16.5806 14.0206 16.5911 14.0149 16.6015C14.0093 16.6115 14.0037 16.6216 13.998 16.6315C13.9925 16.6411 13.9868 16.6506 13.9811 16.66C13.9756 16.6692 13.9699 16.6783 13.9642 16.6873C13.9587 16.6962 13.953 16.7049 13.9473 16.7137C13.9417 16.7222 13.9362 16.7307 13.9304 16.7392C13.9249 16.7473 13.9192 16.7554 13.9135 16.7635C13.908 16.7714 13.9023 16.7792 13.8966 16.787C13.8911 16.7947 13.8855 16.8023 13.8798 16.8099C13.8742 16.8173 13.8686 16.8246 13.8629 16.8319C13.8573 16.839 13.8516 16.8461 13.846 16.8532C13.8404 16.8601 13.8348 16.8671 13.8291 16.8739C13.8235 16.8807 13.8179 16.8873 13.8122 16.8939C13.8066 16.9005 13.801 16.9069 13.7953 16.9134C13.7897 16.9197 13.7841 16.9261 13.7784 16.9324C13.7729 16.9385 13.7672 16.9445 13.7615 16.9506C13.7559 16.9566 13.7503 16.9627 13.7446 16.9686C13.7391 16.9744 13.7334 16.9801 13.7278 16.9859C13.7222 16.9915 13.7165 16.9972 13.7109 17.0028C13.7053 17.0083 13.6997 17.0138 13.694 17.0193C13.6884 17.0246 13.6827 17.0299 13.6771 17.0352C13.6715 17.0405 13.6659 17.0458 13.6602 17.051C13.6546 17.056 13.6489 17.061 13.6433 17.066C13.6377 17.071 13.6321 17.0761 13.6264 17.081C13.6208 17.0858 13.6151 17.0906 13.6095 17.0953C13.6039 17.1001 13.5983 17.1048 13.5926 17.1095C13.587 17.1141 13.5814 17.1186 13.5757 17.1231C13.5701 17.1276 13.5645 17.1322 13.5588 17.1366C13.5533 17.141 13.5476 17.1452 13.542 17.1495C13.5363 17.1538 13.5307 17.1581 13.5251 17.1624C13.5195 17.1665 13.5138 17.1706 13.5082 17.1747C13.5026 17.1788 13.497 17.1829 13.4913 17.1869C13.4857 17.1909 13.48 17.1947 13.4744 17.1986C13.4688 17.2025 13.4632 17.2064 13.4575 17.2103C13.4519 17.214 13.4463 17.2177 13.4406 17.2214C13.435 17.2251 13.4294 17.2288 13.4237 17.2325C13.4181 17.2361 13.4125 17.2395 13.4068 17.243C13.4012 17.2465 13.3956 17.2501 13.39 17.2535C13.3844 17.2569 13.3787 17.2602 13.3731 17.2636C13.3674 17.2669 13.3618 17.2703 13.3562 17.2736C13.3506 17.2768 13.3449 17.28 13.3393 17.2832L13.3224 17.2926L13.3055 17.3017L13.2886 17.3106C13.283 17.3136 13.2774 17.3165 13.2717 17.3194C13.2661 17.3222 13.2605 17.325 13.2548 17.3278C13.2492 17.3306 13.2436 17.3334 13.2379 17.3361C13.2323 17.3388 13.2267 17.3414 13.221 17.344C13.2154 17.3466 13.2098 17.3493 13.2042 17.3519C13.1985 17.3544 13.1929 17.3569 13.1873 17.3594L13.1704 17.3668L13.1535 17.3739L13.1366 17.3808C13.131 17.3831 13.1253 17.3854 13.1197 17.3877C13.1141 17.3899 13.1084 17.3919 13.1028 17.3941C13.0972 17.3962 13.0916 17.3984 13.0859 17.4005C13.0803 17.4026 13.0747 17.4045 13.069 17.4066L13.0521 17.4125L13.0353 17.4183C13.0296 17.4202 13.024 17.4219 13.0184 17.4238C13.0127 17.4256 13.0071 17.4275 13.0015 17.4292C12.9959 17.431 12.9902 17.4326 12.9846 17.4343L12.9677 17.4393L12.9508 17.4441C12.9452 17.4457 12.9395 17.4472 12.9339 17.4487C12.9283 17.4502 12.9227 17.4518 12.917 17.4532C12.9114 17.4547 12.9058 17.456 12.9001 17.4574C12.8945 17.4588 12.8889 17.4602 12.8832 17.4615L12.8663 17.4654L12.8495 17.4691C12.8438 17.4703 12.8382 17.4716 12.8326 17.4727C12.827 17.4739 12.8213 17.4749 12.8157 17.476L12.7988 17.4792L12.7819 17.4822C12.7763 17.4832 12.7706 17.4841 12.765 17.485C12.7594 17.486 12.7538 17.487 12.7481 17.4878C12.7425 17.4887 12.7369 17.4894 12.7312 17.4903L12.7143 17.4926C12.7087 17.4934 12.7031 17.4941 12.6974 17.4948C12.6918 17.4955 12.6862 17.4961 12.6806 17.4968C12.6749 17.4974 12.6693 17.4981 12.6637 17.4987C12.6581 17.4993 12.6524 17.4998 12.6468 17.5003L12.6299 17.5019C12.6242 17.5023 12.6187 17.5029 12.613 17.5033C12.6074 17.5037 12.6017 17.504 12.5961 17.5044L12.5792 17.5055L12.5623 17.5064C12.5567 17.5066 12.5511 17.5068 12.5454 17.507C12.5398 17.5072 12.5342 17.5075 12.5285 17.5076C12.5229 17.5078 12.5173 17.5078 12.5117 17.508L12.4948 17.5082C12.4895 17.5082 12.4843 17.5084 12.479 17.5084H12.4779H12.461H12.4441H12.4272H12.4103H12.3934H12.3765H12.3596H12.3427H12.3259H12.309H12.2921H12.2752H12.2583H12.2414H12.2245H12.2076H12.1907H12.1739H12.157H12.1401H12.1232H12.1063H12.0894H12.0725H12.0556H12.0387H12.0218H12.0049H11.988H11.9712H11.9543H11.9374H11.9205H11.9036H11.8867H11.8698H11.8529H11.836H11.8192H11.8023H11.7854H11.7685H11.7516H11.7347H11.7178H11.7009H11.684H11.6671H11.6503H11.6334H11.6165H11.5996H11.5827H11.5658H11.5489H11.532H11.5151H11.4982H11.4813H11.4645H11.4476H11.4307H11.4138H11.3969H11.38H11.3631H11.3462H11.3293H11.3124H11.2956H11.2787H11.2618H11.2449H11.228H11.2111H11.1942H11.1773H11.1604H11.1435H11.1266H11.1098H11.0929H11.076H11.0591H11.0422H11.0253H11.0084H10.9915H10.9746H10.9578H10.9409H10.924H10.9071H10.8902H10.8733H10.8564H10.8395H10.8226H10.8057H10.7888H10.772H10.7551H10.7382H10.7213H10.7044H10.6875H10.6706H10.6537H10.6368H10.6199H10.6031H10.5862H10.5693H10.5524H10.5355H10.5186H10.5017H10.4848H10.4679H10.451H10.4341H10.4173H10.4004H10.3835H10.3666H10.3497H10.3328H10.3159H10.299H10.2821H10.2653H10.2484H10.2315H10.2146H10.1977H10.1808H10.1639H10.147H10.1301H10.1133H10.0964H10.0795H10.0626H10.0457H10.0288H10.0119H9.99502H9.97813H9.96123H9.94434H9.90808V13.4646C9.91992 13.4748 9.93203 13.4848 9.94434 13.4947C9.94993 13.4992 9.95556 13.5037 9.96123 13.5082C9.96682 13.5126 9.97245 13.517 9.97813 13.5213C9.98374 13.5256 9.98933 13.5299 9.99502 13.5342C10.0006 13.5383 10.0063 13.5424 10.0119 13.5465C10.0175 13.5506 10.0231 13.5547 10.0288 13.5587C10.0344 13.5626 10.04 13.5666 10.0457 13.5705L10.0626 13.5821C10.0682 13.5859 10.0738 13.5896 10.0795 13.5933L10.0964 13.6044C10.102 13.608 10.1076 13.6116 10.1133 13.6151C10.1188 13.6186 10.1245 13.6221 10.1301 13.6256L10.147 13.6359C10.1526 13.6392 10.1583 13.6426 10.1639 13.6459C10.1695 13.6492 10.1752 13.6524 10.1808 13.6556L10.1977 13.6652L10.2146 13.6746L10.2315 13.6837C10.2371 13.6867 10.2427 13.6897 10.2484 13.6927C10.2539 13.6956 10.2596 13.6985 10.2653 13.7014L10.2821 13.71L10.299 13.7184L10.3159 13.7265C10.3216 13.7292 10.3271 13.7319 10.3328 13.7346L10.3497 13.7424L10.3666 13.7501L10.3835 13.7576L10.4004 13.7649L10.4173 13.7721L10.4341 13.7792L10.451 13.7861L10.4679 13.7928L10.4848 13.7995L10.5017 13.8059C10.5073 13.808 10.5129 13.8102 10.5186 13.8123L10.5355 13.8184C10.5411 13.8205 10.5467 13.8226 10.5524 13.8246C10.558 13.8266 10.5636 13.8285 10.5693 13.8305L10.5862 13.8364L10.6031 13.842C10.6087 13.8439 10.6143 13.8458 10.6199 13.8476C10.6255 13.8495 10.6312 13.8512 10.6368 13.8531L10.6537 13.8585L10.6706 13.8636L10.6875 13.8688L10.7044 13.8738L10.7213 13.8787L10.7382 13.8835L10.7551 13.8882L10.772 13.8928L10.7888 13.8973L10.8057 13.9018L10.8226 13.906L10.8395 13.9103L10.8564 13.9144L10.8733 13.9185L10.8902 13.9224L10.9071 13.9262L10.924 13.93L10.9409 13.9337L10.9578 13.9373L10.9746 13.9408L10.9915 13.9443L11.0084 13.9476L11.0253 13.9509L11.0422 13.9541L11.0591 13.9572L11.076 13.9603L11.0929 13.9632L11.1098 13.9661L11.1266 13.9689L11.1435 13.9717L11.1604 13.9744L11.1773 13.9769L11.1942 13.9795L11.2111 13.982L11.228 13.9844L11.2449 13.9868L11.2618 13.989L11.2787 13.9912L11.2956 13.9934L11.3124 13.9954L11.3293 13.9975L11.3462 13.9994L11.3631 14.0013L11.38 14.0032L11.3969 14.005L11.4138 14.0067L11.4307 14.0084L11.4476 14.01L11.4645 14.0115L11.4813 14.013L11.4982 14.0145L11.5151 14.0159L11.532 14.0172L11.5489 14.0185L11.5658 14.0198L11.5827 14.0209L11.5996 14.022L11.6165 14.0231L11.6334 14.0241L11.6503 14.0251L11.6671 14.0261L11.684 14.0269L11.7009 14.0277L11.7178 14.0286L11.7347 14.0293L11.7516 14.03L11.7685 14.0306L11.7854 14.0312L11.8023 14.0317L11.8192 14.0323L11.836 14.0327L11.8529 14.0331L11.8698 14.0336L11.8867 14.0339L11.9036 14.0341L11.9205 14.0344L11.9374 14.0346L11.9543 14.0347L11.9712 14.0349L11.988 14.035L12.0049 14.035L12.0218 14.035L12.0387 14.035L12.0556 14.0349L12.0725 14.0348L12.0894 14.0346L12.1063 14.0344L12.1232 14.0342L12.1401 14.034L12.157 14.0336L12.1739 14.0333L12.1907 14.0329L12.2076 14.0325L12.2245 14.032L12.2414 14.0316L12.2583 14.0311L12.2752 14.0305L12.2921 14.0299L12.309 14.0293L12.3259 14.0286L12.3427 14.0279L12.3596 14.0272L12.3679 14.0269L12.3765 14.0264L12.3934 14.0256L12.4103 14.0247L12.4272 14.0238L12.4441 14.0228L12.461 14.0217L12.4779 14.0206L12.4948 14.0195L12.5117 14.0182L12.5285 14.017L12.5454 14.0156L12.5623 14.0142L12.5792 14.0128L12.5961 14.0113L12.613 14.0098L12.6299 14.0082L12.6468 14.0066L12.6637 14.0049L12.6806 14.0032L12.6974 14.0014L12.7143 13.9996L12.7312 13.9977L12.7481 13.9958L12.765 13.9939L12.7819 13.9919L12.7988 13.9898L12.8157 13.9878L12.8326 13.9857L12.8495 13.9835L12.8663 13.9813L12.8832 13.9791L12.9001 13.9768L12.917 13.9745L12.9339 13.9721L12.9508 13.9698L12.9677 13.9673L12.9846 13.9649L13.0015 13.9623L13.0184 13.9598L13.0353 13.9572L13.0521 13.9546L13.069 13.952L13.0859 13.9493L13.1028 13.9466L13.1197 13.9438L13.1366 13.941L13.1535 13.9382L13.1704 13.9354L13.1873 13.9325L13.2042 13.9295L13.221 13.9266L13.2379 13.9236L13.2548 13.9206L13.2717 13.9175L13.2886 13.9144L13.3055 13.9113L13.3224 13.9081L13.3393 13.9049L13.3562 13.9017L13.3731 13.8985L13.39 13.8952L13.4068 13.8919L13.4237 13.8885L13.4406 13.8851L13.4575 13.8817L13.4744 13.8782L13.4913 13.8747L13.5082 13.8712L13.5251 13.8677L13.542 13.8641L13.5588 13.8604L13.5757 13.8568L13.5926 13.8531L13.6095 13.8493L13.6264 13.8456L13.6433 13.8417L13.6602 13.8379L13.6771 13.834L13.694 13.83L13.7109 13.826L13.7278 13.8219L13.7446 13.8178V13.0769L13.7278 13.0853L13.7109 13.0936L13.694 13.1019L13.6771 13.11L13.6602 13.1182L13.6433 13.1262L13.6264 13.1341L13.6095 13.142L13.5926 13.1498L13.5757 13.1575L13.5588 13.1651L13.542 13.1726L13.5251 13.18L13.5082 13.1874L13.4913 13.1947L13.4744 13.2018L13.4575 13.2089L13.4406 13.2159L13.4237 13.2228L13.4068 13.2296L13.39 13.2364L13.3731 13.243L13.3562 13.2495L13.3393 13.256L13.3224 13.2623L13.3055 13.2685L13.2886 13.2747L13.2717 13.2808L13.2548 13.2867L13.2379 13.2926L13.221 13.2984L13.2042 13.304L13.1873 13.3096L13.1704 13.3151L13.1535 13.3205L13.1366 13.3258L13.1197 13.331L13.1028 13.3361L13.0859 13.3411L13.069 13.346L13.0521 13.3508L13.0353 13.3555L13.0184 13.3601L13.0015 13.3647L12.9846 13.3691L12.9677 13.3734L12.9508 13.3776L12.9339 13.3818L12.917 13.3858L12.9001 13.3898L12.8832 13.3936L12.8663 13.3974L12.8495 13.4011L12.8326 13.4046L12.8157 13.4081L12.7988 13.4115L12.7819 13.4148L12.765 13.418L12.7481 13.4211L12.7312 13.4241L12.7143 13.427L12.6974 13.4298L12.6806 13.4326L12.6637 13.4352L12.6468 13.4377L12.6299 13.4402L12.613 13.4426L12.5961 13.4449L12.5792 13.447L12.5623 13.4491L12.5454 13.4511L12.5285 13.453L12.5117 13.4549L12.4948 13.4566L12.4779 13.4582L12.461 13.4598L12.4441 13.4613L12.4272 13.4627L12.417 13.4635L12.4103 13.4639L12.3934 13.4651L12.3765 13.4662L12.3596 13.4671L12.3427 13.468L12.3259 13.4687L12.309 13.4693L12.2921 13.4698L12.2752 13.4702L12.2583 13.4705L12.2414 13.4707C12.2358 13.4707 12.2302 13.4706 12.2245 13.4706L12.2076 13.4705L12.1907 13.4703L12.1739 13.4699L12.157 13.4695C12.1513 13.4693 12.1457 13.469 12.1401 13.4688C12.1344 13.4686 12.1288 13.4684 12.1232 13.4681L12.1063 13.4672L12.0894 13.4662L12.0725 13.465L12.0556 13.4637C12.05 13.4632 12.0443 13.4628 12.0387 13.4623C12.0331 13.4618 12.0275 13.4612 12.0218 13.4606L12.0049 13.4589L11.988 13.4569L11.9712 13.4549L11.9543 13.4527L11.9374 13.4503C11.9317 13.4494 11.9261 13.4486 11.9205 13.4478C11.9148 13.4469 11.9092 13.4459 11.9036 13.445C11.898 13.444 11.8923 13.4432 11.8867 13.4422C11.881 13.4412 11.8755 13.4401 11.8698 13.439C11.8642 13.438 11.8585 13.437 11.8529 13.4359C11.8473 13.4347 11.8417 13.4335 11.836 13.4323C11.8304 13.4312 11.8247 13.43 11.8192 13.4288C11.8135 13.4275 11.8079 13.4262 11.8023 13.4249L11.7854 13.4209C11.7797 13.4196 11.7741 13.4181 11.7685 13.4167C11.7628 13.4152 11.7572 13.4138 11.7516 13.4123C11.7459 13.4108 11.7403 13.4092 11.7347 13.4076C11.7291 13.4061 11.7234 13.4045 11.7178 13.4028C11.7121 13.4012 11.7065 13.3994 11.7009 13.3977C11.6953 13.396 11.6896 13.3942 11.684 13.3924C11.6784 13.3906 11.6727 13.3887 11.6671 13.3869C11.6615 13.385 11.6558 13.3831 11.6503 13.3811C11.6446 13.3792 11.639 13.3771 11.6334 13.3751C11.6277 13.373 11.6221 13.371 11.6165 13.3688C11.6108 13.3667 11.6052 13.3644 11.5996 13.3622C11.5939 13.36 11.5883 13.3578 11.5827 13.3555C11.577 13.3532 11.5714 13.3507 11.5658 13.3483C11.5601 13.3459 11.5545 13.3435 11.5489 13.341C11.5432 13.3385 11.5376 13.3358 11.532 13.3332C11.5264 13.3306 11.5207 13.3279 11.5151 13.3253C11.5095 13.3225 11.5038 13.3197 11.4982 13.3169C11.4926 13.314 11.4869 13.3111 11.4813 13.3082C11.4757 13.3053 11.47 13.3023 11.4645 13.2993C11.4588 13.2962 11.4532 13.293 11.4476 13.2898C11.4419 13.2866 11.4363 13.2834 11.4307 13.2801C11.425 13.2768 11.4194 13.2734 11.4138 13.2699C11.4081 13.2665 11.4025 13.2629 11.3969 13.2594C11.3913 13.2557 11.3856 13.2522 11.38 13.2485C11.3743 13.2447 11.3687 13.2408 11.3631 13.2369C11.3574 13.233 11.3518 13.229 11.3462 13.225C11.3406 13.2209 11.3349 13.2168 11.3293 13.2127C11.3236 13.2084 11.318 13.204 11.3124 13.1996C11.3068 13.1951 11.3011 13.1907 11.2956 13.1861C11.2899 13.1815 11.2842 13.1769 11.2787 13.1721C11.273 13.1672 11.2674 13.1623 11.2618 13.1573C11.2561 13.1522 11.2505 13.147 11.2449 13.1418C11.2392 13.1365 11.2335 13.1312 11.228 13.1257C11.2223 13.1202 11.2166 13.1146 11.2111 13.109C11.2054 13.1031 11.1998 13.0971 11.1942 13.0911C11.1885 13.085 11.1829 13.0787 11.1773 13.0724C11.1716 13.066 11.166 13.0594 11.1604 13.0528C11.1547 13.046 11.1491 13.0391 11.1435 13.0322C11.1378 13.025 11.1322 13.0177 11.1266 13.0103C11.1209 13.0027 11.1153 12.995 11.1098 12.9872C11.104 12.9791 11.0984 12.9709 11.0929 12.9626C11.0871 12.9539 11.0815 12.9451 11.076 12.9363C11.0702 12.927 11.0646 12.9175 11.0591 12.908C11.0533 12.898 11.0477 12.8878 11.0422 12.8776C11.0364 12.8667 11.0308 12.8556 11.0253 12.8445C11.0195 12.8326 11.0138 12.8205 11.0084 12.8084C11.0026 12.7953 10.9969 12.782 10.9915 12.7686C10.9856 12.7537 10.98 12.7386 10.9746 12.7233C10.9687 12.7063 10.963 12.6891 10.9578 12.6716C10.9517 12.6514 10.946 12.6308 10.9409 12.6098C10.9345 12.5837 10.9289 12.5571 10.924 12.53C10.9167 12.4898 10.911 12.4484 10.9071 12.406C10.9025 12.3569 10.9002 12.3064 10.9002 12.2545C10.9002 12.2025 10.9025 12.1519 10.9071 12.1029C10.911 12.0604 10.9167 12.0191 10.924 11.9788C10.9289 11.9517 10.9345 11.925 10.9409 11.8989C10.946 11.878 10.9517 11.8574 10.9578 11.8371C10.963 11.8196 10.9687 11.8024 10.9746 11.7854C10.98 11.7701 10.9856 11.7549 10.9915 11.7401C10.9969 11.7266 11.0026 11.7134 11.0084 11.7003C11.0138 11.6881 11.0195 11.676 11.0253 11.6642C11.0308 11.653 11.0364 11.6419 11.0422 11.631C11.0477 11.6208 11.0533 11.6106 11.0591 11.6006C11.0646 11.591 11.0702 11.5816 11.076 11.5723C11.0815 11.5634 11.0871 11.5547 11.0929 11.546C11.0984 11.5377 11.104 11.5295 11.1098 11.5214C11.1153 11.5136 11.1209 11.5059 11.1266 11.4982C11.1322 11.4909 11.1378 11.4836 11.1435 11.4764C11.1491 11.4694 11.1547 11.4625 11.1604 11.4557C11.166 11.4491 11.1716 11.4425 11.1773 11.4361C11.1829 11.4298 11.1885 11.4235 11.1942 11.4174C11.1998 11.4114 11.2054 11.4054 11.2111 11.3995C11.2166 11.3939 11.2223 11.3883 11.228 11.3827C11.2335 11.3773 11.2392 11.372 11.2449 11.3667C11.2505 11.3615 11.2561 11.3563 11.2618 11.3512C11.2674 11.3462 11.273 11.3412 11.2787 11.3364C11.2842 11.3316 11.2899 11.327 11.2956 11.3224C11.3011 11.3178 11.3068 11.3133 11.3124 11.3089C11.318 11.3045 11.3236 11.3001 11.3293 11.2958C11.3349 11.2916 11.3406 11.2875 11.3462 11.2835C11.3518 11.2794 11.3574 11.2755 11.3631 11.2715C11.3687 11.2677 11.3743 11.2637 11.38 11.26C11.3856 11.2563 11.3913 11.2527 11.3969 11.2491C11.4025 11.2455 11.4081 11.242 11.4138 11.2385C11.4194 11.235 11.425 11.2316 11.4307 11.2283C11.4363 11.225 11.4419 11.2218 11.4476 11.2186C11.4532 11.2154 11.4588 11.2122 11.4645 11.2091C11.47 11.2061 11.4757 11.2031 11.4813 11.2002C11.4869 11.1973 11.4926 11.1944 11.4982 11.1915C11.5038 11.1887 11.5095 11.1859 11.5151 11.1832C11.5207 11.1804 11.5264 11.1778 11.532 11.1752C11.5376 11.1726 11.5432 11.1699 11.5489 11.1674C11.5545 11.1649 11.5601 11.1625 11.5658 11.1601C11.5714 11.1577 11.577 11.1552 11.5827 11.1529C11.5883 11.1506 11.5939 11.1484 11.5996 11.1462C11.6052 11.1439 11.6108 11.1417 11.6165 11.1395C11.6221 11.1374 11.6277 11.1354 11.6334 11.1333C11.639 11.1313 11.6446 11.1292 11.6503 11.1272C11.6558 11.1253 11.6615 11.1234 11.6671 11.1215C11.6727 11.1196 11.6784 11.1177 11.684 11.1159C11.6896 11.1141 11.6953 11.1124 11.7009 11.1107C11.7065 11.1089 11.7121 11.1072 11.7178 11.1056L11.7347 11.1007C11.7403 11.0992 11.7459 11.0976 11.7516 11.0961C11.7572 11.0946 11.7628 11.0931 11.7685 11.0917C11.7741 11.0903 11.7797 11.0888 11.7854 11.0874L11.8023 11.0835C11.8079 11.0822 11.8135 11.0808 11.8192 11.0796C11.8247 11.0784 11.8304 11.0772 11.836 11.076C11.8417 11.0748 11.8473 11.0736 11.8529 11.0725C11.8585 11.0714 11.8642 11.0704 11.8698 11.0693C11.8755 11.0683 11.881 11.0672 11.8867 11.0662C11.8923 11.0652 11.898 11.0643 11.9036 11.0634C11.9092 11.0624 11.9148 11.0615 11.9205 11.0606L11.9374 11.0581L11.9543 11.0557L11.9712 11.0534L11.988 11.0514L12.0049 11.0494L12.0218 11.0477C12.0275 11.0472 12.0331 11.0466 12.0387 11.046C12.0443 11.0455 12.05 11.0451 12.0556 11.0447L12.0725 11.0433L12.0894 11.0422L12.1063 11.0412L12.1232 11.0402C12.1288 11.0399 12.1344 11.0398 12.1401 11.0395C12.1457 11.0393 12.1513 11.039 12.157 11.0388L12.1739 11.0384L12.1907 11.038L12.2076 11.0378L12.2245 11.0377C12.2302 11.0377 12.2358 11.0376 12.2414 11.0377L12.2583 11.0379L12.2752 11.0381L12.2921 11.0385L12.309 11.0391L12.3259 11.0396L12.3427 11.0404L12.3596 11.0412L12.3765 11.0421L12.3934 11.0433L12.4103 11.0444L12.417 11.0449L12.4272 11.0457L12.4441 11.047L12.461 11.0485L12.4779 11.05L12.4948 11.0516L12.5117 11.0533L12.5285 11.0551L12.5454 11.057L12.5623 11.059L12.5792 11.0611L12.5961 11.0632L12.613 11.0655L12.6299 11.0678L12.6468 11.0702L12.6637 11.0727L12.6806 11.0754L12.6974 11.0781L12.7143 11.0808L12.7312 11.0837L12.7481 11.0867L12.765 11.0898L12.7819 11.0929L12.7988 11.0962L12.8157 11.0995L12.8326 11.103L12.8495 11.1065L12.8663 11.1102L12.8832 11.1139L12.9001 11.1177L12.917 11.1217L12.9339 11.1257L12.9508 11.1298L12.9677 11.134L12.9846 11.1383L13.0015 11.1427L13.0184 11.1472L13.0353 11.1519L13.0521 11.1566L13.069 11.1614L13.0859 11.1663L13.1028 11.1713L13.1197 11.1764L13.1366 11.1815L13.1535 11.1868L13.1704 11.1922L13.1873 11.1977L13.2042 11.2033L13.221 11.209L13.2379 11.2148L13.2548 11.2206L13.2717 11.2266L13.2886 11.2327L13.3055 11.2389L13.3224 11.2451L13.3393 11.2515L13.3562 11.258L13.3731 11.2646L13.39 11.2712L13.4068 11.278L13.4237 11.2848L13.4406 11.2918L13.4575 11.2988L13.4744 11.3059L13.4913 11.3132L13.5082 11.3205L13.5251 11.3279L13.542 11.3354L13.5588 11.343L13.5757 11.3506L13.5926 11.3584L13.6095 11.3663L13.6264 11.3742L13.6433 11.3822L13.6602 11.3903L13.6771 11.3985L13.694 11.4068L13.7109 11.4151L13.7278 11.4235L13.7446 11.432V10.6906L13.7278 10.6864L13.7109 10.6824L13.694 10.6783L13.6771 10.6744L13.6602 10.6705L13.6433 10.6666L13.6264 10.6628L13.6095 10.659L13.5926 10.6553L13.5757 10.6516L13.5588 10.6479L13.542 10.6443L13.5251 10.6407L13.5082 10.6371L13.4913 10.6336L13.4744 10.6301L13.4575 10.6267L13.4406 10.6233L13.4237 10.6199L13.4068 10.6165L13.39 10.6132L13.3731 10.6099L13.3562 10.6067L13.3393 10.6034L13.3224 10.6002L13.3055 10.5971L13.2886 10.594L13.2717 10.5909L13.2548 10.5878L13.2379 10.5848L13.221 10.5818L13.2042 10.5789L13.1873 10.5759L13.1704 10.5731L13.1535 10.5702L13.1366 10.5674L13.1197 10.5646L13.1028 10.5619L13.0859 10.5592L13.069 10.5565L13.0521 10.5538L13.0353 10.5512L13.0184 10.5486L13.0015 10.5461L12.9846 10.5436L12.9677 10.5412L12.9508 10.5387L12.9339 10.5363L12.917 10.534L12.9001 10.5317L12.8832 10.5294L12.8663 10.5272L12.8495 10.525L12.8326 10.5229L12.8157 10.5207L12.7988 10.5187L12.7819 10.5166L12.765 10.5147L12.7481 10.5127L12.7312 10.5108L12.7143 10.509L12.6974 10.5072L12.6806 10.5054L12.6637 10.5037L12.6468 10.502L12.6299 10.5004L12.613 10.4988L12.5961 10.4973L12.5792 10.4958L12.5623 10.4944L12.5454 10.493L12.5285 10.4917L12.5117 10.4904L12.4948 10.4892L12.4779 10.488L12.461 10.4869L12.4441 10.4859L12.4272 10.4849L12.4103 10.484L12.3934 10.4831L12.3765 10.4823L12.3679 10.4819L12.3596 10.4815L12.3427 10.4808L12.3259 10.4801L12.309 10.4794L12.2921 10.4788L12.2752 10.4782L12.2583 10.4777L12.2414 10.4771L12.2245 10.4767L12.2076 10.4762L12.1907 10.4758L12.1739 10.4754L12.157 10.4751L12.1401 10.4747L12.1232 10.4745L12.1063 10.4743L12.0894 10.4741L12.0725 10.4739L12.0556 10.4738L12.0387 10.4737L12.0218 10.4737L12.0049 10.4737L11.988 10.4738L11.9712 10.4738L11.9543 10.474L11.9374 10.4741L11.9205 10.4743L11.9036 10.4746L11.8867 10.4749L11.8698 10.4752L11.8529 10.4756L11.836 10.476L11.8192 10.4764L11.8023 10.477L11.7854 10.4775L11.7685 10.4781L11.7516 10.4788L11.7347 10.4795L11.7178 10.4802L11.7009 10.481L11.684 10.4818L11.6671 10.4827L11.6503 10.4836L11.6334 10.4846L11.6165 10.4856L11.5996 10.4867L11.5827 10.4879L11.5658 10.489L11.5489 10.4903L11.532 10.4916L11.5151 10.4929L11.4982 10.4943L11.4813 10.4957L11.4645 10.4972L11.4476 10.4988L11.4307 10.5004L11.4138 10.5021L11.3969 10.5038L11.38 10.5055L11.3631 10.5074L11.3462 10.5093L11.3293 10.5113L11.3124 10.5133L11.2956 10.5154L11.2787 10.5176L11.2618 10.5198L11.2449 10.522L11.228 10.5244L11.2111 10.5268L11.1942 10.5293L11.1773 10.5318L11.1604 10.5344L11.1435 10.5371L11.1266 10.5399L11.1098 10.5427L11.0929 10.5456L11.076 10.5485L11.0591 10.5516L11.0422 10.5548L11.0253 10.5579L11.0084 10.5612L10.9915 10.5645L10.9746 10.568L10.9578 10.5715L10.9409 10.5751L10.924 10.5788L10.9071 10.5826L10.8902 10.5865L10.8733 10.5904L10.8564 10.5944L10.8395 10.5985L10.8226 10.6028L10.8057 10.6071L10.7888 10.6115L10.772 10.616L10.7551 10.6206L10.7382 10.6253L10.7213 10.6301L10.7044 10.6351L10.6875 10.6401L10.6706 10.6452L10.6537 10.6504L10.6368 10.6558C10.6312 10.6576 10.6255 10.6594 10.6199 10.6612L10.6031 10.6669C10.5974 10.6688 10.5918 10.6706 10.5862 10.6725L10.5693 10.6784L10.5524 10.6843C10.5467 10.6863 10.5411 10.6884 10.5355 10.6904C10.5299 10.6925 10.5242 10.6945 10.5186 10.6966L10.5017 10.703C10.4961 10.7051 10.4904 10.7072 10.4848 10.7094L10.4679 10.7161L10.451 10.7228L10.4341 10.7297L10.4173 10.7368L10.4004 10.744L10.3835 10.7514L10.3666 10.7588L10.3497 10.7666L10.3328 10.7743C10.3271 10.777 10.3216 10.7797 10.3159 10.7824L10.299 10.7906L10.2821 10.799L10.2653 10.8076C10.2596 10.8105 10.2539 10.8133 10.2484 10.8163C10.2427 10.8192 10.2371 10.8222 10.2315 10.8253L10.2146 10.8344L10.1977 10.8437C10.192 10.8469 10.1864 10.8501 10.1808 10.8534C10.1752 10.8566 10.1695 10.8598 10.1639 10.8631C10.1583 10.8664 10.1526 10.8698 10.147 10.8731C10.1414 10.8765 10.1357 10.88 10.1301 10.8834C10.1245 10.8869 10.1188 10.8904 10.1133 10.8939C10.1076 10.8974 10.102 10.9011 10.0964 10.9047L10.0795 10.9157C10.0738 10.9194 10.0682 10.9231 10.0626 10.9269L10.0457 10.9385C10.04 10.9424 10.0344 10.9464 10.0288 10.9504C10.0231 10.9544 10.0175 10.9584 10.0119 10.9625C10.0063 10.9666 10.0006 10.9707 9.99502 10.9749C9.98933 10.9792 9.98374 10.9834 9.97813 10.9877C9.97245 10.9921 9.96682 10.9965 9.96123 11.0009C9.95556 11.0053 9.94993 11.0098 9.94434 11.0143V11.0143Z" fill="#B70100"/>
</svg>
