<svg width="24" height="24" viewBox="0 0 24 24" fill="none" xmlns="http://www.w3.org/2000/svg">
<rect x="2" y="4" width="20" height="16" rx="3" fill="white"/>
<path d="M14.1818 8.18176C12.8177 8.18176 11.5572 8.9095 10.8752 10.0909C10.1931 11.2722 10.1931 12.7277 10.8752 13.909C11.5572 15.0904 12.8177 15.8181 14.1818 15.8181C15.5459 15.8181 16.8064 15.0904 17.4885 13.909C18.1705 12.7277 18.1705 11.2722 17.4885 10.0909C16.8064 8.9095 15.5459 8.18176 14.1818 8.18176Z" fill="#FF9800"/>
<path d="M9.81818 8.18176C8.45408 8.18176 7.19359 8.9095 6.51154 10.0909C5.82949 11.2722 5.82949 12.7277 6.51154 13.909C7.19359 15.0904 8.45408 15.8181 9.81818 15.8181C11.1823 15.8181 12.4428 15.0904 13.1248 13.909C13.8069 12.7277 13.8069 11.2722 13.1248 10.0909C12.4428 8.9095 11.1823 8.18176 9.81818 8.18176Z" fill="#D50000"/>
<path d="M10.3636 11.9999C10.3636 13.2967 11.0116 14.4408 12 15.1308C12.9884 14.4408 13.6364 13.2967 13.6364 11.9999C13.6364 10.7031 12.9884 9.55902 12 8.86902C11.0116 9.55902 10.3636 10.7031 10.3636 11.9999Z" fill="#FF3D00"/>
</svg>
